<?xml version="1.0" encoding="UTF-8" standalone="no"?>
<!-- Created with Inkscape (http://www.inkscape.org/) -->

<svg
   width="1250"
   height="600"
   viewBox="0 0 330.72916 158.75"
   version="1.1"
   id="svg5"
   sodipodi:docname="bayonet.svg"
   inkscape:version="1.1.1 (c3084ef, 2021-09-22)"
   xmlns:inkscape="http://www.inkscape.org/namespaces/inkscape"
   xmlns:sodipodi="http://sodipodi.sourceforge.net/DTD/sodipodi-0.dtd"
   xmlns="http://www.w3.org/2000/svg"
   xmlns:svg="http://www.w3.org/2000/svg">
  <sodipodi:namedview
     id="namedview7"
     pagecolor="#ffffff"
     bordercolor="#666666"
     borderopacity="1.0"
     inkscape:pageshadow="2"
     inkscape:pageopacity="0.0"
     inkscape:pagecheckerboard="0"
     inkscape:document-units="mm"
     showgrid="false"
     units="px"
     inkscape:zoom="0.62350453"
     inkscape:cx="589.41031"
     inkscape:cy="307.93682"
     inkscape:window-width="1312"
     inkscape:window-height="732"
     inkscape:window-x="0"
     inkscape:window-y="25"
     inkscape:window-maximized="0"
     inkscape:current-layer="layer1" />
  <defs
     id="defs2">
    <inkscape:path-effect
       effect="bspline"
       id="path-effect2909"
       is_visible="true"
       lpeversion="1"
       weight="33.333333"
       steps="2"
       helper_size="0"
       apply_no_weight="true"
       apply_with_weight="true"
       only_selected="false" />
  </defs>
  <g
     inkscape:label="Layer 1"
     inkscape:groupmode="layer"
     id="layer1">
    <path
       style="fill:#496045;fill-opacity:1;stroke:#000000;stroke-width:3;stroke-linecap:butt;stroke-linejoin:round;stroke-miterlimit:4;stroke-dasharray:none;stroke-opacity:1"
       d="m 27.394262,92.082835 5.172089,0.136743 4.899871,-2.324649 8.574779,0.683721 2.313829,-1.367442 0.816645,1.640929 14.971836,0.546977 1.224967,-2.187906 1.224968,2.324649 14.427404,0.273489 1.497184,-1.914417 1.905508,1.640928 14.56351,-0.68372 1.088858,-3.008371 1.63329,2.187907 14.83573,-0.546977 1.49719,-2.461393 1.76939,2.187905 12.5219,-0.546977 3.53881,1.230698 3.26658,1.093951 0.68053,-29.536719 -2.85826,0.136744 -2.99436,1.777673 -13.61077,-0.410231 -2.04161,2.187906 -1.90551,-2.461396 -13.61076,-0.820464 -1.9055,2.187906 -2.177718,-2.461394 -13.610761,-0.683721 -2.041616,2.461394 -1.361076,-2.598138 -14.563511,0.410232 -1.63329,2.461395 -1.633294,-2.324649 -14.291297,0.820465 -1.361074,2.187902 -1.361077,-2.461392 -9.52753,0.820464 -5.308196,-1.777673 h -1.497184 l -1.633291,0.136745 -0.952753,0.546976 -2.041614,4.786044 -1.088861,3.145112 -0.544431,2.734884 -0.136106,4.239065 0.680537,6.563714 1.224967,5.879998 z"
       id="path1409"
       sodipodi:nodetypes="ccccccccccccccccccccccccccccccccccccccccccccccccccc" />
    <path
       style="fill:none;stroke:#000000;stroke-width:3;stroke-linecap:butt;stroke-linejoin:miter;stroke-miterlimit:4;stroke-dasharray:none;stroke-opacity:1"
       d="M 48.35483,89.211208 C 43.178403,75.825086 48.218723,64.323785 48.218723,64.323785"
       id="path1686" />
    <path
       style="fill:none;stroke:#000000;stroke-width:3;stroke-linecap:butt;stroke-linejoin:miter;stroke-miterlimit:4;stroke-dasharray:none;stroke-opacity:1"
       d="m 65.368278,89.211208 c -2.262716,-13.386122 0.13611,-25.571141 0.13611,-25.571141"
       id="path1754" />
    <path
       style="fill:none;stroke:#000000;stroke-width:3;stroke-linecap:butt;stroke-linejoin:miter;stroke-miterlimit:4;stroke-dasharray:none;stroke-opacity:1"
       d="M 82.517831,89.894929 C 85.448137,75.703748 83.062265,63.366578 83.062265,63.366578"
       id="path1822" />
    <path
       style="fill:none;stroke:#000000;stroke-width:3;stroke-linecap:butt;stroke-linejoin:miter;stroke-miterlimit:4;stroke-dasharray:none;stroke-opacity:1"
       d="m 100.07571,87.843765 c 4.57496,-12.382686 0.81665,-23.793466 0.81665,-23.793466"
       id="path1824" />
    <path
       style="fill:none;stroke:#000000;stroke-width:3;stroke-linecap:butt;stroke-linejoin:miter;stroke-miterlimit:4;stroke-dasharray:none;stroke-opacity:1"
       d="m 118.04192,87.023303 c 4.24126,-11.562224 0.27221,-21.87905 0.27221,-21.87905"
       id="path1892" />
    <path
       style="fill:#000000;fill-opacity:0.4;stroke:#000000;stroke-width:0;stroke-linecap:butt;stroke-linejoin:miter;stroke-miterlimit:4;stroke-dasharray:none;stroke-opacity:1"
       d="m 27.938692,61.588905 4.083228,-0.683721 5.308196,1.777673 15.589035,-0.892138 28.782035,-1.022279 1.361079,2.598138 2.041616,-2.461394 13.610761,0.683721 2.177718,2.461394 1.9055,-2.187906 13.61076,0.820464 1.90551,2.461396 2.04161,-2.187906 13.61077,0.410231 2.99436,-1.777673 2.85826,-0.136744 -0.25724,6.634476 -3.95069,2.053018 -51.767673,-2.326754 -48.49814,2.737357 -0.681153,-0.273736 -8.767156,-3.901573 z"
       id="path2040" />
    <path
       style="fill:#000000;fill-opacity:0.4;stroke:#000000;stroke-width:0;stroke-linecap:butt;stroke-linejoin:miter;stroke-miterlimit:4;stroke-dasharray:none;stroke-opacity:1"
       d="m 27.258154,90.852137 4.083227,0.68372 5.308196,-1.777672 15.589036,0.892137 28.782035,1.022279 1.361078,-2.598137 2.041616,2.461393 13.61076,-0.68372 2.177718,-2.461395 1.90551,2.187906 13.61076,-0.820463 1.90551,-2.461396 2.0416,2.187905 13.61078,-0.41023 2.99436,1.777673 2.85826,0.136743 -0.25724,-6.634475 -3.95069,-2.053018 -51.767681,2.326753 -48.498141,-2.737356 -0.681153,0.273735 -8.767156,3.901574 z"
       id="path2040-1" />
    <path
       style="fill:#404040;fill-opacity:1;stroke:#000000;stroke-width:3;stroke-linecap:butt;stroke-linejoin:round;stroke-miterlimit:4;stroke-dasharray:none;stroke-opacity:1"
       d="m 28.891445,61.041929 -10.837391,-0.0861 -2.599133,2.121668 0.324891,25.623251 2.436688,3.427315 9.177762,-0.04522 -1.361078,-3.145113 -0.816645,-2.87163 -0.408322,-3.008368 -0.680537,-6.563714 0.136106,-4.239065 0.544431,-2.734884 1.088861,-3.145113 2.041614,-4.786044 z"
       id="path3628" />
    <path
       style="fill:#313131;fill-opacity:1;stroke:#000000;stroke-width:3;stroke-linecap:butt;stroke-linejoin:round;stroke-miterlimit:4;stroke-dasharray:none;stroke-opacity:1"
       d="m 139.81913,61.55333 7.47486,-2.809537 29.6519,-0.222316 0.44257,0.51874 0.59009,0.296423 L 179.74882,60 h 32.6761 7.72227 10.79172 14.55649 l 23.13535,2.597297 -3.17172,4.520463 0.0737,-0.07411 -1.91773,-0.07411 -4.72069,0.148217 -1.99154,0.370527 -1.91779,0.592846 -0.88513,0.815166 -0.88515,1.111589 -0.0737,0.666953 -0.0738,1.333904 0.51633,1.630331 0.44256,0.666951 1.10641,1.037484 1.40146,0.741058 1.25394,0.518741 1.91779,0.444636 1.69649,0.14821 2.13908,-0.07411 2.95044,-0.592847 2.36034,-0.815165 0.73762,-0.741058 0.59008,-1.185693 0.14752,-1.556224 -0.44257,-1.630329 -0.88512,-1.630328 -1.18019,-1.037485 -2.28658,-0.88927 3.09801,-4.446353 49.64107,8.670388 -9.07259,5.706152 -10.91664,6.299001 -4.64694,2.593705 -3.54051,1.408011 -6.12216,2.000861 -7.89243,1.926751 -6.71225,1.185695 -7.67112,0.741059 -17.18632,0.815165 -22.20205,-0.07411 -52.22273,0.148212 -3.66407,-2.351966 -27.28347,-0.576179 z"
       id="path4167"
       sodipodi:nodetypes="cccccccccccccccccccccccccccccccccccccccccccccccccccccc" />
    <path
       style="fill:#404040;fill-opacity:1;stroke:#000000;stroke-width:3;stroke-linecap:butt;stroke-linejoin:miter;stroke-miterlimit:4;stroke-dasharray:none;stroke-opacity:1"
       d="m 139.35156,33.482388 h 6.44159 v 82.586132 h -6.70999 z"
       id="path3894" />
    <rect
       style="fill:#000000;fill-opacity:0.4;fill-rule:evenodd;stroke:#000000;stroke-width:0;stroke-linecap:round;stroke-linejoin:round;stroke-miterlimit:4;stroke-dasharray:none;stroke-opacity:0.4;paint-order:markers fill stroke"
       id="rect3951"
       width="6.2312636"
       height="42.442699"
       x="139.56189"
       y="73.625816" />
    <path
       style="fill:#000000;fill-opacity:0.4;stroke:#000000;stroke-width:0;stroke-linecap:butt;stroke-linejoin:miter;stroke-miterlimit:4;stroke-dasharray:none;stroke-opacity:1"
       d="m 166.42197,91.565057 3.75657,-4.303157 118.09133,-0.53847 -18.90159,5.563266 -48.80887,1.257393 -50.47337,0.372935 z"
       id="path4884" />
    <path
       style="fill:#313131;fill-opacity:1;stroke:#000000;stroke-width:0;stroke-linecap:butt;stroke-linejoin:miter;stroke-miterlimit:4;stroke-dasharray:none;stroke-opacity:1"
       d="m 265.63681,63.721814 3.98059,0.69552 -1.35984,1.713953 -1.55763,-0.546479 -1.16203,-0.2484 -0.9148,-0.149038 z"
       id="path5131" />
    <path
       style="fill:#000000;stroke:#000000;stroke-width:0;stroke-linecap:butt;stroke-linejoin:miter;stroke-opacity:1;fill-opacity:0.40000001;stroke-miterlimit:4;stroke-dasharray:none"
       d="m 43.501735,90.759017 c -6.676524,-15.126502 0.04184,-29.294441 0.04184,-29.294441 l 3.314065,0.397816 1.361078,2.461393 1.361075,-2.187903 4.035086,-0.523198 c 0,0 -5.479973,13.773989 -0.148106,29.769591 5.331867,15.995595 0,0 0,0 v 0 0 0 z"
       id="path6318" />
    <path
       style="fill:#000000;fill-opacity:0.4;stroke:#000000;stroke-width:0;stroke-linecap:butt;stroke-linejoin:miter;stroke-miterlimit:4;stroke-dasharray:none;stroke-opacity:1"
       d="m 62.128901,90.075297 c -5.93665,-15.12651 0.0372,-29.29444 0.0372,-29.29444 l 2.94682,0.39781 1.21025,2.4614 1.21024,-2.18791 3.58793,-0.5232 c 0,0 -4.8727,13.77399 -0.13169,29.76959 4.741,15.995603 0,0 0,0 v 0 0 0 z"
       id="path6318-5" />
    <path
       style="fill:#000000;fill-opacity:0.4;stroke:#000000;stroke-width:0;stroke-linecap:butt;stroke-linejoin:miter;stroke-miterlimit:4;stroke-dasharray:none;stroke-opacity:1"
       d="m 86.46786,90.228887 c 5.93665,-15.12651 -0.0372,-29.29444 -0.0372,-29.29444 l -2.94682,0.39781 -1.21025,2.4614 -1.21024,-2.18791 -3.58793,-0.5232 c 0,0 4.8727,13.77399 0.13169,29.76959 -4.740998,15.995603 0,0 0,0 v 0 0 0 z"
       id="path6318-5-1" />
    <path
       style="fill:#000000;fill-opacity:0.4;stroke:#000000;stroke-width:0;stroke-linecap:butt;stroke-linejoin:miter;stroke-miterlimit:4;stroke-dasharray:none;stroke-opacity:1"
       d="m 108.83315,86.711218 c 5.93665,-15.12651 -0.0372,-29.29444 -0.0372,-29.29444 l -2.94682,0.39781 -1.21025,2.4614 -1.21024,-2.18791 -5.098043,-0.5232 c 0,0 3.904553,13.716356 -0.836462,29.711956 -4.740998,15.995606 -0.06044,0.05763 -0.06044,0.05763 v 0 0 0 z"
       id="path6318-5-1-7"
       transform="translate(-3.74652,3.774311)"
       sodipodi:nodetypes="ccccccsccccc" />
    <path
       style="fill:#000000;fill-opacity:0.4;stroke:#000000;stroke-width:0;stroke-linecap:butt;stroke-linejoin:miter;stroke-miterlimit:4;stroke-dasharray:none;stroke-opacity:1"
       d="m 123.39331,88.918279 c 5.93665,-13.494752 0.88464,-25.510073 0.88464,-25.510073 l -2.46142,-0.06893 -1.46079,-0.382934 -1.21024,1.729311 -6.85185,-2.020128 c 0,0 3.15293,12.537367 -1.58809,26.807456 -4.741,14.270094 -0.0103,0.05141 -0.0103,0.05141 v 0 0 0 z"
       id="path6318-5-1-7-3"
       sodipodi:nodetypes="ccccccsccccc" />
    <path
       style="fill:#000000;stroke:#000000;stroke-width:0;stroke-linecap:butt;stroke-linejoin:miter;stroke-opacity:1;stroke-miterlimit:4;stroke-dasharray:none;fill-opacity:0.40000001"
       d="m 168.88208,59.605441 4.89299,4.744712 2.37235,1.33445 3.26199,0.59309 58.41926,-0.444818 1.18618,-0.889635 1.92754,-4.596439 -61.19357,-0.346803 -2.80293,-1.47852 z"
       id="path7783" />
    <rect
       style="fill:#000000;fill-opacity:0.4;fill-rule:evenodd;stroke:#000000;stroke-width:0;stroke-linecap:round;stroke-linejoin:round;stroke-miterlimit:4;stroke-dasharray:none;stroke-opacity:0.3;paint-order:markers fill stroke"
       id="rect8132"
       width="4.8043532"
       height="31.831625"
       x="147.29399"
       y="58.743793" />
    <path
       sodipodi:type="star"
       style="fill:#4e4e4e;fill-opacity:0.4;fill-rule:evenodd;stroke:#000000;stroke-width:0;stroke-linecap:round;stroke-linejoin:round;stroke-miterlimit:4;stroke-dasharray:none;stroke-opacity:0.3;paint-order:markers fill stroke"
       id="path8156"
       inkscape:flatsided="false"
       sodipodi:sides="4"
       sodipodi:cx="719.5437"
       sodipodi:cy="272.57401"
       sodipodi:r1="17.91955"
       sodipodi:r2="59.731834"
       sodipodi:arg1="0.37649033"
       sodipodi:arg2="1.1618885"
       inkscape:rounded="0.1"
       inkscape:randomized="0"
       d="m 736.20818,279.16229 c -1.79185,4.53233 11.55721,46.28119 7.08534,48.219 -4.47187,1.93781 -25.80577,-36.35096 -30.3381,-38.14281 -4.53233,-1.79185 -46.28119,11.55722 -48.219,7.08535 -1.93781,-4.47187 36.35095,-25.80578 38.1428,-30.33811 1.79185,-4.53233 -11.55721,-46.28118 -7.08534,-48.219 4.47187,-1.93781 25.80577,36.35096 30.3381,38.14281 4.53233,1.79185 46.28119,-11.55722 48.219,-7.08535 1.93781,4.47187 -36.35095,25.80578 -38.1428,30.33811 z"
       transform="matrix(0.26205538,-0.03648723,0.03648723,0.26205538,29.804488,33.095232)"
       inkscape:transform-center-x="0.74804874"
       inkscape:transform-center-y="-0.30361461" />
  </g>
</svg>
