<?xml version="1.0" encoding="UTF-8" standalone="no"?>
<!-- Created with Inkscape (http://www.inkscape.org/) -->

<svg
   width="1250"
   height="600"
   viewBox="0 0 330.72915 158.75"
   version="1.1"
   id="svg8"
   inkscape:version="1.1.1 (c3084ef, 2021-09-22)"
   sodipodi:docname="L96A1_loot.svg"
   xmlns:inkscape="http://www.inkscape.org/namespaces/inkscape"
   xmlns:sodipodi="http://sodipodi.sourceforge.net/DTD/sodipodi-0.dtd"
   xmlns:xlink="http://www.w3.org/1999/xlink"
   xmlns="http://www.w3.org/2000/svg"
   xmlns:svg="http://www.w3.org/2000/svg"
   xmlns:rdf="http://www.w3.org/1999/02/22-rdf-syntax-ns#"
   xmlns:cc="http://creativecommons.org/ns#"
   xmlns:dc="http://purl.org/dc/elements/1.1/">
  <defs
     id="defs2">
    <rect
       x="152.26006"
       y="-226.43804"
       width="944.79321"
       height="210.82163"
       id="rect2306" />
    <linearGradient
       id="linearGradient6006"
       inkscape:swatch="solid">
      <stop
         style="stop-color:#000000;stop-opacity:1;"
         offset="0"
         id="stop6004" />
    </linearGradient>
    <clipPath
       clipPathUnits="userSpaceOnUse"
       id="clipPath880">
      <use
         x="0"
         y="0"
         xlink:href="#g876"
         id="use882"
         width="100%"
         height="100%" />
    </clipPath>
  </defs>
  <sodipodi:namedview
     id="base"
     pagecolor="#ffffff"
     bordercolor="#666666"
     borderopacity="1.0"
     inkscape:pageopacity="0.0"
     inkscape:pageshadow="2"
     inkscape:zoom="0.50148595"
     inkscape:cx="592.23992"
     inkscape:cy="247.26515"
     inkscape:document-units="mm"
     inkscape:current-layer="layer1"
     showgrid="false"
     inkscape:window-width="1312"
     inkscape:window-height="726"
     inkscape:window-x="0"
     inkscape:window-y="25"
     inkscape:window-maximized="0"
     units="px"
     inkscape:pagecheckerboard="0" />
  <metadata
     id="metadata5">
    <rdf:RDF>
      <cc:Work
         rdf:about="">
        <dc:format>image/svg+xml</dc:format>
        <dc:type
           rdf:resource="http://purl.org/dc/dcmitype/StillImage" />
      </cc:Work>
    </rdf:RDF>
  </metadata>
  <g
     inkscape:label="Layer 1"
     inkscape:groupmode="layer"
     id="layer1"
     transform="translate(0,-138.25001)">
    <g
       id="g878"
       clip-path="url(#clipPath880)">
      <g
         inkscape:label="Clip"
         id="g876" />
    </g>
    <rect
       style="fill:#515151;fill-opacity:1;fill-rule:evenodd;stroke:#000000;stroke-width:3;stroke-linecap:round;stroke-linejoin:round;stroke-miterlimit:4;stroke-dasharray:none;stroke-opacity:1;paint-order:markers fill stroke"
       id="rect5214"
       width="6.6754813"
       height="6.0794597"
       x="126.39277"
       y="182.3559"
       ry="2.9801273" />
    <path
       style="fill:#565656;fill-opacity:1;stroke:#000000;stroke-width:3;stroke-linecap:butt;stroke-linejoin:miter;stroke-miterlimit:4;stroke-dasharray:none;stroke-opacity:1"
       d="m 115.08635,224.96763 v 6.50996 l 22.60055,-2.57941 0.12282,-11.17749 -22.72337,1.10547 z"
       id="path937" />
    <path
       style="fill:#5f6c40;fill-opacity:1;stroke:#000000;stroke-width:3;stroke-linecap:butt;stroke-linejoin:round;stroke-miterlimit:4;stroke-dasharray:none;stroke-opacity:1"
       d="m 30.002483,236.88731 -0.225715,-29.00433 44.465753,-0.11286 0.112858,9.93145 c -10.017383,5.07514 -0.564288,10.60859 -0.564288,10.60859 l -4.627132,9.02858 c 0,0 -5.358179,-2.9343 -11.962868,-8.12573 l -14.671444,1e-5 -1.805718,2.36999 -6.545725,1e-5 v 5.30399 z"
       id="path1097"
       sodipodi:nodetypes="cccccccccccc" />
    <path
       style="fill:#5f6c40;fill-opacity:1;stroke:#000000;stroke-width:3;stroke-linecap:butt;stroke-linejoin:round;stroke-miterlimit:4;stroke-dasharray:none;stroke-opacity:1"
       d="m 69.163959,237.33874 7.787138,0.22572 6.207151,3.04714 8.012872,0.11286 5.304285,-22.12003 h 12.188655 l 2.37001,6.09429 h 6.65858 c 0,0 3.47781,-7.14712 8.80287,-1.12857 l 10.94708,-0.67715 17.15431,-4.85286 h 51.5758 l 0.22572,-9.36716 -2.37001,-2.25714 -65.00582,0.22571 -1.35428,2.37 -20.20138,0.11286 -1.69286,-2.59572 h -4.62716 v 3.16001 h -4.96572 l -0.33857,-1.91869 H 81.80396 v 9.48013 c 5.304294,0.0707 4.401436,4.17572 4.401436,4.17572 -0.59362,10.31453 -12.414305,6.8843 -12.414305,6.8843 z"
       id="path2422"
       sodipodi:nodetypes="ccccccccccccccccccccccccccc" />
    <path
       style="fill:#383838;fill-opacity:1;stroke:#000000;stroke-width:3;stroke-linecap:butt;stroke-linejoin:round;stroke-miterlimit:4;stroke-dasharray:none;stroke-opacity:1"
       d="m 74.355379,217.70157 7.448581,-0.45143 v -9.48013 l -7.561439,1.1e-4 z"
       id="path3611" />
    <path
       style="fill:none;stroke:#000000;stroke-width:3;stroke-linecap:round;stroke-linejoin:miter;stroke-miterlimit:4;stroke-dasharray:none;stroke-opacity:0.3"
       d="m 120.43337,221.76919 -0.11136,5.01115"
       id="path1368" />
    <path
       style="fill:none;stroke:#000000;stroke-width:3;stroke-linecap:round;stroke-linejoin:miter;stroke-miterlimit:4;stroke-dasharray:none;stroke-opacity:0.3"
       d="m 127.55722,224.10896 -0.11128,1.80859"
       id="path1368-4" />
    <path
       style="fill:none;stroke:#000000;stroke-width:2.5;stroke-linecap:butt;stroke-linejoin:round;stroke-miterlimit:4;stroke-dasharray:none;stroke-opacity:1"
       d="m 95.347057,223.19117 c 2.252859,4.58916 4.672593,4.33884 4.672593,4.33884 h 8.344 l 2.67042,-2.83129"
       id="path1637" />
    <path
       style="fill:#000000;fill-opacity:1;stroke:#000000;stroke-width:0.322037;stroke-linecap:butt;stroke-linejoin:miter;stroke-miterlimit:4;stroke-dasharray:none;stroke-opacity:1"
       d="m 100.59508,219.56963 0.33774,1.38598 0.24973,0.62229 0.67876,1.25593 0.85104,1.20616 0.96706,1.2863 0.3305,0.0876 0.20039,-0.11468 0.14059,-0.32468 -0.0669,-0.27109 -0.57324,-0.95812 -0.33412,-0.73681 -0.20407,-0.84379 -0.0494,-1.0463 0.0737,-0.90508 0.77323,-1.63107 -4.208491,-0.0661 z"
       id="path1243" />
    <path
       style="fill:#4a4a4a;fill-opacity:1;stroke:#000000;stroke-width:3;stroke-linecap:round;stroke-linejoin:round;stroke-miterlimit:4;stroke-dasharray:none;stroke-opacity:1"
       d="m 30.002483,236.88731 -8.10254,0.12208 -5.580989,1.69856 c 0,0 2.808029,-14.03312 0.242652,-30.81681 l 13.215162,-0.008 z"
       id="path2159"
       sodipodi:nodetypes="cccccc" />
    <path
       style="fill:#4a4a4a;fill-opacity:1;stroke:#000000;stroke-width:3;stroke-linecap:butt;stroke-linejoin:round;stroke-miterlimit:4;stroke-dasharray:none;stroke-opacity:1"
       d="m 64.005172,207.59996 v -4.18695 l -30.837698,10e-4 c -5.146997,1.7e-4 -3.390706,4.46913 -3.390706,4.46913 z"
       id="path3092"
       sodipodi:nodetypes="ccscc" />
    <rect
       style="fill:#696969;fill-opacity:1;fill-rule:evenodd;stroke:#000000;stroke-width:3;stroke-linecap:round;stroke-linejoin:round;stroke-miterlimit:4;stroke-dasharray:none;stroke-opacity:1;paint-order:markers fill stroke"
       id="rect3492"
       width="152.08752"
       height="4.7546468"
       x="138.97882"
       y="201.93066" />
    <path
       style="fill:#3a3a3a;fill-opacity:1;stroke:#000000;stroke-width:3;stroke-linecap:butt;stroke-linejoin:round;stroke-miterlimit:4;stroke-dasharray:none;stroke-opacity:1"
       d="m 137.66832,209.01155 1.35427,-2.37 v -4.66711 l -43.416046,0.0912 -2.77e-4,5.51677 10.236363,0.18756 0.33857,1.91869 h 4.96572 v -3.16001 h 4.62716 l 1.69286,2.59572 z"
       id="path3593"
       sodipodi:nodetypes="cccccccccccc" />
    <rect
       style="fill:#5f5f5f;fill-opacity:1;fill-rule:evenodd;stroke:#000000;stroke-width:3;stroke-linecap:round;stroke-linejoin:round;stroke-miterlimit:4;stroke-dasharray:none;stroke-opacity:1;paint-order:markers fill stroke"
       id="rect4354"
       width="41.319427"
       height="6.7186065"
       x="111.55359"
       y="187.46381" />
    <path
       style="fill:#515151;fill-opacity:1;stroke:#000000;stroke-width:3;stroke-linecap:butt;stroke-linejoin:round;stroke-miterlimit:4;stroke-dasharray:none;stroke-opacity:1"
       d="m 111.55359,194.18242 -5.37489,2.35148 H 89.046196 V 185.44821 H 106.1787 l 5.37489,2.0156 z"
       id="path4501" />
    <path
       style="fill:#515151;fill-opacity:1;stroke:#000000;stroke-width:3;stroke-linecap:butt;stroke-linejoin:round;stroke-miterlimit:4;stroke-dasharray:none;stroke-opacity:1"
       d="m 152.87293,194.18242 22.84326,4.19911 H 195 v -14.9489 h -19.28381 l -22.84326,4.03118 z"
       id="path4864"
       sodipodi:nodetypes="ccccccc" />
    <path
       style="fill:none;stroke:#000000;stroke-width:3;stroke-linecap:butt;stroke-linejoin:miter;stroke-miterlimit:4;stroke-dasharray:none;stroke-opacity:1"
       d="m 175.71619,198.38153 v -14.9489"
       id="path5077" />
    <rect
       style="fill:#515151;fill-opacity:1;fill-rule:evenodd;stroke:#000000;stroke-width:3;stroke-linecap:round;stroke-linejoin:round;stroke-miterlimit:4;stroke-dasharray:none;stroke-opacity:1;paint-order:markers fill stroke"
       id="rect5524"
       width="17.162561"
       height="6.8743329"
       x="286.89969"
       y="200.75002" />
    <path
       style="fill:#000000;fill-opacity:0.2;stroke:#000000;stroke-width:0;stroke-linecap:butt;stroke-linejoin:miter;stroke-miterlimit:4;stroke-dasharray:none;stroke-opacity:1"
       d="M 89.046196,196.5339 H 106.1787 l 5.37489,-2.35148 h 41.31934 l 22.84326,4.19911 H 195 v -5.00918 l -19.19941,0.1678 -22.82081,-2.6848 -41.53045,-0.0839 -6.12471,1.5941 -16.444468,-0.0839 z"
       id="path5657"
       sodipodi:nodetypes="ccccccccccccc" />
    <rect
       style="fill:#515151;fill-opacity:1;fill-rule:evenodd;stroke:#000000;stroke-width:2.97094;stroke-linecap:round;stroke-linejoin:round;stroke-miterlimit:4;stroke-dasharray:none;stroke-opacity:1;paint-order:markers fill stroke"
       id="rect5318"
       width="5.0356717"
       height="14.529059"
       x="116.88508"
       y="187.43547"
       ry="0" />
    <rect
       style="fill:#515151;fill-opacity:1;fill-rule:evenodd;stroke:#000000;stroke-width:2.97094;stroke-linecap:round;stroke-linejoin:round;stroke-miterlimit:4;stroke-dasharray:none;stroke-opacity:1;paint-order:markers fill stroke"
       id="rect5318-5"
       width="5.0356717"
       height="14.529058"
       x="140.88501"
       y="187.43549"
       ry="0" />
    <rect
       style="fill:#000000;fill-opacity:0.2;fill-rule:evenodd;stroke:#000000;stroke-width:0;stroke-linecap:round;stroke-linejoin:round;stroke-miterlimit:4;stroke-dasharray:none;stroke-opacity:1;paint-order:markers fill stroke"
       id="rect5893"
       width="4.8437486"
       height="28.77314"
       x="24.933048"
       y="207.88313" />
    <path
       style="fill:#000000;fill-opacity:0.1;stroke:#000000;stroke-width:0;stroke-linecap:butt;stroke-linejoin:miter;stroke-miterlimit:4;stroke-dasharray:none;stroke-opacity:1"
       d="m 34.178204,236.88701 -4.175721,2.6e-4 -0.0298,-10.12129 h 7.992864 l 1.9817,-2.84044 18.82616,0.0661 12.154429,8.19103 6.737765,0.19817 6.27539,3.23678 2.576211,0.0661 6.275382,-21.66661 19.486796,0.0661 1.94049,5.41758 1.29233,0.0663 c 0,0 2.42927,-3.86076 6.34395,-3.86378 3.91468,-0.003 6.04629,3.66188 6.04629,3.66188 l 9.02698,-0.55354 17.24494,-4.81155 52.07545,-0.12774 -0.0771,4.1679 h -51.5758 l -17.15431,4.85285 -9.88538,1.21597 -5.40301,-3.25358 -4.46156,3.84333 h -6.65858 l -2.37001,-6.09429 H 96.475405 l -5.304285,22.12003 -9.382889,-0.28223 -10.645006,-3.70447 -5.961202,-0.76644 -8.814081,-7.23862 -13.838295,0.48032 -1.805718,2.37 h -6.545725 z"
       id="path5928"
       sodipodi:nodetypes="cccccccccccccczcccccccccccccccccccccc" />
    <rect
       style="fill:#000000;fill-opacity:0.1;fill-rule:evenodd;stroke:#000000;stroke-width:0;stroke-linecap:round;stroke-linejoin:round;stroke-miterlimit:4;stroke-dasharray:none;stroke-opacity:1;paint-order:markers fill stroke"
       id="rect6315"
       width="44.168133"
       height="4.9882259"
       x="29.776764"
       y="207.88313" />
  </g>
</svg>
