<?xml version="1.0" encoding="UTF-8" standalone="no"?>
<!-- Created with Inkscape (http://www.inkscape.org/) -->

<svg
   width="1250"
   height="600"
   viewBox="0 0 330.72915 158.75"
   version="1.1"
   id="svg8"
   inkscape:version="1.1.1 (c3084ef, 2021-09-22)"
   sodipodi:docname="MSG90A1_loot.svg"
   xmlns:inkscape="http://www.inkscape.org/namespaces/inkscape"
   xmlns:sodipodi="http://sodipodi.sourceforge.net/DTD/sodipodi-0.dtd"
   xmlns:xlink="http://www.w3.org/1999/xlink"
   xmlns="http://www.w3.org/2000/svg"
   xmlns:svg="http://www.w3.org/2000/svg"
   xmlns:rdf="http://www.w3.org/1999/02/22-rdf-syntax-ns#"
   xmlns:cc="http://creativecommons.org/ns#"
   xmlns:dc="http://purl.org/dc/elements/1.1/">
  <defs
     id="defs2">
    <linearGradient
       id="linearGradient6006"
       inkscape:swatch="solid">
      <stop
         style="stop-color:#000000;stop-opacity:1;"
         offset="0"
         id="stop6004" />
    </linearGradient>
    <clipPath
       clipPathUnits="userSpaceOnUse"
       id="clipPath880">
      <use
         x="0"
         y="0"
         xlink:href="#g876"
         id="use882"
         width="100%"
         height="100%" />
    </clipPath>
  </defs>
  <sodipodi:namedview
     id="base"
     pagecolor="#ffffff"
     bordercolor="#666666"
     borderopacity="1.0"
     inkscape:pageopacity="0.0"
     inkscape:pageshadow="2"
     inkscape:zoom="2.1364475"
     inkscape:cx="352.68828"
     inkscape:cy="396.68655"
     inkscape:document-units="mm"
     inkscape:current-layer="layer1"
     showgrid="false"
     inkscape:window-width="1312"
     inkscape:window-height="731"
     inkscape:window-x="0"
     inkscape:window-y="25"
     inkscape:window-maximized="0"
     units="px"
     inkscape:pagecheckerboard="0" />
  <metadata
     id="metadata5">
    <rdf:RDF>
      <cc:Work
         rdf:about="">
        <dc:format>image/svg+xml</dc:format>
        <dc:type
           rdf:resource="http://purl.org/dc/dcmitype/StillImage" />
      </cc:Work>
    </rdf:RDF>
  </metadata>
  <g
     inkscape:label="Layer 1"
     inkscape:groupmode="layer"
     id="layer1"
     transform="translate(0,-138.25001)">
    <rect
       style="fill:#555555;fill-opacity:1;fill-rule:evenodd;stroke:#000000;stroke-width:3;stroke-linecap:round;stroke-linejoin:miter;stroke-miterlimit:4;stroke-dasharray:none;stroke-opacity:1;paint-order:markers fill stroke"
       id="rect12471"
       width="63.605484"
       height="4.6841249"
       x="244.68388"
       y="208.14209" />
    <rect
       style="fill:#3e3e3e;fill-opacity:1;fill-rule:evenodd;stroke:#000000;stroke-width:3;stroke-linecap:round;stroke-linejoin:round;stroke-miterlimit:4;stroke-dasharray:none;stroke-opacity:1;paint-order:markers fill stroke"
       id="rect12671"
       width="15.285044"
       height="6.6563978"
       x="306.5"
       y="207.05" />
    <g
       id="g878"
       clip-path="url(#clipPath880)">
      <g
         inkscape:label="Clip"
         id="g876" />
    </g>
    <path
       style="fill:#5c5c5c;stroke:#000000;stroke-width:3;stroke-linecap:butt;stroke-linejoin:round;stroke-opacity:1;stroke-miterlimit:4;stroke-dasharray:none;fill-opacity:1"
       d="m 130.01149,226.40736 2.30692,25.70569 19.44405,-3.2956 -1.97737,-30.15476 z"
       id="path1089" />
    <path
       style="fill:none;stroke:#000000;stroke-width:2.5;stroke-linecap:round;stroke-linejoin:miter;stroke-miterlimit:4;stroke-dasharray:none;stroke-opacity:0.4"
       d="m 134.79011,225.08911 1.6478,20.43273"
       id="path1683"
       sodipodi:nodetypes="cc" />
    <path
       style="fill:none;stroke:#000000;stroke-width:2.5;stroke-linecap:round;stroke-linejoin:miter;stroke-miterlimit:4;stroke-dasharray:none;stroke-opacity:0.4"
       d="m 145.36798,221.79138 1.69436,21.46798"
       id="path1683-1"
       sodipodi:nodetypes="cc" />
    <path
       style="fill:none;stroke:#000000;stroke-width:2.5;stroke-linecap:round;stroke-linejoin:miter;stroke-miterlimit:4;stroke-dasharray:none;stroke-opacity:0.4"
       d="m 140.48144,222.78526 1.69436,21.46798"
       id="path1683-1-1"
       sodipodi:nodetypes="cc" />
    <path
       style="fill:#333333;stroke:#000000;stroke-width:3;stroke-linecap:butt;stroke-linejoin:round;stroke-opacity:1;stroke-miterlimit:4;stroke-dasharray:none;fill-opacity:1"
       d="m 149.78509,218.66269 0.0666,-17.58583 -73.034007,-0.26398 -3.519712,1.58387 0.08799,12.58297 53.675599,0.26398 2.94991,11.16366 z"
       id="path2158" />
    <path
       style="fill:#454545;stroke:#000000;stroke-width:3;stroke-linecap:butt;stroke-linejoin:round;stroke-miterlimit:4;stroke-dasharray:none;stroke-opacity:1;fill-opacity:1"
       d="m 90.192605,215.15571 v 4.57562 c 5.575748,2.25817 5.46508,6.6234 5.46508,6.6234 l 34.353805,0.0526 -2.94993,-11.16366 z"
       id="path2457"
       sodipodi:nodetypes="cccccc" />
    <path
       style="fill:#575757;stroke:#000000;stroke-width:3;stroke-linecap:butt;stroke-linejoin:round;stroke-opacity:1;stroke-miterlimit:4;stroke-dasharray:none;fill-opacity:1"
       d="m 95.657685,226.35473 -11.127698,17.04918 11.445277,6.68368 0.164661,0.0549 0.417139,0.0988 h 0.515938 l 0.340299,-0.0768 0.09879,-0.12076 0.03293,-2.61261 0.120751,-0.73549 0.526915,-1.00992 9.572733,-19.26393 z"
       id="path2696" />
    <path
       style="fill:#000000;fill-opacity:0.2;stroke:#000000;stroke-width:0;stroke-linecap:butt;stroke-linejoin:miter;stroke-miterlimit:4;stroke-dasharray:none;stroke-opacity:1"
       d="m 90.19867,241.23531 5.795997,-9.71941 c 0,0 0.375778,-0.64838 1.04598,-0.91492 0.670204,-0.26651 3.347813,0.1849 3.908903,0.54725 0.56108,0.36236 0.37824,1.0187 0.37824,1.0187 l -6.061977,11.64986 c 0,0 -0.426481,0.86405 -1.237651,0.97994 -0.811172,0.11582 -3.612639,-1.2047 -4.035788,-1.90429 -0.423151,-0.69961 0.206296,-1.65713 0.206296,-1.65713 z"
       id="path3461"
       sodipodi:nodetypes="cczzcczzc" />
    <path
       style="fill:#414141;fill-opacity:1;stroke:#000000;stroke-width:3;stroke-linecap:butt;stroke-linejoin:round;stroke-miterlimit:4;stroke-dasharray:none;stroke-opacity:1"
       d="m 149.85169,201.07686 92.30717,1.5e-4 4.40842,15.61241 -96.78219,1.97327 z"
       id="path3878"
       sodipodi:nodetypes="ccccc" />
    <rect
       style="fill:#000000;fill-opacity:0.3;fill-rule:evenodd;stroke:#000000;stroke-width:0;stroke-linecap:round;stroke-linejoin:round;stroke-miterlimit:4;stroke-dasharray:none;stroke-opacity:0.4;paint-order:markers fill stroke"
       id="rect4184"
       width="93.549507"
       height="4.9999986"
       x="148.60936"
       y="201.07701" />
    <circle
       style="fill:#000000;fill-opacity:0.3;fill-rule:evenodd;stroke:#000000;stroke-width:0;stroke-linecap:round;stroke-linejoin:round;stroke-miterlimit:4;stroke-dasharray:none;stroke-opacity:0.4;paint-order:markers fill stroke"
       id="path4506"
       cx="160"
       cy="214.25002"
       r="1.9999995" />
    <circle
       style="fill:#000000;fill-opacity:0.3;fill-rule:evenodd;stroke:#000000;stroke-width:0;stroke-linecap:round;stroke-linejoin:round;stroke-miterlimit:4;stroke-dasharray:none;stroke-opacity:0.4;paint-order:markers fill stroke"
       id="path4506-9"
       cx="165"
       cy="214.25002"
       r="1.9999995" />
    <circle
       style="fill:#000000;fill-opacity:0.3;fill-rule:evenodd;stroke:#000000;stroke-width:0;stroke-linecap:round;stroke-linejoin:round;stroke-miterlimit:4;stroke-dasharray:none;stroke-opacity:0.4;paint-order:markers fill stroke"
       id="path4506-94"
       cx="78.417511"
       cy="210.75002"
       r="1.9999995" />
    <circle
       style="fill:#000000;fill-opacity:0.3;fill-rule:evenodd;stroke:#000000;stroke-width:0;stroke-linecap:round;stroke-linejoin:round;stroke-miterlimit:4;stroke-dasharray:none;stroke-opacity:0.4;paint-order:markers fill stroke"
       id="path4506-9-2"
       cx="94"
       cy="210.75002"
       r="1.9999995" />
    <circle
       style="fill:#000000;fill-opacity:0.3;fill-rule:evenodd;stroke:#000000;stroke-width:0;stroke-linecap:round;stroke-linejoin:round;stroke-miterlimit:4;stroke-dasharray:none;stroke-opacity:0.4;paint-order:markers fill stroke"
       id="path4506-3"
       cx="232.02925"
       cy="212.8501"
       r="1.9999995" />
    <circle
       style="fill:#000000;fill-opacity:0.3;fill-rule:evenodd;stroke:#000000;stroke-width:0;stroke-linecap:round;stroke-linejoin:round;stroke-miterlimit:4;stroke-dasharray:none;stroke-opacity:0.4;paint-order:markers fill stroke"
       id="path4506-9-6"
       cx="237.02925"
       cy="212.8501"
       r="1.9999995" />
    <rect
       style="fill:#000000;fill-opacity:0.30000001;fill-rule:evenodd;stroke:#000000;stroke-width:0;stroke-linecap:round;stroke-linejoin:round;stroke-miterlimit:4;stroke-dasharray:none;stroke-opacity:0.4;paint-order:markers fill stroke"
       id="rect4767"
       width="34.628098"
       height="4.4252357"
       x="94.59845"
       y="221.92949" />
    <rect
       style="fill:#5e5e5e;fill-opacity:1;fill-rule:evenodd;stroke:#000000;stroke-width:3;stroke-linecap:round;stroke-linejoin:round;stroke-miterlimit:4;stroke-dasharray:none;stroke-opacity:1;paint-order:markers fill stroke"
       id="rect5403"
       width="22.973364"
       height="7.2040796"
       x="126.87833"
       y="201.07686" />
    <rect
       style="fill:#000000;fill-opacity:0.30000001;fill-rule:evenodd;stroke:#000000;stroke-width:0;stroke-linecap:round;stroke-linejoin:round;stroke-miterlimit:4;stroke-dasharray:none;stroke-opacity:1;paint-order:markers fill stroke"
       id="rect5679"
       width="53.683346"
       height="4.3564377"
       x="73.194977"
       y="201.07686" />
    <path
       style="fill:#000000;stroke:#000000;stroke-width:0;stroke-linecap:butt;stroke-linejoin:miter;stroke-opacity:1;stroke-miterlimit:4;stroke-dasharray:none;fill-opacity:0.30000001"
       d="m 130.01149,226.40736 -0.78494,-4.47787 20.58098,-8.1394 -0.0224,4.8726 z"
       id="path5860" />
    <path
       style="fill:#3c3c3c;fill-opacity:1;stroke:#000000;stroke-width:3;stroke-linecap:butt;stroke-linejoin:round;stroke-miterlimit:4;stroke-dasharray:none;stroke-opacity:1"
       d="m 73.29797,202.39675 -7.456022,5.03043 2.530171,1.66761 0.345022,0.34503 0.230015,0.34502 0.0575,0.20126 -0.0011,1.46617 -0.0323,0.22608 -0.0646,0.20993 -0.226084,0.19379 -0.678246,0.30683 -0.419867,0.0484 -43.017179,-0.12629 -0.312934,-0.0782 -0.156467,-0.10431 -0.156467,-0.33901 -0.02608,-3.20758 -6.46453,-0.0833 c 0,0 1.289548,12.76439 0.755362,29.00586 l 2.341619,0.0755 41.77147,-10.49952 0.617876,-0.41752 0.365575,-0.44994 0.05624,-0.56243 v -3.34641 l 0.112485,-0.3937 0.25309,-0.28121 3.763557,-1.14829 1.624774,-0.51165 1.304508,-0.23829 19.777205,2.9e-4 v -4.57562 l -16.806646,-0.17599 z"
       id="path6486"
       sodipodi:nodetypes="cccccccccccccccccccccccccccccccccc" />
    <circle
       style="fill:#000000;fill-opacity:0.3;fill-rule:evenodd;stroke:#000000;stroke-width:0;stroke-linecap:round;stroke-linejoin:round;stroke-miterlimit:4;stroke-dasharray:none;stroke-opacity:0.4;paint-order:markers fill stroke"
       id="path4506-7"
       cx="34"
       cy="216.60402"
       r="1.9999995" />
    <circle
       style="fill:#000000;fill-opacity:0.3;fill-rule:evenodd;stroke:#000000;stroke-width:0;stroke-linecap:round;stroke-linejoin:round;stroke-miterlimit:4;stroke-dasharray:none;stroke-opacity:0.4;paint-order:markers fill stroke"
       id="path4506-9-21"
       cx="45"
       cy="216.60402"
       r="1.9999995" />
    <path
       style="fill:#2c2c2c;stroke:#000000;stroke-width:3;stroke-linecap:butt;stroke-linejoin:round;stroke-opacity:1;stroke-miterlimit:4;stroke-dasharray:none;fill-opacity:1"
       d="m 23.913332,208.58191 0.03645,-3.75634 41.954923,0.0997 -0.06276,2.50189 2.530171,1.66761 0.345022,0.34503 0.230015,0.34502 0.0575,0.20126 -0.0011,1.46617 -0.0969,0.43601 -0.226087,0.19379 -0.678243,0.30683 -0.419868,0.0484 -43.017179,-0.12629 -0.312934,-0.0782 -0.156467,-0.10431 -0.156467,-0.33901 z"
       id="path7218" />
    <path
       style="fill:#000000;stroke:#000000;stroke-width:0;stroke-linecap:butt;stroke-linejoin:miter;stroke-opacity:1;stroke-miterlimit:4;stroke-dasharray:none;fill-opacity:0.30000001"
       d="m 62.223731,223.34229 -39.604532,10.14467 -0.21944,-0.0169 -0.21944,-0.0506 -0.23632,-0.25321 -0.94528,-24.10463 -3.0384,0.20256 0.86088,28.13895 2.66704,-0.37136 41.812465,-10.81877 z"
       id="path7387" />
    <path
       style="fill:#2c2c2c;stroke:#000000;stroke-width:3;stroke-linecap:butt;stroke-linejoin:round;stroke-miterlimit:4;stroke-dasharray:none;stroke-opacity:1;fill-opacity:1"
       d="M 17.448802,208.49861 12.100446,206.656 h -0.979227 l -0.629503,0.20984 -0.602764,0.81904 c 0,0 -0.2025715,0.71163 -0.1697675,0.89128 3.0359915,16.62692 0.2577949,29.9941 0.2577949,29.9941 l 0.1376136,0.41284 0.344034,0.27523 1.093393,0.003 6.652144,-1.7564 c 0,0 0.634056,-16.14586 -0.755362,-29.00632 z"
       id="path7843"
       sodipodi:nodetypes="cccccscccccc" />
    <path
       style="fill:none;stroke:#000000;stroke-width:2;stroke-linecap:butt;stroke-linejoin:round;stroke-miterlimit:4;stroke-dasharray:none;stroke-opacity:1"
       d="m 105.14448,233.16469 4.00296,2.66865 8.89547,0.089 c 0,0 2.54056,-0.63065 3.20238,-2.57969 l 1.86804,-6.49369"
       id="path8868"
       sodipodi:nodetypes="ccccc" />
    <path
       style="fill:#000000;fill-opacity:1;stroke:#000000;stroke-width:0.347322;stroke-linecap:butt;stroke-linejoin:miter;stroke-miterlimit:4;stroke-dasharray:none;stroke-opacity:1"
       d="m 110.63309,227.29138 0.35283,1.54318 0.26089,0.69287 0.70909,1.39839 0.88908,1.34297 1.01028,1.43219 0.34527,0.0976 0.20934,-0.1277 0.14686,-0.36149 -0.0699,-0.30184 -0.59886,-1.0668 -0.34905,-0.82037 -0.21318,-0.93951 -0.0516,-1.16497 0.077,-1.00773 0.80777,-1.81609 -4.39656,-0.0735 z"
       id="path1243" />
    <path
       style="fill:#373737;fill-opacity:1;stroke:#000000;stroke-width:3;stroke-linecap:butt;stroke-linejoin:round;stroke-miterlimit:4;stroke-dasharray:none;stroke-opacity:1"
       d="m 168.9493,180.86112 v 14.80175 l -15.84834,-0.14951 -10.76491,-3.28928 -42.01306,-0.44854 -8.223193,1.1961 -14.65224,0 0.299024,-10.6154 14.652241,0.14952 8.223198,0.74756 41.71403,0.59805 11.21345,-2.84074 z"
       id="path9696"
       sodipodi:nodetypes="ccccccccccccc" />
    <path
       style="fill:none;stroke:#000000;stroke-width:3;stroke-linecap:butt;stroke-linejoin:miter;stroke-opacity:1;stroke-miterlimit:4;stroke-dasharray:none"
       d="m 142.33605,183.85137 v 8.37271"
       id="path10028" />
    <path
       style="fill:none;stroke:#000000;stroke-width:3;stroke-linecap:butt;stroke-linejoin:miter;stroke-opacity:1;stroke-miterlimit:4;stroke-dasharray:none"
       d="m 100.62202,183.25332 -0.29903,8.52222"
       id="path10129" />
    <path
       style="fill:#000000;stroke:#000000;stroke-width:0;stroke-linecap:butt;stroke-linejoin:miter;stroke-opacity:1;stroke-miterlimit:4;stroke-dasharray:none;fill-opacity:0.2"
       d="m 77.896949,188.88303 h 14.943497 l 7.312774,-1.27179 43.47922,0.63589 9.77686,2.62306 15.42042,0.15898 0.11958,4.6337 -15.84834,-0.14951 -10.76491,-3.28928 -42.01306,-0.44854 -8.223194,1.1961 H 77.447557 Z"
       id="path11032" />
    <path
       style="fill:#414141;stroke:#000000;stroke-width:3;stroke-linecap:butt;stroke-linejoin:round;stroke-opacity:1;stroke-miterlimit:4;stroke-dasharray:none;fill-opacity:1"
       d="m 100.32299,191.77554 1.31982,8.94482 5.59606,0.11421 -1.02785,-9.02223 z"
       id="path11257" />
    <path
       style="fill:#414141;stroke:#000000;stroke-width:3;stroke-linecap:butt;stroke-linejoin:round;stroke-opacity:1;stroke-miterlimit:4;stroke-dasharray:none;fill-opacity:1"
       d="m 142.33605,192.22408 -3.34808,8.61049 -6.16709,0.1142 3.19775,-8.67961 z"
       id="path11768" />
    <path
       style="fill:#414141;fill-opacity:1;stroke:#000000;stroke-width:3;stroke-linecap:butt;stroke-linejoin:round;stroke-miterlimit:4;stroke-dasharray:none;stroke-opacity:1"
       d="m 119.24667,183.63331 -0.0543,-5.59817 8.69165,0.005 -0.0241,5.65253 z"
       id="path11836"
       sodipodi:nodetypes="ccccc" />
    <path
       style="fill:#000000;stroke:#000000;stroke-width:2;stroke-linecap:butt;stroke-linejoin:round;stroke-opacity:1;stroke-miterlimit:4;stroke-dasharray:none;fill-opacity:1"
       d="m 237.43223,200.87428 -0.0871,-5.96629 1.87263,-0.34839 0.95809,6.48888 z"
       id="path12315" />
  </g>
</svg>
