<?xml version="1.0" encoding="UTF-8" standalone="no"?>
<!-- Created with Inkscape (http://www.inkscape.org/) -->

<svg
   width="1250"
   height="600"
   viewBox="0 0 330.72916 158.75"
   version="1.1"
   id="svg5"
   inkscape:version="1.1.1 (c3084ef, 2021-09-22)"
   sodipodi:docname="P90_loot.svg"
   xmlns:inkscape="http://www.inkscape.org/namespaces/inkscape"
   xmlns:sodipodi="http://sodipodi.sourceforge.net/DTD/sodipodi-0.dtd"
   xmlns="http://www.w3.org/2000/svg"
   xmlns:svg="http://www.w3.org/2000/svg">
  <sodipodi:namedview
     id="namedview7"
     pagecolor="#ffffff"
     bordercolor="#666666"
     borderopacity="1.0"
     inkscape:pageshadow="2"
     inkscape:pageopacity="0.0"
     inkscape:pagecheckerboard="0"
     inkscape:document-units="mm"
     showgrid="false"
     units="px"
     inkscape:zoom="0.38369016"
     inkscape:cx="564.25737"
     inkscape:cy="200.68276"
     inkscape:window-width="1312"
     inkscape:window-height="732"
     inkscape:window-x="0"
     inkscape:window-y="25"
     inkscape:window-maximized="0"
     inkscape:current-layer="layer1" />
  <defs
     id="defs2" />
  <g
     inkscape:label="Layer 1"
     inkscape:groupmode="layer"
     id="layer1">
    <rect
       style="fill:#000000;fill-opacity:1;fill-rule:evenodd;stroke:#000000;stroke-width:3;stroke-linecap:round;stroke-linejoin:round;stroke-miterlimit:4;stroke-dasharray:none;stroke-opacity:1;paint-order:markers fill stroke"
       id="rect14925"
       width="0.90870047"
       height="2.8396888"
       x="190.60017"
       y="29.5" />
    <rect
       style="fill:#000000;fill-opacity:1;fill-rule:evenodd;stroke:#000000;stroke-width:3;stroke-linecap:round;stroke-linejoin:round;stroke-miterlimit:4;stroke-dasharray:none;stroke-opacity:1;paint-order:markers fill stroke"
       id="rect14925-6"
       width="0.90870047"
       height="2.8396888"
       x="195.60017"
       y="29.5" />
    <rect
       style="fill:#000000;fill-opacity:1;fill-rule:evenodd;stroke:#000000;stroke-width:3;stroke-linecap:round;stroke-linejoin:round;stroke-miterlimit:4;stroke-dasharray:none;stroke-opacity:1;paint-order:markers fill stroke"
       id="rect14925-6-5"
       width="0.90870047"
       height="2.8396888"
       x="200.60017"
       y="29.5" />
    <rect
       style="fill:#000000;fill-opacity:1;fill-rule:evenodd;stroke:#000000;stroke-width:3;stroke-linecap:round;stroke-linejoin:round;stroke-miterlimit:4;stroke-dasharray:none;stroke-opacity:1;paint-order:markers fill stroke"
       id="rect14925-6-5-0"
       width="0.90870047"
       height="2.8396888"
       x="205.60017"
       y="29.5" />
    <rect
       style="fill:#000000;fill-opacity:1;fill-rule:evenodd;stroke:#000000;stroke-width:3;stroke-linecap:round;stroke-linejoin:round;stroke-miterlimit:4;stroke-dasharray:none;stroke-opacity:1;paint-order:markers fill stroke"
       id="rect14925-6-5-0-1"
       width="0.90870047"
       height="2.8396888"
       x="210.60017"
       y="29.5" />
    <rect
       style="fill:#000000;fill-opacity:1;fill-rule:evenodd;stroke:#000000;stroke-width:3;stroke-linecap:round;stroke-linejoin:round;stroke-miterlimit:4;stroke-dasharray:none;stroke-opacity:1;paint-order:markers fill stroke"
       id="rect14925-6-5-0-1-8"
       width="0.90870047"
       height="2.8396888"
       x="215.60017"
       y="29.5" />
    <rect
       style="fill:#000000;fill-opacity:1;fill-rule:evenodd;stroke:#000000;stroke-width:3;stroke-linecap:round;stroke-linejoin:round;stroke-miterlimit:4;stroke-dasharray:none;stroke-opacity:1;paint-order:markers fill stroke"
       id="rect14925-6-5-0-1-8-2"
       width="0.90870047"
       height="2.8396888"
       x="220.60017"
       y="29.5" />
    <rect
       style="fill:#000000;fill-opacity:1;fill-rule:evenodd;stroke:#000000;stroke-width:3;stroke-linecap:round;stroke-linejoin:round;stroke-miterlimit:4;stroke-dasharray:none;stroke-opacity:1;paint-order:markers fill stroke"
       id="rect14925-6-5-0-1-8-2-1-6"
       width="0.90870047"
       height="2.8396888"
       x="225.60017"
       y="29.5" />
    <rect
       style="fill:#000000;fill-opacity:1;fill-rule:evenodd;stroke:#000000;stroke-width:3;stroke-linecap:round;stroke-linejoin:round;stroke-miterlimit:4;stroke-dasharray:none;stroke-opacity:1;paint-order:markers fill stroke"
       id="rect14925-6-5-0-1-8-2-1-6-5"
       width="0.90870047"
       height="2.8396888"
       x="230.60017"
       y="29.5" />
    <rect
       style="fill:#000000;fill-opacity:1;fill-rule:evenodd;stroke:#000000;stroke-width:3;stroke-linecap:round;stroke-linejoin:round;stroke-miterlimit:4;stroke-dasharray:none;stroke-opacity:1;paint-order:markers fill stroke"
       id="rect14925-6-5-0-1-8-2-1-6-5-9"
       width="0.90870047"
       height="2.8396888"
       x="235.60017"
       y="29.5" />
    <rect
       style="fill:#000000;fill-opacity:1;fill-rule:evenodd;stroke:#000000;stroke-width:3;stroke-linecap:round;stroke-linejoin:round;stroke-miterlimit:4;stroke-dasharray:none;stroke-opacity:1;paint-order:markers fill stroke"
       id="rect14925-6-5-0-1-8-2-1-6-5-9-5"
       width="0.90870047"
       height="2.8396888"
       x="240.60017"
       y="29.5" />
    <rect
       style="fill:#000000;fill-opacity:1;fill-rule:evenodd;stroke:#000000;stroke-width:3;stroke-linecap:round;stroke-linejoin:round;stroke-miterlimit:4;stroke-dasharray:none;stroke-opacity:1;paint-order:markers fill stroke"
       id="rect14925-6-5-0-1-8-2-1-6-5-9-5-1"
       width="0.90870047"
       height="2.8396888"
       x="245.60017"
       y="29.5" />
    <rect
       style="fill:#000000;fill-opacity:1;fill-rule:evenodd;stroke:#000000;stroke-width:3;stroke-linecap:round;stroke-linejoin:round;stroke-miterlimit:4;stroke-dasharray:none;stroke-opacity:1;paint-order:markers fill stroke"
       id="rect14925-6-5-0-1-8-2-1-6-5-9-5-1-0"
       width="0.90870047"
       height="2.8396888"
       x="250.60017"
       y="29.5" />
    <rect
       style="fill:#000000;fill-opacity:1;fill-rule:evenodd;stroke:#000000;stroke-width:3;stroke-linecap:round;stroke-linejoin:round;stroke-miterlimit:4;stroke-dasharray:none;stroke-opacity:1;paint-order:markers fill stroke"
       id="rect14925-6-5-0-1-8-2-1-6-5-9-5-1-0-5"
       width="0.90870047"
       height="2.8396888"
       x="255.60016"
       y="29.5" />
    <rect
       style="fill:#000000;fill-opacity:1;fill-rule:evenodd;stroke:#000000;stroke-width:3;stroke-linecap:round;stroke-linejoin:round;stroke-miterlimit:4;stroke-dasharray:none;stroke-opacity:1;paint-order:markers fill stroke"
       id="rect14925-6-5-0-1-8-2-1-6-5-9-5-1-0-5-0-9"
       width="0.90870047"
       height="2.8396888"
       x="260.60016"
       y="29.5" />
    <rect
       style="fill:#000000;fill-opacity:1;fill-rule:evenodd;stroke:#000000;stroke-width:3;stroke-linecap:round;stroke-linejoin:round;stroke-miterlimit:4;stroke-dasharray:none;stroke-opacity:1;paint-order:markers fill stroke"
       id="rect14925-6-5-0-1-8-2-1-6-5-9-5-1-0-5-0-9-5"
       width="0.90870047"
       height="2.8396888"
       x="265.60016"
       y="29.5" />
    <rect
       style="fill:#000000;fill-opacity:1;fill-rule:evenodd;stroke:#000000;stroke-width:3;stroke-linecap:round;stroke-linejoin:round;stroke-miterlimit:4;stroke-dasharray:none;stroke-opacity:1;paint-order:markers fill stroke"
       id="rect14925-6-5-0-1-8-2-1-6-5-9-5-1-0-5-0-9-5-3"
       width="0.90870047"
       height="2.8396888"
       x="270.60016"
       y="29.5" />
    <rect
       style="fill:#4c2f1f;fill-opacity:1;fill-rule:evenodd;stroke:#000000;stroke-width:3.04501;stroke-linecap:round;stroke-linejoin:round;stroke-miterlimit:4;stroke-dasharray:none;stroke-opacity:1;paint-order:markers fill stroke"
       id="rect10914"
       width="133.55513"
       height="10.970185"
       x="117.49903"
       y="57.016697" />
    <path
       style="fill:#aa7e51;fill-opacity:1;stroke:#000000;stroke-width:3;stroke-linecap:butt;stroke-linejoin:round;stroke-miterlimit:4;stroke-dasharray:none;stroke-opacity:1"
       d="m 199.41924,80.098309 67.02411,0.450837 3.90724,5.410017 -2.40446,20.287567 -8.71614,-0.15028 -0.4461,-7.074607 -0.10746,-0.940252 -0.24178,-0.725337 -0.3761,-0.56415 -0.3761,-0.429829 -0.53729,-0.349236 -0.51042,-0.295506 -0.53729,-0.161186 -1.0477,-0.107458 -6.33998,0.05373 -0.77906,0.05373 -0.59102,0.214913 -1.20889,0.644744 -0.59102,0.456692 -0.45669,0.671608 -0.56415,1.638723 -0.0537,0.56415 -0.10746,3.599811 -0.10746,0.8328 -0.64474,2.52524 -0.77906,2.36406 -0.51042,1.2089 -0.99398,1.77304 -1.31636,1.93423 -1.47753,1.74618 -1.37008,1.37008 -1.55813,1.26262 -1.77305,1.23576 -1.39694,0.91339 -1.85364,0.94025 -2.28346,0.99398 -2.17601,0.61788 -1.98796,0.3761 -1.8805,0.29551 -1.45068,0.16118 -15.36638,-0.21491 -0.61788,-0.16119 -0.34924,-0.40296 -0.18805,-0.3761 v -0.4567 l 2.91668,-10.72635 8.75064,-9.56646 0.69361,0.66058 0.69361,0.56149 0.75967,0.4624 1.38722,0.39635 1.28813,0.2312 0.92481,0.0991 h 0.85875 l 1.0239,-0.0661 0.95784,-0.2312 1.12299,-0.46241 0.89178,-0.66057 1.15601,-0.99087 0.72664,-0.7927 0.52847,-0.85875 0.33029,-0.759668 0.29726,-0.792697 0.2312,-0.99087 0.033,-0.693608 -0.033,-0.891783 -0.13212,-0.957839 -0.33029,-1.156015 -0.69361,-1.189046 -0.6936,-0.990869 -0.7927,-0.990868 -3.86439,-3.798334 -0.59452,-0.594522 -0.95784,-0.726638 -0.92482,-0.561493 -0.95784,-0.60479 -14.30155,0.01 -0.85875,0.06633 -0.99087,0.264231 -1.58539,0.759667 -0.92481,0.594521 -0.7927,0.69361 -0.75967,0.858753 -0.4624,0.726639 -0.46241,0.99087 -0.29726,0.990869 -0.13212,0.693608 -0.0991,1.189043 0.0661,0.825725 0.0991,0.924811 0.19818,0.627552 0.36331,0.99087 0.33029,0.66058 0.46241,0.726636 0.33029,0.528465 0.56149,0.462405 0.62755,0.231203 0.033,3.435014 14.49717,-0.0643 0.16758,0.16368 -8.75726,9.57196 0.0772,-1.15826 -0.0129,-0.74643 -0.11582,-0.54052 -0.296,-0.78504 -0.34748,-0.61774 -0.42469,-0.66921 -0.23165,-0.27026 -0.48904,-0.37322 -0.61774,-0.39895 -0.74643,-0.30887 -0.51478,-0.10295 -6.31893,-0.1287 -0.56703,0.0694 -0.43445,0.14073 -0.4472,0.20327 -0.40656,0.24393 -4.71597,4.56691 -0.54206,0.50141 -1.34161,1.13833 -1.27386,0.96217 -2.42574,1.77527 -3.56408,2.1005 -3.57581,1.763 -2.23007,0.8593 -3.43719,1.14572 -3.00753,0.73654 -1.22756,0.18414 -3.21212,0.51148 -2.00503,0.20459 -1.37078,0.0614 -21.62558,-0.16367 -2.31191,-3.72361 9.75797,-14.62481 0.81805,0.39266 0.71988,0.26178 0.8835,0.26177 1.0471,0.19634 1.07983,0.0327 1.6361,-0.0655 1.07983,-0.13088 1.37432,-0.35995 14.1032,-5.431853 0.94894,-0.458107 1.04711,-0.752608 1.01438,-0.883494 0.68717,-0.752607 0.55627,-0.818052 0.49083,-1.14527 0.45811,-1.210717 0.22905,-0.785329 0.0654,-1.014383 v -0.981662 l -0.16361,-1.047105 -0.26178,-0.818052 -0.65444,-1.243436 -0.62172,-0.719886 -2.29054,-2.004949 h -21.95649 l -1.9306,0.663345 -1.07983,0.687165 -0.94894,0.785328 -0.81805,0.883494 -0.85077,0.981663 -0.55628,0.785328 -0.7526,1.308883 -0.49084,1.079826 -0.35994,1.145272 -0.19633,1.047105 -0.16361,1.145273 0.0327,1.276159 0.19633,1.14527 0.35995,1.014384 0.52355,1.210717 0.62172,0.850768 0.88349,0.94894 0.98166,0.98166 1.178,0.8835 1.08991,0.65364 -9.75762,14.6035 -28.87214,-9.79617 -3.57937,0.12134 -1.48635,2.45702 -57.902985,-1.31763 -1.183483,-6.78947 -0.06229,-1.18349 0.747466,-21.302749 -0.373732,-1.619507 0.622888,-16.319653 0.249152,-1.744086 0.5606,-2.117817 0.747466,-2.117818 0.311444,-0.685175 0.560599,-0.747467 67.832445,-0.06229 1.86867,1.49493 v 2.429262 l -8.09754,-0.06229 -0.0623,7.910672 72.25495,0.560599 0.0623,1.744085 0.12458,0.872043 0.24915,0.934331 0.43602,0.747464 0.74747,0.685176 0.68518,0.436022 0.74746,0.249156 14.70015,0.249153 z"
       id="path927"
       sodipodi:nodetypes="ccccccccccccccccccccccccccccccccccccccccccccccccccccccccccccccccccccccccccccccccccccccccccccccccccccccccccccccccccccccccccccccccccccccccccccccccccccccccccccccccccccccccccccccccccccccccccccccccccccccccccccccccc" />
    <path
       style="fill:none;stroke:#000000;stroke-width:3;stroke-linecap:butt;stroke-linejoin:round;stroke-miterlimit:4;stroke-dasharray:none;stroke-opacity:1"
       d="m 199.41924,80.098309 -2.4e-4,7.921535 V 84.643 l -27.98826,5e-6 H 149.47423 L 44.94246,84.643"
       id="path5185"
       sodipodi:nodetypes="cccccc" />
    <path
       style="fill:none;stroke:#000000;stroke-width:3;stroke-linecap:round;stroke-linejoin:miter;stroke-opacity:1;stroke-miterlimit:4;stroke-dasharray:none"
       d="M 106.73508,84.731232 V 108.78768"
       id="path5461" />
    <path
       style="fill:#000000;stroke:#000000;stroke-width:0;stroke-linecap:butt;stroke-linejoin:miter;stroke-opacity:1;stroke-miterlimit:4;stroke-dasharray:none;fill-opacity:0.2"
       d="m 44.94246,84.642999 61.79262,0.08823 v 24.056451 l -1.75045,0.26171 -1.48635,2.45702 -57.902987,-1.31763 -1.245772,-7.97296 z"
       id="path5680" />
    <circle
       style="fill:#000000;fill-opacity:0.5;fill-rule:evenodd;stroke:#000000;stroke-width:0;stroke-linecap:round;stroke-linejoin:round;stroke-miterlimit:4;stroke-dasharray:none;stroke-opacity:0.3;paint-order:markers fill stroke"
       id="path5967"
       cx="81.020279"
       cy="64.882675"
       r="2.4999995" />
    <circle
       style="fill:#000000;fill-opacity:0.5;fill-rule:evenodd;stroke:#000000;stroke-width:0;stroke-linecap:round;stroke-linejoin:round;stroke-miterlimit:4;stroke-dasharray:none;stroke-opacity:0.3;paint-order:markers fill stroke"
       id="path5967-53"
       cx="126.07542"
       cy="95.511688"
       r="2.4999995" />
    <circle
       style="fill:#000000;fill-opacity:0.5;fill-rule:evenodd;stroke:#000000;stroke-width:0;stroke-linecap:round;stroke-linejoin:round;stroke-miterlimit:4;stroke-dasharray:none;stroke-opacity:0.3;paint-order:markers fill stroke"
       id="path5967-5"
       cx="50.821407"
       cy="67.561157"
       r="2.4999995" />
    <circle
       style="fill:#000000;fill-opacity:0.5;fill-rule:evenodd;stroke:#000000;stroke-width:0;stroke-linecap:round;stroke-linejoin:round;stroke-miterlimit:4;stroke-dasharray:none;stroke-opacity:0.3;paint-order:markers fill stroke"
       id="path5967-0"
       cx="66.597725"
       cy="104.53313"
       r="2.4999995" />
    <circle
       style="fill:#000000;fill-opacity:0.5;fill-rule:evenodd;stroke:#000000;stroke-width:0;stroke-linecap:round;stroke-linejoin:round;stroke-miterlimit:4;stroke-dasharray:none;stroke-opacity:0.3;paint-order:markers fill stroke"
       id="path5967-8"
       cx="101.40195"
       cy="100.19765"
       r="2.4999995" />
    <circle
       style="fill:#000000;fill-opacity:0.5;fill-rule:evenodd;stroke:#000000;stroke-width:0;stroke-linecap:round;stroke-linejoin:round;stroke-miterlimit:4;stroke-dasharray:none;stroke-opacity:0.3;paint-order:markers fill stroke"
       id="path5967-6"
       cx="174.02116"
       cy="109.95248"
       r="2.4999995" />
    <circle
       style="fill:#000000;fill-opacity:0.5;fill-rule:evenodd;stroke:#000000;stroke-width:0;stroke-linecap:round;stroke-linejoin:round;stroke-miterlimit:4;stroke-dasharray:none;stroke-opacity:0.3;paint-order:markers fill stroke"
       id="path5967-1"
       cx="185.10072"
       cy="89.599831"
       r="2.4999995" />
    <circle
       style="fill:#000000;fill-opacity:0.5;fill-rule:evenodd;stroke:#000000;stroke-width:0;stroke-linecap:round;stroke-linejoin:round;stroke-miterlimit:4;stroke-dasharray:none;stroke-opacity:0.3;paint-order:markers fill stroke"
       id="path5967-60"
       cx="222.31355"
       cy="114.64924"
       r="2.4999995" />
    <circle
       style="fill:#000000;fill-opacity:0.5;fill-rule:evenodd;stroke:#000000;stroke-width:0;stroke-linecap:round;stroke-linejoin:round;stroke-miterlimit:4;stroke-dasharray:none;stroke-opacity:0.3;paint-order:markers fill stroke"
       id="path5967-3"
       cx="242.90706"
       cy="88.756821"
       r="2.4999995" />
    <circle
       style="fill:#000000;fill-opacity:0.5;fill-rule:evenodd;stroke:#000000;stroke-width:0;stroke-linecap:round;stroke-linejoin:round;stroke-miterlimit:4;stroke-dasharray:none;stroke-opacity:0.3;paint-order:markers fill stroke"
       id="path5967-7"
       cx="263.74719"
       cy="88.997681"
       r="2.4999995" />
    <path
       style="fill:#aa7e51;fill-opacity:1;stroke:#000000;stroke-width:0;stroke-linecap:butt;stroke-linejoin:miter;stroke-miterlimit:4;stroke-dasharray:none;stroke-opacity:1"
       d="m 136.15253,116.68534 c 0.66342,0.30042 2.44878,0.81788 3.6701,3.04085 1.22131,2.22296 10.74913,-12.43868 8.82994,-13.29128 -1.91919,-0.85259 -4.30491,-2.32248 -4.30491,-2.32248 0,0 -8.85855,12.2725 -8.19513,12.57291 z"
       id="path6869"
       sodipodi:nodetypes="zzzcz" />
    <path
       style="fill:#aa7e51;fill-opacity:1;stroke:#000000;stroke-width:0;stroke-linecap:butt;stroke-linejoin:miter;stroke-miterlimit:4;stroke-dasharray:none;stroke-opacity:1"
       d="m 208.3378,108.05328 c 0,0 0.74208,2.02333 0.14506,4.4602 -0.59703,2.43687 7.27533,-2.2051 7.27533,-2.2051 l 0.28676,-6.2034 -0.63156,-0.54925 -0.18398,-0.10349 -0.22997,-0.092 -0.34495,-0.023 -2.01224,0.023 -1.04637,0.20698 -3.1736,2.87463 z"
       id="path7306"
       sodipodi:nodetypes="czcccccccccc" />
    <rect
       style="fill:#000000;fill-opacity:0.30000001;fill-rule:evenodd;stroke:#000000;stroke-width:0;stroke-linecap:round;stroke-linejoin:round;stroke-miterlimit:4;stroke-dasharray:none;stroke-opacity:0.3;paint-order:markers fill stroke"
       id="rect8279"
       width="154.69574"
       height="5.999999"
       x="44.942459"
       y="78.642998" />
    <path
       style="fill:#000000;stroke:#000000;stroke-width:0;stroke-linecap:butt;stroke-linejoin:miter;stroke-opacity:1;stroke-miterlimit:4;stroke-dasharray:none;fill-opacity:0.30000001"
       d="m 107.78919,103.56453 h 1.08634 l 29.69333,10.25989 1.54809,0.83439 0.34009,0.34009 1.74904,2.67213 18.65634,0.14576 1.21461,-0.0972 4.12966,-0.48584 3.20656,-0.58301 2.72072,-0.87452 5.87869,-2.38063 3.35232,-2.13771 7.48197,-5.63577 3.25514,-2.91505 1.16602,-0.77735 1.11744,-0.38867 1.40895,-0.29151 4.71267,-0.14575 6.70462,1.02027 1.26319,0.87451 1.02027,0.82594 0.63159,0.72876 0.48585,0.87452 0.34009,0.92309 0.2915,1.06886 0.34009,1.36036 0.0972,1.45752 -2.23487,9.32818 10.98004,0.24292 1.36035,-0.0972 3.98391,-0.97168 2.13771,-0.9231 4.66409,-2.91506 2.23487,-1.99195 2.08912,-2.4778 2.28346,-3.93532 0.6316,-1.94337 0.34009,-4.27541 0.34009,-3.255149 0.19433,-0.874517 0.48585,-1.020267 1.06885,-1.068854 1.45753,-1.117438 1.55469,-0.777349 1.21461,-0.388673 1.60328,-0.388675 7.53056,-0.145751 1.82458,0.20874 1.37895,0.564121 1.06556,0.689478 1.00288,0.877519 1.00288,0.940197 0.6268,1.128239 0.3134,0.877517 0.0627,0.564118 0.56411,8.524464 -4.21355,0.48085 -1.54754,-9.734177 -12.14267,0.510423 -5.53402,17.112564 -13.88884,9.08014 -21.84069,-0.32237 2.56243,-14.40754 -5.63624,-2.90793 -8.64982,2.69524 -14.69905,10.80771 -20.84045,3.98474 -17.27541,-0.44524 -4.97594,-4.88255 -28.02667,-8.79978 z"
       id="path8632" />
    <path
       style="fill:none;stroke:#000000;stroke-width:3;stroke-linecap:butt;stroke-linejoin:miter;stroke-miterlimit:4;stroke-dasharray:none;stroke-opacity:1"
       d="m 229.58453,98.789675 14.77325,4.557315"
       id="path8802"
       sodipodi:nodetypes="cc" />
    <path
       style="fill:#000000;stroke:#000000;stroke-width:0;stroke-linecap:butt;stroke-linejoin:miter;stroke-opacity:1;stroke-miterlimit:4;stroke-dasharray:none;fill-opacity:0.2"
       d="m 200.41993,87.031358 -1.00069,-6.933049 67.02411,0.450837 3.90724,5.410017 -2.40446,20.287567 -8.71614,-0.15028 -1.54754,-9.734177 -11.55165,0.05373 -1.77302,6.930987 -14.54205,-5.548187 -2.64232,-6.870028 -7.29941,-6.285777 -15.1603,0.07633 z"
       id="path9026" />
    <path
       style="fill:#323232;fill-opacity:1;stroke:#000000;stroke-width:3;stroke-linecap:butt;stroke-linejoin:round;stroke-miterlimit:4;stroke-dasharray:none;stroke-opacity:1"
       d="m 211.0906,101.87099 c -4.36394,-9.182457 3.74262,-17.137787 3.74262,-17.137787 l -9.26077,-0.0802 -0.85875,0.06633 -0.99087,0.264232 -1.58539,0.759666 -0.92481,0.594521 -0.7927,0.693611 -0.75967,0.858753 -0.4624,0.726638 -0.46241,0.99087 -0.29726,0.99087 -0.13212,0.693608 -0.0991,1.189043 0.1652,1.750536 0.56149,1.618422 0.33029,0.66058 0.7927,1.255101 0.56149,0.462404 0.62755,0.231204 0.033,3.435008 z"
       id="path9395"
       sodipodi:nodetypes="cccccccccccccccccccccc" />
    <path
       style="fill:#000000;stroke:#000000;stroke-width:0;stroke-linecap:butt;stroke-linejoin:miter;stroke-opacity:1;stroke-miterlimit:4;stroke-dasharray:none;fill-opacity:0.2"
       d="m 206.0685,100.87073 c -2.69738,-9.328435 3.14695,-16.184274 3.14695,-16.184274 l 5.61777,0.04675 -4.88723,9.618861 1.14461,7.518923 z"
       id="path9922" />
    <path
       style="fill:#393939;stroke:#000000;stroke-width:3;stroke-linecap:butt;stroke-linejoin:round;stroke-opacity:1;stroke-miterlimit:4;stroke-dasharray:none;fill-opacity:1"
       d="m 199.32394,73.749862 -0.075,-11.65284 6.89967,-14.472475 -16.66017,-3.029125 -5.78605,11.980556 -0.41434,0.904012 -0.15067,0.565005 -0.18833,0.90401 -0.0377,0.565007 0.001,13.088752 0.27863,0.212767 0.68518,0.436023 0.74746,0.249155 z"
       id="path10337" />
    <path
       style="fill:#000000;stroke:#000000;stroke-width:0;stroke-linecap:butt;stroke-linejoin:miter;stroke-opacity:1;stroke-miterlimit:4;stroke-dasharray:none;fill-opacity:0.2"
       d="m 194.28357,72.97159 -0.1235,-10.432624 0.0387,-0.601599 0.17186,-0.928028 0.24059,-0.756174 6.70244,-13.679839 4.83498,1.051221 -6.89967,14.472475 0.075,11.65284 z"
       id="path10504" />
    <path
       style="fill:#454545;stroke:#000000;stroke-width:3;stroke-linecap:butt;stroke-linejoin:round;stroke-opacity:1;stroke-miterlimit:4;stroke-dasharray:none;fill-opacity:1"
       d="m 109.37898,59.361162 8.09754,0.06229 0.0163,7.823237 -8.17613,0.02514 z"
       id="path11393" />
    <rect
       style="fill:#333333;fill-opacity:1;fill-rule:evenodd;stroke:#000000;stroke-width:3;stroke-linecap:round;stroke-linejoin:round;stroke-miterlimit:4;stroke-dasharray:none;stroke-opacity:1;paint-order:markers fill stroke"
       id="rect11711"
       width="37.168789"
       height="9.1687927"
       x="209.47375"
       y="37.763252" />
    <circle
       style="fill:#000000;fill-opacity:0.5;fill-rule:evenodd;stroke:#000000;stroke-width:0;stroke-linecap:round;stroke-linejoin:round;stroke-miterlimit:4;stroke-dasharray:none;stroke-opacity:0.3;paint-order:markers fill stroke"
       id="path5967-1-7"
       cx="215.47375"
       cy="42.439499"
       r="2.4999995" />
    <circle
       style="fill:#000000;fill-opacity:0.5;fill-rule:evenodd;stroke:#000000;stroke-width:0;stroke-linecap:round;stroke-linejoin:round;stroke-miterlimit:4;stroke-dasharray:none;stroke-opacity:0.3;paint-order:markers fill stroke"
       id="path5967-1-7-3"
       cx="240.47375"
       cy="42.439499"
       r="2.4999995" />
    <path
       style="fill:#404040;stroke:#000000;stroke-width:3;stroke-linecap:butt;stroke-linejoin:round;stroke-opacity:1;stroke-miterlimit:4;stroke-dasharray:none;fill-opacity:1"
       d="m 199.41924,80.098309 67.02411,0.450837 0.0758,-9.495383 h 3.64726 l 0.13507,-18.776566 -2.29643,-14.724067 -21.3625,0.210121 v 9.168794 h -37.1688 l -8.04669,-0.01953 4.72155,0.712031 -1.28412,2.726973 24.91545,3.793098 21.26055,0.0042 0.0137,2.86793 v 10.970188 l -51.78246,-0.0019 z"
       id="path12486" />
    <path
       style="fill:#000000;stroke:#000000;stroke-width:0;stroke-linecap:butt;stroke-linejoin:miter;stroke-opacity:1;stroke-miterlimit:4;stroke-dasharray:none;fill-opacity:0.30000001"
       d="m 199.41924,80.098309 67.02411,0.450837 0.0967,-5.230964 -66.86761,-0.191447 z"
       id="path13059" />
    <rect
       style="fill:#000000;fill-opacity:0.3;fill-rule:evenodd;stroke:#2d2d2d;stroke-width:2;stroke-linecap:round;stroke-linejoin:round;stroke-miterlimit:4;stroke-dasharray:none;stroke-opacity:1;paint-order:markers fill stroke"
       id="rect13411"
       width="13.29199"
       height="9.4787149"
       x="256.25217"
       y="55.455929" />
    <path
       style="fill:none;stroke:#000000;stroke-width:3;stroke-linecap:butt;stroke-linejoin:round;stroke-opacity:1;stroke-miterlimit:4;stroke-dasharray:none"
       d="m 270.16641,71.053763 0.13507,-18.776566"
       id="path14459" />
    <rect
       style="fill:#000000;fill-opacity:0.3;fill-rule:evenodd;stroke:#2d2d2d;stroke-width:0;stroke-linecap:round;stroke-linejoin:round;stroke-miterlimit:4;stroke-dasharray:none;stroke-opacity:1;paint-order:markers fill stroke"
       id="rect14549"
       width="21.621948"
       height="5.4583812"
       x="246.64255"
       y="37.763252" />
    <path
       style="fill:#323232;stroke:#000000;stroke-width:3;stroke-linecap:butt;stroke-linejoin:round;stroke-opacity:1;stroke-miterlimit:4;stroke-dasharray:none;fill-opacity:1"
       d="m 209.47375,37.763251 -20.79687,0.117261 0.14514,-5.950577 84.75947,-0.145137 0.29025,13.207383 -0.013,0.393033 -0.0595,0.238088 -0.1488,0.357129 -0.23807,0.35713 -0.47617,0.505933 -0.32737,0.327369 -0.6845,0.476174 -2.05351,1.041627 -1.86585,-11.135534 -21.3625,0.210121 z"
       id="path14703" />
    <path
       style="fill:none;stroke:#000000;stroke-width:3;stroke-linecap:butt;stroke-linejoin:miter;stroke-opacity:1;stroke-miterlimit:4;stroke-dasharray:none"
       d="m 188.67688,37.880512 0.81156,6.71491"
       id="path15592" />
    <path
       style="fill:#4e4e4e;stroke:#000000;stroke-width:3;stroke-linecap:butt;stroke-linejoin:round;stroke-opacity:1;stroke-miterlimit:4;stroke-dasharray:none;fill-opacity:1"
       d="m 188.67688,37.880512 20.79687,-0.117261 -0.002,3.910177 -20.34268,-0.116242 z"
       id="path15880" />
    <rect
       style="fill:#353535;fill-opacity:1;fill-rule:evenodd;stroke:#000000;stroke-width:3;stroke-linecap:round;stroke-linejoin:round;stroke-miterlimit:4;stroke-dasharray:none;stroke-opacity:1;paint-order:markers fill stroke"
       id="rect16342"
       width="5.2704673"
       height="9.6517448"
       x="266.51917"
       y="71.053764" />
    <path
       style="fill:#272727;stroke:#000000;stroke-width:3;stroke-linecap:butt;stroke-linejoin:miter;stroke-miterlimit:4;stroke-dasharray:none;stroke-opacity:1;fill-opacity:1"
       d="m 271.657,72.524399 18.08683,-3.99e-4 1.90156,7.164395 h -19.98845 z"
       id="path16483"
       sodipodi:nodetypes="ccccc" />
  </g>
</svg>
