<?xml version="1.0" encoding="UTF-8" standalone="no"?>
<!-- Created with Inkscape (http://www.inkscape.org/) -->

<svg
   width="1250"
   height="600"
   viewBox="0 0 330.72916 158.75"
   version="1.1"
   id="svg6492"
   inkscape:version="1.1.1 (c3084ef, 2021-09-22)"
   sodipodi:docname="G19_loot copy.svg"
   xmlns:inkscape="http://www.inkscape.org/namespaces/inkscape"
   xmlns:sodipodi="http://sodipodi.sourceforge.net/DTD/sodipodi-0.dtd"
   xmlns="http://www.w3.org/2000/svg"
   xmlns:svg="http://www.w3.org/2000/svg">
  <sodipodi:namedview
     id="namedview6494"
     pagecolor="#ffffff"
     bordercolor="#666666"
     borderopacity="1.0"
     inkscape:pageshadow="2"
     inkscape:pageopacity="0.0"
     inkscape:pagecheckerboard="0"
     inkscape:document-units="mm"
     showgrid="false"
     units="px"
     showguides="false"
     inkscape:zoom="0.73935255"
     inkscape:cx="465.94822"
     inkscape:cy="224.52077"
     inkscape:window-width="1312"
     inkscape:window-height="732"
     inkscape:window-x="0"
     inkscape:window-y="25"
     inkscape:window-maximized="0"
     inkscape:current-layer="layer1" />
  <defs
     id="defs6489" />
  <g
     inkscape:label="Layer 1"
     inkscape:groupmode="layer"
     id="layer1">
    <path
       style="fill:#3b3b3b;fill-opacity:1;stroke:#000000;stroke-width:3;stroke-linecap:butt;stroke-linejoin:round;stroke-miterlimit:4;stroke-dasharray:none;stroke-opacity:1"
       d="m 143.96649,90.407395 40.83072,-0.899357 0.71949,-0.179869 0.53961,-0.449678 0.26981,-0.809421 -0.17987,-0.809419 -0.98929,-2.60813 -0.26981,-1.079227 -0.17987,-1.978581 v -7.374712 l 0.44968,-1.528906 0.53961,-1.798709 1.2591,-3.057809 h -8.18414 l -3.0578,0.08993 3.23768,1.888646 0.44967,0.719484 0.35974,0.989293 0.26981,1.349031 v 6.565294 l -0.26981,1.349034 -0.80941,1.438968 -0.80943,0.899356 -1.43896,1.079225 -1.61884,0.449678 -29.94854,0.629549 z"
       id="path3779"
       sodipodi:nodetypes="ccccccccccccccccccccccccccc" />
    <path
       style="fill:#525252;fill-opacity:1;stroke:#000000;stroke-width:3;stroke-linecap:butt;stroke-linejoin:round;stroke-miterlimit:4;stroke-dasharray:none;stroke-opacity:1"
       d="m 108.3616,55.750642 91.39032,0.08486 -0.0849,11.540469 c -18.11619,-0.33972 -41.50841,0.124746 -44.88902,3.394255 -3.38061,3.269509 -6.44909,18.325317 -6.44909,18.325317 l -0.4912,2.673395 0.17097,1.424805 0.39895,1.367812 0.11398,0.626914 -0.057,0.341953 -1.13984,1.025861 -1.65278,1.082849 -1.02585,0.854884 -0.68391,0.96887 -0.56992,1.082854 -0.22797,1.08285 -0.17098,1.59578 0.17098,2.56465 0.22797,1.08285 -0.17098,0.56992 -0.39895,0.34196 -2.56465,1.53879 -1.13984,1.25382 -0.62691,1.65278 -0.28496,1.76675 -0.11399,2.33668 0.17098,4.14893 0.057,0.91187 -0.22797,0.45594 -0.79789,0.56992 h -1.13984 l -33.05547,-4.55938 -4.388404,-3.24855 -0.398944,-0.45594 -0.05699,-0.6839 0.227968,-0.96887 17.89555,-35.67711 0.91187,-2.906604 0.39895,-2.393672 -0.057,-1.937735 -0.85489,-2.678633 -1.4248,-1.937735 -1.31082,-1.253826 -1.25383,-0.79789 -1.99473,-0.683909 h -1.25383 -1.02585 l -1.08286,-0.455937 -0.56992,-0.797891 -0.39894,-1.139844 0.057,-1.253828 0.45593,-1.196835 z"
       id="path1041"
       sodipodi:nodetypes="ccczccccccccccccccccccccccccccccccccccccccccccccccccc" />
    <path
       style="fill:#000000;fill-opacity:0.2;stroke:#000000;stroke-width:0;stroke-linecap:butt;stroke-linejoin:miter;stroke-miterlimit:4;stroke-dasharray:none;stroke-opacity:1"
       d="m 132.78818,121.12806 c -1.81786,-2.50088 -1.21741,-11.08106 0.48012,-13.85497 1.69753,-2.77391 4.11533,-3.42944 4.11533,-3.42944 0.59997,-1.33276 -0.38916,-6.076387 0.75447,-8.162087 1.14363,-2.0857 4.59545,-2.880733 4.59545,-2.880733 -0.29714,-1.749217 1.48768,-11.166811 2.74356,-15.43251 1.25588,-4.265699 3.48941,-9.282086 4.25252,-10.151163 0.76311,-0.869077 0.51734,-1.624497 5.14417,-3.15509 4.62683,-1.530593 15.58421,-1.734908 23.11447,-2.05767 7.53026,-0.322762 7.56104,-0.324997 22.01705,0.06859 l -0.33832,5.302982 -33.81897,1.212964 -11.18,2.537791 -6.65937,22.067017 -0.68391,3.362539 -3.36254,2.906604 -2.46326,9.181986 -3.00799,3.58427 -1.19683,10.19009 c 0,0 -2.68809,1.20971 -4.50595,-1.29117 z"
       id="path2123"
       sodipodi:nodetypes="zzszszzzzccccccccccz" />
    <path
       style="fill:#000000;fill-opacity:0.2;stroke:#000000;stroke-width:0;stroke-linecap:butt;stroke-linejoin:miter;stroke-miterlimit:4;stroke-dasharray:none;stroke-opacity:1"
       d="m 103.09884,117.85985 c 10.96695,-20.560589 19.88126,-39.748823 20.06261,-40.962092 0,0 1.04677,-4.571106 1.09407,-5.939258 0,0 -0.0331,-2.311863 -0.46889,-3.751112 -0.43577,-1.439249 -1.61926,-3.589128 -2.34444,-4.688887 -0.72518,-1.099759 -0.60917,-0.92025 -1.71926,-2.031849 -1.11009,-1.111599 -3.14965,-3.572442 -5.15777,-4.376296 -2.00812,-0.803854 -6.20356,-0.359714 -6.20356,-0.359714 l -0.93137,6.028896 3.36254,0.455938 5.98418,4.673359 -0.39893,9.916644 -18.123519,36.645981 z"
       id="path2394"
       sodipodi:nodetypes="csszzzzccccccc" />
    <rect
       style="fill:#292929;fill-opacity:1;fill-rule:evenodd;stroke:#000000;stroke-width:3;stroke-linecap:round;stroke-linejoin:round;stroke-miterlimit:4;stroke-dasharray:none;paint-order:markers fill stroke"
       id="rect2917"
       width="10.982553"
       height="6.5590258"
       x="154.20294"
       y="34.502914"
       transform="rotate(15.016828)" />
    <path
       style="fill:#3b3b3b;fill-opacity:1;stroke:#000000;stroke-width:3;stroke-linecap:butt;stroke-linejoin:round;stroke-miterlimit:4;stroke-dasharray:none;stroke-opacity:1"
       d="m 106.57848,118.41223 -3.45791,5.3057 30.09355,4.01247 0.37224,-5.75787 z"
       id="path3208"
       sodipodi:nodetypes="ccccc" />
    <path
       style="fill:#424242;stroke:#000000;stroke-width:3;stroke-linecap:butt;stroke-linejoin:miter;stroke-opacity:1;stroke-miterlimit:4;stroke-dasharray:none;fill-opacity:1"
       d="m 199.75192,55.835502 27.7299,0.05289 -0.17856,11.606215 -27.63626,-0.118636 z"
       id="path4131" />
    <rect
       style="fill:#000000;fill-opacity:0.30000001;fill-rule:evenodd;stroke:#000000;stroke-width:0;stroke-linecap:round;stroke-linejoin:round;stroke-miterlimit:4;stroke-dasharray:none;paint-order:markers fill stroke"
       id="rect4419"
       width="27.297939"
       height="5.4216199"
       x="200.00531"
       y="62.072987" />
    <path
       style="fill:#404040;fill-opacity:1;stroke:#000000;stroke-width:3;stroke-linecap:butt;stroke-linejoin:miter;stroke-miterlimit:4;stroke-dasharray:none;stroke-opacity:1"
       d="m 108.3616,55.750642 0.0376,-12.534231 1.07444,-1.910117 50.0212,-0.238765 1.19416,1.074441 -3.3e-4,6.685412 H 179.551 v -6.327264 l 1.1939,-1.193824 h 47.15603 l -0.41909,14.582098 z"
       id="path4712"
       sodipodi:nodetypes="cccccccccccc" />
    <rect
       style="fill:#000000;fill-opacity:0.3;fill-rule:evenodd;stroke:#000000;stroke-width:0;stroke-linecap:round;stroke-linejoin:round;stroke-miterlimit:4;stroke-dasharray:none;paint-order:markers fill stroke"
       id="rect5399"
       width="2.841794"
       height="14.090564"
       x="113"
       y="41.442833" />
    <rect
       style="fill:#000000;fill-opacity:0.3;fill-rule:evenodd;stroke:#000000;stroke-width:0;stroke-linecap:round;stroke-linejoin:round;stroke-miterlimit:4;stroke-dasharray:none;paint-order:markers fill stroke"
       id="rect5399-8"
       width="2.841794"
       height="14.090564"
       x="117"
       y="41.442833" />
    <rect
       style="fill:#000000;fill-opacity:0.3;fill-rule:evenodd;stroke:#000000;stroke-width:0;stroke-linecap:round;stroke-linejoin:round;stroke-miterlimit:4;stroke-dasharray:none;paint-order:markers fill stroke"
       id="rect5399-8-5"
       width="2.841794"
       height="14.090564"
       x="121"
       y="41.442833" />
    <rect
       style="fill:#000000;fill-opacity:0.3;fill-rule:evenodd;stroke:#000000;stroke-width:0;stroke-linecap:round;stroke-linejoin:round;stroke-miterlimit:4;stroke-dasharray:none;paint-order:markers fill stroke"
       id="rect5399-8-5-3"
       width="2.841794"
       height="14.090564"
       x="125"
       y="41.442833" />
    <rect
       style="fill:#000000;fill-opacity:0.3;fill-rule:evenodd;stroke:#000000;stroke-width:0;stroke-linecap:round;stroke-linejoin:round;stroke-miterlimit:4;stroke-dasharray:none;paint-order:markers fill stroke"
       id="rect5399-8-5-3-7"
       width="2.841794"
       height="14.090564"
       x="129"
       y="41.442833" />
    <rect
       style="fill:#848484;fill-opacity:1;fill-rule:evenodd;stroke:#000000;stroke-width:3;stroke-linecap:round;stroke-linejoin:round;stroke-miterlimit:4;stroke-dasharray:none;paint-order:markers fill stroke"
       id="rect5657"
       width="18.862329"
       height="6.3272638"
       x="160.68867"
       y="42.500118" />
    <path
       style="fill:none;stroke:#000000;stroke-width:4;stroke-linecap:round;stroke-linejoin:miter;stroke-opacity:0.30000001;stroke-miterlimit:4;stroke-dasharray:none"
       d="M 156.83395,46.605806 H 143.28576"
       id="path5962" />
    <path
       style="fill:#6d6d6d;stroke:#000000;stroke-width:3;stroke-linecap:butt;stroke-linejoin:miter;stroke-opacity:1;stroke-miterlimit:4;stroke-dasharray:none;fill-opacity:1"
       d="m 227.82842,44.891914 h 9.40145 l -1.80195,9.323102 h -7.99123 z"
       id="path6096" />
    <path
       style="fill:#000000;fill-opacity:1;stroke:#000000;stroke-width:0.586129;stroke-linecap:butt;stroke-linejoin:miter;stroke-miterlimit:4;stroke-dasharray:none;stroke-opacity:1"
       d="m 160.25203,70.763877 0.76131,2.670837 0.50832,1.191797 1.32256,2.392145 1.60826,2.282373 1.81611,2.429524 0.57291,0.145562 0.32463,-0.238196 0.19461,-0.64222 -0.15031,-0.522331 -1.10304,-1.820758 -0.66711,-1.4082 -0.46085,-1.626156 -0.22578,-2.031735 0.003,-1.766275 1.09138,-3.231311 -7.15309,0.188394 z"
       id="path1243" />
    <path
       style="fill:#000000;stroke:#000000;stroke-width:2;stroke-linecap:butt;stroke-linejoin:miter;stroke-opacity:1;stroke-miterlimit:4;stroke-dasharray:none;fill-opacity:1"
       d="m 114.69682,40.253552 0.96763,-1.741742 h 1.67723 L 117,41.442833 Z"
       id="path6611" />
    <path
       style="fill:#000000;stroke:#000000;stroke-width:2;stroke-linecap:butt;stroke-linejoin:miter;stroke-opacity:1;stroke-miterlimit:4;stroke-dasharray:none;fill-opacity:1"
       d="m 220.55591,40.511587 v -1.935269 l 3.54799,-0.06451 1.80625,1.999777 z"
       id="path6712" />
  </g>
</svg>
