<?xml version="1.0" encoding="UTF-8" standalone="no"?>
<!-- Created with Inkscape (http://www.inkscape.org/) -->

<svg
   width="1250"
   height="600"
   viewBox="0 0 330.72916 158.75"
   version="1.1"
   id="svg6492"
   inkscape:version="1.1.1 (c3084ef, 2021-09-22)"
   sodipodi:docname="Glock_loot.svg"
   xmlns:inkscape="http://www.inkscape.org/namespaces/inkscape"
   xmlns:sodipodi="http://sodipodi.sourceforge.net/DTD/sodipodi-0.dtd"
   xmlns="http://www.w3.org/2000/svg"
   xmlns:svg="http://www.w3.org/2000/svg">
  <sodipodi:namedview
     id="namedview6494"
     pagecolor="#ffffff"
     bordercolor="#666666"
     borderopacity="1.0"
     inkscape:pageshadow="2"
     inkscape:pageopacity="0.0"
     inkscape:pagecheckerboard="0"
     inkscape:document-units="mm"
     showgrid="false"
     units="px"
     showguides="false"
     inkscape:zoom="0.19342176"
     inkscape:cx="545.44019"
     inkscape:cy="217.14207"
     inkscape:window-width="1312"
     inkscape:window-height="732"
     inkscape:window-x="0"
     inkscape:window-y="25"
     inkscape:window-maximized="0"
     inkscape:current-layer="layer1" />
  <defs
     id="defs6489" />
  <g
     inkscape:label="Layer 1"
     inkscape:groupmode="layer"
     id="layer1">
    <path
       style="fill:#424242;stroke:#000000;stroke-width:3;stroke-linecap:butt;stroke-linejoin:round;stroke-opacity:1;stroke-miterlimit:4;stroke-dasharray:none;fill-opacity:1"
       d="m 106.59392,122.94539 28.37202,0.17678 1.50256,-0.17678 1.41418,-0.53031 1.23741,-1.3258 0.97225,-1.59095 0.17678,-1.67934 -0.26516,-1.3258 v -1.06063 l 0.79547,-2.20966 2.38644,-5.65673 0.97224,-1.23741 1.23741,-0.79547 0.79548,-0.35355 0.35355,-0.70709 -0.17678,-0.70709 -0.44193,-1.32579 -0.17677,-1.67935 0.17677,-1.767723 0.79548,-1.9445 1.59095,-1.856113 1.50257,-0.883864 0.88386,-0.353544 0.35355,-0.707091 -0.26516,-1.237409 -0.35355,-1.856113 0.44194,-2.563204 3.09352,-8.131543 3.27029,-9.634111 0.88387,-1.149022 1.76772,-1.679339 5.03802,-1.856113 16.79341,-1.679342 4.06577,-0.353545 17.76565,0.08839 V 54.3576 l -92.36372,-0.441933 -2.12127,2.47482 -0.26516,0.707088 0.17677,0.707091 0.61871,0.795478 0.53031,0.26516 1.85612,0.08838 h 2.12127 l 0.88386,0.26516 1.50257,0.972251 1.23741,1.237409 1.32579,1.944497 0.7071,1.944499 0.44193,2.298047 v 2.474817 l -0.79548,2.651591 -2.82836,8.66186 -2.82836,5.568339 -7.07091,11.578611 -4.33093,7.777995 -1.14903,4.24255 -1.14902,3.18191 -0.353542,4.15415 0.08839,0.70709 0.707092,0.97225 2.5632,1.67934 2.03288,1.3258 z"
       id="path6634" />
    <path
       style="fill:#313131;fill-opacity:1;stroke:#000000;stroke-width:3;stroke-linecap:butt;stroke-linejoin:round;stroke-miterlimit:4;stroke-dasharray:none;stroke-opacity:1"
       d="m 203.55373,63.196234 34.29473,-0.05837 0.33544,-8.626783 -34.63017,-0.153482 z"
       id="path7117"
       sodipodi:nodetypes="ccccc" />
    <path
       style="fill:#424242;stroke:#000000;stroke-width:3;stroke-linecap:butt;stroke-linejoin:round;stroke-opacity:1;stroke-miterlimit:4;stroke-dasharray:none;fill-opacity:1"
       d="m 238.1839,54.511082 0.0722,-14.714066 h -54.69898 l -0.17532,4.382931 -0.35063,1.051904 -1.40254,1.402538 -1.22722,0.350634 H 166.7267 l -1.40253,-1.22722 h -2.62976 v -5.960787 l -49.61478,-0.175318 -1.22722,0.876588 -0.6624,13.417381 z"
       id="path7317" />
    <path
       style="fill:#848484;stroke:#000000;stroke-width:3;stroke-linecap:butt;stroke-linejoin:round;stroke-opacity:1;stroke-miterlimit:4;stroke-dasharray:none;fill-opacity:1"
       d="m 183.35147,40.521358 h -20.92524 l 0.26818,5.236445 h 2.62976 l 1.40253,1.22722 h 13.67471 l 1.22722,-0.350634 1.40254,-1.402538 z"
       id="path7484" />
    <path
       style="fill:#3e3e3e;stroke:#000000;stroke-width:3;stroke-linecap:butt;stroke-linejoin:round;stroke-opacity:1;stroke-miterlimit:4;stroke-dasharray:none;fill-opacity:1"
       d="m 117.12179,39.005457 1.0542,-3.162605 h 2.31925 l -0.10542,3.162605 z"
       id="path8095" />
    <path
       style="fill:none;stroke:#000000;stroke-width:3;stroke-linecap:butt;stroke-linejoin:round;stroke-opacity:1;stroke-miterlimit:4;stroke-dasharray:none"
       d="m 235.82489,38.689197 -1.5813,-2.002983 h -2.10841 l -0.31626,2.002983 z"
       id="path8328" />
    <path
       style="fill:#555555;stroke:#000000;stroke-width:3;stroke-linecap:butt;stroke-linejoin:round;stroke-opacity:1;stroke-miterlimit:4;stroke-dasharray:none;fill-opacity:1"
       d="m 134.96594,123.12217 0.0919,4.05007 -0.2673,0.7351 -0.66828,0.53462 -23.85732,0.60144 -1.20289,-0.40096 -0.53462,-0.53462 -0.13366,-0.53462 0.20049,-0.93558 2.80674,-3.6755 z"
       id="path8476" />
    <path
       style="fill:#333333;fill-opacity:1;stroke:#000000;stroke-width:3;stroke-linecap:butt;stroke-linejoin:round;stroke-miterlimit:4;stroke-dasharray:none;stroke-opacity:1"
       d="m 152.139,84.605244 v 0 0 0 0 0 0 0 l 39.72937,0.854058 0.91896,-0.167084 0.91897,-0.334169 0.4177,-0.584792 -0.0835,-0.668338 -0.66833,-1.420212 -0.5848,-1.503756 -0.41771,-2.339176 v -2.589803 l 0.16709,-4.761897 0.41771,-1.336672 1.3643,-6.177931 -10.60983,-0.250627 1.50375,1.587299 1.08605,1.002504 0.75188,1.336672 0.50125,1.754383 0.25062,5.430229 -0.4177,1.587299 -1.08605,1.336672 -1.67084,1.503757 -1.75438,1.086046 -1.33668,0.334168 -16.29069,0.167085 -1.42021,-0.584795 -2.08855,-1.253131 -2.08856,-2.172091 -0.91896,-2.339176 -1.49053,-4.276561 z"
       id="path8756"
       sodipodi:nodetypes="cccccccccccccccccccccccccccccccccccccc" />
    <path
       style="fill:#2b2b2b;fill-opacity:1;stroke:#000000;stroke-width:3;stroke-linecap:butt;stroke-linejoin:round;stroke-miterlimit:4;stroke-dasharray:none;stroke-opacity:1"
       d="m 154.77248,74.245415 -10.62441,-2.501335 -1.93857,7.033293 10.32944,2.986366 z"
       id="path10163" />
    <path
       style="fill:#000000;stroke:#000000;stroke-width:0;stroke-linecap:butt;stroke-linejoin:miter;stroke-opacity:1;stroke-miterlimit:4;stroke-dasharray:none;fill-opacity:0.40000001"
       d="m 238.2561,39.797016 h -54.69898 l -0.17532,4.382931 54.95977,0.0063 z"
       id="path11628" />
    <path
       style="fill:#000000;stroke:#000000;stroke-width:0;stroke-linecap:butt;stroke-linejoin:miter;stroke-opacity:1;stroke-miterlimit:4;stroke-dasharray:none;fill-opacity:0.40000001"
       d="m 113.07963,39.621698 49.61478,0.175318 -0.1327,4.318516 -50.91942,-0.29264 z"
       id="path11908" />
    <path
       style="fill:#000000;stroke:#000000;stroke-width:0;stroke-linecap:butt;stroke-linejoin:miter;stroke-opacity:1;fill-opacity:0.40000001;stroke-miterlimit:4;stroke-dasharray:none"
       d="m 102.35138,106.32876 4.76113,1.29381 0.91811,-0.20402 0.8161,-0.40805 6.63077,-10.915274 0.20403,-1.428165 -1.12214,-1.02012 -3.4684,-1.938226 z"
       id="path11943" />
    <path
       style="fill:#000000;stroke:#000000;stroke-width:0;stroke-linecap:butt;stroke-linejoin:miter;stroke-opacity:1;fill-opacity:0.40000001;stroke-miterlimit:4;stroke-dasharray:none"
       d="m 115.37548,84.465868 3.06036,1.836214 h 0.81609 l 0.8161,-0.306036 1.63219,-1.734201 4.08048,-9.589121 v -1.734201 l -0.61208,-0.612074 -4.9632,-2.236087 z"
       id="path11978" />
    <path
       style="fill:#000000;stroke:#000000;stroke-width:0;stroke-linecap:butt;stroke-linejoin:miter;stroke-opacity:1;stroke-miterlimit:4;stroke-dasharray:none;fill-opacity:0.40000001"
       d="m 131.22062,121.89982 2.91782,-2.26941 0.72945,-1.05365 v -1.37786 l -0.081,-2.35047 0.72945,-3.16096 3.64727,-6.72718 1.29681,-1.21576 0.89155,-0.64841 -0.89155,-2.59361 0.3242,-2.836762 1.05365,-2.431513 1.78311,-2.026259 2.35047,-1.864161 v -2.026259 -2.026261 l 2.02626,-6.565082 4.54088,1.037524 -2.1054,8.390326 0.61871,3.093522 -5.12641,5.745112 0.61871,5.479953 -5.43578,6.89062 -1.98868,9.72601 -7.41317,1.94525 z"
       id="path12206" />
    <path
       style="fill:#000000;fill-opacity:0.4;stroke:#000000;stroke-width:0;stroke-linecap:butt;stroke-linejoin:miter;stroke-miterlimit:4;stroke-dasharray:none;stroke-opacity:1"
       d="m 150.38328,72.19425 1.79843,-4.795822 1.28459,-1.884074 2.56919,-2.397911 3.93943,-2.055352 6.59426,-1.370235 17.21357,-1.284594 19.18329,-0.256921 0.58769,5.046893 -23.19657,-0.251071 -15.42826,2.195568 -6.80574,3.535452 -3.35068,5.569231 -4.64612,-1.451687 z"
       id="path12354"
       sodipodi:nodetypes="ccccccccccccccc" />
    <path
       style="fill:#3c3c3c;fill-opacity:1;stroke:#000000;stroke-width:3;stroke-linecap:butt;stroke-linejoin:round;stroke-miterlimit:4;stroke-dasharray:none;stroke-opacity:1"
       d="m 238.81347,42.743564 h 6.20645 l -1.18732,7.447741 -5.45088,-0.05397 z"
       id="path12582"
       sodipodi:nodetypes="ccccc" />
    <path
       style="fill:#000000;fill-opacity:1;stroke:#000000;stroke-width:0.573333;stroke-linecap:butt;stroke-linejoin:miter;stroke-miterlimit:4;stroke-dasharray:none;stroke-opacity:1"
       d="m 166.22548,67.108192 0.32411,2.446032 0.3241,1.116666 0.97234,2.286508 1.29646,2.233336 1.49092,2.392858 0.58339,0.212699 0.38894,-0.159525 0.32411,-0.531748 -0.0649,-0.478571 -0.84269,-1.754762 -0.45375,-1.329366 -0.19448,-1.488889 0.12961,-1.807936 0.32411,-1.542065 1.75021,-2.65873 -7.64906,-0.903968 z"
       id="path1243" />
  </g>
</svg>
