<?xml version="1.0" encoding="UTF-8" standalone="no"?>
<!-- Created with Inkscape (http://www.inkscape.org/) -->

<svg
   width="1250"
   height="600"
   viewBox="0 0 330.72915 158.75"
   version="1.1"
   id="svg8"
   inkscape:version="1.1.1 (c3084ef, 2021-09-22)"
   sodipodi:docname="PSG-1_loot.svg"
   xmlns:inkscape="http://www.inkscape.org/namespaces/inkscape"
   xmlns:sodipodi="http://sodipodi.sourceforge.net/DTD/sodipodi-0.dtd"
   xmlns:xlink="http://www.w3.org/1999/xlink"
   xmlns="http://www.w3.org/2000/svg"
   xmlns:svg="http://www.w3.org/2000/svg"
   xmlns:rdf="http://www.w3.org/1999/02/22-rdf-syntax-ns#"
   xmlns:cc="http://creativecommons.org/ns#"
   xmlns:dc="http://purl.org/dc/elements/1.1/">
  <defs
     id="defs2">
    <linearGradient
       id="linearGradient6006"
       inkscape:swatch="solid">
      <stop
         style="stop-color:#000000;stop-opacity:1;"
         offset="0"
         id="stop6004" />
    </linearGradient>
    <clipPath
       clipPathUnits="userSpaceOnUse"
       id="clipPath880">
      <use
         x="0"
         y="0"
         xlink:href="#g876"
         id="use882"
         width="100%"
         height="100%" />
    </clipPath>
  </defs>
  <sodipodi:namedview
     id="base"
     pagecolor="#ffffff"
     bordercolor="#666666"
     borderopacity="1.0"
     inkscape:pageopacity="0.0"
     inkscape:pageshadow="2"
     inkscape:zoom="0.48126722"
     inkscape:cx="524.65656"
     inkscape:cy="302.32685"
     inkscape:document-units="mm"
     inkscape:current-layer="layer1"
     showgrid="false"
     inkscape:window-width="1312"
     inkscape:window-height="731"
     inkscape:window-x="0"
     inkscape:window-y="25"
     inkscape:window-maximized="0"
     units="px"
     inkscape:pagecheckerboard="0" />
  <metadata
     id="metadata5">
    <rdf:RDF>
      <cc:Work
         rdf:about="">
        <dc:format>image/svg+xml</dc:format>
        <dc:type
           rdf:resource="http://purl.org/dc/dcmitype/StillImage" />
        <dc:title />
      </cc:Work>
    </rdf:RDF>
  </metadata>
  <g
     inkscape:label="Layer 1"
     inkscape:groupmode="layer"
     id="layer1"
     transform="translate(0,-138.25001)">
    <rect
       style="fill:#2c2c2c;fill-opacity:1;stroke:#000000;stroke-width:3.0525372;stroke-linecap:round;stroke-linejoin:miter;stroke-miterlimit:4;stroke-dasharray:none;stroke-opacity:1"
       id="rect890"
       width="74.643211"
       height="4.9444861"
       x="237.79488"
       y="205.79428" />
    <path
       style="fill:#454545;fill-opacity:1;stroke:#000000;stroke-width:3.0999999;stroke-linecap:butt;stroke-linejoin:round;stroke-miterlimit:4;stroke-dasharray:none;stroke-opacity:1"
       d="m 88.933934,242.61066 2.071339,-3.57473 0.434313,-0.30068 1.169305,-0.36749 h 1.737252 l 17.238887,3.40768 0.96885,0.3675 0.63476,0.53454 0.20046,0.56795 v 0.60135 l -0.3675,0.93545 -0.66817,0.96885 -0.7684,0.50113 -1.26953,0.43431 -1.50339,0.0668 H 98.488819 l -1.536798,-0.20045 -2.57247,-0.80181 -3.441094,-1.1359 -1.403167,-0.60135 -0.634765,-0.66818 v 0 z"
       id="path4531"
       inkscape:connector-curvature="0"
       sodipodi:nodetypes="ccccccccccccccccccccccc" />
    <path
       style="fill:#5b2812;stroke:#000000;stroke-width:3;stroke-linecap:butt;stroke-linejoin:round;stroke-opacity:1;stroke-miterlimit:4;stroke-dasharray:none;fill-opacity:1"
       d="m 98.054508,237.96685 2.572472,-5.41221 0.50113,-1.23612 c 0,0 0.43431,-1.1693 0.46772,-1.33635 0.0334,-0.16704 0.60135,-1.00226 0.66817,-1.13589 0.0668,-0.13364 3.20724,-2.90656 3.20724,-2.90656 l 0.86862,-0.7684 0.53454,-1.06908 0.33409,-1.46998 11.96031,0.0334 -1.43657,2.13816 -0.26728,0.56795 -0.33408,0.93544 -0.0668,0.50113 v 0.46772 l 0.30068,0.60136 0.0334,1.36975 -1.60362,0.0334 -0.36749,0.13364 -0.40091,0.36749 -0.30068,0.56795 -0.0334,1.06908 v 0.93544 l -0.50112,0.16705 -0.63477,0.43431 -0.46772,0.60135 -0.16705,0.50114 c 0,0 -0.23386,0.70158 -0.23386,0.83521 0,0.13364 -0.10022,1.93771 -0.10022,1.93771 l -0.63477,0.36749 -0.53454,0.53454 c 0,0 -0.20045,0.30068 -0.26727,0.50113 -0.0668,0.20045 -0.23386,0.7684 -0.23386,0.7684 l -0.0334,2.63929 -13.096203,-2.47225 z"
       id="path4544"
       inkscape:connector-curvature="0" />
    <path
       style="fill:none;stroke:#000000;stroke-width:3;stroke-linecap:square;stroke-linejoin:miter;stroke-opacity:0.39215687;stroke-miterlimit:4;stroke-dasharray:none"
       d="m 100.49334,238.60162 3.34087,-7.78423 0.23386,-0.4009 3.97564,-3.57473 0.33408,-0.43431 1.1359,-3.00679"
       id="path6014"
       inkscape:connector-curvature="0" />
    <path
       style="fill:#717171;fill-opacity:1;stroke:#000000;stroke-width:3;stroke-linecap:butt;stroke-linejoin:round;stroke-miterlimit:4;stroke-dasharray:none;stroke-opacity:1"
       d="m 111.8337,221.35752 -0.51971,-2.3151 -0.42523,-0.75595 -1.03943,-1.03944 -1.08668,-0.75595 -6.09487,0.14174 2.17336,1.74813 0.85045,0.8032 0.8032,0.89769 0.42522,0.75596 0.28848,1.79445 4.76696,0.0482 z"
       id="path6020"
       inkscape:connector-curvature="0"
       sodipodi:nodetypes="ccccccccccccc" />
    <path
       style="fill:#363636;fill-opacity:1;stroke:#000000;stroke-width:3;stroke-linecap:butt;stroke-linejoin:round;stroke-miterlimit:4;stroke-dasharray:none;stroke-opacity:1"
       d="m 119.1688,222.66566 15.33459,0.0334 v -10.55715 l 22.58427,0.13364 0.735,-7.08262 73.63271,-0.20047 -0.40088,-4.74404 -137.777436,-0.0668 -1.603618,0.46773 -1.536798,0.73499 v 15.23436 l 12.436642,-0.22212 6.18936,0.0945 1.08668,0.75595 1.03943,1.03944 0.42523,0.75595 0.66146,3.63803 z"
       id="path6022"
       inkscape:connector-curvature="0"
       sodipodi:nodetypes="cccccccccccccccccc" />
    <path
       style="fill:#000000;stroke:#000000;stroke-width:0;stroke-linecap:butt;stroke-linejoin:miter;stroke-opacity:1;stroke-miterlimit:4;stroke-dasharray:none;fill-opacity:0.39215687"
       d="m 134.50339,212.14191 -44.167082,-0.0921 -0.19967,4.56884 18.626012,-0.12762 2.12611,1.79539 1.08668,4.39398 22.52795,0.0186 z"
       id="path6024"
       inkscape:connector-curvature="0" />
    <path
       style="fill:#2e2e2e;stroke:#000000;stroke-width:3;stroke-linecap:butt;stroke-linejoin:round;stroke-opacity:1;stroke-miterlimit:4;stroke-dasharray:none;fill-opacity:1"
       d="m 134.50339,222.699 4.6104,0.0669 17.97387,-6.54811 v -3.94224 l -22.58427,-0.13364 z"
       id="path6026"
       inkscape:connector-curvature="0" />
    <path
       style="fill:#505050;fill-opacity:1;stroke:#000000;stroke-width:3;stroke-linecap:butt;stroke-linejoin:round;stroke-miterlimit:4;stroke-dasharray:none;stroke-opacity:1"
       d="m 157.09635,214.69569 82.11533,-0.8032 0.66146,-0.14174 0.47247,-0.33073 0.28348,-0.47247 0.0472,-0.89769 v -1.13393 l -3.28366,-10.63058 -6.33818,-0.0369 0.40092,4.74404 -73.63271,0.20047 z"
       id="path832"
       inkscape:connector-curvature="0"
       sodipodi:nodetypes="cccccccccccc" />
    <path
       style="fill:#000000;stroke:#000000;stroke-width:0;stroke-linecap:butt;stroke-linejoin:miter;stroke-opacity:1;stroke-miterlimit:4;stroke-dasharray:none;fill-opacity:0.39215687"
       d="m 157.09635,214.69569 82.77679,-0.94494 0.80315,-2.83482 -1.29765,-1.68055 -81.95156,1.01909 z"
       id="path834"
       inkscape:connector-curvature="0" />
    <path
       style="fill:#626262;stroke:#000000;stroke-width:3;stroke-linecap:butt;stroke-linejoin:round;stroke-opacity:1;stroke-miterlimit:4;stroke-dasharray:none;fill-opacity:1"
       d="m 156.29315,216.49108 1.32292,25.67876 -16.72545,2.33872 -1.32291,-21.96986 z"
       id="path836"
       inkscape:connector-curvature="0" />
    <path
       style="fill:none;stroke:#000000;stroke-width:2;stroke-linecap:round;stroke-linejoin:miter;stroke-miterlimit:4;stroke-dasharray:none;stroke-opacity:0.39215686"
       d="m 143.44196,222.16072 0.94494,17.38691"
       id="path838"
       inkscape:connector-curvature="0" />
    <path
       style="fill:none;stroke:#000000;stroke-width:2;stroke-linecap:round;stroke-linejoin:miter;stroke-miterlimit:4;stroke-dasharray:none;stroke-opacity:0.39215686"
       d="m 146.91533,221.41624 0.94494,17.38691"
       id="path838-1"
       inkscape:connector-curvature="0" />
    <path
       style="fill:none;stroke:#000000;stroke-width:2.09032893;stroke-linecap:round;stroke-linejoin:miter;stroke-miterlimit:4;stroke-dasharray:none;stroke-opacity:0.39215686"
       d="m 152.2738,218.32125 0.94494,18.99292"
       id="path838-9"
       inkscape:connector-curvature="0" />
    <path
       style="fill:#3e3e3e;stroke:#000000;stroke-width:3;stroke-linecap:butt;stroke-linejoin:round;stroke-opacity:1;stroke-miterlimit:4;stroke-dasharray:none;fill-opacity:1"
       d="m 90.136638,216.6187 -3.91082,0.0614 -1.13393,0.0472 -0.944941,0.18899 -14.174107,7.98475 -0.566963,0.75595 -0.377975,1.46466 -0.283483,8.55171 -0.04725,0.42523 -0.377979,0.28348 -27.828496,1.5119 -0.614212,-0.33073 -0.377976,-0.42522 -0.09449,-30.71057 1.464657,-0.56696 3.921503,12.28423 0.330729,0.56696 0.614212,0.51972 20.127232,-0.28348 0.519718,-0.0945 0.661459,-0.28348 5.764135,-11.76451 8.504465,0.0945 1.748139,-0.47248 3.02381,-2.13556 1.937128,-1.50246 2.115434,-1.4051 z"
       id="path863"
       inkscape:connector-curvature="0" />
    <path
       style="fill:#000000;stroke:#000000;stroke-width:0;stroke-linecap:butt;stroke-linejoin:miter;stroke-opacity:1;fill-opacity:0.39215687;stroke-miterlimit:4;stroke-dasharray:none"
       d="m 67.515996,219.70388 6.189361,-3.02381 0.377975,-0.23624 0.377976,-0.56696 0.14174,-0.70871 -0.803198,-8.7407 z"
       id="path865"
       inkscape:connector-curvature="0" />
    <path
       style="fill:#454545;stroke:#000000;stroke-width:3;stroke-linecap:butt;stroke-linejoin:round;stroke-opacity:1;stroke-miterlimit:4;stroke-dasharray:none;fill-opacity:1"
       d="m 72.80766,206.80543 1.559155,-3.96874 v -0.47247 l 0.04725,-0.94494 -0.141743,-0.61421 -0.236233,-0.28348 -0.283483,-0.33073 -0.330729,-0.0472 -32.458704,0.0472 -0.519719,0.0473 -0.566965,0.18898 -0.236233,0.23624 -0.188989,0.23623 v 0.61422 l 1.41741,4.34671 3.9215,12.28423 0.330729,0.56696 0.614215,0.51972 20.127229,-0.28348 0.519719,-0.0945 0.661458,-0.28348 z"
       id="path867"
       inkscape:connector-curvature="0" />
    <path
       style="fill:#000000;stroke:#000000;stroke-width:0;stroke-linecap:butt;stroke-linejoin:miter;stroke-opacity:1;stroke-miterlimit:4;stroke-dasharray:none;fill-opacity:0.39215687"
       d="m 40.443454,200.23816 33.309152,-0.0473 -0.236239,5.10268 -32.891398,-0.10061 z"
       id="path869"
       inkscape:connector-curvature="0" />
    <g
       id="g878"
       clip-path="url(#clipPath880)">
      <g
         inkscape:label="Clip"
         id="g876" />
    </g>
    <path
       style="fill:#434343;fill-opacity:1;stroke:#000000;stroke-width:3;stroke-linecap:butt;stroke-linejoin:round;stroke-miterlimit:4;stroke-dasharray:none;stroke-opacity:1"
       d="m 39.545757,217.24703 -4.677455,-0.0945 0.04725,-9.30766 v -0.51972 l -0.236234,-0.47247 -0.566965,-0.47247 -2.55134,-0.42522 -1.984375,-0.51972 -1.653645,-0.56697 -0.992188,-0.33072 -0.944939,-0.0945 H 25.22991 l -0.425223,0.28348 c 0,0 -0.188988,0.56697 -0.283482,0.8977 -0.09449,0.33073 -0.09449,0.66145 -0.09449,1.03943 0,0.37798 0.283482,1.51191 0.377976,1.84264 0.09449,0.33072 0.47247,1.27566 0.614211,1.65364 0.141741,0.37798 0.377976,1.41741 0.519718,1.79539 0.141741,0.37797 0.377976,1.5119 0.47247,1.88988 0.09449,0.37797 0.283483,1.37016 0.377976,1.93713 0.09449,0.56696 0.236236,1.84263 0.236236,2.17336 0,0.33073 0.188987,2.36235 0.188987,2.36235 l 0.0945,3.1183 -0.18899,3.49628 -0.283482,3.96875 -0.236236,2.45685 -0.472469,2.17336 -0.614212,1.74814 -0.188988,0.94494 0.09449,0.70871 0.47247,0.75595 0.803201,0.33073 1.511903,-0.14174 4.819198,-1.6064 0.803198,-0.33073 0.566965,-0.37798 0.188986,-0.51971 0.377976,-16.81994 4.630211,-0.14175 z"
       id="path884"
       inkscape:connector-curvature="0"
       sodipodi:nodetypes="ccccccccccccccscscccsccccccccccccccccccc" />
    <path
       style="fill:#000000;stroke:#000000;stroke-width:0;stroke-linecap:butt;stroke-linejoin:miter;stroke-opacity:1;stroke-miterlimit:4;stroke-dasharray:none;fill-opacity:0.39215687"
       d="m 28.631697,205.19904 c 0.01574,0.063 0.02313,0.1287 0.04725,0.18899 0.0083,0.0207 0.0315,0.0315 0.04725,0.0473 0.01574,0.0315 0.03611,0.0611 0.04725,0.0945 0.01495,0.0448 -0.01495,0.0969 0,0.14174 0.007,0.0211 0.0402,0.0261 0.04725,0.0472 0.01566,0.047 -0.02008,0.19609 0,0.23624 0.007,0.0141 0.03611,-0.0111 0.04725,0 0.01558,0.0156 -0.0114,0.15479 0,0.18898 0.007,0.0211 0.03729,0.0273 0.04725,0.0472 0.01249,0.025 -0.0057,0.16597 0,0.18899 0.0085,0.0342 0.03871,0.0603 0.04725,0.0945 0.0076,0.0306 -0.0099,0.0646 0,0.0945 0.007,0.0211 0.03729,0.0273 0.04725,0.0472 0.01326,0.0265 -0.01307,0.1694 0,0.18899 0.02471,0.0371 0.06978,0.0574 0.09449,0.0945 0.01302,0.0195 -0.01138,0.15485 0,0.18898 0.01114,0.0334 0.03611,0.0611 0.04725,0.0945 0.005,0.0149 -0.005,0.0323 0,0.0472 0.01114,0.0334 0.03611,0.0611 0.04725,0.0945 0.01109,0.0333 -0.01267,0.17631 0,0.18899 0.01114,0.0111 0.0402,-0.0141 0.04725,0 0.02114,0.0423 0,0.0945 0,0.14174 0,0.21508 -0.02228,0.003 0.04725,0.14174 0.01513,0.0303 -0.01469,0.25414 0,0.28348 0.0099,0.0199 0.0402,0.0261 0.04725,0.0472 0.0099,0.0299 -0.0076,0.0639 0,0.0945 0.0085,0.0342 0.03611,0.0611 0.04725,0.0945 0.005,0.0149 -0.01114,0.0361 0,0.0472 0.01114,0.0111 0.0402,-0.0141 0.04725,0 0.04725,0.0945 -0.02363,0.0709 0,0.14175 0.114078,0.34222 -0.01363,-0.0745 0.09449,0.14173 0.01484,0.0297 -0.01484,0.1593 0,0.18899 0.0099,0.0199 0.03729,0.0273 0.04725,0.0472 0.01408,0.0282 -0.0076,0.0639 0,0.0945 0.01209,0.0483 0.03517,0.0934 0.04725,0.14174 0.01307,0.0523 -0.01503,0.19115 0,0.23624 0.01114,0.0334 0.03611,0.0611 0.04725,0.0945 0.01418,0.0425 -0.01418,0.0992 0,0.14175 0.01114,0.0334 0.03611,0.0611 0.04725,0.0945 0.005,0.0149 0,0.0315 0,0.0472 0,0.0315 0,0.063 0,0.0945 0,0.0315 -0.0076,0.0639 0,0.0945 0.0085,0.0342 0.03611,0.0611 0.04725,0.0945 0.01024,0.0308 0,0.29117 0,0.33073 0,0.0157 -0.005,0.0323 0,0.0472 0.01114,0.0334 0.03871,0.0603 0.04725,0.0945 0.02291,0.0444 -0.01146,0.0959 0,0.14174 0.01209,0.0483 0.03517,0.0934 0.04725,0.14174 0.01146,0.0458 -0.01146,0.0959 0,0.14174 0.0085,0.0342 0.03611,0.0611 0.04725,0.0945 0.01495,0.0448 -0.0093,0.0954 0,0.14174 0.0098,0.0488 0.03517,0.0934 0.04725,0.14174 0.0076,0.0305 -0.0099,0.0646 0,0.0945 0.01114,0.0334 0.03871,0.0603 0.04725,0.0945 0.01072,0.0428 0,0.18135 0,0.23623 0,0.0157 -0.005,0.0323 0,0.0472 0.01114,0.0334 0.03611,0.0611 0.04725,0.0945 0.01418,0.0425 -0.01418,0.0992 0,0.14174 0.007,0.0211 0.03729,0.0273 0.04725,0.0472 0.01632,0.0326 -0.01659,0.21965 0,0.23624 0.01114,0.0111 0.0402,-0.0141 0.04725,0 0.0069,0.0138 0,0.24481 0,0.28348 0,0.0157 -0.007,0.0332 0,0.0472 0.01992,0.0399 0.07457,0.0547 0.09449,0.0945 0.007,0.014 0,0.26361 0,0.28348 0,0.0157 -0.007,0.0332 0,0.0472 0.0099,0.0199 0.04021,0.0261 0.04725,0.0472 0.01992,0.0598 -0.01992,0.12923 0,0.18899 0.007,0.0211 0.0402,0.0261 0.04725,0.0472 0,0.21508 -0.02228,0.003 0.04725,0.14174 0.01408,0.0282 -0.02228,0.0722 0,0.0945 0.01114,0.0111 0.03611,-0.0111 0.04725,0 0.01114,0.0111 0,0.0315 0,0.0472 0,0.0157 0,0.0315 0,0.0472 0,0.0945 0,0.18899 0,0.28348 0,0.0155 -0.0047,0.1347 0,0.14174 0.02471,0.0371 0.06978,0.0574 0.09449,0.0945 0.0087,0.0131 0,0.0315 0,0.0472 0,0.0315 0,0.063 0,0.0945 0,0.0945 0,0.18899 0,0.28348 0,0.0472 -0.01146,0.0959 0,0.14174 0.0054,0.0216 0.03729,0.0273 0.04725,0.0472 0.01249,0.025 -0.0057,0.16597 0,0.18899 0.0085,0.0342 0.03611,0.0611 0.04725,0.0945 0.01418,0.0425 -0.01418,0.0992 0,0.14174 0.007,0.0211 0.03729,0.0273 0.04725,0.0473 0.01249,0.025 -0.0057,0.16597 0,0.18899 0.0085,0.0342 0.03611,0.0611 0.04725,0.0945 0.0079,0.0238 0,0.27114 0,0.28348 0,0.0157 -0.007,0.0332 0,0.0472 0.0099,0.0199 0.03729,0.0273 0.04725,0.0472 0.007,0.0141 -0.005,0.0323 0,0.0472 0.01114,0.0334 0.03611,0.0611 0.04725,0.0945 0.01349,0.0405 -0.01043,0.1473 0,0.18899 0.0085,0.0342 0.03611,0.0611 0.04725,0.0945 0.01397,0.0419 -0.01548,0.2053 0,0.23623 0.0099,0.0199 0.03729,0.0273 0.04725,0.0473 0.007,0.0141 0,0.0315 0,0.0472 0,0.0157 0,0.0315 0,0.0472 0,0.126 0,0.25199 0,0.37798 0,0.0161 -0.0085,0.16342 0,0.18899 -0.08556,0.19767 0.07457,0.0547 0.0945,0.0945 0.01408,0.0282 0,0.063 0,0.0945 0,0.032 -0.01003,0.29063 0,0.33073 0.0085,0.0342 0.03611,0.0611 0.04725,0.0945 0.0085,0.0256 0,0.17289 0,0.18899 0,0.0357 -0.01024,0.22086 0,0.23623 0.167989,0.25199 0.03675,-0.17323 0.14174,0.14175 0.0093,0.0279 0,0.20983 0,0.23623 0,0.0157 -0.005,0.0323 0,0.0472 0.01114,0.0334 0.03611,0.0611 0.04725,0.0945 0.0091,0.0274 0,0.14805 0,0.18899 0,0.17324 0,0.34648 0,0.51972 0,0.20473 0,0.40947 0,0.61421 0,0.0305 -0.0068,0.17884 0,0.18899 0.02471,0.0371 0.06979,0.0574 0.0945,0.0945 0.01034,0.0155 0,0.20953 0,0.23623 0,0.17325 0,0.34648 0,0.51972 0,0.40948 0,0.81895 0,1.22843 0,0.58271 0,1.16542 0,1.74814 0,0.22048 0,0.44097 0,0.66145 0,0.0387 0.01021,0.20563 0,0.23624 -0.01114,0.0334 -0.03611,0.0611 -0.04725,0.0945 -0.005,0.0149 0,0.0315 0,0.0472 0,0.11024 0,0.22048 0,0.33073 0,0.0315 0,0.063 0,0.0945 0,0.0157 0.01114,0.0361 0,0.0472 -0.0249,0.0249 -0.06959,0.0223 -0.09449,0.0472 -0.01114,0.0111 0,0.0315 0,0.0472 0,0.0157 0,0.0315 0,0.0472 0,0.0396 0.01024,0.29997 0,0.33073 -0.01114,0.0334 -0.03611,0.0611 -0.04725,0.0945 -0.01672,0.0502 0.01675,0.13879 0,0.18899 -0.007,0.0211 -0.03729,0.0273 -0.04725,0.0473 -0.01357,0.0271 0.01267,0.24544 0,0.28348 -0.007,0.0211 -0.0402,0.0261 -0.04725,0.0472 -0.01,0.0299 0,0.063 0,0.0945 0,0.11025 0,0.22049 0,0.33073 0,0.0315 0.0099,0.0646 0,0.0945 -0.007,0.0211 -0.03729,0.0273 -0.04725,0.0472 -0.007,0.0141 0,0.0315 0,0.0473 0,0.0315 0.0099,0.0646 0,0.0945 -0.007,0.0211 -0.04021,0.0261 -0.04725,0.0473 -0.0072,0.0216 0,0.20987 0,0.23624 0,0.15749 0,0.31498 0,0.47247 0,0.0269 0.0032,0.18415 0,0.18898 -0.01953,0.0293 -0.06959,0.0224 -0.09449,0.0473 -0.01114,0.0111 0,0.0315 0,0.0472 0,0.0787 0,0.15749 0,0.23623 0,0.0315 0.0076,0.0639 0,0.0945 -0.0085,0.0342 -0.03871,0.0603 -0.04725,0.0945 -0.01169,0.0468 0.01394,0.1944 0,0.23624 -0.01114,0.0334 -0.03611,0.0611 -0.04725,0.0945 -0.01326,0.0398 0.01408,0.20811 0,0.23624 -0.0099,0.0199 -0.0402,0.0261 -0.04725,0.0472 -0.0094,0.0281 0.01053,0.2257 0,0.23624 -0.01114,0.0111 -0.0402,-0.0141 -0.04725,0 -0.01934,0.0387 0.01667,0.18622 0,0.23623 -0.01114,0.0334 -0.0315,0.063 -0.04725,0.0945 -0.01574,0.0315 -0.02772,0.0652 -0.04725,0.0945 -0.02471,0.0371 -0.07457,0.0547 -0.09449,0.0945 -0.01548,0.0309 0.01397,0.1943 0,0.23623 -0.01574,0.0315 -0.0315,0.063 -0.04725,0.0945 -0.01574,0 -0.03611,-0.0111 -0.04725,0 -0.01114,0.0111 0.0038,0.032 0,0.0472 -0.01209,0.0483 -0.03748,0.0929 -0.04725,0.14174 -0.0094,0.0469 0,0.1866 0,0.23624 0,0.17324 0,0.34648 0,0.51972 0,0.0132 0.0037,0.22884 0,0.23623 -0.01992,0.0398 -0.06979,0.0574 -0.0945,0.0945 -0.0047,0.007 0,0.12622 0,0.14174 0,0.0945 0,0.18898 0,0.28348 0,0.0315 0,0.063 0,0.0945 0,0.0157 0.005,0.0323 0,0.0472 -0.01114,0.0334 -0.03611,0.0611 -0.04725,0.0945 -0.0099,0.0299 0,0.063 0,0.0945 0,0.0945 0,0.18898 0,0.28348 0,0.0315 0.0076,0.0639 0,0.0945 -0.0085,0.0342 -0.03871,0.0603 -0.04725,0.0945 -0.09639,0.38558 0.0964,-0.19659 0,0.18899 -0.0085,0.0342 -0.03871,0.0603 -0.04725,0.0945 -0.01503,0.0601 0.01535,0.17488 0,0.23623 -0.01207,0.0483 -0.03517,0.0934 -0.04725,0.14174 -0.01458,0.0583 0.0122,0.17531 0,0.23624 -0.0098,0.0488 -0.03748,0.0929 -0.04725,0.14174 -0.01035,0.0517 0.01704,0.24939 0,0.28348 -0.01992,0.0398 -0.07795,0.0531 -0.0945,0.0945 -0.01754,0.0439 0,0.0945 0,0.14174 0,0.11024 0,0.22048 0,0.33073 0,0.0472 0.0093,0.0954 0,0.14174 -0.0069,0.0345 -0.03417,0.0618 -0.04725,0.0945 -0.01849,0.0463 -0.03517,0.0934 -0.04725,0.14174 -0.0038,0.0153 0,0.0315 0,0.0473 0,0.0472 0,0.0945 0,0.14174 0,0.0315 0.0076,0.0639 0,0.0945 -0.0085,0.0342 -0.03611,0.0611 -0.04725,0.0945 -0.01667,0.05 0.01934,0.19756 0,0.23624 -0.007,0.0141 -0.03611,-0.0111 -0.04725,0 -0.02228,0.0223 0.02228,0.0722 0,0.0945 -0.01114,0.0111 -0.03611,-0.0111 -0.04725,0 -0.01114,0.0111 0,0.0315 0,0.0472 0,0.0157 0,0.0315 0,0.0472 0,0.0945 0,0.18899 0,0.28348 0,0.0158 0,0.0315 0,0.0473 0,0.0157 0.0087,0.0341 0,0.0472 -0.02471,0.0371 -0.06979,0.0574 -0.0945,0.0945 -0.01746,0.0262 0.0099,0.0646 0,0.0945 -0.09775,0.29326 0.0038,-0.15703 -0.09449,0.23623 -0.0038,0.0153 0,0.0315 0,0.0472 -0.01574,0.0473 -0.02875,0.0955 -0.04725,0.14174 -0.01307,0.0327 -0.03871,0.0603 -0.04725,0.0945 -0.0076,0.0306 0,0.063 0,0.0945 -0.01574,0.0315 -0.03871,0.0603 -0.04725,0.0945 -0.0059,0.0235 0.0093,0.22228 0,0.23624 -0.01953,0.0293 -0.06959,0.0224 -0.0945,0.0472 -0.0016,0.002 0,0.13029 0,0.14175 0,0.04 0.0085,0.16358 0,0.18898 -0.007,0.0211 -0.0402,0.0261 -0.04725,0.0472 -0.0099,0.0299 0,0.063 0,0.0945 0,0.0157 0.007,0.0332 0,0.0472 -0.0099,0.0199 -0.03729,0.0273 -0.04725,0.0473 -0.01408,0.0282 0.01408,0.0663 0,0.0945 -0.0099,0.0199 -0.03729,0.0273 -0.04725,0.0472 -0.01408,0.0282 0.02228,0.0722 0,0.0945 -0.01114,0.0111 -0.03611,-0.0111 -0.04725,0 -0.02363,0.0236 0.02363,0.11811 0,0.14174 -0.01114,0.0111 -0.04227,-0.015 -0.04725,0 -0.01495,0.0448 0.01495,0.0969 0,0.14174 -0.005,0.0149 -0.03611,-0.0111 -0.04725,0 -0.02228,0.0223 0.01408,0.0663 0,0.0945 -0.108116,0.21623 0.01958,-0.20049 -0.0945,0.14174 -0.005,0.0149 0.0087,0.0342 0,0.0473 -0.02471,0.0371 -0.06978,0.0574 -0.09449,0.0945 -0.0087,0.0131 0,0.0315 0,0.0473 -0.01574,0.0315 -0.02611,0.0663 -0.04725,0.0945 -0.02673,0.0356 -0.063,0.063 -0.09449,0.0945 -0.01574,0.0157 -0.02733,0.0373 -0.04725,0.0472 -0.01408,0.007 -0.0315,0 -0.04725,0 -0.01574,0 -0.0315,0 -0.04725,0 -0.01574,0 -0.03316,0.007 -0.04725,0 -0.01992,-0.01 -0.0315,-0.0315 -0.04725,-0.0472 -0.05406,-0.0541 -0.05593,-0.0659 -0.141742,-0.0945 -0.01495,-0.005 -0.0315,0 -0.04725,0 -0.063,0 -0.126849,0.0104 -0.188986,0 -0.03474,-0.006 -0.05996,-0.0403 -0.0945,-0.0472 -0.04633,-0.009 -0.09497,0.007 -0.14174,0 -0.06428,-0.009 -0.125315,-0.0345 -0.18899,-0.0472 -0.03088,-0.006 -0.06461,0.01 -0.09449,0 -0.03341,-0.0111 -0.06108,-0.0361 -0.09449,-0.0473 -0.02988,-0.01 -0.06829,0.0175 -0.09449,0 -0.03707,-0.0247 -0.05743,-0.0698 -0.0945,-0.0945 -0.0131,-0.009 -0.03197,0.004 -0.04725,0 -0.04832,-0.0121 -0.0972,-0.025 -0.14174,-0.0473 -0.01992,-0.01 -0.02611,-0.0402 -0.04725,-0.0472 -0.02988,-0.01 -0.06461,0.01 -0.0945,0 -0.02114,-0.007 -0.02872,-0.0349 -0.04725,-0.0472 -0.0293,-0.0195 -0.06108,-0.0361 -0.09449,-0.0473 -0.01495,-0.005 -0.0315,0 -0.04725,0 -0.03957,0 -0.200306,0.009 -0.236236,0 -0.06833,-0.0171 -0.122171,-0.0722 -0.188988,-0.0945 -0.01494,-0.005 -0.03316,0.007 -0.04725,0 -0.201188,-0.1006 0.106694,0.006 -0.09449,-0.0945 -0.01409,-0.007 -0.03414,0.009 -0.04725,0 -0.03706,-0.0247 -0.05743,-0.0698 -0.09449,-0.0945 -0.02621,-0.0175 -0.06632,0.0141 -0.09449,0 -0.03984,-0.0199 -0.05743,-0.0698 -0.09449,-0.0945 -0.0293,-0.0195 -0.06959,-0.0224 -0.09449,-0.0472 -0.01114,-0.0111 0.01114,-0.0361 0,-0.0472 -0.01114,-0.0111 -0.03316,0.007 -0.04725,0 -0.0169,-0.008 -0.175889,-0.16934 -0.188988,-0.18899 -0.08257,-0.12385 -0.01766,-0.0826 -0.09449,-0.23623 -0.01,-0.0199 -0.0402,-0.0261 -0.04725,-0.0473 -0.02988,-0.0424 0.01494,-0.0969 0,-0.14174 -0.01114,-0.0334 -0.03417,-0.0618 -0.04725,-0.0945 -0.117162,-0.0446 -0.02671,-0.12738 -0.04725,-0.18898 -0.02227,-0.0668 -0.07741,-0.12066 -0.09449,-0.18899 -0.01146,-0.0458 0.01146,-0.0959 0,-0.14174 -0.01208,-0.0483 -0.03748,-0.0929 -0.04725,-0.14174 -0.01235,-0.0618 0,-0.126 0,-0.18899 0,-0.0945 0,-0.18899 0,-0.28348 0,-0.17324 0,-0.34648 0,-0.51972 0,-0.0318 -0.0071,-0.30252 0,-0.33073 0.02057,-0.0823 0.06471,-0.15682 0.09449,-0.23623 0.08778,-0.0352 0.02791,-0.17822 0.04725,-0.23624 0.007,-0.0211 0.03729,-0.0273 0.04725,-0.0473 0.01575,-0.0472 0.0315,-0.0945 0.04725,-0.14174 0,-0.0157 -0.005,-0.0323 0,-0.0472 0.01114,-0.0334 0.03611,-0.0611 0.04725,-0.0945 0.005,-0.0149 0,-0.0315 0,-0.0472 0,-0.0315 -0.01,-0.0646 0,-0.0945 0.007,-0.0211 0.03388,-0.0294 0.04725,-0.0472 0.03407,-0.0454 0.0691,-0.0909 0.09449,-0.14174 0.007,-0.0141 -0.0038,-0.032 0,-0.0472 0.05223,-0.20894 0.02932,-0.0733 0.0945,-0.23624 0.0185,-0.0462 0.02497,-0.0972 0.04725,-0.14174 0.02539,-0.0508 0.0691,-0.091 0.0945,-0.14174 0.07683,-0.15367 0.01193,-0.11239 0.09449,-0.23624 0.455843,-0.68376 -0.0245,0.0901 0.188988,-0.28348 0.04556,-0.0797 0.09307,-0.15836 0.141741,-0.23623 0.03009,-0.0482 0.07654,-0.0879 0.09449,-0.14175 0.03029,-0.0909 0.01972,-0.19172 0.04725,-0.28348 0.02024,-0.0675 0.06589,-0.12462 0.09449,-0.18899 0.03444,-0.0775 0.05657,-0.16037 0.09449,-0.23623 0.0254,-0.0508 0.0644,-0.0936 0.09449,-0.14174 0.04867,-0.0779 0.09618,-0.15651 0.141743,-0.23624 0.01746,-0.0306 0.02524,-0.067 0.04725,-0.0945 0.04174,-0.0522 0.115419,-0.0803 0.14174,-0.14174 0.02482,-0.0579 -0.01527,-0.12788 0,-0.18899 0.190016,-0.76006 -0.0031,0.19679 0.188989,-0.28348 0.01754,-0.0439 -0.0093,-0.0954 0,-0.14174 0.01672,-0.0836 0.117888,-0.16468 0.14174,-0.23624 0.01495,-0.0448 -0.0078,-0.0951 0,-0.14174 0.0082,-0.0491 0.03356,-0.0939 0.04725,-0.14174 0.01783,-0.0624 0.02445,-0.12819 0.04725,-0.18899 0.0315,-0.063 0.06299,-0.12599 0.09449,-0.18899 0,-0.0157 -0.005,-0.0323 0,-0.0472 0.01114,-0.0334 0.04034,-0.06 0.04725,-0.0945 0.0093,-0.0463 -0.0078,-0.0951 0,-0.14174 0.0082,-0.0491 0.03748,-0.0929 0.04725,-0.14174 0.01852,-0.0927 -0.01852,-0.19082 0,-0.28348 0.0044,-0.0219 0.04288,-0.0254 0.04725,-0.0472 0.01236,-0.0618 -0.0089,-0.12663 0,-0.18899 0.007,-0.0493 0.04021,-0.0924 0.04725,-0.14174 0.0089,-0.0624 -0.007,-0.12638 0,-0.18899 0.0089,-0.0798 0.03728,-0.15655 0.04725,-0.23623 0.0058,-0.0469 -0.0078,-0.0951 0,-0.14174 0.0082,-0.0491 0.0402,-0.0924 0.04725,-0.14175 0.02204,-0.15433 -0.02204,-0.31813 0,-0.47246 0.007,-0.0493 0.0402,-0.0924 0.04725,-0.14174 0.01543,-0.10804 -0.01543,-0.2227 0,-0.33073 0.0092,-0.0643 0.03806,-0.12471 0.04725,-0.18899 0.0067,-0.0468 -0.0058,-0.0949 0,-0.14174 0.01,-0.0797 0.03729,-0.15655 0.04725,-0.23624 0.01172,-0.0938 0,-0.18899 0,-0.28348 0,-0.12599 0,-0.25198 0,-0.37798 0,-0.0472 -0.0067,-0.095 0,-0.14174 0.0092,-0.0643 0.03919,-0.12455 0.04725,-0.18899 0.0078,-0.0625 -0.01527,-0.12787 0,-0.18899 0.154281,-0.61712 0.05987,0.34628 0.141742,-0.47246 0.0063,-0.0627 -0.0052,-0.12621 0,-0.18899 0.01053,-0.12654 0.0367,-0.25145 0.04725,-0.37798 0.02625,-0.31498 -0.03937,-0.0787 0,-0.47247 0.0065,-0.0646 0.04078,-0.12437 0.04725,-0.18899 0.0094,-0.094 0,-0.18898 0,-0.28348 0,-0.12599 0,-0.25198 0,-0.37798 0,-0.063 -0.0078,-0.12647 0,-0.18898 0.008,-0.0644 0.04079,-0.12438 0.04725,-0.18899 0.0094,-0.094 0,-0.18899 0,-0.28348 0,-0.0788 0,-0.15749 0,-0.23624 0,-0.12599 0,-0.25198 0,-0.37798 0,-0.0787 -0.0098,-0.15809 0,-0.23623 0.0062,-0.0494 0.04107,-0.0923 0.04725,-0.14174 0.0098,-0.0781 -0.0098,-0.1581 0,-0.23624 0.0062,-0.0494 0.04175,-0.0922 0.04725,-0.14174 0.01738,-0.15653 -0.01953,-0.31619 0,-0.47247 0.008,-0.0644 0.03919,-0.12455 0.04725,-0.18899 0.0078,-0.0625 0,-0.12599 0,-0.18899 0,-0.12599 0,-0.25198 0,-0.37797 0,-0.37798 0,-0.75595 0,-1.13393 0,-0.12599 0,-0.25198 0,-0.37797 0,-0.063 0.01236,-0.12722 0,-0.18899 -0.0069,-0.0345 -0.03611,-0.0611 -0.04725,-0.0945 -0.005,-0.0149 0.007,-0.0332 0,-0.0472 -0.0099,-0.0199 -0.03729,-0.0273 -0.04725,-0.0472 -0.007,-0.0141 0.0038,-0.032 0,-0.0473 -0.01206,-0.0483 -0.03517,-0.0934 -0.04725,-0.14174 -0.0118,-0.0472 0.02363,-0.0945 0,-0.14174 -0.01992,-0.0398 -0.06978,-0.0574 -0.09449,-0.0945 -0.01172,-0.0176 0.01013,-0.15859 0,-0.18898 -0.01114,-0.0334 -0.0315,-0.063 -0.04725,-0.0945 -0.0315,-0.063 -0.063,-0.12599 -0.09449,-0.18898 -0.01574,-0.0315 -0.03611,-0.0611 -0.04725,-0.0945 -0.005,-0.015 0,-0.0315 0,-0.0473 0,-0.0931 0.01408,-0.10721 -0.04725,-0.18898 -0.02673,-0.0356 -0.07457,-0.0547 -0.09449,-0.0945 -0.01408,-0.0282 0.0076,-0.0639 0,-0.0945 -0.0085,-0.0342 -0.03611,-0.0611 -0.04725,-0.0945 -0.005,-0.0149 0.005,-0.0323 0,-0.0472 -0.01114,-0.0334 -0.03871,-0.0603 -0.04725,-0.0945 -0.0076,-0.0306 0.0076,-0.0639 0,-0.0945 0.02848,-0.0855 -0.07654,-0.0879 -0.0945,-0.14174 -0.0099,-0.0299 0.0076,-0.0639 0,-0.0945 -0.0085,-0.0342 -0.03611,-0.0611 -0.04725,-0.0945 -0.005,-0.0149 0.007,-0.0332 0,-0.0473 -0.0254,-0.0508 -0.06042,-0.0963 -0.09449,-0.14174 -0.01336,-0.0178 -0.04185,-0.0256 -0.04725,-0.0472 -0.01146,-0.0458 0.01146,-0.0959 0,-0.14175 -0.0054,-0.0216 -0.03729,-0.0273 -0.04725,-0.0472 -0.02228,-0.0445 -0.02875,-0.0955 -0.04725,-0.14174 -0.01307,-0.0327 -0.03871,-0.0603 -0.04725,-0.0945 -0.08414,-0.33655 0.142994,0.23937 -0.04725,-0.23623 -0.02617,-0.0654 -0.07222,-0.12217 -0.09449,-0.18899 -0.02053,-0.0616 -0.02941,-0.12655 -0.04725,-0.18899 -0.01368,-0.0479 -0.03906,-0.0926 -0.04725,-0.14174 -0.0078,-0.0466 0.01754,-0.0979 0,-0.14174 -0.08908,-0.2227 -0.09854,0.027 -0.141743,-0.18899 0,-0.36043 0.02114,0.0373 -0.04725,-0.23624 -0.0076,-0.0306 0.01,-0.0646 0,-0.0945 -0.04454,-0.13364 -0.144444,-0.24434 -0.188987,-0.37798 -0.0099,-0.0299 0.0099,-0.0646 0,-0.0945 -0.08283,-0.2485 -0.0853,-0.12336 -0.188989,-0.33073 -0.007,-0.0141 0,-0.0315 0,-0.0473 0,-0.0315 0.0052,-0.0634 0,-0.0945 -0.01068,-0.064 -0.01821,-0.13091 -0.04725,-0.18899 -0.01992,-0.0398 -0.07457,-0.0547 -0.09449,-0.0945 -0.01409,-0.0282 0,-0.063 0,-0.0945 0,-0.0472 0.0093,-0.0954 0,-0.14174 -0.0069,-0.0345 -0.03611,-0.0611 -0.04725,-0.0945 -0.02053,-0.0616 -0.02941,-0.12655 -0.04725,-0.18899 -0.01368,-0.0479 -0.03517,-0.0934 -0.04725,-0.14174 -0.0038,-0.0153 0.0038,-0.032 0,-0.0473 -0.01208,-0.0483 -0.03357,-0.0939 -0.04725,-0.14174 -0.131372,-0.0629 -0.02777,-0.15833 -0.04725,-0.23623 -0.09832,-0.39326 0.0033,0.057 -0.09449,-0.23624 -0.005,-0.0149 0,-0.0315 0,-0.0473 -0.01575,-0.0472 -0.02875,-0.0955 -0.04725,-0.14174 -0.01308,-0.0327 -0.02913,-0.0643 -0.04725,-0.0945 -0.02922,-0.0487 -0.0734,-0.089 -0.09449,-0.14174 -0.0117,-0.0293 0.01409,-0.0663 0,-0.0945 -0.01992,-0.0398 -0.07457,-0.0547 -0.09449,-0.0945 -0.01409,-0.0282 0.0076,-0.0639 0,-0.0945 -0.05704,-0.22816 -0.02245,0.002 -0.09449,-0.14174 -0.007,-0.0141 0,-0.0315 0,-0.0472 0,-0.0472 0.01146,-0.0959 0,-0.14174 -0.0054,-0.0216 -0.0402,-0.0261 -0.04725,-0.0472 -0.01,-0.0299 0.01409,-0.0663 0,-0.0945 -0.01992,-0.0399 -0.07795,-0.0531 -0.09449,-0.0945 -0.01755,-0.0439 0.01146,-0.0959 0,-0.14174 -0.0054,-0.0216 -0.0315,-0.0315 -0.04725,-0.0472 -0.01575,-0.0472 -0.03748,-0.0929 -0.04725,-0.14174 -0.0062,-0.0309 0,-0.063 0,-0.0945 -0.01575,-0.0315 -0.03871,-0.0603 -0.04725,-0.0945 -0.0076,-0.0306 0.01,-0.0646 0,-0.0945 -0.007,-0.0211 -0.0315,-0.0315 -0.04725,-0.0472 -0.01575,-0.0315 -0.03871,-0.0603 -0.04725,-0.0945 -0.0093,-0.0374 0.01404,-0.26243 0,-0.28348 -0.133708,-0.20057 -0.07594,0.027 -0.141741,-0.23624 -0.0038,-0.0153 0,-0.0315 0,-0.0472 0,-0.0683 0.01,-0.28083 0,-0.33073 -0.0069,-0.0345 -0.03871,-0.0603 -0.04725,-0.0945 -0.02625,-0.10499 0.03937,-0.11812 0,-0.23623 -0.01796,-0.0539 -0.0691,-0.0909 -0.09449,-0.14174 -0.007,-0.0141 0,-0.0315 0,-0.0472 0,-0.007 0.0093,-0.28426 0,-0.33073 -0.0098,-0.0488 -0.03517,-0.0934 -0.04725,-0.14174 -0.01367,-0.0547 0.01024,-0.18503 0,-0.23624 -0.0069,-0.0345 -0.03611,-0.0611 -0.04725,-0.0945 -0.005,-0.0149 0,-0.0315 0,-0.0473 0,-0.0472 0.01146,-0.0959 0,-0.14174 -0.0054,-0.0216 -0.04184,-0.0256 -0.04725,-0.0472 -0.01211,-0.0485 0.01656,-0.23382 0,-0.28349 -0.007,-0.0211 -0.0402,-0.0261 -0.04725,-0.0472 -0.01992,-0.0598 0.01528,-0.12788 0,-0.18899 -0.0085,-0.0342 -0.03611,-0.0611 -0.04725,-0.0945 -0.005,-0.0149 0,-0.0315 0,-0.0472 0,-0.0315 0,-0.063 0,-0.0945 0,-0.0945 0,-0.18899 0,-0.28348 0,-0.29923 0,-0.59846 0,-0.89769 0,-0.14175 0,-0.28349 0,-0.42523 0,-0.0157 -0.01114,-0.0361 0,-0.0473 0.01114,-0.0111 0.03611,0.0111 0.04725,0 0.01114,-0.0111 -0.007,-0.0332 0,-0.0472 0.01,-0.0199 0.03729,-0.0273 0.04725,-0.0472 0.007,-0.0141 -0.01114,-0.0361 0,-0.0472 0.01114,-0.0111 0.03611,0.0111 0.04725,0 0.01114,-0.0111 -0.01114,-0.0361 0,-0.0472 0.01114,-0.0111 0.03611,0.0111 0.04725,0 0.09776,-0.0978 -0.149384,0.004 0.04725,-0.0945 0.01222,-0.006 0.249993,0 0.283482,0 0.204737,0 0.409474,0 0.614212,0 0.299231,0 0.598462,0 0.897694,0 0.04725,0 0.09449,0 0.141739,0 0.063,0 0.126627,-0.009 0.18899,0 0.178972,0.0256 0.137345,0.093 0.283482,0.14174 0.03039,0.0101 0.171387,-0.0117 0.188987,0 0.03707,0.0247 0.05743,0.0698 0.0945,0.0945 0.01794,0.012 0.209187,-0.0135 0.236233,0 0.01992,0.01 0.02733,0.0373 0.04725,0.0472 0.01408,0.007 0.0315,0 0.04725,0 0.07227,0 0.110646,-0.005 0.188986,0.0473 0.0131,0.009 -0.01407,0.0402 0,0.0472 0.02817,0.0141 0.06461,-0.01 0.09449,0 0.02114,0.007 0.02871,0.0349 0.04725,0.0472 0.0293,0.0195 0.06108,0.0361 0.09449,0.0472 0.01495,0.005 0.03495,-0.01 0.04725,0 0.06957,0.0557 0.125992,0.126 0.188989,0.18899 z"
       id="path886"
       inkscape:connector-curvature="0" />
    <rect
       style="fill:#000000;fill-opacity:0.39215686;stroke:#000000;stroke-width:0;stroke-linecap:round;stroke-linejoin:round;stroke-miterlimit:4;stroke-dasharray:none;stroke-opacity:1"
       id="rect888"
       width="28.631689"
       height="5.1499166"
       x="28.610474"
       y="233.51709"
       transform="rotate(-2.7007894)" />
    <rect
       style="fill:#000000;fill-opacity:0.39215686;stroke:#000000;stroke-width:0;stroke-linecap:round;stroke-linejoin:round;stroke-miterlimit:4;stroke-dasharray:none;stroke-opacity:1"
       id="rect894"
       width="67.351921"
       height="3.7417731"
       x="90.470734"
       y="205.19293" />
    <path
       style="fill:#292726;fill-opacity:1;stroke:#000000;stroke-width:3;stroke-linecap:butt;stroke-linejoin:round;stroke-miterlimit:4;stroke-dasharray:none;stroke-opacity:1"
       d="m 143.53645,193.43453 -37.13616,0.18899 -0.85044,0.85045 -18.237351,0.18899 0.188986,-8.97694 h 18.142855 l 1.13393,1.6064 36.4747,-0.37798 9.26042,-2.74032 13.89063,-0.18899 0.0945,12.47321 H 152.4189 Z"
       id="path911"
       inkscape:connector-curvature="0"
       sodipodi:nodetypes="ccccccccccccc" />
    <path
       style="fill:#000000;stroke:#000000;stroke-width:0;stroke-linecap:butt;stroke-linejoin:miter;stroke-opacity:1;stroke-miterlimit:4;stroke-dasharray:none;fill-opacity:0.39215687"
       d="m 143.25297,186.91444 9.26042,-2.74032 -0.0945,12.28422 -8.88245,-3.02381 z"
       id="path913"
       inkscape:connector-curvature="0" />
    <rect
       style="fill:#000000;fill-opacity:0.39215686;stroke:#000000;stroke-width:0;stroke-linecap:round;stroke-linejoin:round;stroke-miterlimit:4;stroke-dasharray:none;stroke-opacity:1"
       id="rect915"
       width="17.562456"
       height="7.9375"
       x="87.50148"
       y="185.68602" />
    <path
       style="fill:#2f2f2f;fill-opacity:1;stroke:#000000;stroke-width:3;stroke-linecap:butt;stroke-linejoin:round;stroke-miterlimit:4;stroke-dasharray:none;stroke-opacity:1"
       d="m 112.54241,200.23811 -4.06324,-6.80358 -0.0346,-9.28908 h 3.80859 l 0.0668,8.38559 3.34087,6.01356 0.76842,1.40316 z"
       id="path917"
       inkscape:connector-curvature="0"
       sodipodi:nodetypes="cccccccc" />
    <path
       style="fill:#2f2f2f;fill-opacity:1;stroke:#000000;stroke-width:2.902776;stroke-linecap:butt;stroke-linejoin:round;stroke-miterlimit:4;stroke-dasharray:none;stroke-opacity:1"
       d="m 135.65348,199.74215 3.80415,-6.80358 0.0324,-9.28908 h -3.56573 l -0.0625,8.38559 -3.12784,6.01356 -0.71942,1.40316 z"
       id="path917-5"
       inkscape:connector-curvature="0"
       sodipodi:nodetypes="cccccccc" />
    <path
       style="fill:#3e3e3e;stroke:#000000;stroke-width:3;stroke-linecap:butt;stroke-linejoin:round;stroke-opacity:1;stroke-miterlimit:4;stroke-dasharray:none;fill-opacity:1"
       d="m 125.34941,186.88496 -2.2718,-3.07359 v -2.6727 l 8.419,0.13363 v 2.40543 l -1.73726,3.20723 z"
       id="path934"
       inkscape:connector-curvature="0" />
    <rect
       style="fill:#000000;fill-opacity:0.39215686;stroke:#000000;stroke-width:0;stroke-linecap:round;stroke-linejoin:round;stroke-miterlimit:4;stroke-dasharray:none;stroke-opacity:1"
       id="rect938"
       width="21.792309"
       height="2.137547"
       x="113.19814"
       y="188.11353" />
    <path
       style="fill:#373737;fill-opacity:1;stroke:#000000;stroke-width:3;stroke-linecap:butt;stroke-linejoin:round;stroke-miterlimit:4;stroke-dasharray:none;stroke-opacity:1"
       d="m 202.12276,214.41221 0.8032,6.66183 2.55134,-0.0472 0.56697,0.18899 0.42522,0.28349 0.42522,0.56696 0.0472,3.2128 0.37798,0.33073 0.94494,0.0472 3.49628,-1.5119 1.22842,-0.61421 1.13393,-1.27567 0.7087,-0.23624 24.33222,-0.33073 -0.11412,-3.67576 -11.93392,0.1322 v 0 l -0.75595,-0.8977 -1.46466,-1.03943 -2.92932,-1.98438 z"
       id="path940"
       inkscape:connector-curvature="0"
       sodipodi:nodetypes="ccccccccccccccccccccc" />
    <rect
       style="fill:#000000;fill-opacity:0.39215686;stroke:#000000;stroke-width:0;stroke-linecap:round;stroke-linejoin:round;stroke-miterlimit:4;stroke-dasharray:none;stroke-opacity:1"
       id="rect944"
       width="23.340036"
       height="3.9215059"
       x="202.12276"
       y="214.41222" />
    <path
       style="fill:#282828;stroke:#000000;stroke-width:3;stroke-linecap:butt;stroke-linejoin:round;stroke-miterlimit:4;stroke-dasharray:none;stroke-opacity:1;fill-opacity:1"
       d="m 239.05026,218.0125 4.16501,-0.0574 0.73499,-1.40317 0.53453,-0.26727 0.53454,0.20045 1.1359,2.07134 0.0668,2.73951 -0.0668,0.26728 -1.26953,1.87088 -0.46772,0.13364 -0.73499,-0.33409 -0.66817,-1.46998 -3.85044,-0.0754 z"
       id="path946"
       inkscape:connector-curvature="0"
       sodipodi:nodetypes="cccccccccccccc" />
    <path
       style="fill:none;stroke:#000000;stroke-width:1.5;stroke-linecap:butt;stroke-linejoin:round;stroke-miterlimit:4;stroke-dasharray:none;stroke-opacity:1"
       d="m 117.39815,229.24717 8.46873,0.048 c 3.24277,0.0184 3.67289,-6.56881 3.67289,-6.56881 l -10.37097,-0.0607 -1.43657,2.13816 -0.26728,0.56795 -0.33408,0.93544 -0.0668,0.50113 v 0.46772 l 0.30068,0.60136 z"
       id="path1833"
       sodipodi:nodetypes="csccccccccc" />
    <path
       style="fill:#000000;fill-opacity:1;stroke:#000000;stroke-width:0.203269;stroke-linecap:butt;stroke-linejoin:miter;stroke-miterlimit:4;stroke-dasharray:none;stroke-opacity:1"
       d="m 120.76874,224.27536 0.2212,0.84307 0.16356,0.37853 0.44456,0.76397 0.5574,0.7337 0.63339,0.78243 0.21646,0.0533 0.13125,-0.0698 0.0921,-0.1975 -0.0438,-0.1649 -0.37545,-0.58281 -0.21883,-0.44819 -0.13366,-0.51328 -0.0324,-0.63644 0.0483,-0.55055 0.50644,-0.99217 -2.7564,-0.0402 z"
       id="path1243" />
  </g>
</svg>
