<?xml version="1.0" encoding="UTF-8" standalone="no"?>
<!-- Created with Inkscape (http://www.inkscape.org/) -->

<svg
   width="1250"
   height="600"
   viewBox="0 0 330.72916 158.75"
   version="1.1"
   id="svg6492"
   inkscape:version="1.1.1 (c3084ef, 2021-09-22)"
   sodipodi:docname="TEC9_loot.svg"
   xmlns:inkscape="http://www.inkscape.org/namespaces/inkscape"
   xmlns:sodipodi="http://sodipodi.sourceforge.net/DTD/sodipodi-0.dtd"
   xmlns="http://www.w3.org/2000/svg"
   xmlns:svg="http://www.w3.org/2000/svg">
  <sodipodi:namedview
     id="namedview6494"
     pagecolor="#ffffff"
     bordercolor="#666666"
     borderopacity="1.0"
     inkscape:pageshadow="2"
     inkscape:pageopacity="0.0"
     inkscape:pagecheckerboard="0"
     inkscape:document-units="mm"
     showgrid="false"
     units="px"
     showguides="false"
     inkscape:zoom="0.83038193"
     inkscape:cx="662.34582"
     inkscape:cy="343.21556"
     inkscape:window-width="1312"
     inkscape:window-height="726"
     inkscape:window-x="0"
     inkscape:window-y="25"
     inkscape:window-maximized="0"
     inkscape:current-layer="layer1" />
  <defs
     id="defs6489" />
  <g
     inkscape:label="Layer 1"
     inkscape:groupmode="layer"
     id="layer1">
    <rect
       style="fill:#434343;fill-opacity:1;fill-rule:evenodd;stroke:#000000;stroke-width:3;stroke-linecap:square;stroke-linejoin:round;stroke-miterlimit:4;stroke-dasharray:none;stroke-opacity:1;paint-order:markers fill stroke"
       id="rect4933"
       width="5.9654984"
       height="10.207631"
       x="164.9129"
       y="30.357759"
       ry="0.92796522" />
    <rect
       style="fill:#595959;fill-opacity:1;fill-rule:evenodd;stroke:#000000;stroke-width:3;stroke-linecap:square;stroke-linejoin:round;stroke-miterlimit:4;stroke-dasharray:none;stroke-opacity:1;paint-order:markers fill stroke"
       id="rect3356"
       width="13.394825"
       height="68.125725"
       x="164.34511"
       y="70.766823" />
    <path
       style="fill:#3d3d3d;stroke:#000000;stroke-width:3;stroke-linecap:butt;stroke-linejoin:round;stroke-miterlimit:4;stroke-dasharray:none;stroke-opacity:1;fill-opacity:1"
       d="m 109.56851,66.905163 c 0.45206,-10.058376 -10.340919,-8.645684 -10.340919,-8.645684 0,0 -5.695478,-0.113084 -5.650775,-5.142203 0.0447,-5.029119 0.05651,-10.849486 0.05651,-10.849486 0,0 0.65654,-3.146968 4.464111,-3.673004 3.807573,-0.526036 15.822163,6.950453 15.822163,6.950453 l 79.77254,-0.153265 -0.0925,12.271539 -2.48429,1.959441 -9.20237,0.03499 -0.24933,17.117428 0.74188,2.924344 -21.61563,0.0632 1.01126,-2.844162 -0.0632,-17.570595 -24.90221,0.126407 c -10.27317,16.418676 -17.31778,42.030384 -17.31778,42.030384 l 0.67456,1.23725 0.11929,0.37491 v 0.28971 l -0.017,0.40899 -0.2897,0.42603 -0.17042,0.13633 -0.80094,0.42604 -0.4942,0.0852 h -1.46555 l -3.32306,-0.25562 -19.904282,-2.5562 -0.579406,-0.35786 -0.494199,-0.52829 -0.221536,-0.52828 0.08521,-0.664614 C 102.23328,77.295488 109.56851,66.905163 109.56851,66.905163 Z"
       id="path1047"
       sodipodi:nodetypes="cczczcccccccccccccccccccccccccccc" />
    <path
       style="fill:#000000;fill-opacity:0.2;stroke:#000000;stroke-width:0;stroke-linecap:butt;stroke-linejoin:miter;stroke-miterlimit:4;stroke-dasharray:none;stroke-opacity:1"
       d="m 98.78592,101.62868 c 7.99526,-21.676048 16.87889,-33.402434 16.87889,-33.402434 0,0 -0.23448,-8.990788 -3.90879,-12.614748 -3.67431,-3.623959 -12.081738,-3.10927 -12.081738,-3.10927 l -0.177673,-13.947291 -5.063667,1.599052 -0.44418,15.279835 5.238826,2.825655 6.754072,0.727798 3.1981,5.063664 0.38875,2.854222 -16.931774,33.093382 1.209931,2.079045 z"
       id="path2468"
       sodipodi:nodetypes="cczccccccccccc" />
    <path
       style="fill:#000000;fill-opacity:0.2;stroke:#000000;stroke-width:0;stroke-linecap:butt;stroke-linejoin:miter;stroke-miterlimit:4;stroke-dasharray:none;stroke-opacity:1"
       d="m 114.74741,104.36812 -1.79934,-4.1497 c 0,0 16.10611,-46.577698 21.20893,-46.529369 l 33.34234,-5.1e-5 -0.39381,21.003104 9.18884,-0.131267 0.39381,-20.806202 17.19625,-0.06564 -0.28479,3.974513 -2.48429,1.959441 -9.20237,0.03499 0.49255,20.041772 -21.61563,0.0632 0.94806,-20.414757 -24.90221,0.126407 -9.76729,18.761805 -7.55049,23.268579 0.77685,2.31086 -1.75526,1.0736 z"
       id="path2673"
       sodipodi:nodetypes="cccccccccccccccccccc" />
    <circle
       style="fill:#000000;fill-opacity:0.4;fill-rule:evenodd;stroke:#000000;stroke-width:0;stroke-linecap:square;stroke-linejoin:round;stroke-miterlimit:4;stroke-dasharray:none;stroke-opacity:0.2;paint-order:markers fill stroke"
       id="path2905"
       cx="120.53359"
       cy="64.597473"
       r="3.9999995" />
    <ellipse
       style="fill:#000000;fill-opacity:0.4;fill-rule:evenodd;stroke:#000000;stroke-width:0;stroke-linecap:square;stroke-linejoin:round;stroke-miterlimit:4;stroke-dasharray:none;stroke-opacity:0.2;paint-order:markers fill stroke"
       id="path2905-0"
       cx="171.37921"
       cy="51.049652"
       rx="2.499999"
       ry="2.4999993" />
    <path
       style="fill:none;stroke:#000000;stroke-width:3;stroke-linecap:butt;stroke-linejoin:miter;stroke-opacity:1;stroke-miterlimit:4;stroke-dasharray:none"
       d="m 129.97526,74.024603 30.97513,-0.08348"
       id="path3288" />
    <path
       style="fill:#000000;stroke:#000000;stroke-width:0;stroke-linecap:butt;stroke-linejoin:miter;stroke-opacity:1;stroke-miterlimit:4;stroke-dasharray:none;fill-opacity:0.2"
       d="m 177.73993,138.89255 h -13.39482 l 0.37428,-59.207314 h 4.25171 l -0.2743,54.174984 h 4.52601 l 0.2743,-54.037832 h 4.66317 z"
       id="path3493" />
    <path
       style="fill:#000000;fill-opacity:1;stroke:#000000;stroke-width:0.589479;stroke-linecap:butt;stroke-linejoin:miter;stroke-miterlimit:4;stroke-dasharray:none;stroke-opacity:1"
       d="m 140.91921,62.02748 1.4248,2.452015 0.79499,1.04843 1.88106,2.022457 2.12181,1.835705 2.35692,1.925845 0.5794,-0.01048 0.24354,-0.325096 0.014,-0.691995 -0.28001,-0.479151 -1.52277,-1.513215 -1.00212,-1.220806 -0.86496,-1.493627 -0.75018,-1.961101 -0.46466,-1.758714 0.1763,-3.512177 -6.70401,2.12686 z"
       id="path1243" />
    <path
       style="fill:#3e3e3e;fill-opacity:1;stroke:#000000;stroke-width:3;stroke-linecap:butt;stroke-linejoin:round;stroke-miterlimit:4;stroke-dasharray:none;stroke-opacity:1"
       d="m 99.496609,38.554937 c 0,0 -0.801233,-3.636987 2.510701,-3.631522 l 133.94677,0.221033 -0.11052,17.019637 -42.19356,0.02736 0.0421,-6.799466 -79.77254,0.153265 c 0,0 -6.505,-4.422121 -14.422991,-6.990307 z"
       id="path4037"
       sodipodi:nodetypes="cscccccc" />
    <rect
       style="fill:#000000;fill-opacity:0.2;fill-rule:evenodd;stroke:#000000;stroke-width:0;stroke-linecap:square;stroke-linejoin:round;stroke-miterlimit:4;stroke-dasharray:none;stroke-opacity:1;paint-order:markers fill stroke"
       id="rect4745"
       width="32.876526"
       height="3.0490324"
       x="133.62717"
       y="37.914059"
       ry="1.5245162" />
    <ellipse
       style="fill:#000000;fill-opacity:0.5;fill-rule:evenodd;stroke:#000000;stroke-width:0;stroke-linecap:square;stroke-linejoin:round;stroke-miterlimit:4;stroke-dasharray:none;stroke-opacity:1;paint-order:markers fill stroke"
       id="path5117"
       cx="204.24799"
       cy="43.620609"
       rx="2.5040944"
       ry="2.5040958" />
    <ellipse
       style="fill:#000000;fill-opacity:0.5;fill-rule:evenodd;stroke:#000000;stroke-width:0;stroke-linecap:square;stroke-linejoin:round;stroke-miterlimit:4;stroke-dasharray:none;stroke-opacity:1;paint-order:markers fill stroke"
       id="path5117-7"
       cx="213.5468"
       cy="43.621002"
       rx="2.5040944"
       ry="2.5040958" />
    <ellipse
       style="fill:#000000;fill-opacity:0.5;fill-rule:evenodd;stroke:#000000;stroke-width:0;stroke-linecap:square;stroke-linejoin:round;stroke-miterlimit:4;stroke-dasharray:none;stroke-opacity:1;paint-order:markers fill stroke"
       id="path5117-7-7"
       cx="222.978"
       cy="43.621002"
       rx="2.5040944"
       ry="2.5040958" />
    <ellipse
       style="fill:#000000;fill-opacity:0.5;fill-rule:evenodd;stroke:#000000;stroke-width:0;stroke-linecap:square;stroke-linejoin:round;stroke-miterlimit:4;stroke-dasharray:none;stroke-opacity:1;paint-order:markers fill stroke"
       id="path5117-7-7-8"
       cx="232.304"
       cy="43.621002"
       rx="2.5040944"
       ry="2.5040958" />
    <ellipse
       style="fill:#000000;fill-opacity:0.5;fill-rule:evenodd;stroke:#000000;stroke-width:0;stroke-linecap:square;stroke-linejoin:round;stroke-miterlimit:4;stroke-dasharray:none;stroke-opacity:1;paint-order:markers fill stroke"
       id="path5117-0"
       cx="199.44818"
       cy="50.096241"
       rx="2.540652"
       ry="1.7359009" />
    <ellipse
       style="fill:#000000;fill-opacity:0.5;fill-rule:evenodd;stroke:#000000;stroke-width:0;stroke-linecap:square;stroke-linejoin:round;stroke-miterlimit:4;stroke-dasharray:none;stroke-opacity:1;paint-order:markers fill stroke"
       id="path5117-7-1"
       cx="208.88275"
       cy="50.096516"
       rx="2.540652"
       ry="1.7359009" />
    <ellipse
       style="fill:#000000;fill-opacity:0.5;fill-rule:evenodd;stroke:#000000;stroke-width:0;stroke-linecap:square;stroke-linejoin:round;stroke-miterlimit:4;stroke-dasharray:none;stroke-opacity:1;paint-order:markers fill stroke"
       id="path5117-7-7-5"
       cx="218.45164"
       cy="50.096516"
       rx="2.540652"
       ry="1.7359009" />
    <ellipse
       style="fill:#000000;fill-opacity:0.5;fill-rule:evenodd;stroke:#000000;stroke-width:0;stroke-linecap:square;stroke-linejoin:round;stroke-miterlimit:4;stroke-dasharray:none;stroke-opacity:1;paint-order:markers fill stroke"
       id="path5117-7-7-8-8"
       cx="227.9138"
       cy="50.096516"
       rx="2.540652"
       ry="1.7359009" />
    <ellipse
       style="fill:#000000;fill-opacity:0.5;fill-rule:evenodd;stroke:#000000;stroke-width:0;stroke-linecap:square;stroke-linejoin:round;stroke-miterlimit:4;stroke-dasharray:none;stroke-opacity:1;paint-order:markers fill stroke"
       id="path5117-0-1"
       cx="199.39159"
       cy="37.235901"
       rx="2.540652"
       ry="1.7359009" />
    <ellipse
       style="fill:#000000;fill-opacity:0.5;fill-rule:evenodd;stroke:#000000;stroke-width:0;stroke-linecap:square;stroke-linejoin:round;stroke-miterlimit:4;stroke-dasharray:none;stroke-opacity:1;paint-order:markers fill stroke"
       id="path5117-7-1-3"
       cx="208.82616"
       cy="37.236176"
       rx="2.540652"
       ry="1.7359009" />
    <ellipse
       style="fill:#000000;fill-opacity:0.5;fill-rule:evenodd;stroke:#000000;stroke-width:0;stroke-linecap:square;stroke-linejoin:round;stroke-miterlimit:4;stroke-dasharray:none;stroke-opacity:1;paint-order:markers fill stroke"
       id="path5117-7-7-5-7"
       cx="218.39505"
       cy="37.236176"
       rx="2.540652"
       ry="1.7359009" />
    <ellipse
       style="fill:#000000;fill-opacity:0.5;fill-rule:evenodd;stroke:#000000;stroke-width:0;stroke-linecap:square;stroke-linejoin:round;stroke-miterlimit:4;stroke-dasharray:none;stroke-opacity:1;paint-order:markers fill stroke"
       id="path5117-7-7-8-8-2"
       cx="227.85721"
       cy="37.236176"
       rx="2.540652"
       ry="1.7359009" />
    <rect
       style="fill:#3e3e3e;fill-opacity:1;fill-rule:evenodd;stroke:#000000;stroke-width:3;stroke-linecap:square;stroke-linejoin:round;stroke-miterlimit:4;stroke-dasharray:none;stroke-opacity:1;paint-order:markers fill stroke"
       id="rect5937"
       width="9.2529116"
       height="5.2873774"
       x="236.31641"
       y="40.799999"
       ry="0.92796522" />
    <path
       style="fill:none;stroke:#000000;stroke-width:2.5;stroke-linecap:butt;stroke-linejoin:round;stroke-miterlimit:4;stroke-dasharray:none;stroke-opacity:1"
       d="m 236.17757,35.144448 -0.007,-5.021739 -3.02066,4.866624 z"
       id="path6444" />
    <rect
       style="fill:#000000;fill-opacity:0.3;fill-rule:evenodd;stroke:#000000;stroke-width:3;stroke-linecap:square;stroke-linejoin:round;stroke-miterlimit:4;stroke-dasharray:none;stroke-opacity:1;paint-order:markers fill stroke"
       id="rect6758"
       width="17.749195"
       height="6.2875385"
       x="168.25"
       y="39.104027"
       ry="1.0318418" />
  </g>
</svg>
