<?xml version="1.0" encoding="UTF-8" standalone="no"?>
<!-- Created with Inkscape (http://www.inkscape.org/) -->

<svg
   width="30mm"
   height="95mm"
   viewBox="0 0 30 95"
   version="1.1"
   id="svg111"
   inkscape:version="1.1.1 (c3084ef, 2021-09-22)"
   sodipodi:docname="AKS_74U_topdown.svg"
   xmlns:inkscape="http://www.inkscape.org/namespaces/inkscape"
   xmlns:sodipodi="http://sodipodi.sourceforge.net/DTD/sodipodi-0.dtd"
   xmlns="http://www.w3.org/2000/svg"
   xmlns:svg="http://www.w3.org/2000/svg">
  <sodipodi:namedview
     id="namedview113"
     pagecolor="#ffffff"
     bordercolor="#666666"
     borderopacity="1.0"
     inkscape:pageshadow="2"
     inkscape:pageopacity="0.0"
     inkscape:pagecheckerboard="0"
     inkscape:document-units="mm"
     showgrid="false"
     inkscape:zoom="1.203379"
     inkscape:cx="-14.542384"
     inkscape:cy="244.31206"
     inkscape:window-width="1312"
     inkscape:window-height="738"
     inkscape:window-x="0"
     inkscape:window-y="25"
     inkscape:window-maximized="0"
     inkscape:current-layer="layer1"
     height="170mm" />
  <defs
     id="defs108" />
  <g
     inkscape:label="Layer 1"
     inkscape:groupmode="layer"
     id="layer1">
    <path
       style="fill:#373737;fill-opacity:1;stroke:#000000;stroke-width:2.5831;stroke-linecap:butt;stroke-linejoin:round;stroke-miterlimit:4;stroke-dasharray:none;stroke-opacity:1"
       d="M 13.645998,11.667937 11.741655,5.142672 11.691535,5.021084 11.791769,4.858965 12.443256,4.615788 13.09474,4.453669 13.846455,4.33208 14.648284,4.29155 h 0.95217 0.7016 l 0.551257,0.04053 0.601372,0.08106 0.751714,0.162118 0.551257,0.12159 0.350801,0.202648 v 0.121589 0.324236 l -1.804115,6.363148 -0.400914,-0.04053 -0.601372,-0.04053 -0.902056,-0.04053 h -0.651486 l -0.751715,0.08106 z"
       id="path160" />
    <path
       style="fill:none;stroke:#000000;stroke-width:2.27859;stroke-linecap:butt;stroke-linejoin:miter;stroke-miterlimit:4;stroke-dasharray:none;stroke-opacity:0.2"
       d="m 12.952099,7.45315 3.29639,-3.124794"
       id="path1345" />
    <path
       style="fill:none;stroke:#000000;stroke-width:2.54524;stroke-linecap:butt;stroke-linejoin:miter;stroke-miterlimit:4;stroke-dasharray:none;stroke-opacity:0.2"
       d="M 14.913862,11.47338 18.542195,7.931135"
       id="path1345-7" />
    <rect
       style="fill:#5a5a5a;fill-opacity:1;fill-rule:evenodd;stroke:#000000;stroke-width:3;stroke-linecap:round;stroke-linejoin:round;stroke-miterlimit:4;stroke-dasharray:none;stroke-opacity:1;paint-order:markers fill stroke"
       id="rect1699"
       width="6.8193688"
       height="3.8724775"
       x="12.084776"
       y="13.389978" />
    <rect
       style="fill:#3e3e3e;fill-opacity:1;fill-rule:evenodd;stroke:#000000;stroke-width:3;stroke-linecap:round;stroke-linejoin:round;stroke-miterlimit:4;stroke-dasharray:none;stroke-opacity:1;paint-order:markers fill stroke"
       id="rect1699-9"
       width="4.6651788"
       height="12.185022"
       x="13.188071"
       y="17.457439" />
    <path
       style="fill:#622b14;fill-opacity:1;stroke:#000000;stroke-width:3;stroke-linecap:butt;stroke-linejoin:round;stroke-miterlimit:4;stroke-dasharray:none;stroke-opacity:1"
       d="M 9.5878087,60.969492 H 21.437452 V 33.505731 L 21.253124,32.949619 20.972298,32.50142 20.37944,32.006039 19.380942,31.605018 17.688625,31 h -4.335928 l -2.271764,0.793733 -0.842483,0.660507 -0.6506413,1.051491 z"
       id="path2625" />
    <path
       style="fill:#000000;fill-opacity:0.2;stroke:#000000;stroke-width:0;stroke-linecap:butt;stroke-linejoin:miter;stroke-miterlimit:4;stroke-dasharray:none;stroke-opacity:1"
       d="M 9.5878085,60.969492 V 33.505731 L 13.352696,31 13.157326,60.64806 Z"
       id="path5292" />
    <path
       style="fill:#000000;fill-opacity:0.2;stroke:#000000;stroke-width:0;stroke-linecap:butt;stroke-linejoin:miter;stroke-miterlimit:4;stroke-dasharray:none;stroke-opacity:1"
       d="M 21.437452,60.969492 V 33.505731 L 17.571092,31 17.771727,60.64806 Z"
       id="path5292-6" />
    <path
       style="fill:none;stroke:#000000;stroke-width:2;stroke-linecap:butt;stroke-linejoin:round;stroke-miterlimit:4;stroke-dasharray:none;stroke-opacity:0.1"
       d="m 9.8119357,37.862128 c 0.8007473,-0.09386 1.6040203,0.189656 2.4029233,0.06675 0.285526,-0.04393 1.595601,-0.464061 1.86894,-0.600731 0.691291,-0.345647 1.054645,-0.733118 1.86894,-0.800976 0.41391,-0.03449 1.624516,0.196315 2.002436,0.33374 0.323142,0.117507 0.579209,0.408024 0.93447,0.467236 0.791184,0.131863 1.662907,0.133495 2.469671,0.133495"
       id="path5639" />
    <path
       style="fill:none;stroke:#000000;stroke-width:4;stroke-linecap:butt;stroke-linejoin:round;stroke-miterlimit:4;stroke-dasharray:none;stroke-opacity:0.1"
       d="m 9.8119353,37.862128 c 0.8007477,-0.09386 1.6040207,0.189656 2.4029237,0.06675 0.285526,-0.04393 1.595601,-0.464061 1.86894,-0.600731 0.691291,-0.345647 1.054645,-0.733118 1.86894,-0.800976 0.41391,-0.03449 1.624516,0.196315 2.002436,0.33374 0.323142,0.117507 0.579209,0.408024 0.93447,0.467236 0.791184,0.131863 1.662907,0.133495 2.469671,0.133495"
       id="path5639-9" />
    <path
       style="fill:none;stroke:#000000;stroke-width:2;stroke-linecap:butt;stroke-linejoin:miter;stroke-miterlimit:4;stroke-dasharray:none;stroke-opacity:0.1"
       d="m 9.8786838,54.949581 c 0.088997,0.06675 0.1600252,0.169682 0.2669912,0.200244 1.051436,0.300411 2.915852,-0.128233 4.004872,-0.400486 0.37046,-0.09262 0.711642,-0.281715 1.067966,-0.40049 0.483807,-0.161268 1.046041,-0.283921 1.468453,-0.600731 0.462119,-0.346588 0.876567,-0.749345 1.468453,-0.867722 0.15272,-0.03054 0.312262,0.01551 0.467235,0 0.7957,-0.07957 1.54258,0 2.336175,0"
       id="path5740" />
    <path
       style="fill:none;stroke:#000000;stroke-width:4;stroke-linecap:butt;stroke-linejoin:miter;stroke-miterlimit:4;stroke-dasharray:none;stroke-opacity:0.1"
       d="m 9.8786838,54.949581 c 0.089,0.06675 0.1600252,0.169682 0.2669912,0.200244 1.051436,0.300411 2.915852,-0.128233 4.004872,-0.400486 0.37046,-0.09262 0.711642,-0.281715 1.067966,-0.40049 0.483807,-0.161268 1.046041,-0.283921 1.468453,-0.600731 0.462119,-0.346588 0.876567,-0.749345 1.468453,-0.867722 0.15272,-0.03054 0.312262,0.01551 0.467235,0 0.7957,-0.07957 1.54258,0 2.336175,0"
       id="path5740-4" />
    <path
       style="fill:none;stroke:#000000;stroke-width:2;stroke-linecap:butt;stroke-linejoin:round;stroke-miterlimit:4;stroke-dasharray:none;stroke-opacity:0.1"
       d="m 10.078927,43.068461 c 0.526698,0.414507 1.254904,0.732896 1.935688,0.800976 0.352464,0.03524 0.715502,-0.03525 1.067966,0 0.526305,0.05263 1.067391,0.111294 1.601949,0.06675 0.550742,-0.04589 1.106984,-0.227113 1.668696,-0.133495 0.360365,0.06006 0.706495,0.215352 1.067966,0.266991 0.13406,0.01916 0.335919,-0.03283 0.467235,0 0.06603,0.01651 0.689988,0.571238 0.734227,0.600731 0.138879,0.09258 0.495976,0.263287 0.667478,0.400486 0.224089,0.179271 0.567498,0.483995 0.800975,0.600731 0.152318,0.07616 0.367409,0.03343 0.533982,0.06675 0.14104,0.02821 0.259968,0.133495 0.400488,0.133495"
       id="path5775" />
    <path
       style="fill:none;stroke:#000000;stroke-width:4;stroke-linecap:butt;stroke-linejoin:round;stroke-miterlimit:4;stroke-dasharray:none;stroke-opacity:0.1"
       d="m 10.078927,43.068461 c 0.526698,0.414507 1.254904,0.732896 1.935688,0.800976 0.352464,0.03524 0.715502,-0.03525 1.067966,0 0.526305,0.05263 1.067391,0.111294 1.601949,0.06675 0.550742,-0.04589 1.106984,-0.227113 1.668696,-0.133495 0.360365,0.06006 0.706495,0.215352 1.067966,0.266991 0.13406,0.01916 0.335919,-0.03283 0.467235,0 0.06603,0.01651 0.689988,0.571238 0.734227,0.600731 0.138879,0.09258 0.495976,0.263287 0.667478,0.400486 0.224089,0.179271 0.567498,0.483995 0.800975,0.600731 0.152318,0.07616 0.367409,0.03343 0.533982,0.06675 0.14104,0.02821 0.259968,0.133495 0.400488,0.133495"
       id="path5775-8" />
    <path
       style="fill:#353535;fill-opacity:1;stroke:#000000;stroke-width:3;stroke-linecap:butt;stroke-linejoin:round;stroke-miterlimit:4;stroke-dasharray:none;stroke-opacity:1"
       d="M 9.5878083,60.969492 9.2845577,89.42562 H 21.970389 L 21.437452,60.969492 Z"
       id="path6782" />
    <path
       style="fill:#000000;fill-opacity:0.2;stroke:#000000;stroke-width:0;stroke-linecap:butt;stroke-linejoin:miter;stroke-miterlimit:4;stroke-dasharray:none;stroke-opacity:1"
       d="M 21.970389,89.42562 21.437452,60.969492 17.771727,60.64806 18.385262,89.42562 Z"
       id="path7279" />
    <path
       style="fill:#000000;fill-opacity:0.2;stroke:#000000;stroke-width:0;stroke-linecap:butt;stroke-linejoin:miter;stroke-miterlimit:4;stroke-dasharray:none;stroke-opacity:1"
       d="M 9.5878083,60.969492 13.157326,60.64806 12.96161,89.51754 9.2845577,89.42562 Z"
       id="path7413" />
  </g>
</svg>
