<?xml version="1.0" encoding="UTF-8" standalone="no"?>
<!-- Created with Inkscape (http://www.inkscape.org/) -->

<svg
   width="1250"
   height="600"
   viewBox="0 0 330.72916 158.75"
   version="1.1"
   id="svg5"
   inkscape:version="1.1.1 (c3084ef, 2021-09-22)"
   sodipodi:docname="AKS-74U_loot.svg"
   xmlns:inkscape="http://www.inkscape.org/namespaces/inkscape"
   xmlns:sodipodi="http://sodipodi.sourceforge.net/DTD/sodipodi-0.dtd"
   xmlns="http://www.w3.org/2000/svg"
   xmlns:svg="http://www.w3.org/2000/svg">
  <sodipodi:namedview
     id="namedview7"
     pagecolor="#ffffff"
     bordercolor="#666666"
     borderopacity="1.0"
     inkscape:pageshadow="2"
     inkscape:pageopacity="0.0"
     inkscape:pagecheckerboard="0"
     inkscape:document-units="mm"
     showgrid="false"
     units="px"
     inkscape:zoom="0.3829581"
     inkscape:cx="633.22855"
     inkscape:cy="107.06132"
     inkscape:window-width="1312"
     inkscape:window-height="738"
     inkscape:window-x="0"
     inkscape:window-y="25"
     inkscape:window-maximized="0"
     inkscape:current-layer="layer1" />
  <defs
     id="defs2" />
  <g
     inkscape:label="Layer 1"
     inkscape:groupmode="layer"
     id="layer1">
    <path
       style="fill:#5f5f5f;fill-opacity:1;stroke:#000000;stroke-width:3;stroke-linecap:butt;stroke-linejoin:round;stroke-miterlimit:4;stroke-dasharray:none;stroke-opacity:1"
       d="m 117.89294,73.554306 23.61355,-0.306671 0.23,8.203406 -1.30335,0.996678 h -1.99335 l -0.38333,0.153334 -0.92001,0.613338 -0.0767,0.153334 -10.27342,21.773525 -0.15334,0.92001 0.15334,0.61334 0.92001,1.15001 0.30666,0.61333 v 0.99668 l -0.61334,0.99668 -1.53334,1.22667 h -0.69001 l -12.11344,-4.75337 -0.30667,-0.46001 -0.76667,-2.22335 v -0.46 l 9.27675,-21.006853 0.15333,-0.843341 v -2.223352 l -0.23,-0.690007 -2.45336,-1.76335 -0.46,-0.383336 -0.53667,-0.613339 z"
       id="path869" />
    <path
       style="fill:#434343;fill-opacity:1;stroke:#434343;stroke-width:1.10257;stroke-linecap:butt;stroke-linejoin:round;stroke-miterlimit:4;stroke-dasharray:none;stroke-opacity:1"
       d="m 126.0085,82.056172 h 6.98426 l -10.80585,23.398638 -6.06181,-2.03467 z"
       id="path1059" />
    <path
       style="fill:#7a7a7a;fill-opacity:1;stroke:#000000;stroke-width:3;stroke-linecap:butt;stroke-linejoin:round;stroke-miterlimit:4;stroke-dasharray:none;stroke-opacity:1"
       d="m 117.89294,73.554306 -2.7861,-0.07985 -1.95537,-1.747356 -0.24962,-10.442524 1.49773,-1.372923 6.02916,-5.880119 51.60755,0.442683 v 6.938735 l 7.02336,-1.184662 38.83999,0.67695 -0.0846,10.408102 -76.30853,1.934292 z"
       id="path3775" />
    <path
       style="fill:#424242;fill-opacity:1;stroke:#000000;stroke-width:3;stroke-linecap:butt;stroke-linejoin:round;stroke-miterlimit:4;stroke-dasharray:none;stroke-opacity:1"
       d="m 120.42874,54.031533 6.00109,-5.315035 83.29014,0.555268 0.18509,11.29044 -30.84541,-0.333917 -7.02336,1.184661 v -6.938735 z"
       id="path4503" />
    <path
       style="fill:#585858;fill-opacity:1;stroke:#000000;stroke-width:3;stroke-linecap:butt;stroke-linejoin:round;stroke-miterlimit:4;stroke-dasharray:none;stroke-opacity:1"
       d="m 162.60217,73.053532 0.43107,9.968576 5.22677,-0.107767 3.87966,-10.399652 z"
       id="path4999" />
    <path
       style="fill:none;stroke:#000000;stroke-width:3;stroke-linecap:butt;stroke-linejoin:round;stroke-miterlimit:4;stroke-dasharray:none;stroke-opacity:1"
       d="m 140.43314,82.447719 2.83078,2.053288 0.90793,0.544764 0.81715,0.181586 15.43499,-0.09079 0.72635,-0.09079 0.54476,-0.363178 1.33814,-1.660485"
       id="path5133" />
    <path
       style="fill:#000000;fill-opacity:1;stroke:#000000;stroke-width:0.898948;stroke-linecap:butt;stroke-linejoin:miter;stroke-miterlimit:4;stroke-dasharray:none;stroke-opacity:1"
       d="m 148.38476,73.915494 0.16346,1.955292 0.0817,0.67424 0.1907,1.04507 0.51761,1.517039 0.49037,0.943935 0.89902,1.146204 0.65383,0.674241 0.65383,0.438256 0.68107,0.235981 h 0.70831 l 0.29968,-0.101134 0.13621,-0.370832 -0.16346,-0.640527 -0.21794,-0.337119 -0.87177,-0.640527 -0.79004,-0.775375 -0.65383,-1.21363 -0.59935,-2.494685 0.0272,-2.09014 z"
       id="path5242" />
    <path
       style="fill:#494949;fill-opacity:1;stroke:#000000;stroke-width:3;stroke-linecap:butt;stroke-linejoin:round;stroke-miterlimit:4;stroke-dasharray:none;stroke-opacity:1"
       d="m 136.3126,65.934323 1.07347,0.16065 1.56955,0.140336 27.28626,0.358743 1.31136,-0.09755 0.62824,-0.36187 0.19521,-0.943354 0.30931,-1.073317 -1.06745,-0.933178 -1.57575,-0.382474 -11.91195,-0.374494 -4.37929,-0.229887 -11.20436,-2.011115 -1.65087,-0.341618 -1.18123,0.06299 -1.06741,0.701385 -0.63028,0.668869 -0.41885,0.835591 -0.0773,0.967753 0.29883,1.230038 0.8315,1.032846 z"
       id="path5492"
       sodipodi:nodetypes="cccccccccccccccccccccc" />
    <path
       style="fill:#474747;fill-opacity:1;stroke:#000000;stroke-width:3;stroke-linecap:butt;stroke-linejoin:round;stroke-miterlimit:4;stroke-dasharray:none;stroke-opacity:1"
       d="m 115.10684,73.474455 -5.5699,2.355384 -1.22393,-0.979141 -4.32453,1.387115 -0.89754,-15.666227 4.7325,0.163189 0.73436,-1.305517 h 6.03802 l -1.69397,1.855316 0.24962,10.442525 z"
       id="path7732" />
    <path
       style="fill:#3c3c3c;fill-opacity:1;stroke:#000000;stroke-width:3;stroke-linecap:butt;stroke-linejoin:round;stroke-miterlimit:4;stroke-dasharray:none;stroke-opacity:1"
       d="m 103.09094,60.571586 -81.431745,3.508581 0.0816,1.142331 2.203063,9.709795 0.32638,2.121469 0.326379,3.100607 0.326382,4.406127 -0.734356,12.647216 h 5.303671 l 1.14233,-0.32638 73.353836,-20.643519 -0.24478,-5.46686 -72.945866,19.664378 0.16319,-4.977291 0.163189,-2.203061 -0.163189,-3.834964 -0.16319,-3.100607 -1.223926,-6.364404 73.843412,-4.079748 z"
       id="path7998" />
    <path
       style="fill:#000000;fill-opacity:0.3;stroke:#000000;stroke-width:0;stroke-linecap:butt;stroke-linejoin:miter;stroke-miterlimit:4;stroke-dasharray:none;stroke-opacity:1"
       d="m 120.42874,54.031531 4.77665,0.0958 -8.70567,8.581302 -0.18655,0.559652 v 6.218335 l 0.12436,0.3731 0.49747,0.310917 100.4883,-2.549517 0.39174,3.692221 -99.9221,2.240965 -4.74147,-1.827207 -0.44494,-1.867379 0.62184,-10.695538 z"
       id="path8589" />
    <path
       style="fill:#ffffff;fill-opacity:0.1;stroke:#000000;stroke-width:3;stroke-linecap:butt;stroke-linejoin:round;stroke-miterlimit:4;stroke-dasharray:none;stroke-opacity:1"
       d="m 172.03629,54.474215 1.93703,-5.43991 35.74665,0.237461 0.18509,11.29044 -30.84541,-0.333917 -7.02336,1.184661 z"
       id="path8869" />
    <path
       style="fill:none;stroke:#000000;stroke-width:2;stroke-linecap:round;stroke-linejoin:miter;stroke-miterlimit:4;stroke-dasharray:none;stroke-opacity:1"
       d="m 166.18457,86.915756 2.07544,-4.001415"
       id="path9280" />
    <path
       style="fill:#a64c1a;fill-opacity:1;stroke:#000000;stroke-width:3;stroke-linecap:butt;stroke-linejoin:round;stroke-miterlimit:4;stroke-dasharray:none;stroke-opacity:1"
       d="m 172.13967,72.514689 2.2199,14.912004 1.66055,7.025397 3.57657,9.32461 7.7918,14.94493 9.32462,15.32814 h 2.68242 l 15.96681,-9.70782 3.57656,-3.06563 -9.06914,-13.28438 -3.06563,-5.23712 -3.7043,-10.091015 -4.34297,-14.689463 -1.02188,-6.00352 z"
       id="path9381" />
    <path
       style="fill:none;stroke:#000000;stroke-width:3;stroke-linecap:round;stroke-linejoin:miter;stroke-miterlimit:4;stroke-dasharray:none;stroke-opacity:0.6"
       d="m 190.38896,72.322996 1.47059,8.288774 3.07487,9.893051 5.34759,13.235299 7.48664,14.70588"
       id="path10980" />
    <path
       style="fill:none;stroke:#000000;stroke-width:3.06964;stroke-linecap:round;stroke-linejoin:miter;stroke-miterlimit:4;stroke-dasharray:none;stroke-opacity:0.6"
       d="m 184.14563,72.793966 1.47059,8.678068 3.07487,10.357691 5.34759,13.856915 7.48664,15.39656"
       id="path10980-4" />
    <path
       style="fill:#000000;fill-opacity:0.3;stroke:#000000;stroke-width:0;stroke-linecap:butt;stroke-linejoin:miter;stroke-miterlimit:4;stroke-dasharray:none;stroke-opacity:1"
       d="m 218.9389,121.27632 -2.59038,-4.16657 -16.26429,10.27219 -1.28402,-0.21401 -0.64201,-0.64201 -13.91026,-24.82445 -3.21005,-6.848119 -2.14004,-8.98816 -1.92604,-13.26824 -4.83214,-0.08226 2.2199,14.912004 5.23712,16.350005 7.7918,14.94493 9.32462,15.32814 h 2.68242 z"
       id="path11296" />
    <path
       style="fill:#622b14;fill-opacity:1;stroke:#000000;stroke-width:3;stroke-linecap:butt;stroke-linejoin:round;stroke-miterlimit:4;stroke-dasharray:none;stroke-opacity:1"
       d="m 217.81504,71.313343 0.6906,1.974678 0.65576,0.596141 1.13267,0.417301 2.32495,0.178842 38.33195,-2.324954 1.90765,-0.536528 1.2519,-0.834599 1.05315,-1.366816 0.15597,-10.528414 -45.1552,-0.857869 -1.32579,0.311952 -0.77989,0.545917 -0.15912,2.016244 z"
       id="path11770" />
    <path
       style="fill:#000000;fill-opacity:0.2;stroke:#000000;stroke-width:0;stroke-linecap:butt;stroke-linejoin:miter;stroke-miterlimit:4;stroke-dasharray:none;stroke-opacity:1"
       d="m 217.4233,67.62112 4.61286,1.484336 1.79373,0.233966 35.01672,-1.715743 2.7296,-0.623906 3.43149,-2.261659 0.15597,4.679294 -4.2127,2.737943 -38.33195,2.324954 -4.11338,-1.192284 z"
       id="path12579" />
    <path
       style="fill:none;stroke:#000000;stroke-width:4;stroke-linecap:round;stroke-linejoin:miter;stroke-miterlimit:4;stroke-dasharray:none;stroke-opacity:0.2"
       d="M 226.87144,63.646279 254.3233,64.03622"
       id="path12713" />
    <path
       style="fill:#000000;fill-opacity:0.3;stroke:#000000;stroke-width:0;stroke-linecap:butt;stroke-linejoin:miter;stroke-miterlimit:4;stroke-dasharray:none;stroke-opacity:1"
       d="m 204.60546,59.830765 -0.26076,-5.562875 -0.34768,-0.869198 -0.95612,-0.26076 -30.08637,-0.148011 1.01879,-3.955616 35.74665,0.237461 0.18509,11.29044 z"
       id="path13073" />
    <path
       style="fill:#622b14;fill-opacity:1;stroke:#000000;stroke-width:3;stroke-linecap:butt;stroke-linejoin:round;stroke-miterlimit:4;stroke-dasharray:none;stroke-opacity:1"
       d="m 265.31964,58.888994 0.0655,-7.367391 -0.5311,-0.929407 -0.79663,-0.265544 -39.69893,-0.53109 -0.13277,7.966339 z"
       id="path13724" />
    <path
       style="fill:#000000;fill-opacity:0.3;stroke:#000000;stroke-width:0;stroke-linecap:butt;stroke-linejoin:miter;stroke-miterlimit:4;stroke-dasharray:none;stroke-opacity:1"
       d="m 265.31964,58.888994 -4.04252,-0.136927 v -4.332375 l -0.28882,-0.577648 -0.80869,-0.346591 -35.40995,-0.462119 -0.41118,-3.237772 39.69894,0.53109 1.3277,1.194951 z"
       id="path14410" />
    <path
       style="fill:#4d4d4d;fill-opacity:1;stroke:#000000;stroke-width:3;stroke-linecap:butt;stroke-linejoin:round;stroke-miterlimit:4;stroke-dasharray:none;stroke-opacity:1"
       d="m 224.35848,49.795562 -3.42948,-0.09966 -1.48807,-1.93449 -4.16659,0.148807 -1.93449,-0.446421 v -2.82733 l -2.97614,-0.744035 -1.04165,2.232102 -4.91062,3.124946 5.30853,0.02228 0.18509,11.29044 7.99458,0.343032 0.15912,-2.016244 0.77989,-0.545917 1.32579,-0.311952 4.06127,-0.269224 z"
       id="path14786" />
    <path
       style="fill:#000000;fill-opacity:0.3;stroke:#000000;stroke-width:0;stroke-linecap:butt;stroke-linejoin:miter;stroke-miterlimit:4;stroke-dasharray:none;stroke-opacity:1"
       d="m 209.90506,60.562201 -0.43419,-4.318799 4.46421,-0.148807 0.59523,-1.190453 0.89284,-0.595228 1.48807,-0.744035 1.93448,-0.148807 5.92396,-0.382738 -0.54395,4.728562 -5.38706,0.581176 -0.93901,2.562166 z"
       id="path15151" />
    <path
       style="fill:#474747;fill-opacity:1;stroke:#000000;stroke-width:3;stroke-linecap:butt;stroke-linejoin:round;stroke-miterlimit:4;stroke-dasharray:none;stroke-opacity:1"
       d="m 265.38512,51.521603 4.15047,0.14396 1.54604,-7.558374 h 6.18411 l -0.51533,13.398934 1.03068,1.546032 -0.51535,8.760841 -2.40493,-2.576719 -9.85311,-0.498163 z"
       id="path15511" />
    <path
       style="fill:#444444;fill-opacity:1;stroke:#000000;stroke-width:3;stroke-linecap:butt;stroke-linejoin:round;stroke-miterlimit:4;stroke-dasharray:none;stroke-opacity:1"
       d="m 277.78109,59.052155 19.58306,0.343561 1.54604,2.404939 8.58906,-1.717813 0.82006,2.504934 0.0777,1.878983 -0.15531,1.866122 -0.84829,2.48958 -8.23895,-2.795052 -2.29232,2.241457 -19.59636,-0.45587 z"
       id="path15909"
       sodipodi:nodetypes="cccccccccccc" />
    <path
       style="fill:#000000;fill-opacity:0.3;stroke:#000000;stroke-width:0;stroke-linecap:butt;stroke-linejoin:miter;stroke-miterlimit:4;stroke-dasharray:none;stroke-opacity:1"
       d="m 265.0077,64.738114 9.85311,0.498163 2.40493,2.576719 0.51535,-8.760841 -1.03068,-1.546032 0.51533,-13.398934 -4.16984,0.0315 -0.5765,11.457911 v 1.225061 l 0.0721,1.225057 0.36031,0.792687 0.14412,1.22506 -0.0721,0.936811 -7.99891,-0.144124 z"
       id="path16109" />
    <path
       style="fill:#2c2c2c;fill-opacity:1;stroke:#000000;stroke-width:3;stroke-linecap:butt;stroke-linejoin:round;stroke-miterlimit:4;stroke-dasharray:none;stroke-opacity:1"
       d="m 277.26574,67.812996 -12.10207,1.604412 -0.15597,-4.679294 9.85311,0.498163 z"
       id="path16523" />
    <path
       style="fill:#3b3b3b;fill-opacity:1;stroke:#000000;stroke-width:3;stroke-linecap:butt;stroke-linejoin:round;stroke-miterlimit:4;stroke-dasharray:none;stroke-opacity:1"
       d="m 161.10403,48.45804 4.96046,-6.200576 1.24011,-0.310029 1.24012,-0.155014 1.55014,0.620057 3.87846,6.621827 z"
       id="path17148" />
    <path
       style="fill:#000000;fill-opacity:0.3;stroke:#000000;stroke-width:0;stroke-linecap:butt;stroke-linejoin:miter;stroke-miterlimit:4;stroke-dasharray:none;stroke-opacity:1"
       d="m 112.62848,67.164126 -9.36299,1.158307 -0.17455,-7.750847 4.7325,0.163189 0.73436,-1.305517 4.77057,-0.265076 z"
       id="path1229" />
    <path
       style="fill:none;stroke:#000000;stroke-width:3;stroke-linecap:butt;stroke-linejoin:miter;stroke-opacity:1;stroke-miterlimit:4;stroke-dasharray:none"
       d="m 298.91019,61.800655 0.24426,4.226753"
       id="path2470" />
    <path
       style="fill:#000000;stroke:#000000;stroke-width:0;stroke-linecap:butt;stroke-linejoin:miter;stroke-opacity:1;stroke-miterlimit:4;stroke-dasharray:none;fill-opacity:0.30000001"
       d="m 299.15445,66.027408 8.23897,2.795053 0.10583,-8.739619 -8.58906,1.717813 z"
       id="path2672" />
  </g>
</svg>
