<?xml version="1.0" encoding="UTF-8" standalone="no"?>
<!-- Created with Inkscape (http://www.inkscape.org/) -->

<svg
   width="1250"
   height="600"
   viewBox="0 0 330.72915 158.75"
   version="1.1"
   id="svg5"
   inkscape:version="1.1.1 (c3084ef, 2021-09-22)"
   sodipodi:docname="MSBS_loot.svg"
   xmlns:inkscape="http://www.inkscape.org/namespaces/inkscape"
   xmlns:sodipodi="http://sodipodi.sourceforge.net/DTD/sodipodi-0.dtd"
   xmlns="http://www.w3.org/2000/svg"
   xmlns:svg="http://www.w3.org/2000/svg">
  <sodipodi:namedview
     id="namedview7"
     pagecolor="#ffffff"
     bordercolor="#666666"
     borderopacity="1.0"
     inkscape:pageshadow="2"
     inkscape:pageopacity="0.0"
     inkscape:pagecheckerboard="0"
     inkscape:document-units="mm"
     showgrid="false"
     units="px"
     width="1250px"
     inkscape:zoom="0.59365792"
     inkscape:cx="667.89305"
     inkscape:cy="313.31175"
     inkscape:window-width="1312"
     inkscape:window-height="738"
     inkscape:window-x="0"
     inkscape:window-y="25"
     inkscape:window-maximized="0"
     inkscape:current-layer="layer1" />
  <defs
     id="defs2" />
  <g
     inkscape:label="Layer 1"
     inkscape:groupmode="layer"
     id="layer1">
    <rect
       style="fill:#000000;fill-opacity:1;fill-rule:evenodd;stroke:#000000;stroke-width:2.90452;stroke-linecap:round;stroke-linejoin:round;stroke-miterlimit:4;stroke-dasharray:none;stroke-opacity:1;paint-order:stroke fill markers"
       id="rect6385-52"
       width="0.60087842"
       height="2.4915988"
       x="176.2399"
       y="42.988564" />
    <rect
       style="fill:#000000;fill-opacity:1;fill-rule:evenodd;stroke:#000000;stroke-width:2.90452;stroke-linecap:round;stroke-linejoin:round;stroke-miterlimit:4;stroke-dasharray:none;stroke-opacity:1;paint-order:stroke fill markers"
       id="rect6385-20"
       width="0.60087842"
       height="2.4915988"
       x="180.95821"
       y="42.988564" />
    <rect
       style="fill:#000000;fill-opacity:1;fill-rule:evenodd;stroke:#000000;stroke-width:2.90452;stroke-linecap:round;stroke-linejoin:round;stroke-miterlimit:4;stroke-dasharray:none;stroke-opacity:1;paint-order:stroke fill markers"
       id="rect6385-7"
       width="0.60087842"
       height="2.4915988"
       x="185.59784"
       y="42.988564" />
    <rect
       style="fill:#000000;fill-opacity:1;fill-rule:evenodd;stroke:#000000;stroke-width:2.90452;stroke-linecap:round;stroke-linejoin:round;stroke-miterlimit:4;stroke-dasharray:none;stroke-opacity:1;paint-order:stroke fill markers"
       id="rect6385-16"
       width="0.60087842"
       height="2.4915988"
       x="190.31612"
       y="42.988564" />
    <rect
       style="fill:#000000;fill-opacity:1;fill-rule:evenodd;stroke:#000000;stroke-width:2.90452;stroke-linecap:round;stroke-linejoin:round;stroke-miterlimit:4;stroke-dasharray:none;stroke-opacity:1;paint-order:stroke fill markers"
       id="rect6385-88"
       width="0.60087842"
       height="2.4915988"
       x="195.19164"
       y="42.988564" />
    <rect
       style="fill:#000000;fill-opacity:1;fill-rule:evenodd;stroke:#000000;stroke-width:2.90452;stroke-linecap:round;stroke-linejoin:round;stroke-miterlimit:4;stroke-dasharray:none;stroke-opacity:1;paint-order:stroke fill markers"
       id="rect6385-60"
       width="0.60087842"
       height="2.4915988"
       x="199.98859"
       y="43.072994" />
    <rect
       style="fill:#000000;fill-opacity:1;fill-rule:evenodd;stroke:#000000;stroke-width:2.90452;stroke-linecap:round;stroke-linejoin:round;stroke-miterlimit:4;stroke-dasharray:none;stroke-opacity:1;paint-order:stroke fill markers"
       id="rect6385-608"
       width="0.60087842"
       height="2.4915988"
       x="204.78551"
       y="43.07299" />
    <rect
       style="fill:#000000;fill-opacity:1;fill-rule:evenodd;stroke:#000000;stroke-width:2.90452;stroke-linecap:round;stroke-linejoin:round;stroke-miterlimit:4;stroke-dasharray:none;stroke-opacity:1;paint-order:stroke fill markers"
       id="rect6385-888"
       width="0.60087842"
       height="2.4915988"
       x="209.66109"
       y="42.988564" />
    <rect
       style="fill:#000000;fill-opacity:1;fill-rule:evenodd;stroke:#000000;stroke-width:2.90452;stroke-linecap:round;stroke-linejoin:round;stroke-miterlimit:4;stroke-dasharray:none;stroke-opacity:1;paint-order:stroke fill markers"
       id="rect6385-10"
       width="0.60087842"
       height="2.4915988"
       x="214.53661"
       y="42.904133" />
    <rect
       style="fill:#000000;fill-opacity:1;fill-rule:evenodd;stroke:#000000;stroke-width:2.90452;stroke-linecap:round;stroke-linejoin:round;stroke-miterlimit:4;stroke-dasharray:none;stroke-opacity:1;paint-order:stroke fill markers"
       id="rect6385-73"
       width="0.60087842"
       height="2.4915988"
       x="219.56947"
       y="42.904137" />
    <rect
       style="fill:#000000;fill-opacity:1;fill-rule:evenodd;stroke:#000000;stroke-width:2.90452;stroke-linecap:round;stroke-linejoin:round;stroke-miterlimit:4;stroke-dasharray:none;stroke-opacity:1;paint-order:stroke fill markers"
       id="rect6385-0"
       width="0.60087842"
       height="2.4915988"
       x="224.52367"
       y="42.904137" />
    <rect
       style="fill:#000000;fill-opacity:1;fill-rule:evenodd;stroke:#000000;stroke-width:2.90452;stroke-linecap:round;stroke-linejoin:round;stroke-miterlimit:4;stroke-dasharray:none;stroke-opacity:1;paint-order:stroke fill markers"
       id="rect6385-11"
       width="0.60087842"
       height="2.4915988"
       x="229.47786"
       y="42.819706" />
    <rect
       style="fill:#000000;fill-opacity:1;fill-rule:evenodd;stroke:#000000;stroke-width:2.90452;stroke-linecap:round;stroke-linejoin:round;stroke-miterlimit:4;stroke-dasharray:none;stroke-opacity:1;paint-order:stroke fill markers"
       id="rect6385-39"
       width="0.60087842"
       height="2.4915988"
       x="234.51071"
       y="42.735271" />
    <rect
       style="fill:#000000;fill-opacity:1;fill-rule:evenodd;stroke:#000000;stroke-width:2.90452;stroke-linecap:round;stroke-linejoin:round;stroke-miterlimit:4;stroke-dasharray:none;stroke-opacity:1;paint-order:stroke fill markers"
       id="rect6385-87"
       width="0.60087842"
       height="2.4915988"
       x="239.62219"
       y="42.650833" />
    <path
       style="fill:#333333;fill-opacity:1;stroke:#000000;stroke-width:3;stroke-linecap:butt;stroke-linejoin:round;stroke-miterlimit:4;stroke-dasharray:none;stroke-opacity:1"
       d="m 113.64782,95.73422 -5.50983,0.04413 -0.98682,0.220732 -0.78125,0.529767 -0.69899,1.10368 -9.58048,22.779951 -0.287833,1.14782 -0.04111,1.28027 0.205578,0.88295 0.411187,0.66222 0.123354,0.61805 -0.123354,0.97124 -0.287824,0.48562 -0.575648,0.35318 -0.986835,-0.0441 -15.419224,-8.03478 -0.699001,-0.70636 -0.37006,-0.66219 -0.123353,-0.57393 0.123353,-0.7505 13.651152,-25.693657 0.74012,-1.059533 0.575648,-0.397328 0.616775,-0.618059 0.37005,-0.882948 0.123353,-1.015378 -0.04111,-1.633446 -0.205579,-1.501008 -0.657893,-1.324412 -0.90459,-1.236119 -1.151306,-1.236129 -1.110188,-1.103675 -1.27465,-1.147828 -0.699001,-0.529765 -0.452305,-0.309031 -0.123353,-1.942476 3.495036,-0.04415 1.192404,0.220737 1.43914,0.706352 2.055896,1.501006 2.508191,2.119062 1.027943,0.706361 2.384837,1.324411 2.9605,0.927095 2.96049,0.309025 h 4.8108 l -1.43914,1.412714 -0.57565,1.368559 -0.41117,1.810032 v 2.119107 l 0.53453,1.810032 1.02795,1.589291 1.23353,1.545164 1.06907,0.573903 z"
       id="path1334" />
    <path
       style="fill:#424242;fill-opacity:1;stroke:#000000;stroke-width:3;stroke-linecap:butt;stroke-linejoin:round;stroke-miterlimit:4;stroke-dasharray:none;stroke-opacity:1"
       d="m 160.10143,86.763626 0.1519,-9.852557 7.36117,-7.537779 v -3.570335 l -75.943832,-0.0965 -1.797477,3.08786 -0.107996,5.528827 1.226541,0.0438 1.192414,0.220738 1.43913,0.706351 2.055896,1.501007 2.508191,2.119063 1.027953,0.706354 2.38483,1.324412 2.96049,0.927095 2.96049,0.309025 18.40202,-0.356043 1.57208,1.312815 1.22273,1.500357 0.75692,1.43785 0.40759,1.875451 -0.0582,2.000476 -0.4658,2.375561 -1.16451,1.125273 0.11648,3.063231 33.13023,-6.188971 0.40758,-0.437611 -0.0582,-1.875452 -0.34936,-0.500119 z"
       id="path1614"
       sodipodi:nodetypes="ccccccccccccccccccccccccccccccc" />
    <path
       style="fill:none;stroke:#000000;stroke-width:3.7638;stroke-linecap:round;stroke-linejoin:round;stroke-miterlimit:4;stroke-dasharray:none;stroke-opacity:0.3"
       d="m 123.9189,76.044262 -5.45502,-4.392683 h -11.8192"
       id="path1892" />
    <path
       style="fill:none;stroke:#000000;stroke-width:3.1365;stroke-linecap:butt;stroke-linejoin:round;stroke-miterlimit:4;stroke-dasharray:none;stroke-opacity:1"
       d="m 113.64782,95.73422 2.75679,1.92406 1.09182,0.586151 1.16008,0.219801 h 1.50127 l 8.15262,-1.948275"
       id="path2241" />
    <path
       style="fill:#4b4b4b;fill-opacity:1;stroke:#4b4b4b;stroke-width:0.331946px;stroke-linecap:butt;stroke-linejoin:miter;stroke-opacity:1"
       d="m 103.75698,94.48076 -6.587211,-4.284312 -0.380026,-0.476034 -0.06224,-0.460586 1.030609,-6.061964 0.134435,-0.192445 h 0.26886 l 0.358474,0.144336 5.735619,11.161714 0.0448,0.336771 -0.26885,0.09626 z"
       id="path2342" />
    <path
       style="fill:#000000;fill-opacity:1;stroke:#000000;stroke-width:1.2546;stroke-linecap:butt;stroke-linejoin:miter;stroke-miterlimit:4;stroke-dasharray:none;stroke-opacity:1"
       d="m 114.56899,83.470377 1.06642,1.359673 0.26659,0.78719 0.13332,1.896394 0.13329,1.073432 0.13331,0.679837 0.86647,2.32576 0.8998,1.645945 0.63319,0.822952 0.59987,0.465148 0.43323,0.07144 0.3999,-0.107364 0.29995,-0.393585 -0.0333,-0.429367 -0.26661,-0.572502 -0.56654,-0.679847 -1.0331,-1.681695 -0.39991,-1.252339 -0.0332,-1.144995 0.0666,-1.431236 0.29994,-1.073431 0.59987,-1.431246 0.53322,-1.144995 z"
       id="path3227" />
    <path
       style="fill:#000000;fill-opacity:0.3;stroke:#000000;stroke-width:0;stroke-linecap:butt;stroke-linejoin:miter;stroke-miterlimit:4;stroke-dasharray:none;stroke-opacity:1"
       d="m 91.057848,123.97297 -0.283189,-2.02706 0.09443,-1.62164 0.424799,-1.36826 10.572592,-25.287495 0.70799,-0.810825 1.32156,-0.810825 1.55759,-0.354732 4.98693,-0.990693 3.20731,5.03278 -6.49664,0.264878 -11.389723,26.841492 -0.246706,3.97326 z"
       id="path3408" />
    <path
       style="fill:#000000;fill-opacity:0.3;stroke:#000000;stroke-width:0;stroke-linecap:butt;stroke-linejoin:miter;stroke-miterlimit:4;stroke-dasharray:none;stroke-opacity:1"
       d="m 129.98702,91.478575 25.3222,-4.617761 0.19329,-11.103389 0.14151,-0.740601 0.38834,-0.625422 9.40334,-9.023947 2.69061,3.72275 -7.87298,7.820862 0.43908,10.763103 0.74822,2.652806 -33.13023,6.188981 -0.11648,-3.063231 z"
       id="path3622" />
    <path
       style="fill:#474747;fill-opacity:1;stroke:#000000;stroke-width:3;stroke-linecap:butt;stroke-linejoin:round;stroke-miterlimit:4;stroke-dasharray:none;stroke-opacity:1"
       d="m 157.94549,91.113477 0.60307,8.741127 0.50253,6.259106 2.9148,14.05462 4.22145,10.98173 -1.60816,1.51081 -1.40715,-0.32374 -14.373,5.07201 -1.20611,1.18707 -2.8143,0.21585 -6.23166,-22.23056 -1.90969,-9.06489 -1.70868,-12.194457 z"
       id="path3770"
       sodipodi:nodetypes="cccccccccccccc" />
    <path
       style="fill:none;fill-opacity:0.5;stroke:#000000;stroke-width:3.1365;stroke-linecap:round;stroke-linejoin:miter;stroke-miterlimit:4;stroke-dasharray:none;stroke-opacity:0.5"
       d="m 141.57769,94.510678 0.99848,11.577992 1.59754,9.00508 4.79269,16.50935"
       id="path4344"
       sodipodi:nodetypes="cccc" />
    <path
       style="fill:none;fill-opacity:0.5;stroke:#000000;stroke-width:3.1365;stroke-linecap:round;stroke-linejoin:miter;stroke-miterlimit:4;stroke-dasharray:none;stroke-opacity:0.5"
       d="m 151.06319,92.47381 0.7988,10.50596 1.59754,9.00508 4.79269,16.50935"
       id="path4344-1"
       sodipodi:nodetypes="cccc" />
    <path
       style="fill:none;fill-opacity:0.5;stroke:#000000;stroke-width:3.1365;stroke-linecap:round;stroke-linejoin:miter;stroke-miterlimit:4;stroke-dasharray:none;stroke-opacity:0.5"
       d="m 146.4702,93.545851 0.59909,8.361869 0.99847,8.57627 4.79269,16.50936"
       id="path4344-4"
       sodipodi:nodetypes="cccc" />
    <path
       style="fill:#2e2e2e;fill-opacity:1;stroke:#000000;stroke-width:3;stroke-linecap:butt;stroke-linejoin:round;stroke-miterlimit:4;stroke-dasharray:none;stroke-opacity:1"
       d="M 15.655603,106.61813 23.269634,105.93687 35.642438,74.258837 35.007936,69.717181 29.19166,57.114095 28.662908,52.345356 15.338354,50.869319 Z"
       id="path5479" />
    <path
       style="fill:#474747;fill-opacity:1;stroke:#000000;stroke-width:3;stroke-linecap:butt;stroke-linejoin:round;stroke-miterlimit:4;stroke-dasharray:none;stroke-opacity:1"
       d="m 28.662908,52.345356 44.844934,-5.125889 -0.862765,14.071352 0.766626,-4.527001 4.244947,8.481325 -0.766616,8.731736 -41.247596,0.281958 -0.634502,-4.541656 -5.816276,-12.603086 z"
       id="path5712"
       sodipodi:nodetypes="cccccccccc" />
    <path
       style="fill:#232323;fill-opacity:1;stroke:#000000;stroke-width:3;stroke-linecap:butt;stroke-linejoin:round;stroke-miterlimit:4;stroke-dasharray:none;stroke-opacity:1"
       d="m 15.655603,106.61813 -5.7375796,-0.0744 -0.1038491,-9.477444 0.5192417,-8.250933 1.038485,-7.135947 v -3.344973 l -0.72694,-4.236966 -1.557726,-18.95485 0.1038492,-4.348464 6.1472698,0.07523 z"
       id="path5978" />
    <path
       style="fill:#373737;fill-opacity:1;stroke:#000000;stroke-width:3;stroke-linecap:butt;stroke-linejoin:round;stroke-miterlimit:4;stroke-dasharray:none;stroke-opacity:1"
       d="m 87.620044,76.353565 -3.784634,-2.625851 -6.945376,0.249165 0.766616,-8.731736 -5.011573,-3.954324 v 0 l 0.862755,-14.071352 9.982174,-4.643624 h 6.217347 l 0.86353,3.893984 37.131397,-0.185428 0.17272,9.985786 44.19548,0.108695 -6.63478,8.988577 -73.765032,0.339001 -1.797477,3.087861 -0.107996,5.528826 -2.268504,0.08794 z"
       id="path950"
       sodipodi:nodetypes="ccccccccccccccccccc" />
    <path
       style="fill:none;stroke:#474747;stroke-width:2.5092;stroke-linecap:round;stroke-linejoin:miter;stroke-miterlimit:4;stroke-dasharray:none;stroke-opacity:1"
       d="M 161.37931,60.781002 H 121.71928"
       id="path2037"
       sodipodi:nodetypes="cc" />
    <path
       style="fill:#000000;fill-opacity:0.2;stroke:#000000;stroke-width:0;stroke-linecap:butt;stroke-linejoin:miter;stroke-miterlimit:4;stroke-dasharray:none;stroke-opacity:1"
       d="m 28.662908,52.345356 44.844924,-5.125889 -0.09618,9.544348 -42.397669,4.558613 z"
       id="path3049" />
    <path
       style="fill:#000000;fill-opacity:0.2;stroke:#000000;stroke-width:0;stroke-linecap:butt;stroke-linejoin:miter;stroke-miterlimit:4;stroke-dasharray:none;stroke-opacity:1"
       d="m 35.642438,74.258837 -19.960734,8.014794 -0.0261,24.344499 7.614031,-0.68126 z"
       id="path3296" />
    <path
       style="fill:#000000;fill-opacity:0.3;stroke:#000000;stroke-width:0;stroke-linecap:butt;stroke-linejoin:miter;stroke-miterlimit:4;stroke-dasharray:none;stroke-opacity:1"
       d="m 81.498564,72.720875 0.758569,-8.14454 -0.151712,-1.05879 -0.682723,-1.221684 -4.551405,-3.339258 0.531001,-8.47032 0.151712,-0.570119 6.447824,-2.932033 0.379289,-0.08145 5.904422,0.119888 -1.225814,-4.402196 -7.819824,0.181535 -7.732071,4.417555 -0.862755,14.071352 5.011573,3.954323 -0.876173,8.077146 z"
       id="path3513" />
    <rect
       style="fill:#474747;fill-opacity:1;fill-rule:evenodd;stroke:#474747;stroke-width:3.85306;stroke-linecap:round;stroke-linejoin:round;stroke-miterlimit:4;stroke-dasharray:none;stroke-opacity:1;paint-order:stroke fill markers"
       id="rect3869"
       width="7.7497721"
       height="6.0187612"
       x="115.25679"
       y="54.042759" />
    <path
       style="fill:#797979;fill-opacity:1;stroke:#000000;stroke-width:3;stroke-linecap:butt;stroke-linejoin:round;stroke-miterlimit:4;stroke-dasharray:none;stroke-opacity:1"
       d="m 172.07048,56.378876 -0.0502,-9.990696 -44.31795,-0.103784 0.17275,9.985784 z"
       id="path4104"
       sodipodi:nodetypes="ccccc" />
    <path
       style="fill:#474747;fill-opacity:1;stroke:#000000;stroke-width:3;stroke-linecap:butt;stroke-linejoin:round;stroke-miterlimit:4;stroke-dasharray:none;stroke-opacity:1"
       d="m 167.6145,65.802955 70.59363,-0.190215 2.39882,-8.420055 11.07148,-0.09906 -0.27678,-5.74545 -79.16105,-0.19812 -0.17012,5.228822 -6.63478,8.988579 z"
       id="path4483" />
    <path
       style="fill:#313131;fill-opacity:1;stroke:#000000;stroke-width:3;stroke-linecap:butt;stroke-linejoin:round;stroke-miterlimit:4;stroke-dasharray:none;stroke-opacity:1"
       d="m 167.6145,69.37329 1.99774,2.023943 84.96457,-0.371435 1.45298,-8.320115 -0.0692,-6.685807 -4.55895,-4.671702 0.27679,5.745451 -11.07148,0.09906 -2.39882,8.420052 -70.59363,0.190218 z"
       id="path4716" />
    <path
       style="fill:#4d4d4d;fill-opacity:1;stroke:#000000;stroke-width:3;stroke-linecap:butt;stroke-linejoin:round;stroke-miterlimit:4;stroke-dasharray:none;stroke-opacity:1"
       d="m 172.02024,46.38818 0.22036,4.761874 79.16098,0.19812 -5.52331,-5.067976 z"
       id="path5925"
       sodipodi:nodetypes="ccccc" />
    <rect
       style="fill:#000000;fill-opacity:1;fill-rule:evenodd;stroke:#000000;stroke-width:2.90452;stroke-linecap:round;stroke-linejoin:round;stroke-miterlimit:4;stroke-dasharray:none;stroke-opacity:1;paint-order:stroke fill markers"
       id="rect6385"
       width="0.60087842"
       height="2.4915988"
       x="94.626602"
       y="43.32029" />
    <rect
       style="fill:#000000;fill-opacity:1;fill-rule:evenodd;stroke:#000000;stroke-width:2.90452;stroke-linecap:round;stroke-linejoin:round;stroke-miterlimit:4;stroke-dasharray:none;stroke-opacity:1;paint-order:stroke fill markers"
       id="rect6385-1"
       width="0.60087842"
       height="2.4915988"
       x="98.709984"
       y="43.289211" />
    <rect
       style="fill:#000000;fill-opacity:1;fill-rule:evenodd;stroke:#000000;stroke-width:2.90452;stroke-linecap:round;stroke-linejoin:round;stroke-miterlimit:4;stroke-dasharray:none;stroke-opacity:1;paint-order:stroke fill markers"
       id="rect6385-2"
       width="0.60087842"
       height="2.4915988"
       x="102.85027"
       y="43.105331" />
    <rect
       style="fill:#000000;fill-opacity:1;fill-rule:evenodd;stroke:#000000;stroke-width:2.90452;stroke-linecap:round;stroke-linejoin:round;stroke-miterlimit:4;stroke-dasharray:none;stroke-opacity:1;paint-order:stroke fill markers"
       id="rect6385-3"
       width="0.60087842"
       height="2.4915988"
       x="125.08269"
       y="43.043621" />
    <rect
       style="fill:#000000;fill-opacity:1;fill-rule:evenodd;stroke:#000000;stroke-width:2.90452;stroke-linecap:round;stroke-linejoin:round;stroke-miterlimit:4;stroke-dasharray:none;stroke-opacity:1;paint-order:stroke fill markers"
       id="rect6385-6"
       width="0.60087842"
       height="2.4915988"
       x="129.62128"
       y="43.135559" />
    <rect
       style="fill:#000000;fill-opacity:1;fill-rule:evenodd;stroke:#000000;stroke-width:2.90452;stroke-linecap:round;stroke-linejoin:round;stroke-miterlimit:4;stroke-dasharray:none;stroke-opacity:1;paint-order:stroke fill markers"
       id="rect6385-94"
       width="0.60087842"
       height="2.4915988"
       x="134.15984"
       y="43.135559" />
    <rect
       style="fill:#000000;fill-opacity:1;fill-rule:evenodd;stroke:#000000;stroke-width:2.90452;stroke-linecap:round;stroke-linejoin:round;stroke-miterlimit:4;stroke-dasharray:none;stroke-opacity:1;paint-order:stroke fill markers"
       id="rect6385-91"
       width="0.60087842"
       height="2.4915988"
       x="138.69841"
       y="43.135559" />
    <rect
       style="fill:#000000;fill-opacity:1;fill-rule:evenodd;stroke:#000000;stroke-width:2.90452;stroke-linecap:round;stroke-linejoin:round;stroke-miterlimit:4;stroke-dasharray:none;stroke-opacity:1;paint-order:stroke fill markers"
       id="rect6385-35"
       width="0.60087842"
       height="2.4915988"
       x="143.40825"
       y="43.043625" />
    <rect
       style="fill:#000000;fill-opacity:1;fill-rule:evenodd;stroke:#000000;stroke-width:2.90452;stroke-linecap:round;stroke-linejoin:round;stroke-miterlimit:4;stroke-dasharray:none;stroke-opacity:1;paint-order:stroke fill markers"
       id="rect6385-65"
       width="0.60087842"
       height="2.4915988"
       x="148.11807"
       y="43.135559" />
    <rect
       style="fill:#000000;fill-opacity:1;fill-rule:evenodd;stroke:#000000;stroke-width:2.90452;stroke-linecap:round;stroke-linejoin:round;stroke-miterlimit:4;stroke-dasharray:none;stroke-opacity:1;paint-order:stroke fill markers"
       id="rect6385-98"
       width="0.60087842"
       height="2.4915988"
       x="152.82791"
       y="43.043621" />
    <rect
       style="fill:#000000;fill-opacity:1;fill-rule:evenodd;stroke:#000000;stroke-width:2.90452;stroke-linecap:round;stroke-linejoin:round;stroke-miterlimit:4;stroke-dasharray:none;stroke-opacity:1;paint-order:stroke fill markers"
       id="rect6385-5"
       width="0.60087842"
       height="2.4915988"
       x="157.4521"
       y="43.043621" />
    <rect
       style="fill:#000000;fill-opacity:1;fill-rule:evenodd;stroke:#000000;stroke-width:2.90452;stroke-linecap:round;stroke-linejoin:round;stroke-miterlimit:4;stroke-dasharray:none;stroke-opacity:1;paint-order:stroke fill markers"
       id="rect6385-29"
       width="0.60087842"
       height="2.4915988"
       x="162.07631"
       y="42.951675" />
    <rect
       style="fill:#000000;fill-opacity:1;fill-rule:evenodd;stroke:#000000;stroke-width:2.90452;stroke-linecap:round;stroke-linejoin:round;stroke-miterlimit:4;stroke-dasharray:none;stroke-opacity:1;paint-order:stroke fill markers"
       id="rect6385-81"
       width="0.60087842"
       height="2.4915988"
       x="166.87178"
       y="43.043621" />
    <rect
       style="fill:#000000;fill-opacity:1;fill-rule:evenodd;stroke:#000000;stroke-width:2.90452;stroke-linecap:round;stroke-linejoin:round;stroke-miterlimit:4;stroke-dasharray:none;stroke-opacity:1;paint-order:stroke fill markers"
       id="rect6385-13"
       width="0.60087842"
       height="2.4915988"
       x="171.56711"
       y="42.957916" />
    <rect
       style="fill:#000000;fill-opacity:1;fill-rule:evenodd;stroke:#000000;stroke-width:2.90452;stroke-linecap:round;stroke-linejoin:round;stroke-miterlimit:4;stroke-dasharray:none;stroke-opacity:1;paint-order:stroke fill markers"
       id="rect6385-8"
       width="0.60087842"
       height="2.4915988"
       x="106.99058"
       y="43.150295" />
    <rect
       style="fill:#000000;fill-opacity:1;fill-rule:evenodd;stroke:#000000;stroke-width:2.90452;stroke-linecap:round;stroke-linejoin:round;stroke-miterlimit:4;stroke-dasharray:none;stroke-opacity:1;paint-order:stroke fill markers"
       id="rect6385-15"
       width="0.60087842"
       height="2.4915988"
       x="111.38959"
       y="43.197269" />
    <rect
       style="fill:#000000;fill-opacity:1;fill-rule:evenodd;stroke:#000000;stroke-width:2.90452;stroke-linecap:round;stroke-linejoin:round;stroke-miterlimit:4;stroke-dasharray:none;stroke-opacity:1;paint-order:stroke fill markers"
       id="rect6385-9"
       width="0.60087842"
       height="2.4915988"
       x="115.78867"
       y="43.011383" />
    <rect
       style="fill:#000000;fill-opacity:1;fill-rule:evenodd;stroke:#000000;stroke-width:2.90452;stroke-linecap:round;stroke-linejoin:round;stroke-miterlimit:4;stroke-dasharray:none;stroke-opacity:1;paint-order:stroke fill markers"
       id="rect6385-17"
       width="0.60087842"
       height="2.4915988"
       x="120.44649"
       y="43.150295" />
    <rect
       style="fill:#000000;fill-opacity:1;fill-rule:evenodd;stroke:#000000;stroke-width:2.90452;stroke-linecap:round;stroke-linejoin:round;stroke-miterlimit:4;stroke-dasharray:none;stroke-opacity:1;paint-order:stroke fill markers"
       id="rect6385-21"
       width="0.60087842"
       height="2.4915988"
       x="238.43056"
       y="71.619652" />
    <rect
       style="fill:#000000;fill-opacity:1;fill-rule:evenodd;stroke:#000000;stroke-width:2.90452;stroke-linecap:round;stroke-linejoin:round;stroke-miterlimit:4;stroke-dasharray:none;stroke-opacity:1;paint-order:stroke fill markers"
       id="rect6385-527"
       width="0.60087842"
       height="2.4915988"
       x="243.25763"
       y="71.619652" />
    <rect
       style="fill:#000000;fill-opacity:1;fill-rule:evenodd;stroke:#000000;stroke-width:2.90452;stroke-linecap:round;stroke-linejoin:round;stroke-miterlimit:4;stroke-dasharray:none;stroke-opacity:1;paint-order:stroke fill markers"
       id="rect6385-28"
       width="0.60087842"
       height="2.4915988"
       x="248.08475"
       y="71.729912" />
    <rect
       style="fill:#000000;fill-opacity:1;fill-rule:evenodd;stroke:#000000;stroke-width:2.90452;stroke-linecap:round;stroke-linejoin:round;stroke-miterlimit:4;stroke-dasharray:none;stroke-opacity:1;paint-order:stroke fill markers"
       id="rect6385-84"
       width="0.60087842"
       height="2.4915988"
       x="233.80887"
       y="71.509377" />
    <path
       style="fill:#282828;fill-opacity:1;stroke:#000000;stroke-width:3;stroke-linecap:butt;stroke-linejoin:round;stroke-miterlimit:4;stroke-dasharray:none;stroke-opacity:1"
       d="m 255.96054,56.019876 51.41042,0.09035 0.17583,6.606767 -51.517,-0.01137 z"
       id="path7619" />
    <path
       style="fill:#2a2a2a;fill-opacity:1;stroke:#000000;stroke-width:3;stroke-linecap:butt;stroke-linejoin:round;stroke-miterlimit:4;stroke-dasharray:none;stroke-opacity:1"
       d="m 279.74849,56.153082 0.18592,9.187215 4.75679,-0.02142 0.2048,-9.30201 z"
       id="path7687"
       sodipodi:nodetypes="ccccc" />
    <path
       style="fill:#353535;fill-opacity:1;stroke:#000000;stroke-width:3;stroke-linecap:butt;stroke-linejoin:round;stroke-miterlimit:4;stroke-dasharray:none;stroke-opacity:1"
       d="m 307.37096,56.110237 -0.0968,-2.232869 8.41705,-0.01946 -0.0387,12.937771 -8.30336,-2.014187 z"
       id="path8337"
       sodipodi:nodetypes="cccccc" />
    <path
       style="fill:#2a2a2a;fill-opacity:1;stroke:#000000;stroke-width:3;stroke-linecap:butt;stroke-linejoin:miter;stroke-miterlimit:4;stroke-dasharray:none;stroke-opacity:1"
       d="m 316.27805,56.802777 9.26647,-0.06622 v 5.497029 l -9.34565,0.06622 z"
       id="path8978" />
    <rect
       style="fill:#000000;fill-opacity:1;fill-rule:evenodd;stroke:#000000;stroke-width:3.7638;stroke-linecap:round;stroke-linejoin:round;stroke-miterlimit:4;stroke-dasharray:none;stroke-opacity:1;paint-order:stroke fill markers"
       id="rect9217"
       width="15.087687"
       height="0.86560804"
       x="219.89407"
       y="60.219746" />
    <rect
       style="fill:#000000;fill-opacity:1;fill-rule:evenodd;stroke:#000000;stroke-width:3.7638;stroke-linecap:round;stroke-linejoin:round;stroke-miterlimit:4;stroke-dasharray:none;stroke-opacity:1;paint-order:stroke fill markers"
       id="rect9217-2"
       width="15.087687"
       height="0.86560804"
       x="200.14186"
       y="60.157925" />
    <rect
       style="fill:#000000;fill-opacity:1;fill-rule:evenodd;stroke:#000000;stroke-width:3.7638;stroke-linecap:round;stroke-linejoin:round;stroke-miterlimit:4;stroke-dasharray:none;stroke-opacity:1;paint-order:stroke fill markers"
       id="rect9217-3"
       width="15.087687"
       height="0.86560804"
       x="180.33206"
       y="60.157925" />
  </g>
</svg>
