<?xml version="1.0" encoding="UTF-8" standalone="no"?>
<!-- Created with Inkscape (http://www.inkscape.org/) -->

<svg
   width="1250"
   height="600"
   viewBox="0 0 330.72916 158.75"
   version="1.1"
   id="svg5"
   inkscape:version="1.1.1 (c3084ef, 2021-09-22)"
   sodipodi:docname="SCAR_L_UBGL.svg"
   xmlns:inkscape="http://www.inkscape.org/namespaces/inkscape"
   xmlns:sodipodi="http://sodipodi.sourceforge.net/DTD/sodipodi-0.dtd"
   xmlns="http://www.w3.org/2000/svg"
   xmlns:svg="http://www.w3.org/2000/svg">
  <sodipodi:namedview
     id="namedview7"
     pagecolor="#ffffff"
     bordercolor="#666666"
     borderopacity="1.0"
     inkscape:pageshadow="2"
     inkscape:pageopacity="0.0"
     inkscape:pagecheckerboard="0"
     inkscape:document-units="mm"
     showgrid="false"
     units="px"
     inkscape:zoom="0.44448381"
     inkscape:cx="709.81214"
     inkscape:cy="138.36275"
     inkscape:window-width="1312"
     inkscape:window-height="735"
     inkscape:window-x="0"
     inkscape:window-y="25"
     inkscape:window-maximized="0"
     inkscape:current-layer="layer1" />
  <defs
     id="defs2" />
  <g
     inkscape:label="Layer 1"
     inkscape:groupmode="layer"
     id="layer1">
    <path
       style="fill:#333333;fill-opacity:1;stroke:#000000;stroke-width:3;stroke-linecap:butt;stroke-linejoin:round;stroke-miterlimit:4;stroke-dasharray:none;stroke-opacity:1"
       d="m 136.05406,41.411562 v -3.677137 l -8.14224,-1.13816 v -6.128563 l -0.43775,-5.340602 -2.62653,-0.175102 -1.05061,5.428154 -0.7004,10.856309 z"
       id="path39252" />
    <path
       style="fill:#a3895f;stroke:#000000;stroke-width:3;stroke-linecap:butt;stroke-linejoin:round;stroke-opacity:1;stroke-miterlimit:4;stroke-dasharray:none;fill-opacity:1"
       d="m 130.70383,77.935203 h 12.29335 l 0.81182,0.231949 0.4639,0.695849 0.0642,10.948035 h -1.42739 l -3.08315,5.424061 v 0.456764 l 0.17129,0.628049 0.45676,0.799336 0.62805,0.685143 0.11419,0.456764 -0.11419,0.570955 -0.45676,0.342572 h -2.05544 -0.51386 l -0.51385,0.285477 -6.50888,10.562643 v 0.68515 l 0.34258,0.62805 0.57095,0.85643 0.22838,0.51386 v 0.45676 l -1.14191,1.31319 -0.74224,0.22838 -18.61309,-4.62472 -0.57095,-0.34257 -0.1142,-0.39967 18.67019,-26.092593 0.74225,-1.427384 0.34257,-2.169623 z"
       id="path6312" />
    <path
       style="fill:#847057;stroke:#847057;stroke-width:3;stroke-linecap:butt;stroke-linejoin:round;stroke-opacity:1;stroke-miterlimit:4;stroke-dasharray:none;fill-opacity:1"
       d="m 117.78568,107.17797 15.51129,-21.315512 5.00363,1.100801 -12.70924,22.216161 z"
       id="path7460" />
    <path
       style="fill:#9e8a69;stroke:#000000;stroke-width:3;stroke-linecap:butt;stroke-linejoin:round;stroke-miterlimit:4;stroke-dasharray:none;stroke-opacity:1;fill-opacity:1"
       d="m 130.70383,77.935203 -0.75476,-2.091619 -0.95903,-1.038952 -1.43855,-1.038953 -1.75823,-0.559438 h -6.953 V 60.818722 l 83.99538,0.31968 v 3.676296 l -13.74615,16.063814 -21.01883,3.436538 0.0799,-5.034928 -0.55943,-1.518468 -24.59397,0.173549 z"
       id="path10889"
       sodipodi:nodetypes="ccccccccccccccc" />
    <path
       style="fill:#000000;stroke:#000000;stroke-width:0;stroke-linecap:butt;stroke-linejoin:miter;stroke-opacity:1;stroke-miterlimit:4;stroke-dasharray:none;fill-opacity:0.30000001"
       d="m 135.30156,77.61802 -0.33472,-2.082707 -0.33472,-1.19012 -0.48349,-0.92978 -0.89259,-1.301692 -1.30169,-1.264499 -1.41326,-1.004163 -1.07855,-0.557868 -1.89675,-0.409102 -2.1199,-0.111574 -6.69441,0.03719 0.0888,4.402534 h 6.953 l 4.15581,2.637343 1.74494,2.592642 z"
       id="path11071" />
    <path
       style="fill:#000000;fill-opacity:0.3;stroke:#000000;stroke-width:0;stroke-linecap:butt;stroke-linejoin:miter;stroke-miterlimit:4;stroke-dasharray:none;stroke-opacity:1"
       d="m 168.07066,84.31505 -0.15825,-3.921579 18.02374,-3.031346 1.22175,-0.527065 1.22176,-1.38496 12.01525,-14.116643 2.44073,-0.195068 v 3.676295 l -13.74615,16.063815 z"
       id="path11205"
       sodipodi:nodetypes="cccccccccc" />
    <path
       style="fill:none;stroke:#000000;stroke-width:3;stroke-linecap:butt;stroke-linejoin:miter;stroke-miterlimit:4;stroke-dasharray:none;stroke-opacity:1"
       d="m 144.3371,89.811036 20.7414,-0.216428 0.96338,-0.283348 0.96338,-0.793374 0.39669,-0.566695 0.68003,-1.13339 v -0.05667 l -0.0113,-2.446081"
       id="path11394"
       sodipodi:nodetypes="cccccccc" />
    <path
       style="fill:#000000;fill-opacity:1;stroke:#000000;stroke-width:1.01981;stroke-linecap:butt;stroke-linejoin:miter;stroke-miterlimit:4;stroke-dasharray:none;stroke-opacity:1"
       d="m 150.61347,78.824844 0.13382,3.688087 0.26764,1.670077 0.46837,1.182972 0.66909,1.252557 0.40146,0.20876 0.33455,-0.20876 0.20073,-0.487107 -0.13382,-0.835038 -0.40146,-1.670074 v -1.391734 l 0.53528,-1.60049 1.4051,-1.948422 z"
       id="path11751" />
    <path
       style="fill:#9e8a69;fill-opacity:1;stroke:#000000;stroke-width:3;stroke-linecap:butt;stroke-linejoin:round;stroke-miterlimit:4;stroke-dasharray:none;stroke-opacity:1"
       d="m 202.83564,61.138402 29.13636,0.09308 V 53.01783 l 39.95328,-0.151913 V 41.400075 l -153.28079,-0.231502 0.19577,19.650149 z"
       id="path12012"
       sodipodi:nodetypes="cccccccc" />
    <path
       style="fill:#4e4e4e;fill-opacity:1;stroke:#000000;stroke-width:3;stroke-linecap:butt;stroke-linejoin:round;stroke-miterlimit:4;stroke-dasharray:none;stroke-opacity:1"
       d="M 271.92528,52.865916 231.972,53.017829 v 8.213651 l 37.61976,-0.206411 z"
       id="path14025"
       sodipodi:nodetypes="ccccc" />
    <path
       style="fill:#4e4e4e;fill-opacity:0.4;stroke:#000000;stroke-width:2;stroke-linecap:butt;stroke-linejoin:miter;stroke-miterlimit:4;stroke-dasharray:none;stroke-opacity:0.4"
       d="m 236.53008,53.300375 v 7.106719"
       id="path14546" />
    <path
       style="fill:#4e4e4e;fill-opacity:0.4;stroke:#000000;stroke-width:2;stroke-linecap:butt;stroke-linejoin:miter;stroke-miterlimit:4;stroke-dasharray:none;stroke-opacity:0.4"
       d="m 240.54692,53.763857 v 7.106719"
       id="path14546-1" />
    <path
       style="fill:#4e4e4e;fill-opacity:0.4;stroke:#000000;stroke-width:2;stroke-linecap:butt;stroke-linejoin:miter;stroke-miterlimit:4;stroke-dasharray:none;stroke-opacity:0.4"
       d="m 244.40927,53.763857 v 7.106719"
       id="path14546-8" />
    <path
       style="fill:#4e4e4e;fill-opacity:0.4;stroke:#000000;stroke-width:2;stroke-linecap:butt;stroke-linejoin:miter;stroke-miterlimit:4;stroke-dasharray:none;stroke-opacity:0.4"
       d="M 247.80813,53.918351 V 61.02507"
       id="path14546-7" />
    <path
       style="fill:#4e4e4e;fill-opacity:0.4;stroke:#000000;stroke-width:2;stroke-linecap:butt;stroke-linejoin:miter;stroke-miterlimit:4;stroke-dasharray:none;stroke-opacity:0.4"
       d="M 251.51598,53.918351 V 61.02507"
       id="path14546-9" />
    <path
       style="fill:#4e4e4e;fill-opacity:0.4;stroke:#000000;stroke-width:2;stroke-linecap:butt;stroke-linejoin:miter;stroke-miterlimit:4;stroke-dasharray:none;stroke-opacity:0.4"
       d="m 255.37833,54.072845 v 7.106719"
       id="path14546-72" />
    <path
       style="fill:#4e4e4e;fill-opacity:0.4;stroke:#000000;stroke-width:2;stroke-linecap:butt;stroke-linejoin:miter;stroke-miterlimit:4;stroke-dasharray:none;stroke-opacity:0.4"
       d="m 259.24068,53.609363 v 7.106719"
       id="path14546-4" />
    <path
       style="fill:#4e4e4e;fill-opacity:0.4;stroke:#000000;stroke-width:2;stroke-linecap:butt;stroke-linejoin:miter;stroke-miterlimit:4;stroke-dasharray:none;stroke-opacity:0.4"
       d="m 262.94853,53.45487 v 7.106719"
       id="path14546-6" />
    <path
       style="fill:#4e4e4e;fill-opacity:0.4;stroke:#000000;stroke-width:2;stroke-linecap:butt;stroke-linejoin:miter;stroke-miterlimit:4;stroke-dasharray:none;stroke-opacity:0.4"
       d="m 266.81087,53.45487 v 7.106719"
       id="path14546-41" />
    <path
       style="fill:#a3895f;stroke:#000000;stroke-width:3;stroke-linecap:butt;stroke-linejoin:round;stroke-opacity:1;stroke-miterlimit:4;stroke-dasharray:none;fill-opacity:1"
       d="m 118.64449,41.168573 -10.83696,-0.311581 -1.48779,0.801119 -1.37335,0.572225 -1.94557,0.343336 -27.695777,2.517799 -1.602234,0.114446 -3.433361,0.572225 -9.842301,2.403353 -0.915562,0.457782 2.403354,10.414526 0.572225,0.343337 56.088636,-0.367387 z"
       id="path15111" />
    <path
       style="fill:#000000;stroke:#000000;stroke-width:0;stroke-linecap:butt;stroke-linejoin:miter;stroke-opacity:1;stroke-miterlimit:4;stroke-dasharray:none;fill-opacity:0.30000001"
       d="m 66.351133,58.613878 -1.447255,-6.345661 0.05566,-0.612301 0.278318,-0.44531 7.180617,-1.781238 0.779293,-0.111326 32.396274,-3.005842 1.00195,-0.278317 0.94628,-0.612302 1.33593,-0.667964 9.24018,0.278318 0.52611,-3.863362 -10.83696,-0.311581 -2.86114,1.373344 -31.243584,2.975581 -13.275662,2.975578 1.487792,10.872308 z"
       id="path15311" />
    <path
       style="fill:#a3895f;stroke:#000000;stroke-width:3;stroke-linecap:butt;stroke-linejoin:round;stroke-miterlimit:4;stroke-dasharray:none;stroke-opacity:1;fill-opacity:1"
       d="m 65.217436,59.361064 3.136686,12.627972 0.797906,0.886563 49.688252,0.33064 -2e-5,-12.387517 -0.26446,-1.788969 z"
       id="path15525"
       sodipodi:nodetypes="ccccccc" />
    <path
       style="fill:#000000;fill-opacity:0.3;stroke:#000000;stroke-width:0;stroke-linecap:butt;stroke-linejoin:miter;stroke-miterlimit:4;stroke-dasharray:none;stroke-opacity:1"
       d="m 72.425436,72.073686 -2.448722,-8.65215 0.08162,-0.571368 0.326496,-0.244872 h 47.75007 l -0.10556,-3.657512 -53.358367,0.331311 3.934592,13.514533 z"
       id="path16526" />
    <path
       style="fill:#9e8a69;stroke:#000000;stroke-width:3;stroke-linecap:butt;stroke-linejoin:round;stroke-miterlimit:4;stroke-dasharray:none;stroke-opacity:1;fill-opacity:1"
       d="m 59.99159,50.610691 -39.208876,-0.166263 0.292715,51.127432 h 2.634429 l 0.780571,-0.0976 1.268428,-0.58543 1.170858,-0.975715 1.365998,-1.756286 14.830859,-25.271002 1.073285,-1.170855 0.975715,-0.390287 23.011299,-0.163153 -2.969435,-11.800498 -2.730272,0.03608 -0.572228,-0.343337 z"
       id="path17034"
       sodipodi:nodetypes="cccccccccccccccc" />
    <path
       style="fill:#5a5a5a;stroke:#000000;stroke-width:3;stroke-linecap:butt;stroke-linejoin:miter;stroke-opacity:1;stroke-miterlimit:4;stroke-dasharray:none;fill-opacity:1"
       d="M 20.782714,50.444428 14.750629,48.85492 h -1.046144 l -0.418458,0.418457 0.104615,1.046144 0.836915,2.301515 0.627686,4.49842 0.627686,9.729139 0.313844,15.48293 -0.313844,11.507581 -1.046143,6.590704 -0.836916,2.61536 v 0.52307 l 0.418458,0.73231 0.732301,0.31384 5.230719,-0.62769 0.761165,-0.27414 0.173142,-0.2424 0.159774,-1.8983 z"
       id="path19936" />
    <path
       style="fill:#000000;stroke:#000000;stroke-width:0;stroke-linecap:butt;stroke-linejoin:miter;stroke-opacity:1;stroke-miterlimit:4;stroke-dasharray:none;fill-opacity:0.30000001"
       d="m 21.075429,101.57186 4.144491,-1.48133 -0.230169,-45.639177 0.06576,-0.263052 0.164406,-0.131524 35.413107,-0.03288 L 59.99159,50.61069 20.782714,50.444428 Z"
       id="path20344" />
    <path
       style="fill:#000000;stroke:#000000;stroke-width:0;stroke-linecap:butt;stroke-linejoin:miter;stroke-opacity:1;stroke-miterlimit:4;stroke-dasharray:none;fill-opacity:0.1"
       d="m 45.175572,71.324683 -5.157275,-20.73689 19.973293,0.02289 1.923346,8.443114 3.3025,0.30726 2.969435,11.800467 z"
       id="path20621" />
    <path
       style="fill:none;stroke:#000000;stroke-width:3;stroke-linecap:round;stroke-linejoin:round;stroke-opacity:0.5;stroke-miterlimit:4;stroke-dasharray:none"
       d="m 228.31917,46.476655 h 6.7735"
       id="path20884" />
    <path
       style="fill:none;stroke:#000000;stroke-width:3;stroke-linecap:round;stroke-linejoin:round;stroke-miterlimit:4;stroke-dasharray:none;stroke-opacity:0.5"
       d="m 240.45938,46.476655 h 6.7735"
       id="path20884-0" />
    <path
       style="fill:none;stroke:#000000;stroke-width:3;stroke-linecap:round;stroke-linejoin:round;stroke-miterlimit:4;stroke-dasharray:none;stroke-opacity:0.5"
       d="m 252.33906,46.580863 h 6.7735"
       id="path20884-1" />
    <rect
       style="fill:#4e4434;fill-opacity:1;fill-rule:evenodd;stroke:#4f4534;stroke-width:3;stroke-linecap:round;stroke-linejoin:round;stroke-miterlimit:4;stroke-dasharray:none;stroke-opacity:1;paint-order:markers fill stroke"
       id="rect21582"
       width="53.510834"
       height="3.5755422"
       x="157.11806"
       y="53.601555" />
    <circle
       style="fill:#4f4534;fill-opacity:1;fill-rule:evenodd;stroke:#4f4534;stroke-width:1;stroke-linecap:round;stroke-linejoin:round;stroke-miterlimit:4;stroke-dasharray:none;stroke-opacity:1;paint-order:markers fill stroke"
       id="path25931"
       cx="153.0327"
       cy="55.633305"
       r="1.3" />
    <circle
       style="fill:#4f4534;fill-opacity:1;fill-rule:evenodd;stroke:#4f4534;stroke-width:1;stroke-linecap:round;stroke-linejoin:round;stroke-miterlimit:4;stroke-dasharray:none;stroke-opacity:1;paint-order:markers fill stroke"
       id="path25931-7"
       cx="127.64886"
       cy="55.523914"
       r="1.3" />
    <circle
       style="fill:#4f4534;fill-opacity:1;fill-rule:evenodd;stroke:#4f4534;stroke-width:1;stroke-linecap:round;stroke-linejoin:round;stroke-miterlimit:4;stroke-dasharray:none;stroke-opacity:1;paint-order:markers fill stroke"
       id="path25931-1"
       cx="123.31256"
       cy="55.570896"
       r="1.3" />
    <path
       style="fill:none;stroke:#4e4434;stroke-width:3;stroke-linecap:round;stroke-linejoin:miter;stroke-opacity:1;stroke-miterlimit:4;stroke-dasharray:none"
       d="m 168.96618,46.535972 h 53.09473"
       id="path27131" />
    <circle
       style="fill:#4f4534;fill-opacity:1;fill-rule:evenodd;stroke:#4f4534;stroke-width:1;stroke-linecap:round;stroke-linejoin:round;stroke-miterlimit:4;stroke-dasharray:none;stroke-opacity:1;paint-order:markers fill stroke"
       id="path25931-4"
       cx="168.94907"
       cy="46.481869"
       r="2" />
    <circle
       style="fill:#4f4534;fill-opacity:1;fill-rule:evenodd;stroke:#4f4534;stroke-width:1;stroke-linecap:round;stroke-linejoin:round;stroke-miterlimit:4;stroke-dasharray:none;stroke-opacity:1;paint-order:markers fill stroke"
       id="path25931-0"
       cx="222.11096"
       cy="46.574646"
       r="2" />
    <path
       style="fill:#9e8a69;fill-opacity:1;stroke:#000000;stroke-width:3;stroke-linecap:butt;stroke-linejoin:round;stroke-miterlimit:4;stroke-dasharray:none;stroke-opacity:1"
       d="m 152.30412,89.756394 v 5.312934 l 11.83336,0.160999 1.28798,0.80499 2.01248,1.931976 0.72449,1.770978 0.2415,5.473929 -0.2415,1.20749 -1.20749,2.57597 -1.77097,1.60998 -0.72449,0.72449 -0.322,1.36848 v 0.72449 l 0.48299,1.12699 0.644,0.4025 0.96598,0.32199 h 0.96599 l 0.80499,-0.48299 5.15194,-6.11793 24.55219,-8.45239 1.04649,0.24149 0.483,0.80499 0.56349,0.72449 0.56349,0.322 1.28799,0.0805 0.88549,-0.2415 0.48299,-0.48299 0.64399,-1.28799 h 10.46487 l 5.71543,-6.520416 0.0805,-2.817466 -0.161,-0.402495 -0.64399,-0.72449 -0.96599,-0.804989 -0.96599,-0.241499 -11.10886,0.0805 -2.01247,-0.643993 -1.36849,-0.965986 -1.77097,-1.770981 -0.96599,-1.770978 v -1.046485 l -0.2415,-8.854892 -0.2415,-1.126985 -1.44569,-2.142754 -8.94136,10.250148 -21.01881,3.436551 0.0113,2.50275 -0.68004,1.13339 -0.39669,0.566695 -0.96338,0.793374 -0.96337,0.283348 z"
       id="path28283"
       sodipodi:nodetypes="cccccccccccccccccccccccccccccccccccccccccccccccccccc" />
    <path
       style="fill:#7e6e54;stroke:#7e6e54;stroke-width:2;stroke-linecap:butt;stroke-linejoin:round;stroke-opacity:1;stroke-miterlimit:4;stroke-dasharray:none;fill-opacity:1"
       d="m 173.15337,108.67366 -1.35514,-14.675733 19.73008,-5.169456 3.18784,12.148219 z"
       id="path28351" />
    <path
       style="fill:none;stroke:#000000;stroke-width:3;stroke-linecap:round;stroke-linejoin:miter;stroke-miterlimit:4;stroke-dasharray:none;stroke-opacity:1"
       d="m 173.15337,108.67366 24.55219,-8.45239"
       id="path29670"
       sodipodi:nodetypes="cc" />
    <path
       style="fill:none;stroke:#000000;stroke-width:2;stroke-linecap:butt;stroke-linejoin:round;stroke-opacity:1;stroke-miterlimit:4;stroke-dasharray:none;fill-opacity:1"
       d="m 166.80457,100.71082 -1.09547,-1.825795 -1.38761,-1.168509 -1.67973,-0.876382 -1.97186,-0.219096 -3.06733,0.219096 -2.19095,1.095476 -2.26399,1.679731 -1.09547,1.679729 -0.51123,2.77521 0.073,1.16851 0.80335,1.89882 1.67973,1.67974 1.97185,0.94941 2.33702,0.51122 2.33702,0.29213 1.82579,-0.073 2.62915,-1.02245 1.75706,-0.47897 1.44899,-3.78346 -0.21175,-2.82165 z"
       id="path29941" />
    <path
       style="fill:#997b42;stroke:#000000;stroke-width:3;stroke-linecap:butt;stroke-linejoin:round;stroke-miterlimit:4;stroke-dasharray:none;stroke-opacity:1;fill-opacity:1"
       d="m 172.27593,110.33149 4.29275,16.61545 23.48385,-5.80783 -5.02279,-19.92723 -21.56278,7.69697 z"
       id="path30500"
       sodipodi:nodetypes="cccccc" />
    <path
       style="fill:none;stroke:#000000;stroke-width:3;stroke-linecap:round;stroke-linejoin:miter;stroke-opacity:0.40000001;stroke-miterlimit:4;stroke-dasharray:none"
       d="m 177.22851,107.85288 3.06069,12.09701"
       id="path31341" />
    <path
       style="fill:none;stroke:#000000;stroke-width:3;stroke-linecap:round;stroke-linejoin:miter;stroke-miterlimit:4;stroke-dasharray:none;stroke-opacity:0.4"
       d="m 185.75472,105.44805 3.06069,12.09701"
       id="path31341-2" />
    <path
       style="fill:none;stroke:#000000;stroke-width:3;stroke-linecap:round;stroke-linejoin:miter;stroke-miterlimit:4;stroke-dasharray:none;stroke-opacity:0.4"
       d="m 190.71012,104.13633 3.06069,12.09701"
       id="path31341-3" />
    <path
       style="fill:#000000;stroke:#000000;stroke-width:0;stroke-linecap:butt;stroke-linejoin:miter;stroke-opacity:1;stroke-miterlimit:4;stroke-dasharray:none;fill-opacity:0.40000001"
       d="m 209.95515,99.258952 5.39184,-6.208792 0.32678,-0.571862 -0.0817,-0.490167 -9.96675,0.0817 -1.3888,-0.326779 -3.1044,-1.388808 -2.69592,-2.124059 -2.12406,-2.859313 -0.16339,-1.307113 -0.40847,-10.701993 1.64328,-2.442133 2.09297,1.851477 0.483,11.02836 2.73696,3.541961 3.38096,1.609979 11.10886,-0.0805 2.73697,2.173475 -1.22682,4.538316 -4.56911,4.799569 z"
       id="path31715" />
    <path
       style="fill:#a3895f;stroke:#000000;stroke-width:3;stroke-linecap:butt;stroke-linejoin:round;stroke-opacity:1;stroke-miterlimit:4;stroke-dasharray:none;fill-opacity:1"
       d="m 219.76229,90.641881 0.13347,-13.868644 3.8883,-3.888298 79.00695,-0.248189 v -3.391922 l -0.82729,-1.240946 h -5.29471 l -1.73734,-2.730084 -21.50975,0.08273 -0.16544,-1.654596 h -3.47467 l -0.19005,-2.676864 -66.75612,0.113321 v 3.676309 l -4.80479,5.813652 1.44569,2.142755 0.2415,1.126985 0.2415,9.901375 0.96599,1.77098 1.77096,1.770986 1.3685,0.965981 2.01247,0.643993 11.10885,-0.0805 0.966,0.241496 0.96599,0.804987 z"
       id="path32276" />
    <path
       style="fill:#000000;stroke:#000000;stroke-width:0;stroke-linecap:butt;stroke-linejoin:miter;stroke-opacity:1;stroke-miterlimit:4;stroke-dasharray:none;fill-opacity:0.2"
       d="M 213.67345,88.790729 V 73.069677 l -0.33214,-0.996405 -0.9964,-0.664269 -1.99281,-0.66427 -1.54996,-0.221425 h -1.43925 l -9.33204,0.105042 1.44569,2.142755 0.483,11.02836 2.73695,3.541966 3.38097,1.609974 z"
       id="path35113" />
    <path
       style="fill:#9e8a69;stroke:#000000;stroke-width:3;stroke-linecap:butt;stroke-linejoin:round;stroke-opacity:1;stroke-miterlimit:4;stroke-dasharray:none;fill-opacity:1"
       d="m 219.84279,93.861844 1.188,3.917085 37.54605,-2.653433 0.9287,0.796031 2.12274,-0.132672 1.45939,-1.061374 11.27709,-1.061371 1.06135,2.65343 1.06138,0.530688 3.31679,-3.714803 9.95037,-0.796031 0.26535,-19.502717 -66.23594,0.04826 -3.8883,3.888298 z"
       id="path35516" />
    <path
       style="fill:#7e6e54;stroke:#7e6e54;stroke-width:2;stroke-linecap:butt;stroke-linejoin:round;stroke-opacity:1;stroke-miterlimit:4;stroke-dasharray:none;fill-opacity:1"
       d="m 234.16919,90.928591 8.30705,-12.685098 41.19852,-0.56129 -8.86835,12.909616 z"
       id="path36001" />
    <path
       style="fill:#545454;fill-opacity:1;stroke:#000000;stroke-width:3;stroke-linecap:butt;stroke-linejoin:round;stroke-miterlimit:4;stroke-dasharray:none;stroke-opacity:1"
       d="m 290.02,72.836677 10.96367,-0.108278 -0.29445,18.25571 -11.07119,0.05889 z"
       id="path37272"
       sodipodi:nodetypes="ccccc" />
    <rect
       style="fill:#000000;fill-opacity:0.30000001;fill-rule:evenodd;stroke:#7e6e54;stroke-width:0;stroke-linecap:round;stroke-linejoin:round;stroke-miterlimit:4;stroke-dasharray:none;stroke-opacity:1;paint-order:markers fill stroke"
       id="rect37650"
       width="11.365651"
       height="9.4223022"
       x="289.61804"
       y="81.620697" />
    <rect
       style="fill:#000000;fill-opacity:0.3;fill-rule:evenodd;stroke:#7e6e54;stroke-width:0;stroke-linecap:round;stroke-linejoin:round;stroke-miterlimit:4;stroke-dasharray:none;stroke-opacity:1;paint-order:markers fill stroke"
       id="rect37650-2"
       width="11.365651"
       height="6.5816488"
       x="289.61804"
       y="84.461349" />
    <rect
       style="fill:#000000;fill-opacity:0.30000001;fill-rule:evenodd;stroke:#7e6e54;stroke-width:0;stroke-linecap:round;stroke-linejoin:round;stroke-miterlimit:4;stroke-dasharray:none;stroke-opacity:1;paint-order:markers fill stroke"
       id="rect37650-0"
       width="11.365651"
       height="5.9478283"
       x="289.70636"
       y="72.551727" />
    <rect
       style="fill:#000000;fill-opacity:0.3;fill-rule:evenodd;stroke:#7e6e54;stroke-width:0;stroke-linecap:round;stroke-linejoin:round;stroke-miterlimit:4;stroke-dasharray:none;stroke-opacity:1;paint-order:markers fill stroke"
       id="rect37650-0-5"
       width="11.365651"
       height="3.303082"
       x="289.70636"
       y="72.551727" />
    <path
       style="fill:#404040;stroke:#000000;stroke-width:3;stroke-linecap:butt;stroke-linejoin:round;stroke-opacity:1;stroke-miterlimit:4;stroke-dasharray:none;fill-opacity:1"
       d="m 302.79101,72.63675 7.65146,0.794594 0.4953,3.591078 0.37151,5.3247 0.12382,2.352775 -0.12382,4.829382 -0.49533,2.724266 -9.59041,0.881298 -0.53432,-2.150734 0.29445,-18.25571 z"
       id="path38091" />
    <rect
       style="fill:#000000;fill-opacity:0.3;fill-rule:evenodd;stroke:#7e6e54;stroke-width:0;stroke-linecap:round;stroke-linejoin:round;stroke-miterlimit:4;stroke-dasharray:none;stroke-opacity:1;paint-order:markers fill stroke"
       id="rect37650-2-5"
       width="11.365651"
       height="5.9650674"
       x="300.29559"
       y="86.113441" />
    <rect
       style="fill:#000000;fill-opacity:0.3;fill-rule:evenodd;stroke:#7e6e54;stroke-width:0;stroke-linecap:round;stroke-linejoin:round;stroke-miterlimit:4;stroke-dasharray:none;stroke-opacity:1;paint-order:markers fill stroke"
       id="rect37650-2-5-7"
       width="11.365651"
       height="9.3562641"
       x="300.29559"
       y="82.722244" />
    <rect
       style="fill:#000000;fill-opacity:0.3;fill-rule:evenodd;stroke:#7e6e54;stroke-width:0;stroke-linecap:round;stroke-linejoin:round;stroke-miterlimit:4;stroke-dasharray:none;stroke-opacity:1;paint-order:markers fill stroke"
       id="rect37650-2-5-7-1"
       width="9.361762"
       height="3.8070338"
       x="301.08069"
       y="73.431343" />
    <rect
       style="fill:#000000;fill-opacity:0.3;fill-rule:evenodd;stroke:#7e6e54;stroke-width:0;stroke-linecap:round;stroke-linejoin:round;stroke-miterlimit:4;stroke-dasharray:none;stroke-opacity:1;paint-order:markers fill stroke"
       id="rect37650-2-5-7-1-5"
       width="9.361762"
       height="6.1192131"
       x="301.08069"
       y="73.431343" />
    <circle
       style="fill:#373737;fill-opacity:1;fill-rule:evenodd;stroke:#000000;stroke-width:3;stroke-linecap:round;stroke-linejoin:round;stroke-miterlimit:4;stroke-dasharray:none;stroke-opacity:1;paint-order:markers fill stroke"
       id="path39611"
       cx="126.33591"
       cy="37.778202"
       r="4" />
    <path
       style="fill:#000000;stroke:#000000;stroke-width:0;stroke-linecap:butt;stroke-linejoin:miter;stroke-opacity:1;stroke-miterlimit:4;stroke-dasharray:none;fill-opacity:0.1"
       d="m 59.99159,50.61069 1.923346,8.443113 0.572228,0.343337 2.730272,-0.03608 2.969435,11.800459 -12.962864,0.05536 -5.301504,-20.499149 z"
       id="path40049" />
    <path
       style="fill:#666666;stroke:#000000;stroke-width:3;stroke-linecap:butt;stroke-linejoin:round;stroke-opacity:1;stroke-miterlimit:4;stroke-dasharray:none;fill-opacity:1"
       d="m 274.28915,51.842595 1.75077,0.583594 0.0973,9.045705 12.83906,-0.09727 0.0973,-10.212893 -0.38907,-1.069922 v -1.653516 l -2.2371,-2.528906 -3.40429,-0.09727 0.0973,-2.626172 h -8.55937 v 3.598828 l -0.5836,0.09727 z"
       id="path40784" />
    <path
       style="fill:#000000;stroke:#000000;stroke-width:0;stroke-linecap:butt;stroke-linejoin:miter;stroke-opacity:1;stroke-miterlimit:4;stroke-dasharray:none;fill-opacity:0.15000001"
       d="m 276.03992,52.426189 12.74694,-0.04268 -0.10234,-3.945212 -14.29028,0.160144 z"
       id="path40852" />
    <path
       style="fill:#474747;stroke:#000000;stroke-width:3;stroke-linecap:butt;stroke-linejoin:round;stroke-opacity:1;stroke-miterlimit:4;stroke-dasharray:none;fill-opacity:1"
       d="m 276.54173,42.465976 0.20513,-9.949756 v -1.43605 l -0.82058,-5.12874 v -2.461796 l 0.30771,-1.538622 0.30774,-0.20515 0.71803,0.615449 1.02573,0.410299 h 1.64119 l 1.12834,-0.410299 0.71802,-0.615449 0.51287,-0.102575 0.30771,0.307725 0.10258,0.512874 -0.41029,2.154071 -0.10258,1.641197 -0.20515,0.820598 -0.20514,7.487962 -1.33347,2.051497 -0.10258,6.257065 z"
       id="path40986" />
    <path
       style="fill:#666666;stroke:#000000;stroke-width:3;stroke-linecap:butt;stroke-linejoin:round;stroke-opacity:1;stroke-miterlimit:4;stroke-dasharray:none;fill-opacity:1"
       d="m 275.12224,54.767117 h -2.7971 l -1.56636,5.985782 4.41942,-0.05594 z"
       id="path41219" />
    <path
       style="fill:#000000;stroke:#000000;stroke-width:0;stroke-linecap:butt;stroke-linejoin:miter;stroke-opacity:1;stroke-miterlimit:4;stroke-dasharray:none;fill-opacity:0.2"
       d="m 276.91093,54.151468 11.73472,-0.08586 -1.45968,-7.784989 h -12.27855 l -0.0572,4.321813 z"
       id="path42010" />
    <path
       style="fill:#444444;stroke:#000000;stroke-width:3;stroke-linecap:butt;stroke-linejoin:round;stroke-miterlimit:4;stroke-dasharray:none;stroke-opacity:1;fill-opacity:1"
       d="m 288.97627,61.374622 25.75253,-0.239847 0.39368,-0.168725 0.6749,-2.137187 -0.6749,-0.33745 0.0562,-1.743493 0.56242,-0.506177 -0.61867,-1.743493 -0.44993,-0.449935 -25.40431,-0.01383 z"
       id="path42675"
       sodipodi:nodetypes="ccccccccccc" />
    <path
       style="fill:#444444;stroke:#000000;stroke-width:2;stroke-linecap:round;stroke-linejoin:miter;stroke-opacity:0.30000001;stroke-miterlimit:4;stroke-dasharray:none;fill-opacity:1"
       d="m 314.02528,57.531851 h -5.98332"
       id="path42895" />
  </g>
</svg>
