<?xml version="1.0" encoding="UTF-8" standalone="no"?>
<!-- Created with Inkscape (http://www.inkscape.org/) -->

<svg
   width="1250"
   height="600"
   viewBox="0 0 330.72916 158.75"
   version="1.1"
   id="svg853"
   inkscape:version="1.1.1 (c3084ef, 2021-09-22)"
   sodipodi:docname="VSS_loot.svg"
   xmlns:inkscape="http://www.inkscape.org/namespaces/inkscape"
   xmlns:sodipodi="http://sodipodi.sourceforge.net/DTD/sodipodi-0.dtd"
   xmlns="http://www.w3.org/2000/svg"
   xmlns:svg="http://www.w3.org/2000/svg">
  <sodipodi:namedview
     id="namedview855"
     pagecolor="#ffffff"
     bordercolor="#666666"
     borderopacity="1.0"
     inkscape:pageshadow="2"
     inkscape:pageopacity="0.0"
     inkscape:pagecheckerboard="0"
     inkscape:document-units="mm"
     showgrid="false"
     units="px"
     inkscape:zoom="0.84777502"
     inkscape:cx="504.26114"
     inkscape:cy="306.09536"
     inkscape:window-width="1312"
     inkscape:window-height="731"
     inkscape:window-x="0"
     inkscape:window-y="25"
     inkscape:window-maximized="0"
     inkscape:current-layer="layer1" />
  <defs
     id="defs850" />
  <g
     inkscape:label="Layer 1"
     inkscape:groupmode="layer"
     id="layer1">
    <path
       style="fill:#6c3512;stroke:#000000;stroke-width:3;stroke-linecap:butt;stroke-linejoin:round;stroke-opacity:1;stroke-miterlimit:4;stroke-dasharray:none;fill-opacity:1"
       d="m 129.42835,89.487916 v -0.711634 l -1.24536,-0.355817 -4.2698,-8.806465 h -0.53373 l -0.80059,1.601176 -0.62267,0.533725 -0.88955,0.355817 h -1.24536 l -0.71163,-0.355817 -1.06745,-0.889542 -0.53372,-1.245359 -7.11634,-0.08895 -0.97849,-0.266864 -0.71164,-0.44477 -0.44477,-0.978495 -0.0889,-9.251236 h -9.162287 l -1.423265,0.266862 -3.469214,1.51222 -3.024444,1.067451 -3.558167,0.800587 -5.070388,0.711634 h -8.717512 l -19.12515,0.08895 -34.425272,0.355817 -0.533725,0.266862 -0.622679,0.800587 -0.266863,1.690129 0.355817,2.401763 0.622679,3.113397 82.19367,-0.355817 2.1349,0.444772 1.60118,0.800587 1.24536,0.889543 1.06745,1.156403 0.44477,1.334313 0.53372,2.045949 v 2.045946 l -2.75758,10.14078 -1.06745,1.95699 -1.69013,1.51222 -1.77908,0.71163 -81.304131,0.26687 -0.711633,3.82503 -0.177908,1.33431 0.622679,1.86804 76.767467,-2.49072 0.978495,0.17791 1.512221,0.53372 2.66863,1.86804 0.97849,0.44478 17.96875,0.1779 1.24536,-0.26686 1.69013,-0.35582 0.35581,-0.53372 -0.089,-0.71164 -1.15641,-1.95699 v -1.1564 l 4.0919,-16.367575 0.71163,-0.800587 z"
       id="path959" />
    <path
       style="fill:#2d2d2d;stroke:#000000;stroke-width:3;stroke-linecap:butt;stroke-linejoin:round;stroke-opacity:1;stroke-miterlimit:4;stroke-dasharray:none;fill-opacity:1"
       d="m 20.103697,111.63751 -2.272756,-0.19413 -3.184097,0.10614 -1.167502,-0.74296 1.32256,-9.92072 0.337104,-5.363006 -0.06129,-5.91463 -0.520978,-5.087197 -1.562934,-9.745353 0.03065,-0.85808 0.398395,-0.520978 0.919373,-0.245166 5.850435,0.235776 -0.533725,0.266861 -0.622679,0.800587 -0.266863,1.690129 0.978496,5.51516 0.447676,4.240123 0.459686,6.313027 0.09194,4.075885 -0.153229,4.443642 -0.223392,3.87751 -0.889541,5.15934 z"
       id="path13729" />
    <path
       style="fill:#91481a;stroke:#000000;stroke-width:3;stroke-linecap:butt;stroke-linejoin:round;stroke-opacity:1;stroke-miterlimit:4;stroke-dasharray:none;fill-opacity:1"
       d="m 38.045575,103.33581 -1.144082,-1.02773 -0.756259,-1.08591 -1.337993,-2.850509 -1.26043,-3.606765 -1.434949,-3.606768 -0.504171,-1.570689 -0.09696,-0.96956 0.07756,-1.842167 0.426607,-1.41556 0.96956,-1.279819 1.454341,-1.551297 0.581736,-0.988954 -15.272657,0.119861 0.682491,9.683613 0.197713,5.206449 -0.197713,5.601875 -0.05982,2.45825 17.919922,-0.15159 z"
       id="path14061" />
    <path
       style="fill:#91481a;stroke:#000000;stroke-width:3;stroke-linecap:butt;stroke-linejoin:round;stroke-opacity:1;stroke-miterlimit:4;stroke-dasharray:none;fill-opacity:1"
       d="m 60.028391,103.60573 1.71282,-1.67298 1.035658,-1.15516 0.517829,-1.115326 1.712823,-7.44878 0.597495,-4.62063 -0.159332,-1.354325 -0.677161,-1.513655 -1.274659,-1.234824 -1.553488,-1.035658 -0.03983,-1.15516 h 23.381993 l -3.624805,1.872154 -1.115327,1.194991 -0.836493,1.553488 -1.155158,4.4613 -1.31449,6.054622 -0.07967,1.991654 0.358498,1.433989 0.836493,1.51365 1.155158,1.27466 1.872152,1.79249 -21.549672,0.1195 z"
       id="path14228" />
    <path
       style="fill:#4f4f4f;stroke:#000000;stroke-width:3;stroke-linecap:butt;stroke-linejoin:round;stroke-opacity:1;stroke-miterlimit:4;stroke-dasharray:none;fill-opacity:1"
       d="m 149.2231,88.858179 2.86845,-0.06374 1.46609,-0.701175 0.50995,1.019893 22.05519,-7.202993 -0.63744,-1.466099 v -9.370266 l -24.54117,-0.254974 -3.63337,1.147382 -0.19123,4.07957 h 1.72107 z"
       id="path14409" />
    <path
       style="fill:none;stroke:#000000;stroke-width:2;stroke-linecap:butt;stroke-linejoin:round;stroke-opacity:1;stroke-miterlimit:4;stroke-dasharray:none"
       d="m 149.2231,88.858179 -19.79475,-0.0819 z"
       id="path14774" />
    <path
       style="fill:#4f4f4f;stroke:#000000;stroke-width:3;stroke-linecap:butt;stroke-linejoin:round;stroke-opacity:1;stroke-miterlimit:4;stroke-dasharray:none;fill-opacity:1"
       d="m 129.42835,88.776277 0.27223,-11.781991 -21.46704,-0.03178 0.0237,0.872413 0.44477,0.978496 0.71164,0.444769 8.09483,0.355815 0.53372,1.245359 1.06745,0.88954 0.71163,0.355817 h 1.24536 l 0.88955,-0.355817 0.62267,-0.533723 0.80059,-1.601176 h 0.53373 l 4.26979,8.806463 z"
       id="path14922" />
    <path
       style="fill:#666666;stroke:#000000;stroke-width:3;stroke-linecap:butt;stroke-linejoin:round;stroke-opacity:1;stroke-miterlimit:4;stroke-dasharray:none;fill-opacity:1"
       d="m 176.12278,81.910162 4.00764,19.170898 -21.08613,4.34961 -0.85102,-5.01151 -2.49176,-11.800733 z"
       id="path14990" />
    <path
       style="fill:#3c3c3c;fill-opacity:1;stroke:#000000;stroke-width:3;stroke-linecap:butt;stroke-linejoin:round;stroke-miterlimit:4;stroke-dasharray:none;stroke-opacity:1"
       d="m 159.04429,105.43067 0.68787,4.32725 23.02112,-5.08529 -0.82836,-4.29654 z"
       id="path15025"
       sodipodi:nodetypes="ccccc" />
    <path
       style="fill:#313131;fill-opacity:1;stroke:#000000;stroke-width:3;stroke-linecap:butt;stroke-linejoin:round;stroke-miterlimit:4;stroke-dasharray:none;stroke-opacity:1"
       d="m 150.94417,70.818824 -0.10798,-2.271899 -42.6678,0.03676 0.0652,8.378819 21.46704,0.03178 1.63303,-1.205907 15.78596,0.257397 0.19123,-4.079571 z"
       id="path15595"
       sodipodi:nodetypes="ccccccccc" />
    <path
       style="fill:none;stroke:#000000;stroke-width:2;stroke-linecap:round;stroke-linejoin:round;stroke-opacity:1;stroke-miterlimit:4;stroke-dasharray:none"
       d="m 152.09155,88.794438 -2.66122,2.040033 -0.54457,0.762399 -0.43566,1.688172"
       id="path16017" />
    <path
       style="fill:#000000;stroke:#000000;stroke-width:0.264583px;stroke-linecap:butt;stroke-linejoin:miter;stroke-opacity:1;fill-opacity:1"
       d="m 134.9039,76.712238 -0.0741,4.704228 0.37041,1.481645 0.77786,1.370523 0.66674,0.851948 0.81491,0.592656 0.92603,0.629701 0.66674,0.333369 0.66674,0.148167 0.25929,-0.07408 0.0741,-0.259289 -0.0741,-0.148164 -1.7039,-1.370524 -1.18531,-1.740934 -0.51858,-1.592768 0.11112,-1.185317 0.37041,-1.518687 0.40746,-1.148276 -0.037,-1.111237 z"
       id="path16170" />
    <path
       style="fill:#2c2c2c;stroke:#000000;stroke-width:3;stroke-linecap:butt;stroke-linejoin:round;stroke-opacity:1;stroke-miterlimit:4;stroke-dasharray:none;fill-opacity:1"
       d="m 176.12278,81.910162 31.61874,-5.085273 0.73097,-5.116785 -0.21929,-9.064021 -0.73097,-3.143168 -31.72408,-0.584777 -0.31281,12.15766 v 9.370266 z"
       id="path16384" />
    <path
       style="fill:#414141;fill-opacity:1;stroke:#000000;stroke-width:3;stroke-linecap:butt;stroke-linejoin:round;stroke-miterlimit:4;stroke-dasharray:none;stroke-opacity:1"
       d="m 110.88334,68.318713 0.49687,-5.382686 4.14052,-3.809286 60.38149,0.608063 -0.26847,4.307685 -23.60544,-0.144764 -1.00555,0.317434 -0.87508,0.886363 -0.49614,1.087178 -0.14002,1.439155 -0.0537,0.83226 z"
       id="path16895"
       sodipodi:nodetypes="cccccccccccc" />
    <path
       style="fill:#6b6b6b;stroke:#000000;stroke-width:3;stroke-linecap:butt;stroke-linejoin:round;stroke-opacity:1;stroke-miterlimit:4;stroke-dasharray:none;fill-opacity:1"
       d="m 175.48534,71.073798 0.14841,-7.03131 -23.60544,-0.144764 -1.00555,0.317433 -0.87508,0.886365 -0.49614,1.087178 -0.19372,2.271414 1.37837,0.08681 0.10798,2.2719 z"
       id="path17636" />
    <path
       style="fill:#333333;fill-opacity:1;stroke:#000000;stroke-width:3;stroke-linecap:butt;stroke-linejoin:round;stroke-miterlimit:4;stroke-dasharray:none;stroke-opacity:1"
       d="m 208.29282,75.980223 25.28554,-0.239964 -0.6794,-2.364859 -0.20382,-1.630564 v -3.261129 l 0.27176,-2.242027 0.74734,-2.853486 -25.35315,-0.0024 0.1114,8.322405 z"
       id="path18081"
       sodipodi:nodetypes="cccccccccc" />
    <path
       style="fill:#757575;stroke:#000000;stroke-width:3;stroke-linecap:butt;stroke-linejoin:round;stroke-miterlimit:4;stroke-dasharray:none;stroke-opacity:1;fill-opacity:1"
       d="m 230.73445,62.936381 0.0484,-1.791266 -2.6627,-2.469044 -2.42063,0.04841 -1.21031,0.532538 -1.45239,1.210317 -7.11664,-2e-6 -1.93651,0.338889 -2.13015,0.484127 -0.67778,2.081741 z"
       id="path20303"
       sodipodi:nodetypes="ccccccccccc" />
    <path
       style="fill:#545454;stroke:#000000;stroke-width:3;stroke-linecap:butt;stroke-linejoin:round;stroke-opacity:1;stroke-miterlimit:4;stroke-dasharray:none;fill-opacity:1"
       d="m 306.57225,64.16436 0.12142,-4.54484 0.3016,-0.854581 0.40217,-0.351885 h 3.82047 l 0.50269,0.351885 0.0503,2.061046 0.30162,0.552963 h 1.40753 l 0.45244,0.150808 0.10054,0.301617 v 0.100539 l -0.0544,3.074982 -7.40638,0.157432 z"
       id="path21096" />
    <path
       style="fill:#515151;stroke:#000000;stroke-width:3;stroke-linecap:butt;stroke-linejoin:round;stroke-opacity:1;stroke-miterlimit:4;stroke-dasharray:none;fill-opacity:1"
       d="m 233.57836,75.740259 80.24369,0.340342 0.91665,-0.583314 0.8333,-1.333286 0.49999,-2.999891 -0.0834,-3.249885 -0.5833,-2.333249 -0.49998,-0.41665 h -8.33305 V 64.16436 l -72.85807,-0.776166 -0.74734,2.853486 -0.27176,2.242027 v 3.261127 l 0.20382,1.630566 z"
       id="path18767" />
    <path
       style="fill:#000000;stroke:#000000;stroke-width:0;stroke-linecap:butt;stroke-linejoin:miter;stroke-opacity:1;stroke-miterlimit:4;stroke-dasharray:none;fill-opacity:0.2"
       d="m 246.43074,75.607229 0.23251,-12.013451 54.21353,0.593267 0.53652,2.514299 0.19852,1.654299 0.13234,2.05133 -0.19851,2.183676 -1.05873,3.308598 z"
       id="path19132" />
    <path
       style="fill:#676767;stroke:#000000;stroke-width:3;stroke-linecap:butt;stroke-linejoin:round;stroke-opacity:1;stroke-miterlimit:4;stroke-dasharray:none;fill-opacity:1"
       d="m 146.6685,58.71723 v -7.391562 l -13.78651,-0.332205 -0.24915,1.661025 -3.65426,-0.166103 -0.58136,-0.581358 -4.06951,-0.249153 -0.99661,1.577972 -0.33221,1.162719 v 0.996614 1.411873 l 0.33221,1.910178 z"
       id="path21357" />
    <path
       style="fill:#000000;stroke:#000000;stroke-width:0;stroke-linecap:butt;stroke-linejoin:miter;stroke-opacity:1;stroke-miterlimit:4;stroke-dasharray:none;fill-opacity:0.30000001"
       d="m 129.06163,58.80028 -0.0831,-6.311895 3.65426,0.166103 0.0831,6.311894 z"
       id="path21557" />
    <path
       style="fill:#3e3e3e;stroke:#000000;stroke-width:3;stroke-linecap:butt;stroke-linejoin:round;stroke-opacity:1;stroke-miterlimit:4;stroke-dasharray:none;fill-opacity:1"
       d="m 173.8991,59.338828 v -5.732049 l -1.211,-0.645867 0.0807,-2.099058 -1.13026,0.08073 -1.93759,-0.968798 -5.97425,0.08074 -0.32294,9.203573 z"
       id="path22152" />
    <path
       style="fill:#5c5c5c;stroke:#000000;stroke-width:3;stroke-linecap:butt;stroke-linejoin:round;stroke-opacity:1;stroke-miterlimit:4;stroke-dasharray:none;fill-opacity:1"
       d="m 172.7688,50.861854 1.73319,-1.017019 -0.63095,-11.17678 -2.70406,-0.09014 -1.5323,0.811218 -0.90135,-1.442165 -23.25491,-0.360542 -2.07312,-0.991489 -3.42514,-0.180269 -0.36054,4.687036 -0.0901,3.87582 0.18027,5.408118 20.37059,0.450678 0.2704,-0.991489 3.37596,0.20969 5.97425,-0.08074 1.93759,0.968798 z"
       id="path22498" />
    <path
       style="fill:#6c6c6c;stroke:#000000;stroke-width:3;stroke-linecap:butt;stroke-linejoin:round;stroke-opacity:1;stroke-miterlimit:4;stroke-dasharray:none;fill-opacity:1"
       d="m 139.70979,50.385641 -1.80274,0.09014 -1.2619,-2.523789 -8.92339,-0.36054 -9.91489,1.261893 -0.45068,1.081625 -2.43365,0.270406 -1.08163,-4.236362 -0.0901,-3.875818 0.36054,-4.146225 2.88433,-0.180271 0.54081,1.081625 10.4557,1.5323 8.38259,0.180271 3.60541,-4.14623 z"
       id="path22830" />
    <path
       style="fill:#2a2a2a;stroke:#000000;stroke-width:3;stroke-linecap:butt;stroke-linejoin:round;stroke-opacity:1;stroke-miterlimit:4;stroke-dasharray:none;fill-opacity:1"
       d="m 114.92254,50.205375 -9.07996,0.387736 -2.68636,-0.716365 -10.655896,0.447728 -1.253635,-3.850449 -0.358182,-5.462265 1.074544,-2.507268 0.984999,-0.268637 9.04408,-0.179091 12.11922,-0.109794 -0.36054,4.146224 0.0901,3.875821 z"
       id="path23275" />
    <path
       style="fill:#161616;stroke:#000000;stroke-width:3;stroke-linecap:butt;stroke-linejoin:round;stroke-opacity:1;stroke-miterlimit:4;stroke-dasharray:none;fill-opacity:1"
       d="m 91.320812,49.561538 -1.128628,0.441637 -0.539779,0.04907 -0.981416,-1.079559 -1.521196,1.1777 -0.686993,0.04907 -0.68699,-0.883275 h -0.294426 l -0.04907,1.521196 -0.392567,1.226769 -0.637921,0.785133 -0.637921,0.196284 -1.1777,-3.042391 -0.686991,-6.968059 -0.04907,-3.042391 0.392567,-2.551683 0.539779,-1.27584 0.637921,-0.392567 0.539779,0.196283 0.736063,1.324912 0.441638,1.717479 0.09814,0.343495 0.490707,-0.637921 0.441637,-0.196283 0.49071,-0.09814 0.294426,0.245356 0.981416,1.030486 0.196284,0.196284 0.196281,-0.04907 0.196284,-0.883277 0.392567,-0.588849 0.392568,-0.04907 0.637918,0.245353 0.941679,2.442088 z"
       id="path23640" />
    <path
       style="fill:#888888;stroke:#000000;stroke-width:3;stroke-linecap:butt;stroke-linejoin:round;stroke-opacity:1;stroke-miterlimit:4;stroke-dasharray:none;fill-opacity:1"
       d="m 174.34751,39.600002 18.36652,0.04479 0.58235,2.015839 0.26878,2.642986 -0.17919,2.329411 -0.49276,3.673302 -18.39122,-0.461499 z"
       id="path23986" />
    <path
       style="fill:#2c2c2c;stroke:#000000;stroke-width:3;stroke-linecap:butt;stroke-linejoin:round;stroke-miterlimit:4;stroke-dasharray:none;stroke-opacity:1;fill-opacity:1"
       d="m 192.89321,50.306329 0.17919,1.209508 4.52443,0.179187 0.40317,-0.223983 0.58235,-2.777376 0.17919,-3.58371 -0.0448,-2.911763 -0.53755,-2.822173 -0.44796,-1.164706 -0.71675,-0.671946 -3.94208,0.0448 -0.35837,2.060626 0.58235,2.01584 0.26878,2.642986 z"
       id="path24285"
       sodipodi:nodetypes="ccccccccccccccc" />
    <path
       style="fill:#656565;stroke:#000000;stroke-width:3;stroke-linecap:butt;stroke-linejoin:round;stroke-opacity:1;stroke-miterlimit:4;stroke-dasharray:none;fill-opacity:1"
       d="m 149.66768,36.918955 0.0463,-2.825668 -0.37058,-0.185288 0.0463,-1.15806 3.14992,-0.231613 h 2.03818 l 3.28889,0.37058 -0.0463,1.204381 -0.4169,0.185291 -0.18529,2.686698 z"
       id="path24718" />
    <path
       style="fill:#000000;stroke:#000000;stroke-width:0;stroke-linecap:butt;stroke-linejoin:miter;stroke-opacity:1;stroke-miterlimit:4;stroke-dasharray:none;fill-opacity:0.30000001"
       d="m 38.29047,104.45854 -5.464264,0.0226 -3.095043,-8.065861 -2.157151,-5.627352 -0.187579,-3.09504 0.750313,-3.095043 1.875785,-3.001253 5.008004,-0.05649 -0.581736,0.988954 -1.454341,1.551297 -1.396166,2.695377 -0.07756,1.842169 0.60113,2.540249 2.695379,7.213531 z"
       id="path25162" />
    <path
       style="fill:#000000;stroke:#000000;stroke-width:0;stroke-linecap:butt;stroke-linejoin:miter;stroke-opacity:1;stroke-miterlimit:4;stroke-dasharray:none;fill-opacity:0.30000001"
       d="m 59.829223,104.56173 5.354241,-0.0806 1.969574,-2.62609 0.562734,-1.21926 0.375155,-1.40684 1.969575,-10.410597 -0.187579,-1.688206 -0.750314,-2.344727 -1.500626,-3.188832 9.660284,-0.09379 -3.845357,15.193843 -0.09379,2.813675 0.750313,2.250944 1.219261,2.5323 6.0662,0.14869 -3.02731,-3.06715 -1.19499,-2.947639 0.07967,-1.991656 2.469647,-10.51592 0.836494,-1.553488 1.115327,-1.194991 3.624805,-1.872154 -7.718907,-0.828136 -15.663087,0.828136 0.03983,1.15516 2.828147,2.270482 0.836493,2.86798 -1.265653,6.477672 -1.044665,5.591736 -1.553487,2.270488 z"
       id="path25659" />
    <path
       style="fill:#000000;stroke:#000000;stroke-width:0;stroke-linecap:butt;stroke-linejoin:miter;stroke-opacity:1;stroke-miterlimit:4;stroke-dasharray:none;fill-opacity:0.30000001"
       d="m 107.40369,72.972474 -7.21194,-0.232643 -1.395861,0.232643 -3.412101,1.706052 -4.57532,1.395859 -6.281373,1.008124 -19.076757,0.07755 -46.512924,0.248351 0.721512,-3.75434 62.801657,-0.711629 5.591479,-1.523968 4.28511,-0.737221 5.245624,-1.830703 7.932234,0.03372 2.65332,-0.300582 z"
       id="path25843" />
    <path
       style="fill:#000000;stroke:#000000;stroke-width:0;stroke-linecap:butt;stroke-linejoin:miter;stroke-opacity:1;stroke-miterlimit:4;stroke-dasharray:none;fill-opacity:0.30000001"
       d="m 123.02364,108.52411 -3.23821,0.28243 -15.13931,-0.11556 -0.52005,-0.0578 -0.63562,-0.46227 -0.52005,-0.40448 -0.98232,-0.28892 -6.009498,0.3467 4.160418,3.12032 2.87,1.2267 15.1007,0.21789 4.04486,-0.3467 2.11449,-0.84969 z"
       id="path25991" />
    <path
       style="fill:none;stroke:#000000;stroke-width:2;stroke-linecap:round;stroke-linejoin:round;stroke-opacity:0.40000001;stroke-miterlimit:4;stroke-dasharray:none"
       d="m 159.60708,91.621138 10.28826,-3.058671 z"
       id="path26139" />
    <path
       style="fill:none;stroke:#000000;stroke-width:2;stroke-linecap:round;stroke-linejoin:round;stroke-miterlimit:4;stroke-dasharray:none;stroke-opacity:0.4"
       d="m 164.19509,93.984659 10.28826,-3.058671 z"
       id="path26139-0" />
    <path
       style="fill:none;stroke:#000000;stroke-width:2;stroke-linecap:round;stroke-linejoin:round;stroke-miterlimit:4;stroke-dasharray:none;stroke-opacity:0.4"
       d="m 161.13643,98.572667 10.28826,-3.058671 z"
       id="path26139-9" />
    <path
       style="fill:none;stroke:#000000;stroke-width:2;stroke-linecap:round;stroke-linejoin:round;stroke-miterlimit:4;stroke-dasharray:none;stroke-opacity:0.4"
       d="m 165.72443,100.79716 10.28826,-3.058675 z"
       id="path26139-2" />
    <path
       style="fill:#000000;stroke:#000000;stroke-width:0;stroke-linecap:butt;stroke-linejoin:miter;stroke-opacity:1;stroke-miterlimit:4;stroke-dasharray:none;fill-opacity:0.30000001"
       d="m 115.57776,68.167061 v -2.94899 l 0.21745,-1.002154 0.48602,-0.972048 0.60753,-0.546777 1.15431,-0.42527 39.18568,0.729035 18.405,1.041631 0.26847,-4.307684 -60.38149,-0.608063 -4.14052,3.809286 -0.49687,5.382686 z"
       id="path26648" />
    <path
       style="fill:#000000;stroke:#000000;stroke-width:0;stroke-linecap:butt;stroke-linejoin:miter;stroke-opacity:1;stroke-miterlimit:4;stroke-dasharray:none;fill-opacity:0.30000001"
       d="m 192.89321,50.306329 0.28106,-3.478895 -19.01531,-0.26657 -2.31027,0.53314 -1.51057,-0.53314 -0.62199,-0.177713 -9.95194,0.177713 -0.88857,0.177712 -0.622,0.355428 -18.30446,-0.444283 -2.0437,-1.332849 -0.97742,-0.26657 -9.4188,-0.26657 -1.95485,0.26657 -11.49959,1.500497 -7.73369,0.420071 -0.91961,-0.141478 -1.20257,-0.495176 -1.55626,-0.282958 -11.395981,0.422767 1.253633,3.850449 10.655898,-0.447728 2.68636,0.716365 9.07996,-0.387736 2.43365,-0.270404 0.45068,-1.081628 9.91489,-1.261893 8.92339,0.360543 1.2619,2.523789 22.17333,0.360537 0.2704,-0.991489 9.35017,0.128955 1.93759,0.968798 2.86345,-1.097753 z"
       id="path26796" />
    <path
       style="fill:#000000;stroke:#000000;stroke-width:0;stroke-linecap:butt;stroke-linejoin:miter;stroke-opacity:1;stroke-miterlimit:4;stroke-dasharray:none;fill-opacity:0.30000001"
       d="m 149.42503,84.90219 h 1.62189 l 0.63465,-0.211551 0.98723,-0.564133 h 0.70517 l 1.12827,0.21155 0.49362,0.141033 20.37934,-6.487543 32.77958,-5.237536 0.31771,-1.045906 24.2226,0.03673 83.63621,0.453628 -1.5926,3.298825 -3.69589,1.057778 -94.77359,-0.675625 -7.9764,0.100783 -4.34789,1.623221 -29.96039,4.915739 -18.63787,6.499958 -6.12357,-0.160962 z"
       id="path27202" />
    <ellipse
       style="fill:#5a5a5a;fill-opacity:1;fill-rule:evenodd;stroke:#000000;stroke-width:4.62937;stroke-linecap:round;stroke-linejoin:round;stroke-miterlimit:4;stroke-dasharray:none;stroke-opacity:1;paint-order:stroke fill markers"
       id="path1127"
       cx="215.66618"
       cy="59.005863"
       rx="2.7008908"
       ry="2.5497231" />
  </g>
</svg>
