<?xml version="1.0" encoding="UTF-8" standalone="no"?>
<!-- Created with Inkscape (http://www.inkscape.org/) -->

<svg
   width="1250"
   height="600"
   viewBox="0 0 330.72916 158.75"
   version="1.1"
   id="svg5"
   inkscape:version="1.1.1 (c3084ef, 2021-09-22)"
   sodipodi:docname="Sawed Off_loot.svg"
   xmlns:inkscape="http://www.inkscape.org/namespaces/inkscape"
   xmlns:sodipodi="http://sodipodi.sourceforge.net/DTD/sodipodi-0.dtd"
   xmlns="http://www.w3.org/2000/svg"
   xmlns:svg="http://www.w3.org/2000/svg">
  <sodipodi:namedview
     id="namedview7"
     pagecolor="#ffffff"
     bordercolor="#666666"
     borderopacity="1.0"
     inkscape:pageshadow="2"
     inkscape:pageopacity="0.0"
     inkscape:pagecheckerboard="0"
     inkscape:document-units="mm"
     showgrid="false"
     units="px"
     inkscape:zoom="0.44045728"
     inkscape:cx="1000.097"
     inkscape:cy="220.22567"
     inkscape:window-width="1312"
     inkscape:window-height="736"
     inkscape:window-x="0"
     inkscape:window-y="25"
     inkscape:window-maximized="0"
     inkscape:current-layer="layer1"
     showguides="false" />
  <defs
     id="defs2" />
  <g
     inkscape:label="Layer 1"
     inkscape:groupmode="layer"
     id="layer1">
    <path
       style="fill:#5f3b17;fill-opacity:1;stroke:#000000;stroke-width:3;stroke-linecap:butt;stroke-linejoin:round;stroke-miterlimit:4;stroke-dasharray:none;stroke-opacity:1"
       d="M 66.029447,108.85296 C 77.99131,83.13495 103.23084,82.776096 103.23084,82.776096 l 25.0003,-1.076568 0.23923,-30.62237 -28.22999,10.047965 -4.306275,1.315805 -5.861312,1.076568 C 72.218088,68.292712 59.49488,78.690391 49.781366,91.769773 l -3.224704,5.911964 -0.537451,1.477989 0.06718,0.738997 0.403088,1.209267 3.157527,2.82161 6.046324,3.49344 3.426251,1.54517 2.41853,0.80618 h 1.410808 l 0.940539,-0.0672 1.142084,-0.26873 z"
       id="path1161"
       sodipodi:nodetypes="cccccccccccccccccccc" />
    <path
       style="fill:#383838;stroke:#000000;stroke-width:2.9;stroke-linecap:butt;stroke-linejoin:round;stroke-miterlimit:4;stroke-dasharray:none;stroke-opacity:1;fill-opacity:1"
       d="m 72.606017,70.813275 c 3.096551,13.934488 9.941564,18.579317 9.941564,18.579317 C 68.257844,99.775097 66.029487,108.85296 66.029487,108.85296 63.553317,109.08431 49.781406,91.769773 49.781406,91.769773 59.786237,76.81412 72.606017,70.813275 72.606017,70.813275 Z"
       id="path2756"
       sodipodi:nodetypes="csssc" />
    <path
       style="fill:#000000;fill-opacity:0.3;stroke:#000000;stroke-width:0;stroke-linecap:butt;stroke-linejoin:miter;stroke-miterlimit:4;stroke-dasharray:none;stroke-opacity:1"
       d="M 59.119621,108.96821 C 75.388914,78.996946 98.796496,78.351273 98.796496,78.351273 l 29.383644,-1.633085 0.051,4.98134 -32.595083,2.310942 -14.868567,6.791814 -11.748005,11.870376 -5.130027,7.03453 z"
       id="path3538"
       sodipodi:nodetypes="ccccccccc" />
    <path
       style="fill:none;stroke:#000000;stroke-width:3;stroke-linecap:butt;stroke-linejoin:miter;stroke-opacity:1;stroke-miterlimit:4;stroke-dasharray:none"
       d="M 51.329703,90.070513 69.019485,102.67266"
       id="path4136" />
    <path
       style="fill:none;stroke:#000000;stroke-width:3;stroke-linecap:butt;stroke-linejoin:miter;stroke-opacity:1;stroke-miterlimit:4;stroke-dasharray:none"
       d="M 59.79723,80.404043 75.982945,94.116942"
       id="path4204" />
    <path
       style="fill:#000000;stroke:#000000;stroke-width:0;stroke-linecap:butt;stroke-linejoin:miter;stroke-opacity:1;stroke-miterlimit:4;stroke-dasharray:none;fill-opacity:0.2"
       d="m 51.329703,90.070513 8.467527,-9.66647 16.185713,13.712899 -6.963458,8.555718 z"
       id="path4352" />
    <path
       style="fill:#000000;fill-opacity:0.2;stroke:#000000;stroke-width:0;stroke-linecap:butt;stroke-linejoin:miter;stroke-miterlimit:4;stroke-dasharray:none;stroke-opacity:1"
       d="M 49.350558,103.28721 C 62.509033,73.814333 90.879367,68.020821 90.879367,68.020821 l 6.768794,-0.887712 30.736979,-10.985418 0.0853,-5.070533 L 98.092015,61.806846 81.66937,66.2454 62.583594,77.452746 48.047333,94.097318 46.086431,99.898723 Z"
       id="path4676"
       sodipodi:nodetypes="ccccccccccc" />
    <path
       style="fill:none;stroke:#000000;stroke-width:4;stroke-linecap:butt;stroke-linejoin:miter;stroke-miterlimit:4;stroke-dasharray:none;stroke-opacity:0.01"
       d="m 92.206766,66.399266 c 0.178018,0.318741 0.02564,1.04142 -0.23245,1.289301 -0.169431,0.162742 -0.398035,0.263884 -0.567491,0.426594 -0.428537,0.411583 -1.466476,1.733505 -1.556596,2.284686 -0.07626,0.466372 0.449489,0.82065 0.341101,1.310941 -0.135956,0.614987 -0.795848,1.029407 -1.103599,1.543613 -0.06214,0.103828 -0.07288,0.231929 -0.127696,0.339802 -0.06987,0.137511 -0.182396,0.251663 -0.244568,0.392833 -0.120469,0.273447 0.131792,0.602054 0.209725,0.835004 0.03887,0.116174 0.03948,0.242889 0.07835,0.359063 0.04072,0.12171 0.152425,0.222481 0.15908,0.350626 0.03312,0.641391 -0.761645,0.94285 -0.950578,1.445999 -0.02428,0.06456 -0.0044,0.138685 -0.01926,0.206046 -0.02223,0.100607 -0.0737,0.19375 -0.09155,0.295217 -0.102638,0.583496 0.109075,1.198716 -0.226388,1.737538 -0.43295,0.695398 -1.343615,1.122738 -1.732558,1.7726 -0.466675,0.779729 -0.0616,0.635388 -0.168603,1.119398 -0.10763,0.486855 -0.34506,0.93326 -0.591516,1.367651 -0.05665,0.09984 -0.228808,0.15334 -0.216867,0.267517 0.0084,0.08056 0.168221,0.615973 0.08466,0.719052"
       id="path6330"
       sodipodi:nodetypes="csssssscssscsssssssc" />
    <path
       style="fill:none;stroke:#000000;stroke-width:2.5;stroke-linecap:round;stroke-linejoin:miter;stroke-opacity:0.15000001;stroke-miterlimit:4;stroke-dasharray:none"
       d="m 115.56293,80.56999 c 0.20812,-8.175922 -6.83804,-10.257065 -6.83804,-10.257065 -5.03655,-1.451496 -6.36235,-8.116459 -6.36235,-8.116459"
       id="path9031"
       sodipodi:nodetypes="csc" />
    <path
       style="fill:none;stroke:#000000;stroke-width:5;stroke-linecap:round;stroke-linejoin:miter;stroke-miterlimit:4;stroke-dasharray:none;stroke-opacity:0.15"
       d="m 115.56293,80.569989 c 0.20812,-8.175922 -6.83804,-10.257064 -6.83804,-10.257064 -5.03655,-1.451497 -6.36235,-8.116459 -6.36235,-8.116459"
       id="path9031-7"
       sodipodi:nodetypes="csc" />
    <path
       style="fill:none;stroke:#000000;stroke-width:2.5;stroke-linecap:round;stroke-linejoin:miter;stroke-miterlimit:4;stroke-dasharray:none;stroke-opacity:0.15"
       d="m 88.755992,65.500173 c -3.372185,6.255083 -0.607466,10.265842 -0.607466,10.265842 2.117442,3.797953 -0.897308,8.615306 -0.897308,8.615306"
       id="path9334"
       sodipodi:nodetypes="csc" />
    <path
       style="fill:none;stroke:#000000;stroke-width:5;stroke-linecap:round;stroke-linejoin:miter;stroke-miterlimit:4;stroke-dasharray:none;stroke-opacity:0.15"
       d="m 88.75599,65.500171 c -3.37218,6.255088 -0.607464,10.265844 -0.607464,10.265844 2.117442,3.797953 -0.897308,8.615306 -0.897308,8.615306"
       id="path9334-7"
       sodipodi:nodetypes="csc" />
    <path
       style="fill:none;stroke:#000000;stroke-width:4.36732;stroke-linecap:butt;stroke-linejoin:miter;stroke-miterlimit:4;stroke-dasharray:none;stroke-opacity:0.01"
       d="m 104.83557,82.458975 c -0.36947,-0.03544 -0.89205,-0.65735 -0.95463,-1.071144 -0.0411,-0.271658 0.003,-0.560591 -0.0378,-0.832251 -0.10392,-0.687072 -0.6295,-2.564159 -1.04286,-3.013063 -0.34975,-0.379837 -0.94626,-0.09986 -1.29796,-0.526668 -0.44114,-0.535355 -0.41631,-1.449631 -0.67517,-2.08629 -0.0523,-0.128551 -0.15412,-0.222946 -0.21395,-0.347013 -0.0763,-0.158155 -0.10868,-0.342545 -0.19239,-0.495594 -0.16213,-0.2965 -0.581994,-0.266088 -0.822457,-0.342805 -0.119922,-0.03826 -0.227038,-0.120681 -0.34696,-0.158939 -0.125639,-0.04008 -0.273863,0.0027 -0.38561,-0.07478 -0.559223,-0.387966 -0.362772,-1.359607 -0.679652,-1.87329 -0.04062,-0.06595 -0.114377,-0.09512 -0.162695,-0.153761 -0.0722,-0.08757 -0.121486,-0.198726 -0.196868,-0.282596 -0.433491,-0.482269 -1.071889,-0.679138 -1.335773,-1.358917 -0.340564,-0.87732 -0.184492,-2.044322 -0.511629,-2.848945 -0.392508,-0.965421 -0.500476,-0.476298 -0.847665,-0.897636 -0.349231,-0.423815 -0.590808,-0.947557 -0.817146,-1.47222 -0.05201,-0.120589 4.8e-4,-0.32333 -0.102496,-0.386506 -0.07266,-0.04457 -0.614379,-0.239726 -0.653872,-0.388654"
       id="path6330-9"
       sodipodi:nodetypes="csssssscssscsssssssc" />
    <path
       style="fill:none;stroke:#000000;stroke-width:3;stroke-linecap:round;stroke-linejoin:miter;stroke-miterlimit:4;stroke-dasharray:none;stroke-opacity:1"
       d="m 104.2848,83.562533 c -6.682931,9.739466 3.62639,14.142947 3.62639,14.142947 L 123.96,97.912702 c 8.10304,0.104626 1.97957,-15.489894 1.97957,-15.489894"
       id="path10062"
       sodipodi:nodetypes="ccsc" />
    <path
       style="fill:none;stroke:#000000;stroke-width:3;stroke-linecap:round;stroke-linejoin:miter;stroke-miterlimit:4;stroke-dasharray:none;stroke-opacity:1"
       d="m 94.958956,84.407962 c 4.448654,0.349372 6.987414,5.56664 6.987414,5.56664"
       id="path10676"
       sodipodi:nodetypes="cc" />
    <path
       style="fill:#000000;fill-opacity:1;stroke:#000000;stroke-width:0.563357;stroke-linecap:butt;stroke-linejoin:miter;stroke-miterlimit:4;stroke-dasharray:none;stroke-opacity:1"
       d="m 114.29754,83.567566 0.15297,2.676084 0.22569,1.228553 0.73521,2.52766 1.02489,2.482362 1.18819,2.663659 0.50452,0.25433 0.35283,-0.158545 0.31583,-0.566383 -0.0313,-0.523651 -0.6496,-1.94356 -0.32874,-1.465225 -0.0907,-1.628803 0.21354,-1.963597 0.37108,-1.666508 1.69385,-2.826857 -6.7179,-1.282383 z"
       id="path1243" />
    <path
       style="fill:#303030;stroke:#000000;stroke-width:3;stroke-linecap:butt;stroke-linejoin:round;stroke-miterlimit:4;stroke-dasharray:none;stroke-opacity:1;fill-opacity:1"
       d="m 128.23114,81.699528 56.53425,-2.49401 V 64.532552 l -43.44907,0.997193 c -3.34647,-9.172551 0.42736,-17.664541 0.42736,-17.664541 -6.51297,-1.925443 -13.27331,3.211954 -13.27331,3.211954 z"
       id="path1380"
       sodipodi:nodetypes="ccccscc" />
    <path
       style="fill:#000000;stroke:#000000;stroke-width:0;stroke-linecap:butt;stroke-linejoin:miter;stroke-opacity:1;stroke-miterlimit:4;stroke-dasharray:none;fill-opacity:0.30000001"
       d="m 128.18014,76.718188 56.27912,-2.398847 0.30613,4.886177 -56.53425,2.49401 z"
       id="path1809" />
    <path
       style="fill:#000000;stroke:#000000;stroke-width:0;stroke-linecap:butt;stroke-linejoin:miter;stroke-opacity:1;stroke-miterlimit:4;stroke-dasharray:none;fill-opacity:0.30000001"
       d="m 128.38514,56.147691 c 7.60266,-4.998029 11.41646,-3.053744 11.41646,-3.053744 l 1.94208,-5.228743 -8.78447,0.181078 -4.48877,3.030876 z"
       id="path1976" />
    <path
       style="fill:#5f3b17;stroke:#000000;stroke-width:3;stroke-linecap:butt;stroke-linejoin:round;stroke-miterlimit:4;stroke-dasharray:none;stroke-opacity:1;fill-opacity:1"
       d="m 281.34522,62.123626 c -4.87881,8.781873 -14.96172,9.107129 -14.96172,9.107129 l -81.61811,7.974763 V 64.532552 Z"
       id="path2124"
       sodipodi:nodetypes="ccccc" />
    <path
       style="fill:#000000;fill-opacity:0.3;stroke:#000000;stroke-width:0;stroke-linecap:butt;stroke-linejoin:miter;stroke-miterlimit:4;stroke-dasharray:none;stroke-opacity:1"
       d="m 184.45926,74.319341 c 0,0 76.79921,-6.35077 82.56475,-7.427931 5.76554,-1.077161 7.71824,-4.468455 7.71824,-4.468455 l 6.60296,-0.299329 -9.17572,8.017568 -22.20685,2.97897 -65.19725,6.085354 z"
       id="path2309"
       sodipodi:nodetypes="czcccccc" />
    <path
       style="fill:#3f3f3f;fill-opacity:1;stroke:#000000;stroke-width:3;stroke-linecap:butt;stroke-linejoin:round;stroke-miterlimit:4;stroke-dasharray:none;stroke-opacity:1"
       d="m 287.72289,47.676945 c 1.99348,7.143237 -0.33224,14.286473 -0.33224,14.286473 l -6.04544,0.160208 -96.57982,2.408926 -43.44907,0.997193 c -2.42988,-7.821672 0.42736,-17.664541 0.42736,-17.664541 z"
       id="path2970"
       sodipodi:nodetypes="ccccccc" />
    <path
       style="fill:#000000;stroke:#000000;stroke-width:0;stroke-linecap:butt;stroke-linejoin:miter;stroke-opacity:1;stroke-miterlimit:4;stroke-dasharray:none;fill-opacity:0.30000001"
       d="m 287.39065,61.963418 -146.07433,3.566327 -1.49533,-5.380336 148.89618,-2.954708 z"
       id="path3841" />
    <path
       style="fill:#000000;stroke:#000000;stroke-width:0;stroke-linecap:butt;stroke-linejoin:miter;stroke-opacity:1;stroke-miterlimit:4;stroke-dasharray:none;fill-opacity:0.30000001"
       d="m 141.74368,47.865204 145.97921,-0.188259 0.66887,5.214181 -148.59016,0.202821 z"
       id="path4088" />
    <path
       style="fill:#444444;stroke:#000000;stroke-width:3;stroke-linecap:butt;stroke-linejoin:round;stroke-miterlimit:4;stroke-dasharray:none;stroke-opacity:1;fill-opacity:1"
       d="m 120.73388,53.79622 c -6.34923,0.935157 -7.5105,-1.52164 -8.41643,-1.575003 0,0 -2.93039,-0.676856 -4.13438,0.442968 -1.20399,1.119824 -0.93406,1.919399 -0.78751,2.903913 0.14655,0.984514 1.57501,2.510163 1.57501,2.510163 z"
       id="path4236"
       sodipodi:nodetypes="cszzcc" />
    <circle
       style="opacity:0.33119;fill:#808080;fill-opacity:0.60000002;fill-rule:evenodd;stroke:#000000;stroke-width:0;stroke-linecap:round;stroke-linejoin:round;stroke-miterlimit:4;stroke-dasharray:none;stroke-opacity:0.15;paint-order:markers fill stroke"
       id="path4772"
       cx="139.30063"
       cy="72.726723"
       r="2.4999995" />
    <circle
       style="opacity:0.33119;fill:#808080;fill-opacity:0.6;fill-rule:evenodd;stroke:#000000;stroke-width:0;stroke-linecap:round;stroke-linejoin:round;stroke-miterlimit:4;stroke-dasharray:none;stroke-opacity:0.15;paint-order:markers fill stroke"
       id="path4772-6"
       cx="173.66484"
       cy="71.566971"
       r="2.4999995" />
  </g>
</svg>
