<?xml version="1.0" encoding="UTF-8" standalone="no"?>
<!-- Created with Inkscape (http://www.inkscape.org/) -->

<svg
   width="1250"
   height="600"
   viewBox="0 0 330.72916 158.75"
   version="1.1"
   id="svg5"
   inkscape:version="1.1.1 (c3084ef, 2021-09-22)"
   sodipodi:docname="AK-47.svg"
   xmlns:inkscape="http://www.inkscape.org/namespaces/inkscape"
   xmlns:sodipodi="http://sodipodi.sourceforge.net/DTD/sodipodi-0.dtd"
   xmlns="http://www.w3.org/2000/svg"
   xmlns:svg="http://www.w3.org/2000/svg">
  <sodipodi:namedview
     id="namedview7"
     pagecolor="#ffffff"
     bordercolor="#666666"
     borderopacity="1.0"
     inkscape:pageshadow="2"
     inkscape:pageopacity="0.0"
     inkscape:pagecheckerboard="0"
     inkscape:document-units="mm"
     showgrid="false"
     units="px"
     inkscape:zoom="0.4245553"
     inkscape:cx="818.50351"
     inkscape:cy="70.662173"
     inkscape:window-width="1312"
     inkscape:window-height="726"
     inkscape:window-x="0"
     inkscape:window-y="25"
     inkscape:window-maximized="0"
     inkscape:current-layer="layer1" />
  <defs
     id="defs2" />
  <g
     inkscape:label="Layer 1"
     inkscape:groupmode="layer"
     id="layer1">
    <path
       style="fill:#5f3b17;stroke:#000000;stroke-width:3;stroke-linecap:butt;stroke-linejoin:round;stroke-miterlimit:4;stroke-dasharray:none;stroke-opacity:1;fill-opacity:1"
       d="M 93.427753,53.100078 93.664279,68.710791 15.965502,95.083436 C 12.666249,79.052324 13.245454,57.594071 13.245454,57.594071 L 69.420369,54.04618 c 2.528266,3.18041 8.278407,2.246998 8.278407,2.246998 z"
       id="path961"
       sodipodi:nodetypes="ccccccc" />
    <path
       style="fill:#383838;fill-opacity:1;stroke:#000000;stroke-width:3;stroke-linecap:butt;stroke-linejoin:miter;stroke-miterlimit:4;stroke-dasharray:none;stroke-opacity:1"
       d="m 27.271718,56.989513 9.278006,30.870398 22.09661,-7.365635 -7.169968,-25.247662 z"
       id="path4162"
       sodipodi:nodetypes="ccccc" />
    <path
       style="fill:#000000;fill-opacity:0.2;stroke:#000000;stroke-width:3;stroke-linecap:butt;stroke-linejoin:miter;stroke-miterlimit:4;stroke-dasharray:none;stroke-opacity:1"
       d="m 38.2,56.3 -1.650276,31.559909 13.178805,-4.332836 1.747835,-28.28046 z"
       id="path4486"
       sodipodi:nodetypes="ccccc" />
    <path
       style="fill:#000000;fill-opacity:0.2;stroke:#000000;stroke-width:0;stroke-linecap:butt;stroke-linejoin:miter;stroke-miterlimit:4;stroke-dasharray:none;stroke-opacity:1"
       d="M 93.664277,68.710791 15.965502,95.083436 14.665594,89.74468 93.575244,63.915722 Z"
       id="path4903"
       sodipodi:nodetypes="ccccc" />
    <path
       style="fill:#000000;fill-opacity:0.2;stroke:#000000;stroke-width:0;stroke-linecap:butt;stroke-linejoin:miter;stroke-miterlimit:4;stroke-dasharray:none;stroke-opacity:1"
       d="M 93.4658,57.458485 C 71.46741,64.462948 67.199064,58.552931 67.199064,58.552931 L 13.352257,62.71183 13.245454,57.594071 69.420369,54.04618 73.984638,56.364036 93.427753,53.100078 Z"
       id="path5056"
       sodipodi:nodetypes="cccccccc" />
    <path
       style="fill:#3f3f3f;stroke:#000000;stroke-width:3;stroke-linecap:butt;stroke-linejoin:round;stroke-opacity:1;stroke-miterlimit:4;stroke-dasharray:none;fill-opacity:1"
       d="m 93.427753,53.100078 3.01263,-0.08709 4.792797,-5.611074 50.44124,0.526036 -1.87036,5.143487 37.11494,0.292246 -0.29225,11.631294 -92.962473,3.715817 z"
       id="path5223" />
    <path
       style="fill:#616161;fill-opacity:1;stroke:#000000;stroke-width:3;stroke-linecap:butt;stroke-linejoin:round;stroke-miterlimit:4;stroke-dasharray:none;stroke-opacity:1"
       d="M 151.67442,47.92795 C 152.53331,45.314409 157,45.553113 157,45.553113 h 22.86518 l -0.0796,7.678386 -29.98155,-0.160062 z"
       id="path5470"
       sodipodi:nodetypes="cccccc" />
    <path
       style="fill:#323232;fill-opacity:1;stroke:#000000;stroke-width:3;stroke-linecap:butt;stroke-linejoin:round;stroke-miterlimit:4;stroke-dasharray:none;stroke-opacity:1"
       d="m 101.23318,47.401913 c 2.42728,-5.081817 7.18235,-5.081817 7.18235,-5.081817 l 71.44947,-0.118875 1.8e-4,3.351892 -22.55983,0.04588 c -4.62074,0.0094 -5.63093,2.328958 -5.63093,2.328958 z"
       id="path5841"
       sodipodi:nodetypes="ccccscc" />
    <circle
       style="fill:#000000;fill-opacity:0.2;fill-rule:evenodd;stroke-width:3.74322;stroke-linecap:square;stroke-linejoin:round;stroke-miterlimit:4;stroke-dasharray:none;stroke-dashoffset:188.976"
       id="path6591"
       cx="145"
       cy="58"
       r="2" />
    <circle
       style="fill:#000000;fill-opacity:0.2;fill-rule:evenodd;stroke-width:3.74322;stroke-linecap:square;stroke-linejoin:round;stroke-miterlimit:4;stroke-dasharray:none;stroke-dashoffset:188.976"
       id="path6591-9"
       cx="136.10098"
       cy="58"
       r="2" />
    <circle
       style="fill:#000000;fill-opacity:0.2;fill-rule:evenodd;stroke-width:3.74322;stroke-linecap:square;stroke-linejoin:round;stroke-miterlimit:4;stroke-dasharray:none;stroke-dashoffset:188.976"
       id="path6591-9-3"
       cx="107"
       cy="58"
       r="2" />
    <path
       style="fill:#000000;stroke:#000000;stroke-width:0;stroke-linecap:butt;stroke-linejoin:miter;stroke-opacity:1;stroke-miterlimit:4;stroke-dasharray:none;fill-opacity:0.2"
       d="m 93.575242,63.91572 93.278048,-3.447549 -0.22654,4.526806 -92.962473,3.715814 z"
       id="path6872" />
    <path
       style="fill:#000000;fill-opacity:0.2;stroke:#000000;stroke-width:0;stroke-linecap:butt;stroke-linejoin:miter;stroke-miterlimit:4;stroke-dasharray:none;stroke-opacity:1"
       d="m 93.4658,57.458485 c 4.991872,4.028916 10.44012,-5.310942 10.44012,-5.310942 L 150,52.5 l 1.67442,-4.57205 -50.44124,-0.526037 -4.792797,5.611075 -3.01263,0.08709 z"
       id="path6968"
       sodipodi:nodetypes="cccccccc" />
    <path
       style="fill:#5f3b17;stroke:#000000;stroke-width:3;stroke-linecap:butt;stroke-linejoin:round;stroke-opacity:1;stroke-miterlimit:4;stroke-dasharray:none;fill-opacity:1"
       d="m 186.62675,64.994977 c 5.97311,5.70515 12.07239,0.293111 12.07239,0.293111 l 2.31945,-1.202674 2.74897,-0.859055 3.86574,-0.773147 33.58901,-0.08591 -0.0859,-11.33951 -5.15432,-0.0859 -1.03087,2.319446 -8.41872,0.0859 -1.11677,-2.233541 -7.04424,0.08591 -0.77315,2.061728 -9.87912,-0.0859 -0.68724,-2.319446 h -18.04013 l -2.07284,2.507697 z"
       id="path8354" />
    <path
       style="fill:#5f3b17;fill-opacity:1;stroke:#000000;stroke-width:3;stroke-linecap:butt;stroke-linejoin:round;stroke-miterlimit:4;stroke-dasharray:none;stroke-opacity:1"
       d="m 241.13641,51.027792 -0.0703,-9.07855 -36.83743,-1.298236 v 10.061326 l 2.80327,0.143656 L 208.28567,48 h 8.84422 l 1.24157,3.199608 7.04424,-0.08591 L 226.29868,48 h 8.51968 l 1.1637,2.941891 z"
       id="path13330"
       sodipodi:nodetypes="ccccccccccccc" />
    <path
       style="fill:#323232;stroke:#000000;stroke-width:3;stroke-linecap:butt;stroke-linejoin:round;stroke-opacity:1;stroke-miterlimit:4;stroke-dasharray:none;fill-opacity:1"
       d="m 179.865,42.201221 24.36368,-1.550215 v 10.061326 l -15.23683,0.143656 -2.07284,2.507697 -7.13343,-0.132186 z"
       id="path13836" />
    <path
       style="fill:#000000;stroke:#000000;stroke-width:0;stroke-linecap:butt;stroke-linejoin:miter;stroke-opacity:1;stroke-miterlimit:4;stroke-dasharray:none;fill-opacity:0.2"
       d="m 186.85329,60.468171 3.03673,1.847035 1.25499,0.33788 0.96538,0.241345 1.30326,-0.289612 2.0273,-1.013648 2.36517,-1.206725 2.0273,-0.724032 2.65479,-0.868842 2.46172,-0.434422 2.31691,-0.289613 34.12614,-0.337883 -0.17067,4.637648 -37.45475,0.859057 -10.64352,4.157083 -6.49729,-2.388465 z"
       id="path15242" />
    <path
       style="fill:#000000;stroke:#000000;stroke-width:0;stroke-linecap:butt;stroke-linejoin:miter;stroke-opacity:1;stroke-miterlimit:4;stroke-dasharray:none;fill-opacity:0.2"
       d="m 241.06611,41.949242 -36.83743,-1.298236 -24.36368,1.550215 1.8e-4,3.351892 24.03135,-1.484344 37.28896,1.25552 z"
       id="path15376" />
    <path
       style="fill:#575757;fill-opacity:1;stroke:#000000;stroke-width:3;stroke-linecap:butt;stroke-linejoin:round;stroke-miterlimit:4;stroke-dasharray:none;stroke-opacity:1"
       d="m 241.39298,57.729654 76.29127,0.288406 V 53.873915 L 241.3,53.469608 Z"
       id="path16175"
       sodipodi:nodetypes="ccccc" />
    <path
       style="fill:#363636;fill-opacity:1;stroke:#000000;stroke-width:3;stroke-linecap:butt;stroke-linejoin:round;stroke-miterlimit:4;stroke-dasharray:none;stroke-opacity:1"
       d="m 241.18549,44.840299 30.31082,-0.3403 c 1.66614,9.01739 9.15604,7.96177 9.15604,7.96177 l 0.19904,6.36924 -15.52545,1.7e-4 -0.19905,-8.95699 -24.00315,0.14182 z"
       id="path15627"
       sodipodi:nodetypes="cccccccc" />
    <path
       style="fill:#555555;fill-opacity:1;stroke:#000000;stroke-width:3;stroke-linecap:butt;stroke-linejoin:round;stroke-miterlimit:4;stroke-dasharray:none;stroke-opacity:1"
       d="m 299.09378,57.335716 6.65906,-18.848554 h 5.75617 l -0.11287,8.239188 -8.46492,-0.112866 z"
       id="path16650"
       sodipodi:nodetypes="cccccc" />
    <path
       style="fill:none;stroke:#000000;stroke-width:3;stroke-linecap:butt;stroke-linejoin:miter;stroke-opacity:1;stroke-miterlimit:4;stroke-dasharray:none"
       d="M 311.39614,46.72635 V 57.787177"
       id="path16784" />
    <path
       style="fill:#4c4c4c;stroke:#000000;stroke-width:3;stroke-linecap:butt;stroke-linejoin:round;stroke-miterlimit:4;stroke-dasharray:none;stroke-opacity:1;fill-opacity:1"
       d="m 145.51895,68.246778 c 5.81086,37.832452 41.04697,60.581382 41.04697,60.581382 l 11.74537,-19.1635 C 168.86625,86.935027 169.38059,65.897704 169.38059,65.897704 l -23.98528,0.989084 z"
       id="path17331"
       sodipodi:nodetypes="cccccc" />
    <path
       style="fill:#000000;fill-opacity:0.2;stroke:#000000;stroke-width:0;stroke-linecap:butt;stroke-linejoin:miter;stroke-miterlimit:4;stroke-dasharray:none;stroke-opacity:1"
       d="m 150.1458,67.131479 c 6.69723,35.850001 38.96591,56.542921 38.96591,56.542921 l -2.54579,5.15376 -21.8079,-19.34243 -15.67107,-24.777236 -3.69164,-17.821706 z"
       id="path17762"
       sodipodi:nodetypes="ccccccc" />
    <path
       style="fill:#000000;stroke:#000000;stroke-width:0;stroke-linecap:butt;stroke-linejoin:miter;stroke-opacity:1;stroke-miterlimit:4;stroke-dasharray:none;fill-opacity:0.2"
       d="m 163.19161,66.535892 c 5.78573,31.99168 31.82151,47.817358 31.82151,47.817358 l 3.29817,-4.68859 -16.57131,-15.221132 -10.89079,-18.208032 -1.4686,-10.337792 z"
       id="path17948" />
    <path
       style="fill:none;stroke:#000000;stroke-width:2.5;stroke-linecap:round;stroke-linejoin:miter;stroke-miterlimit:4;stroke-dasharray:none;stroke-opacity:0.4"
       d="m 152.69549,66.926559 c 8.84876,34.033701 32.10753,49.638881 32.10753,49.638881"
       id="path18096"
       sodipodi:nodetypes="cc" />
    <path
       style="fill:#5f3b17;stroke:#000000;stroke-width:3;stroke-linecap:butt;stroke-linejoin:round;stroke-opacity:1;stroke-miterlimit:4;stroke-dasharray:none;fill-opacity:1"
       d="m 93.664277,68.710791 c 8.880453,-0.301946 7.235343,4.907547 7.235343,4.907547 l -7.265868,22.208884 0.959644,2.604746 14.531734,5.209492 2.05638,-1.7822 -1.09673,-2.193466 6.7175,-22.345975 3.70148,-1.508011 v -7.95133 z"
       id="path18840" />
    <path
       style="fill:#000000;stroke:#000000;stroke-width:0;stroke-linecap:butt;stroke-linejoin:miter;stroke-opacity:1;stroke-miterlimit:4;stroke-dasharray:none;fill-opacity:0.2"
       d="m 105.28656,68.683031 c 2.60475,3.016022 0.68546,7.402962 0.68546,7.402962 l -7.128776,23.168525 -4.249848,-0.82255 -0.959644,-2.604746 7.128778,-22.757252 -0.822551,-3.838572 z"
       id="path19292" />
    <path
       style="fill:#878787;stroke:#000000;stroke-width:3;stroke-linecap:butt;stroke-linejoin:round;stroke-opacity:1;stroke-miterlimit:4;stroke-dasharray:none;fill-opacity:1"
       d="m 145.39531,66.886788 -6.2802,0.145904 0.59409,9.406358 7.22804,-0.297042 z"
       id="path19652" />
    <path
       style="fill:none;stroke:#000000;stroke-width:2.5;stroke-linecap:butt;stroke-linejoin:miter;stroke-opacity:1;stroke-miterlimit:4;stroke-dasharray:none"
       d="m 120.50376,75.811808 2.0137,2.78765 0.35525,0.399658 0.53288,0.310846 0.6661,0.177625 12.87787,-0.577284 0.48848,-0.177625 0.66609,-0.488471 1.60507,-1.805157"
       id="path19885" />
    <path
       style="fill:#000000;fill-opacity:0.2;stroke:#000000;stroke-width:0;stroke-linecap:butt;stroke-linejoin:miter;stroke-miterlimit:4;stroke-dasharray:none;stroke-opacity:1"
       d="m 105.3425,101.23443 c 0,0 -1.4684,-1.20482 -0.8803,-4.166749 0,0 6.93389,-21.821311 8.27481,-23.181217 1.34092,-1.359906 6.86634,-3.110391 6.86634,-3.110391 l 0.90041,5.035735 -3.70148,1.508011 -6.7175,22.345975 1.09673,2.193466 -2.05638,1.7822 z"
       id="path20134"
       sodipodi:nodetypes="cczccccccc" />
    <path
       style="fill:#000000;fill-opacity:1;stroke:#000000;stroke-width:0.367775;stroke-linecap:butt;stroke-linejoin:miter;stroke-miterlimit:4;stroke-dasharray:none;stroke-opacity:1"
       d="m 124.63847,69.572454 0.57949,1.651138 0.36354,0.729933 0.91789,1.452843 1.09143,1.372093 1.22663,1.456318 0.36245,0.0684 0.1927,-0.163206 0.0958,-0.412368 -0.11421,-0.322856 -0.75865,-1.101888 -0.47095,-0.859784 -0.35117,-1.005412 -0.2208,-1.2704 -0.0683,-1.112491 0.55188,-2.079398 -4.44602,0.409244 z"
       id="path1243" />
    <path
       style="fill:none;stroke:#000000;stroke-width:2;stroke-linecap:round;stroke-linejoin:miter;stroke-opacity:1;stroke-miterlimit:4;stroke-dasharray:none"
       d="m 143.70141,76.499084 c 0,2.744758 -0.88541,4.604112 -0.88541,4.604112"
       id="path20670" />
    <path
       style="fill:none;stroke:#000000;stroke-width:2;stroke-linecap:round;stroke-linejoin:miter;stroke-opacity:0.2;stroke-miterlimit:4;stroke-dasharray:none"
       d="m 70.546721,76.58193 c -7.013895,-7.421678 -1.386469,-12.315092 -1.386469,-12.315092 3.369062,-2.984957 2.528265,-7.666349 2.528265,-7.666349"
       id="path21014"
       sodipodi:nodetypes="csc" />
    <path
       style="fill:none;stroke:#000000;stroke-width:4;stroke-linecap:butt;stroke-linejoin:miter;stroke-miterlimit:4;stroke-dasharray:none;stroke-opacity:0.2"
       d="m 70.546721,76.58193 c -7.013895,-7.421678 -1.386469,-12.315092 -1.386469,-12.315092 3.369062,-2.984957 2.383221,-8.862964 2.383221,-8.862964"
       id="path21014-3"
       sodipodi:nodetypes="csc" />
  </g>
</svg>
