<?xml version="1.0" encoding="UTF-8" standalone="no"?>
<!-- Created with Inkscape (http://www.inkscape.org/) -->

<svg
   width="30mm"
   height="110mm"
   viewBox="0 0 30 110"
   version="1.1"
   id="svg111"
   inkscape:version="1.1.1 (c3084ef, 2021-09-22)"
   sodipodi:docname="AK-47_topdown.svg"
   xmlns:inkscape="http://www.inkscape.org/namespaces/inkscape"
   xmlns:sodipodi="http://sodipodi.sourceforge.net/DTD/sodipodi-0.dtd"
   xmlns="http://www.w3.org/2000/svg"
   xmlns:svg="http://www.w3.org/2000/svg">
  <sodipodi:namedview
     id="namedview113"
     pagecolor="#ffffff"
     bordercolor="#666666"
     borderopacity="1.0"
     inkscape:pageshadow="2"
     inkscape:pageopacity="0.0"
     inkscape:pagecheckerboard="0"
     inkscape:document-units="mm"
     showgrid="false"
     inkscape:zoom="4.2632892"
     inkscape:cx="33.542177"
     inkscape:cy="70.368203"
     inkscape:window-width="1312"
     inkscape:window-height="726"
     inkscape:window-x="0"
     inkscape:window-y="25"
     inkscape:window-maximized="0"
     inkscape:current-layer="layer1"
     height="170mm" />
  <defs
     id="defs108" />
  <g
     inkscape:label="Layer 1"
     inkscape:groupmode="layer"
     id="layer1">
    <path
       style="fill:#373737;fill-opacity:1;stroke:#000000;stroke-width:3;stroke-linecap:butt;stroke-linejoin:round;stroke-miterlimit:4;stroke-dasharray:none;stroke-opacity:1"
       d="m 14.128277,18.687672 -1.539215,-12.7350301 -0.04051,-0.2372972 0.08102,-0.3163995 0.526574,-0.4745963 0.526572,-0.3163994 0.607585,-0.2372991 0.648091,-0.0791 H 15.708 16.275079 l 0.445562,0.0791 0.486068,0.1582007 0.607585,0.3163975 0.445562,0.2373011 0.28354,0.3954978 v 0.2372992 0.632795 l -1.458204,12.4186353 -0.324045,-0.0791 -0.486068,-0.0791 -0.729101,-0.0791 h -0.526573 l -0.607585,0.1582 z"
       id="path160" />
    <path
       style="fill:none;stroke:#000000;stroke-width:3.19674;stroke-linecap:butt;stroke-linejoin:miter;stroke-miterlimit:4;stroke-dasharray:none;stroke-opacity:0.2"
       d="M 12.752651,12.899372 18.435786,7.9906975"
       id="path1345-7" />
    <rect
       style="fill:#5a5a5a;fill-opacity:1;fill-rule:evenodd;stroke:#000000;stroke-width:3;stroke-linecap:round;stroke-linejoin:round;stroke-miterlimit:4;stroke-dasharray:none;stroke-opacity:1;paint-order:markers fill stroke"
       id="rect1699"
       width="6.8193688"
       height="3.8724775"
       x="12.084776"
       y="13.389978" />
    <rect
       style="fill:#3e3e3e;fill-opacity:1;fill-rule:evenodd;stroke:#000000;stroke-width:3;stroke-linecap:round;stroke-linejoin:round;stroke-miterlimit:4;stroke-dasharray:none;stroke-opacity:1;paint-order:markers fill stroke"
       id="rect1699-9"
       width="4.2400031"
       height="17.476389"
       x="13.40066"
       y="17.670027" />
    <path
       style="fill:#622b14;fill-opacity:1;stroke:#000000;stroke-width:3;stroke-linecap:butt;stroke-linejoin:round;stroke-miterlimit:4;stroke-dasharray:none;stroke-opacity:1"
       d="M 9.5878087,65.469492 H 21.437452 V 38.005731 L 21.253124,37.449619 20.972298,37.00142 20.37944,36.506039 19.380942,36.105018 17.688625,35.5 h -4.335928 l -2.271764,0.793733 -0.842483,0.660507 -0.6506413,1.051491 z"
       id="path2625" />
    <path
       style="fill:#000000;fill-opacity:0.2;stroke:#000000;stroke-width:0;stroke-linecap:butt;stroke-linejoin:miter;stroke-miterlimit:4;stroke-dasharray:none;stroke-opacity:1"
       d="M 9.5878085,65.469492 V 38.005731 L 13.352696,35.5 13.157326,65.14806 Z"
       id="path5292" />
    <path
       style="fill:#000000;fill-opacity:0.2;stroke:#000000;stroke-width:0;stroke-linecap:butt;stroke-linejoin:miter;stroke-miterlimit:4;stroke-dasharray:none;stroke-opacity:1"
       d="M 21.437452,65.469492 V 38.005731 L 17.571092,35.5 17.771727,65.14806 Z"
       id="path5292-6" />
    <path
       style="fill:none;stroke:#000000;stroke-width:2;stroke-linecap:butt;stroke-linejoin:round;stroke-miterlimit:4;stroke-dasharray:none;stroke-opacity:0.1"
       d="m 9.8119357,42.362128 c 0.8007473,-0.09386 1.6040203,0.189656 2.4029233,0.06675 0.285526,-0.04393 1.595601,-0.464061 1.86894,-0.600731 0.691291,-0.345647 1.054645,-0.733118 1.86894,-0.800976 0.41391,-0.03449 1.624516,0.196315 2.002436,0.33374 0.323142,0.117507 0.579209,0.408024 0.93447,0.467236 0.791184,0.131863 1.662907,0.133495 2.469671,0.133495"
       id="path5639" />
    <path
       style="fill:none;stroke:#000000;stroke-width:4;stroke-linecap:butt;stroke-linejoin:round;stroke-miterlimit:4;stroke-dasharray:none;stroke-opacity:0.1"
       d="m 9.8119353,42.362128 c 0.8007477,-0.09386 1.6040207,0.189656 2.4029237,0.06675 0.285526,-0.04393 1.595601,-0.464061 1.86894,-0.600731 0.691291,-0.345647 1.054645,-0.733118 1.86894,-0.800976 0.41391,-0.03449 1.624516,0.196315 2.002436,0.33374 0.323142,0.117507 0.579209,0.408024 0.93447,0.467236 0.791184,0.131863 1.662907,0.133495 2.469671,0.133495"
       id="path5639-9" />
    <path
       style="fill:none;stroke:#000000;stroke-width:2;stroke-linecap:butt;stroke-linejoin:miter;stroke-miterlimit:4;stroke-dasharray:none;stroke-opacity:0.1"
       d="m 9.8786838,59.449581 c 0.088997,0.06675 0.1600252,0.169682 0.2669912,0.200244 1.051436,0.300411 2.915852,-0.128233 4.004872,-0.400486 0.37046,-0.09262 0.711642,-0.281715 1.067966,-0.40049 0.483807,-0.161268 1.046041,-0.283921 1.468453,-0.600731 0.462119,-0.346588 0.876567,-0.749345 1.468453,-0.867722 0.15272,-0.03054 0.312262,0.01551 0.467235,0 0.7957,-0.07957 1.54258,0 2.336175,0"
       id="path5740" />
    <path
       style="fill:none;stroke:#000000;stroke-width:4;stroke-linecap:butt;stroke-linejoin:miter;stroke-miterlimit:4;stroke-dasharray:none;stroke-opacity:0.1"
       d="m 9.8786838,59.449581 c 0.089,0.06675 0.1600252,0.169682 0.2669912,0.200244 1.051436,0.300411 2.915852,-0.128233 4.004872,-0.400486 0.37046,-0.09262 0.711642,-0.281715 1.067966,-0.40049 0.483807,-0.161268 1.046041,-0.283921 1.468453,-0.600731 0.462119,-0.346588 0.876567,-0.749345 1.468453,-0.867722 0.15272,-0.03054 0.312262,0.01551 0.467235,0 0.7957,-0.07957 1.54258,0 2.336175,0"
       id="path5740-4" />
    <path
       style="fill:none;stroke:#000000;stroke-width:2;stroke-linecap:butt;stroke-linejoin:round;stroke-miterlimit:4;stroke-dasharray:none;stroke-opacity:0.1"
       d="m 10.078927,47.568461 c 0.526698,0.414507 1.254904,0.732896 1.935688,0.800976 0.352464,0.03524 0.715502,-0.03525 1.067966,0 0.526305,0.05263 1.067391,0.111294 1.601949,0.06675 0.550742,-0.04589 1.106984,-0.227113 1.668696,-0.133495 0.360365,0.06006 0.706495,0.215352 1.067966,0.266991 0.13406,0.01916 0.335919,-0.03283 0.467235,0 0.06603,0.01651 0.689988,0.571238 0.734227,0.600731 0.138879,0.09258 0.495976,0.263287 0.667478,0.400486 0.224089,0.179271 0.567498,0.483995 0.800975,0.600731 0.152318,0.07616 0.367409,0.03343 0.533982,0.06675 0.14104,0.02821 0.259968,0.133495 0.400488,0.133495"
       id="path5775" />
    <path
       style="fill:none;stroke:#000000;stroke-width:4;stroke-linecap:butt;stroke-linejoin:round;stroke-miterlimit:4;stroke-dasharray:none;stroke-opacity:0.1"
       d="m 10.078927,47.568461 c 0.526698,0.414507 1.254904,0.732896 1.935688,0.800976 0.352464,0.03524 0.715502,-0.03525 1.067966,0 0.526305,0.05263 1.067391,0.111294 1.601949,0.06675 0.550742,-0.04589 1.106984,-0.227113 1.668696,-0.133495 0.360365,0.06006 0.706495,0.215352 1.067966,0.266991 0.13406,0.01916 0.335919,-0.03283 0.467235,0 0.06603,0.01651 0.689988,0.571238 0.734227,0.600731 0.138879,0.09258 0.495976,0.263287 0.667478,0.400486 0.224089,0.179271 0.567498,0.483995 0.800975,0.600731 0.152318,0.07616 0.367409,0.03343 0.533982,0.06675 0.14104,0.02821 0.259968,0.133495 0.400488,0.133495"
       id="path5775-8" />
    <path
       style="fill:#353535;fill-opacity:1;stroke:#000000;stroke-width:3;stroke-linecap:butt;stroke-linejoin:round;stroke-miterlimit:4;stroke-dasharray:none;stroke-opacity:1"
       d="M 9.5878083,65.469492 9.2845577,93.92562 H 21.970389 L 21.437452,65.469492 Z"
       id="path6782" />
    <path
       style="fill:#000000;fill-opacity:0.2;stroke:#000000;stroke-width:0;stroke-linecap:butt;stroke-linejoin:miter;stroke-miterlimit:4;stroke-dasharray:none;stroke-opacity:1"
       d="M 21.970389,93.92562 21.437452,65.469492 17.771727,65.14806 18.385262,93.92562 Z"
       id="path7279" />
    <path
       style="fill:#000000;fill-opacity:0.2;stroke:#000000;stroke-width:0;stroke-linecap:butt;stroke-linejoin:miter;stroke-miterlimit:4;stroke-dasharray:none;stroke-opacity:1"
       d="M 9.5878083,65.469492 13.157326,65.14806 12.96161,94.01754 9.2845577,93.92562 Z"
       id="path7413" />
  </g>
</svg>
