<?xml version="1.0" encoding="UTF-8" standalone="no"?>
<!-- Created with Inkscape (http://www.inkscape.org/) -->

<svg
   width="1250"
   height="600"
   viewBox="0 0 330.72916 158.75"
   version="1.1"
   id="svg5"
   inkscape:version="1.1.1 (c3084ef, 2021-09-22)"
   sodipodi:docname="m4a1_loot.svg"
   xmlns:inkscape="http://www.inkscape.org/namespaces/inkscape"
   xmlns:sodipodi="http://sodipodi.sourceforge.net/DTD/sodipodi-0.dtd"
   xmlns="http://www.w3.org/2000/svg"
   xmlns:svg="http://www.w3.org/2000/svg">
  <sodipodi:namedview
     id="namedview7"
     pagecolor="#ffffff"
     bordercolor="#666666"
     borderopacity="1.0"
     inkscape:pageshadow="2"
     inkscape:pageopacity="0.0"
     inkscape:pagecheckerboard="0"
     inkscape:document-units="mm"
     showgrid="false"
     units="px"
     inkscape:zoom="0.421459"
     inkscape:cx="596.73658"
     inkscape:cy="505.38724"
     inkscape:window-width="1312"
     inkscape:window-height="738"
     inkscape:window-x="0"
     inkscape:window-y="25"
     inkscape:window-maximized="0"
     inkscape:current-layer="layer1"
     showguides="false" />
  <defs
     id="defs2" />
  <g
     inkscape:label="Layer 1"
     inkscape:groupmode="layer"
     id="layer1">
    <path
       style="fill:none;stroke:#000000;stroke-width:5;stroke-linecap:round;stroke-linejoin:miter;stroke-opacity:1;stroke-miterlimit:4;stroke-dasharray:none"
       d="m 101.16438,39.66034 0.061,-10.494735"
       id="path13652" />
    <path
       style="fill:#404040;fill-opacity:1;stroke:#000000;stroke-width:3;stroke-linecap:butt;stroke-linejoin:round;stroke-miterlimit:4;stroke-dasharray:none;stroke-opacity:1"
       d="m 69.088364,111.41715 20.663546,5.55226 h 0.171719 l 0.40068,-0.0859 0.429297,-0.20034 0.1431,-0.2862 0.400677,-0.94446 0.02862,-0.51515 -0.08586,-0.4293 -0.858594,-1.80305 7.240826,-12.79308 3.062325,-0.11448 0.25758,-0.11448 0.20034,-0.25758 v -0.54378 l -1.631335,-2.54717 3.863685,-6.78291 h 6.86877 l -1.88891,-2.3182 -0.60102,-1.0017 -0.45792,-1.37375 -0.11448,-0.60102 -0.0286,-0.48654 v -0.65826 -0.74411 l 0.11448,-0.62964 0.17172,-0.74412 0.4293,-1.05893 0.34344,-0.68688 0.34343,-0.68687 -18.574291,0.0286 0.08586,1.28789 -0.02862,0.77274 -0.05724,0.60101 -0.286197,0.62964 -0.715497,1.03031 z"
       id="path1041" />
    <path
       style="fill:#676767;stroke:#000000;stroke-width:3;stroke-linecap:butt;stroke-linejoin:round;stroke-miterlimit:4;stroke-dasharray:none;stroke-opacity:1;fill-opacity:1"
       d="m 89.980888,78.590123 -0.05808,-0.900729 -0.09048,-0.579096 -0.380035,-0.723871 -0.705773,-0.904838 -0.669578,-0.83245 -0.868646,-0.778161 -0.94103,-0.633386 -1.266775,-0.597194 -1.628709,-0.560999 -1.194384,-0.289549 -1.103903,-0.144775 -1.06771,-0.307644 0.07239,-20.612211 3.520361,-0.02582 0.02413,1.833089 4.823917,0.04824 0.04824,-1.109502 4.630965,-0.02413 0.0053,-3.741266 66.648542,-0.09309 0.0931,21.130196 -0.23271,0.279252 -0.65159,0.325798 -0.69814,0.372337 -1.11701,0.837761 -0.8843,0.791221 -0.74468,0.930843 -0.18617,0.372338 -0.0931,8.470696 0.93084,2.420199 0.0931,0.651592 -0.0931,0.511964 -0.46542,0.41888 -26.90144,4.421518 -3.76991,-0.04654 1.34972,-2.094402 0.60505,-1.163559 0.37234,-1.349726 0.0931,-1.349725 -0.0931,-1.489352 -0.55851,-1.535896 -1.34972,-1.954776 -16.92281,-0.0019 z"
       id="path1231"
       sodipodi:nodetypes="ccccccccccccccccccccccccccccccccccccccccccccc" />
    <path
       style="fill:none;stroke:#000000;stroke-width:3;stroke-linecap:butt;stroke-linejoin:round;stroke-opacity:1;stroke-miterlimit:4;stroke-dasharray:none"
       d="M 110.24374,89.55153 125.0591,89.5008"
       id="path1463" />
    <path
       style="fill:#848484;fill-opacity:1;stroke:#000000;stroke-width:3;stroke-linecap:butt;stroke-linejoin:round;stroke-miterlimit:4;stroke-dasharray:none;stroke-opacity:1"
       d="m 128.82901,89.547334 0.11253,4.118578 0.3239,3.062324 1.23671,7.626364 1.17781,6.06576 2.47479,10.25517 2.30861,9.53871 1.97196,5.30665 26.86738,-8.37898 -1.82152,-4.9181 -3.82518,1.27507 -1.82152,-6.19316 -1.27506,-5.37348 -1.18399,-5.6467 -0.63753,-4.64487 -0.45538,-5.828858 -0.27323,-6.102082 -0.18215,-4.644869 z"
       id="path1864"
       sodipodi:nodetypes="ccccccccccccccccccc" />
    <path
       style="fill:#000000;stroke:#000000;stroke-width:3;stroke-linecap:butt;stroke-linejoin:round;stroke-opacity:1;stroke-miterlimit:4;stroke-dasharray:none;fill-opacity:0.2"
       d="m 159.656,123.49888 -23.19264,6.71536 1.97196,5.30665 26.86738,-8.37898 -1.82152,-4.9181 z"
       id="path2321" />
    <path
       style="fill:none;stroke:#000000;stroke-width:3;stroke-linecap:butt;stroke-linejoin:miter;stroke-miterlimit:4;stroke-dasharray:none;stroke-opacity:0.4"
       d="m 134.36119,89.120094 c 0,0 -0.43598,21.508596 7.41175,38.366696"
       id="path3114" />
    <path
       style="fill:none;stroke:#000000;stroke-width:2.88553;stroke-linecap:round;stroke-linejoin:miter;stroke-miterlimit:4;stroke-dasharray:none;stroke-opacity:0.4"
       d="m 147.14597,86.615847 c 0,0 -1.48273,14.627463 5.63439,31.363393"
       id="path3215-1" />
    <path
       style="fill:none;stroke:#000000;stroke-width:2.88553;stroke-linecap:round;stroke-linejoin:miter;stroke-miterlimit:4;stroke-dasharray:none;stroke-opacity:0.4"
       d="m 140.32126,88.606951 c 0,0 -1.48273,14.627459 5.63439,31.363389"
       id="path3215-1-2" />
    <path
       style="fill:#000000;stroke:#000000;stroke-width:0.265;stroke-linecap:butt;stroke-linejoin:round;stroke-opacity:1;stroke-miterlimit:4;stroke-dasharray:none;fill-opacity:1"
       d="m 114.50896,79.783182 -0.80879,2.008929 -0.15654,0.86097 v 0.782701 l 0.20872,0.939239 0.28699,0.808789 0.5218,0.782701 0.31308,0.547888 v 0.23481 l -0.0783,0.443529 -0.28699,0.286991 -0.39135,0.182628 -0.31308,-0.104359 -1.14796,-1.069689 -1.09578,-2.06111 -0.41744,-1.539309 -0.0522,-3.156889 z"
       id="path4287" />
    <path
       style="fill:#2d2d2d;fill-opacity:1;stroke:#2d2d2d;stroke-width:3.33171;stroke-linecap:butt;stroke-linejoin:round;stroke-miterlimit:4;stroke-dasharray:none;stroke-opacity:1"
       d="m 77.348505,108.22215 12.263849,-18.103271 5.244918,1.392559 -8.484424,19.031642 z"
       id="path4572" />
    <path
       style="fill:#939393;stroke:#000000;stroke-width:3;stroke-linecap:butt;stroke-linejoin:round;stroke-opacity:1;stroke-miterlimit:4;stroke-dasharray:none;fill-opacity:1"
       d="m 80.078169,50.72522 h -5.131827 v 13.248587 h 5.131827 z"
       id="path6374" />
    <path
       style="fill:#4f4f4f;stroke:#000000;stroke-width:3;stroke-linecap:butt;stroke-linejoin:round;stroke-opacity:1;stroke-miterlimit:4;stroke-dasharray:none;fill-opacity:1"
       d="m 74.946342,63.973807 -0.02029,3.938619 h -13.85619 l -0.08553,8.638736 -2.052769,-0.08553 0.08553,2.394895 h -16.50768 l -12.573206,6.671497 0.08553,-6.585965 -3.592346,1.796174 L 10.434904,104.52013 4.0200024,49.523041 13.856185,50.977085 74.94634,50.72522 Z"
       id="path6821" />
    <path
       style="fill:none;stroke:#000000;stroke-width:3;stroke-linecap:butt;stroke-linejoin:miter;stroke-opacity:0.5;stroke-miterlimit:4;stroke-dasharray:none"
       d="M 60.651778,71.965065 H 42.00581 L 9.0087272,90.087272"
       id="path7167" />
    <path
       style="fill:none;stroke:#000000;stroke-width:3;stroke-linecap:butt;stroke-linejoin:miter;stroke-opacity:1;stroke-miterlimit:4;stroke-dasharray:none"
       d="M 61.069862,67.912426 6.180406,68.403474"
       id="path7384" />
    <rect
       style="fill:#000000;fill-opacity:1;fill-rule:evenodd;stroke:#000000;stroke-width:2.73078;stroke-linecap:round;stroke-linejoin:round;stroke-miterlimit:4;stroke-dasharray:none;stroke-opacity:1;paint-order:markers fill stroke"
       id="rect7521"
       width="12.238141"
       height="1.5712897"
       x="12.37873"
       y="69.346252" />
    <rect
       style="fill:#202020;fill-opacity:1;fill-rule:evenodd;stroke:#202020;stroke-width:2.73078;stroke-linecap:round;stroke-linejoin:round;stroke-miterlimit:4;stroke-dasharray:none;stroke-opacity:1;paint-order:markers fill stroke"
       id="rect7521-2"
       width="12.238141"
       height="1.5712897"
       x="15.23658"
       y="62.61095" />
    <rect
       style="fill:#202020;fill-opacity:1;fill-rule:evenodd;stroke:#202020;stroke-width:2.73078;stroke-linecap:round;stroke-linejoin:round;stroke-miterlimit:4;stroke-dasharray:none;stroke-opacity:1;paint-order:markers fill stroke"
       id="rect7521-2-0"
       width="12.238141"
       height="1.5712897"
       x="32.029812"
       y="62.625153" />
    <rect
       style="fill:#202020;fill-opacity:1;fill-rule:evenodd;stroke:#202020;stroke-width:2.73078;stroke-linecap:round;stroke-linejoin:round;stroke-miterlimit:4;stroke-dasharray:none;stroke-opacity:1;paint-order:markers fill stroke"
       id="rect7521-2-6"
       width="12.238141"
       height="1.5712897"
       x="48.931599"
       y="62.584347" />
    <path
       style="fill:#8f8f8f;fill-opacity:1;stroke:#000000;stroke-width:3;stroke-linecap:butt;stroke-linejoin:miter;stroke-miterlimit:4;stroke-dasharray:none;stroke-opacity:1"
       d="m 124.15326,54.5199 v 8.654116 h 30.2894 V 54.5199 Z"
       id="path10017" />
    <rect
       style="fill:#676767;fill-opacity:0.1;fill-rule:evenodd;stroke:#000000;stroke-width:2.63685;stroke-linecap:round;stroke-linejoin:round;stroke-miterlimit:4;stroke-dasharray:none;stroke-opacity:0.2;paint-order:markers fill stroke"
       id="rect10548"
       width="30.596907"
       height="2.2137263"
       x="124.15326"
       y="60.960285" />
    <path
       style="fill:#919191;fill-opacity:1;stroke:#000000;stroke-width:3;stroke-linecap:butt;stroke-linejoin:round;stroke-miterlimit:4;stroke-dasharray:none;stroke-opacity:1"
       d="m 124.15326,54.5199 -1.50243,-3.089399 -7.45075,0.06368 -1.33731,2.738311 -0.12737,5.731345 10.29705,0.04714 z"
       id="path10663" />
    <path
       style="fill:#000000;fill-opacity:0.2;stroke:#000000;stroke-width:0;stroke-linecap:butt;stroke-linejoin:miter;stroke-miterlimit:4;stroke-dasharray:none;stroke-opacity:1"
       d="m 113.7354,59.963837 10.29705,0.04714 -0.88731,-1.729425 -2.04998,-0.536901 -1.26904,-0.536897 -1.41546,-1.122609 -1.75712,-1.659506 -1.22023,-1.366653 -1.57054,1.173507 z"
       id="path10929" />
    <path
       style="fill:#000000;stroke:#000000;stroke-width:2;stroke-linecap:butt;stroke-linejoin:round;stroke-opacity:1;stroke-miterlimit:4;stroke-dasharray:none;fill-opacity:0.40000001"
       d="m 95.490706,73.401591 3.411127,0.0416 0.811181,0.623985 0.353596,0.228796 0.41599,0.103997 h 0.60318 l 0.79039,-0.145598 0.91518,-0.540787 0.60319,-0.87358 0.12479,-0.644787 -0.0832,-0.831982 -0.37439,-0.748784 -0.70718,-0.623986 -0.74879,-0.270393 -0.97758,-0.0208 -0.51998,0.207996 -0.60319,0.395193 -0.623988,0.478388 h -3.390326 z"
       id="path12213" />
    <path
       style="fill:#000000;stroke:#000000;stroke-width:0;stroke-linecap:butt;stroke-linejoin:miter;stroke-opacity:1;stroke-miterlimit:4;stroke-dasharray:none;fill-opacity:0.2"
       d="m 80.676262,69.410278 4.683612,0.04219 0.928283,-0.08439 1.181451,-0.421947 6.033844,-3.459966 0.71731,-0.506336 0.295362,-0.88609 -0.548531,-3.755326 -13.628889,0.337558 z"
       id="path12380" />
    <path
       style="fill:#7b7b7b;stroke:#000000;stroke-width:3;stroke-linecap:butt;stroke-linejoin:round;stroke-opacity:1;stroke-miterlimit:4;stroke-dasharray:none;fill-opacity:1"
       d="m 86.414741,54.979691 20.717599,0.759505 0.88609,0.126585 0.97048,0.337558 0.71731,0.548531 0.37975,0.590725 0.25317,0.886089 0.16877,1.181452 -0.0844,0.590725 -0.21097,0.506336 -0.8017,0.675116 -1.30803,0.63292 -1.47682,0.379751 -17.806159,1.181452 -0.717312,-0.168778 -0.506336,-0.295362 0.675116,-0.801701 0.337558,-1.054867 0.08439,-2.405097 -0.253169,-0.928285 -0.675114,-1.223645 z"
       id="path12481" />
    <path
       style="fill:#7b7b7b;stroke:#000000;stroke-width:3;stroke-linecap:butt;stroke-linejoin:round;stroke-opacity:1;stroke-miterlimit:4;stroke-dasharray:none;fill-opacity:1"
       d="m 88.271299,62.110595 h -4.346044 l -0.717311,-0.337558 -0.421947,-0.717309 -0.253167,-1.814372 0.126585,-1.054867 0.548529,-0.590725 4.637008,-0.09947 z"
       id="path12997" />
    <rect
       style="fill:#000000;fill-opacity:0.2;fill-rule:evenodd;stroke:#373737;stroke-width:0;stroke-linecap:round;stroke-linejoin:round;stroke-miterlimit:4;stroke-dasharray:none;stroke-opacity:1;paint-order:markers fill stroke"
       id="rect13111"
       width="20.717592"
       height="3.6298108"
       x="88.693245"
       y="58.650631" />
    <path
       style="fill:#444444;stroke:#000000;stroke-width:3;stroke-linecap:butt;stroke-linejoin:round;stroke-opacity:1;stroke-miterlimit:4;stroke-dasharray:none;fill-opacity:1"
       d="m 96.338881,40.393365 13.370629,0.07037 2.81487,6.614943 -14.144718,0.07037 0.633344,-1.618549 0.07037,-0.84446 -0.140745,-1.97041 -0.84446,-1.055574 z"
       id="path13510" />
    <circle
       style="fill:#676767;fill-opacity:1;fill-rule:evenodd;stroke:#000000;stroke-width:3;stroke-linecap:round;stroke-linejoin:round;stroke-miterlimit:4;stroke-dasharray:none;stroke-opacity:1;paint-order:markers fill stroke"
       id="path13431"
       cx="95.424049"
       cy="44.650856"
       r="4" />
    <rect
       style="fill:#444444;fill-opacity:1;fill-rule:evenodd;stroke:#000000;stroke-width:2.36436;stroke-linecap:round;stroke-linejoin:round;stroke-miterlimit:4;stroke-dasharray:none;stroke-opacity:1;paint-order:markers fill stroke"
       id="rect13766"
       width="1.4829055"
       height="1.1900212"
       x="116.32441"
       y="46.207909" />
    <rect
       style="fill:#444444;fill-opacity:1;fill-rule:evenodd;stroke:#000000;stroke-width:2.36436;stroke-linecap:round;stroke-linejoin:round;stroke-miterlimit:4;stroke-dasharray:none;stroke-opacity:1;paint-order:markers fill stroke"
       id="rect13766-0"
       width="1.4829055"
       height="1.1900212"
       x="121.6842"
       y="46.090755" />
    <rect
       style="fill:#444444;fill-opacity:1;fill-rule:evenodd;stroke:#000000;stroke-width:2.36436;stroke-linecap:round;stroke-linejoin:round;stroke-miterlimit:4;stroke-dasharray:none;stroke-opacity:1;paint-order:markers fill stroke"
       id="rect13766-2"
       width="1.4829055"
       height="1.1900212"
       x="132.46234"
       y="46.14933" />
    <rect
       style="fill:#444444;fill-opacity:1;fill-rule:evenodd;stroke:#000000;stroke-width:2.36436;stroke-linecap:round;stroke-linejoin:round;stroke-miterlimit:4;stroke-dasharray:none;stroke-opacity:1;paint-order:markers fill stroke"
       id="rect13766-1"
       width="1.4829055"
       height="1.1900212"
       x="137.55853"
       y="45.973602" />
    <rect
       style="fill:#444444;fill-opacity:1;fill-rule:evenodd;stroke:#000000;stroke-width:2.36436;stroke-linecap:round;stroke-linejoin:round;stroke-miterlimit:4;stroke-dasharray:none;stroke-opacity:1;paint-order:markers fill stroke"
       id="rect13766-08"
       width="1.4829055"
       height="1.1900212"
       x="142.77188"
       y="46.090752" />
    <rect
       style="fill:#444444;fill-opacity:1;fill-rule:evenodd;stroke:#000000;stroke-width:2.36436;stroke-linecap:round;stroke-linejoin:round;stroke-miterlimit:4;stroke-dasharray:none;stroke-opacity:1;paint-order:markers fill stroke"
       id="rect13766-7"
       width="1.4829055"
       height="1.1900212"
       x="147.92664"
       y="46.14933" />
    <rect
       style="fill:#444444;fill-opacity:1;fill-rule:evenodd;stroke:#000000;stroke-width:2.36436;stroke-linecap:round;stroke-linejoin:round;stroke-miterlimit:4;stroke-dasharray:none;stroke-opacity:1;paint-order:markers fill stroke"
       id="rect13766-24"
       width="1.4829055"
       height="1.1900212"
       x="153.13997"
       y="45.973602" />
    <rect
       style="fill:#444444;fill-opacity:1;fill-rule:evenodd;stroke:#000000;stroke-width:2.36436;stroke-linecap:round;stroke-linejoin:round;stroke-miterlimit:4;stroke-dasharray:none;stroke-opacity:1;paint-order:markers fill stroke"
       id="rect13766-3"
       width="1.4829055"
       height="1.1900212"
       x="158.29474"
       y="45.915024" />
    <rect
       style="fill:#444444;fill-opacity:1;fill-rule:evenodd;stroke:#000000;stroke-width:2.36436;stroke-linecap:round;stroke-linejoin:round;stroke-miterlimit:4;stroke-dasharray:none;stroke-opacity:1;paint-order:markers fill stroke"
       id="rect13766-6"
       width="1.4829055"
       height="1.1900212"
       x="127.13185"
       y="46.090752" />
    <path
       style="fill:#000000;stroke:#000000;stroke-width:2;stroke-linecap:butt;stroke-linejoin:round;stroke-opacity:1;stroke-miterlimit:4;stroke-dasharray:none;fill-opacity:1"
       d="m 103.91266,39.951633 2.72747,-2.112825 3.06938,2.624926 z"
       id="path13959" />
    <path
       style="fill:#3c3c3c;stroke:#000000;stroke-width:3;stroke-linecap:butt;stroke-linejoin:round;stroke-opacity:1;stroke-miterlimit:4;stroke-dasharray:none;fill-opacity:1"
       d="m 83.598535,50.699399 -0.0999,-3.726582 h 4.797882 l 0.46431,1.238163 4.930957,-0.04914 -0.565994,3.285252 -4.630965,0.02413 -0.978699,1.581407 -3.893457,-0.520145 z"
       id="path14286" />
    <path
       style="fill:#7b7b7b;stroke:#000000;stroke-width:3;stroke-linecap:butt;stroke-linejoin:round;stroke-opacity:1;stroke-miterlimit:4;stroke-dasharray:none;fill-opacity:1"
       d="m 161.26051,48.855809 1.24606,-1.817166 5.29574,1.14222 0.0519,18.015902 -5.39958,1.349896 -1.29798,-1.453735 z"
       id="path14519" />
    <path
       style="fill:#000000;stroke:#000000;stroke-width:0;stroke-linecap:butt;stroke-linejoin:miter;stroke-opacity:1;stroke-miterlimit:4;stroke-dasharray:none;fill-opacity:0.40000001"
       d="m 161.67586,59.135777 6.07453,-0.778786 0.10382,7.839774 -5.39958,1.349896 z"
       id="path14917" />
    <rect
       style="fill:#545454;fill-opacity:1;fill-rule:evenodd;stroke:#000000;stroke-width:3.06857;stroke-linecap:round;stroke-linejoin:round;stroke-miterlimit:4;stroke-dasharray:none;stroke-opacity:1;paint-order:markers fill stroke"
       id="rect15578"
       width="63.884136"
       height="18.783968"
       x="167.83659"
       y="48.215149" />
    <rect
       style="fill:#373737;fill-opacity:1;fill-rule:evenodd;stroke:#000000;stroke-width:3;stroke-linecap:round;stroke-linejoin:round;stroke-miterlimit:4;stroke-dasharray:none;stroke-opacity:1;paint-order:markers fill stroke"
       id="rect15895"
       width="63.528755"
       height="10.364337"
       x="168.08965"
       y="52.315762" />
    <rect
       style="fill:#373737;fill-opacity:1;fill-rule:evenodd;stroke:#000000;stroke-width:3;stroke-linecap:round;stroke-linejoin:round;stroke-miterlimit:4;stroke-dasharray:none;stroke-opacity:1;paint-order:markers fill stroke"
       id="rect15895-1"
       width="60.838913"
       height="4.717463"
       x="169.45555"
       y="43.476391" />
    <rect
       style="fill:#373737;fill-opacity:1;fill-rule:evenodd;stroke:#000000;stroke-width:3;stroke-linecap:round;stroke-linejoin:round;stroke-miterlimit:4;stroke-dasharray:none;stroke-opacity:1;paint-order:markers fill stroke"
       id="rect15895-1-6"
       width="60.838913"
       height="4.717463"
       x="169.58615"
       y="66.726227" />
    <rect
       style="fill:none;fill-opacity:1;fill-rule:evenodd;stroke:#000000;stroke-width:3.00114;stroke-linecap:round;stroke-linejoin:round;stroke-miterlimit:4;stroke-dasharray:none;stroke-opacity:0.5;paint-order:markers fill stroke"
       id="rect17142"
       width="9.462603e-06"
       height="26.439953"
       x="174.62505"
       y="43.937885" />
    <rect
       style="fill:none;fill-opacity:1;fill-rule:evenodd;stroke:#000000;stroke-width:3.00096;stroke-linecap:round;stroke-linejoin:round;stroke-miterlimit:4;stroke-dasharray:none;stroke-opacity:0.5;paint-order:markers fill stroke"
       id="rect17142-0"
       width="9.5481246e-06"
       height="26.199953"
       x="225.32266"
       y="43.992462" />
    <rect
       style="fill:none;fill-opacity:1;fill-rule:evenodd;stroke:#000000;stroke-width:3;stroke-linecap:round;stroke-linejoin:round;stroke-miterlimit:4;stroke-dasharray:none;stroke-opacity:0.5;paint-order:markers fill stroke"
       id="rect17142-1"
       width="9.9999997e-06"
       height="25"
       x="218.56297"
       y="43.992489" />
    <rect
       style="fill:none;fill-opacity:1;fill-rule:evenodd;stroke:#000000;stroke-width:3;stroke-linecap:round;stroke-linejoin:round;stroke-miterlimit:4;stroke-dasharray:none;stroke-opacity:0.5;paint-order:markers fill stroke"
       id="rect17142-9"
       width="9.9999997e-06"
       height="25"
       x="180.9341"
       y="44.668457" />
    <rect
       style="fill:none;fill-opacity:1;fill-rule:evenodd;stroke:#000000;stroke-width:3;stroke-linecap:round;stroke-linejoin:round;stroke-miterlimit:4;stroke-dasharray:none;stroke-opacity:0.5;paint-order:markers fill stroke"
       id="rect17142-05"
       width="9.9999997e-06"
       height="25"
       x="187.9191"
       y="44.217812" />
    <rect
       style="fill:none;fill-opacity:1;fill-rule:evenodd;stroke:#000000;stroke-width:3;stroke-linecap:round;stroke-linejoin:round;stroke-miterlimit:4;stroke-dasharray:none;stroke-opacity:0.5;paint-order:markers fill stroke"
       id="rect17142-15"
       width="9.9999997e-06"
       height="25"
       x="194.9041"
       y="44.443134" />
    <rect
       style="fill:none;fill-opacity:1;fill-rule:evenodd;stroke:#000000;stroke-width:3;stroke-linecap:round;stroke-linejoin:round;stroke-miterlimit:4;stroke-dasharray:none;stroke-opacity:0.5;paint-order:markers fill stroke"
       id="rect17142-7"
       width="9.9999997e-06"
       height="25"
       x="200.98781"
       y="44.217812" />
    <rect
       style="fill:none;fill-opacity:1;fill-rule:evenodd;stroke:#000000;stroke-width:3;stroke-linecap:round;stroke-linejoin:round;stroke-miterlimit:4;stroke-dasharray:none;stroke-opacity:0.5;paint-order:markers fill stroke"
       id="rect17142-97"
       width="9.9999997e-06"
       height="25"
       x="206.62088"
       y="44.217812" />
    <rect
       style="fill:none;fill-opacity:1;fill-rule:evenodd;stroke:#000000;stroke-width:3;stroke-linecap:round;stroke-linejoin:round;stroke-miterlimit:4;stroke-dasharray:none;stroke-opacity:0.5;paint-order:markers fill stroke"
       id="rect17142-4"
       width="9.9999997e-06"
       height="25"
       x="212.92992"
       y="44.217812" />
    <path
       style="fill:#373737;stroke:#000000;stroke-width:3;stroke-linecap:butt;stroke-linejoin:round;stroke-opacity:1;stroke-miterlimit:4;stroke-dasharray:none;fill-opacity:1"
       d="m 231.72073,48.215147 3.4812,0.09595 0.11988,12.827019 h 2.99696 l -0.11988,4.555386 -6.42597,-0.01744 z"
       id="path17706" />
    <path
       style="fill:#636363;fill-opacity:1;stroke:#000000;stroke-width:3;stroke-linecap:butt;stroke-linejoin:round;stroke-miterlimit:4;stroke-dasharray:none;stroke-opacity:1"
       d="m 235.00323,48.765274 14.66154,-17.46877 0.44204,-0.265224 0.70727,-0.176816 h 1.0609 l 1.0609,0.176816 0.88408,0.53045 0.61886,0.972489 0.0884,16.620744 -3.86537,-0.0198 0.0686,-6.074566 -0.62263,-1.086501 0.28844,-3.265299 -0.0884,-0.442042 -0.53045,-0.442042 h -0.53045 l -0.61886,0.353634 -8.75143,10.622981 z"
       id="path17980"
       sodipodi:nodetypes="ccccccccccccccccccc" />
    <path
       style="fill:#6e6466;stroke:#000000;stroke-width:3;stroke-linecap:butt;stroke-linejoin:round;stroke-opacity:1;stroke-miterlimit:4;stroke-dasharray:none;fill-opacity:1"
       d="m 235.00323,48.765274 19.52399,0.389689 0.0595,11.941156 h -4.69068 l -0.11727,2.228075 h -8.56049 l -1.199,-2.028454 -1.7005,-0.157626 h -2.99696 z"
       id="path18770" />
    <path
       style="fill:#000000;stroke:#000000;stroke-width:0;stroke-linecap:butt;stroke-linejoin:miter;stroke-opacity:1;stroke-miterlimit:4;stroke-dasharray:none;fill-opacity:0.30000001"
       d="m 235.17987,54.014711 19.03292,0.440576 0.37393,6.640832 h -4.69068 l -0.11727,2.228075 h -8.56049 l -1.199,-2.028454 -4.69746,-0.157626 z"
       id="path19856" />
    <path
       style="fill:#676767;stroke:#000000;stroke-width:3;stroke-linecap:butt;stroke-linejoin:round;stroke-opacity:1;stroke-miterlimit:4;stroke-dasharray:none;fill-opacity:1"
       d="m 249.77877,63.324194 0.005,3.678375 h 3.67958 l 0.42785,-1.625859 h 3.25173 l 0.0856,-4.877583 -2.64154,0.596992 h -4.69068 z"
       id="path20470" />
    <path
       style="fill:#939393;stroke:#000000;stroke-width:3;stroke-linecap:butt;stroke-linejoin:round;stroke-opacity:1;stroke-miterlimit:4;stroke-dasharray:none;fill-opacity:1"
       d="m 272.03214,53.311109 h -17.44515 v 7.78501 h 17.44515 z"
       id="path20897" />
    <path
       style="fill:#939393;fill-opacity:1;stroke:#000000;stroke-width:3;stroke-linecap:butt;stroke-linejoin:round;stroke-miterlimit:4;stroke-dasharray:none;stroke-opacity:1"
       d="m 326.25067,53.139656 h -12.53785 v 7.78501 h 12.53785 z"
       id="path20897-4" />
    <path
       style="fill:#939393;fill-opacity:1;stroke:#000000;stroke-width:3;stroke-linecap:butt;stroke-linejoin:round;stroke-miterlimit:4;stroke-dasharray:none;stroke-opacity:1"
       d="m 303.54743,53.290229 h -22.2986 v 7.78501 h 22.2986 z"
       id="path20897-7" />
    <path
       style="fill:#6c6c6c;fill-opacity:1;stroke:#000000;stroke-width:3.13577;stroke-linecap:butt;stroke-linejoin:miter;stroke-miterlimit:4;stroke-dasharray:none;stroke-opacity:1"
       d="m 272.27116,54.405854 v 5.316663 h 8.76368 v -5.316663 z"
       id="path21257" />
    <path
       style="fill:#4f4f4f;fill-opacity:1;stroke:#000000;stroke-width:3;stroke-linecap:butt;stroke-linejoin:round;stroke-miterlimit:4;stroke-dasharray:none;stroke-opacity:1"
       d="m 313.71897,54.06895 -10.13306,0.0407 -0.0628,5.778402 10.175,-0.125619 z"
       id="path21794"
       sodipodi:nodetypes="ccccc" />
    <path
       style="fill:none;stroke:#000000;stroke-width:3.00448;stroke-linecap:round;stroke-linejoin:miter;stroke-miterlimit:4;stroke-dasharray:none;stroke-opacity:1"
       d="m 307.35532,52.500914 0.0297,8.995522"
       id="path22469" />
    <path
       style="fill:none;stroke:#000000;stroke-width:3.00264;stroke-linecap:round;stroke-linejoin:miter;stroke-miterlimit:4;stroke-dasharray:none;stroke-opacity:1"
       d="m 310.53818,52.501318 0.0296,8.997364"
       id="path22469-4" />
    <path
       style="fill:#000000;stroke:#000000;stroke-width:0;stroke-linecap:butt;stroke-linejoin:miter;stroke-opacity:1;stroke-miterlimit:4;stroke-dasharray:none;fill-opacity:0.30000001"
       d="m 326.25067,60.924664 -0.34309,-3.841268 -71.79777,0.104357 0.47718,3.908366 h 17.44515 l 0.23903,-1.373602 h 8.76366 l 0.214,1.352722 h 22.2986 l -0.0243,-1.187189 10.175,-0.125618 0.0148,1.162232 z"
       id="path22980" />
    <path
       style="fill:#333333;stroke:#000000;stroke-width:3;stroke-linecap:butt;stroke-linejoin:round;stroke-opacity:1;stroke-miterlimit:4;stroke-dasharray:none;fill-opacity:1"
       d="m 123.64794,77.372259 h 6.56393 v -8.122856 h -6.56393 z"
       id="path11280" />
    <path
       style="fill:#000000;stroke:#000000;stroke-width:0;stroke-linecap:butt;stroke-linejoin:miter;stroke-opacity:1;stroke-miterlimit:4;stroke-dasharray:none;fill-opacity:0.30000001"
       d="m 4.0200024,49.523041 9.8361826,1.454044 61.090155,-0.251865 0.14564,5.644094 -60.999651,0.201319 H 11.676501 L 4.4290175,54.758764 Z"
       id="path1164" />
    <path
       style="fill:#000000;stroke:#000000;stroke-width:0;stroke-linecap:butt;stroke-linejoin:miter;stroke-opacity:1;stroke-miterlimit:4;stroke-dasharray:none;fill-opacity:0.30000001"
       d="m 125.0591,89.500796 3.76991,0.04654 24.99813,-4.482473 1.90331,0.06096 0.46542,-1.582438 -0.65157,-11.263231 5.61235,-6.187223 -1.37702,-18.480185 -5.15675,-0.449117 -0.23253,18.401051 -1.32576,0.964187 -1.50654,1.50654 -0.7834,1.325758 -0.60262,1.747586 -0.12052,8.858465 -0.30131,0.482092 -22.36399,4.443806 z"
       id="path1425" />
  </g>
</svg>
