<?xml version="1.0" encoding="UTF-8" standalone="no"?>
<svg
   width="215"
   height="215"
   version="1.1"
   id="svg831"
   sodipodi:docname="soccer_ball2.svg"
   inkscape:version="1.1.1 (c3084ef, 2021-09-22)"
   xmlns:inkscape="http://www.inkscape.org/namespaces/inkscape"
   xmlns:sodipodi="http://sodipodi.sourceforge.net/DTD/sodipodi-0.dtd"
   xmlns="http://www.w3.org/2000/svg"
   xmlns:svg="http://www.w3.org/2000/svg">
  <defs
     id="defs835" />
  <sodipodi:namedview
     id="namedview833"
     pagecolor="#ffffff"
     bordercolor="#666666"
     borderopacity="1.0"
     inkscape:pageshadow="2"
     inkscape:pageopacity="0.0"
     inkscape:pagecheckerboard="0"
     showgrid="false"
     height="205px"
     inkscape:zoom="1.2557562"
     inkscape:cx="86.80029"
     inkscape:cy="87.99479"
     inkscape:window-width="1296"
     inkscape:window-height="733"
     inkscape:window-x="0"
     inkscape:window-y="25"
     inkscape:window-maximized="0"
     inkscape:current-layer="svg831" />
  <circle
     fill="#000000"
     cx="107.5"
     cy="107.5"
     r="97"
     id="circle827"
     style="stroke:#000000;stroke-width:10;stroke-miterlimit:4;stroke-dasharray:none;stroke-opacity:1" />
  <path
     fill="#ffffff"
     d="m 104.5,19.6 a 88,88 0 0 0 -55,21.8 h 27 l 28,-14.4 z m 6,0 V 27 l 28,14.4 h 27 a 88,88 0 0 0 -55,-21.8 z M 43.3,47.4 a 88,88 0 0 0 -20,34.2 l 16,27.6 23,-3.6 21,-36.2 -8.4,-22 z m 96.8,0 -8.4,22 21,36.2 23,3.6 15.8,-27.4 A 88,88 0 0 0 171.7,47.4 Z m -50,26 -20.2,35.2 17.8,30.8 h 39.6 L 145.1,108.6 124.9,73.4 Z M 21.3,90 a 88,88 0 0 0 -1.8,17.4 88,88 0 0 0 10.4,41.4 l 7.4,-4.4 -1.4,-29 z m 172.4,0.2 -14.6,25.2 -1.4,29 7.4,4.4 a 88,88 0 0 0 10.4,-41.4 88,88 0 0 0 -1.8,-17.2 z m -106,57.2 -15.4,19 15.4,26.6 a 88,88 0 0 0 19.8,2.4 88,88 0 0 0 19.8,-2.4 l 15.4,-26.6 -15.4,-19 z m -47.8,2.6 -7,4 a 88,88 0 0 0 46.4,36.8 l -14,-24.6 z m 135.2,0 -25.4,16.2 -14,24.4 A 88,88 0 0 0 182.1,154 Z"
     id="path829" />
  <ellipse
     style="fill:none;fill-rule:evenodd;stroke:#000000;stroke-width:20.516;stroke-linecap:round;stroke-linejoin:round;stroke-miterlimit:4;stroke-dasharray:none;stroke-opacity:0.1;paint-order:markers fill stroke"
     id="path934"
     cx="107.5"
     cy="107.5"
     rx="78.242134"
     ry="78.242157" />
  <path
     style="fill:#8f752e;fill-opacity:0.35;stroke:#000000;stroke-width:0;stroke-linecap:butt;stroke-linejoin:miter;stroke-miterlimit:4;stroke-dasharray:none;stroke-opacity:1"
     d="m 156.00431,196.92608 c -36.3584,-75.24169 0,-102.005511 0,-102.005511 0,0 33.32854,-36.358401 2.52489,-60.597336 l 30.80365,24.238935 18.68418,46.962932 -7.57467,50.49778 z"
     id="path1623"
     sodipodi:nodetypes="ccscccc" />
  <path
     style="fill:#8f752e;fill-opacity:0.25;stroke:#000000;stroke-width:0;stroke-linecap:butt;stroke-linejoin:miter;stroke-miterlimit:4;stroke-dasharray:none;stroke-opacity:1"
     d="M 25.150568,161.54974 C 94.33624,114.68196 76.2992,73.294762 76.2992,73.294762 c 0,0 -10.60458,-48.169149 28.2008,-53.694762 L 65.69462,25.125613 25.980468,56.389044 7.212958,103.8778 Z"
     id="path1623-6"
     sodipodi:nodetypes="ccscccc" />
  <circle
     fill="#000000"
     cx="107.5"
     cy="107.5"
     r="97"
     id="circle827-4"
     style="fill:none;stroke:#000000;stroke-width:17;stroke-miterlimit:4;stroke-dasharray:none;stroke-opacity:1" />
</svg>
