<?xml version="1.0" encoding="UTF-8" standalone="no"?>
<!-- Created with Inkscape (http://www.inkscape.org/) -->

<svg
   width="1250"
   height="600"
   viewBox="0 0 330.72916 158.75"
   version="1.1"
   id="svg5"
   inkscape:version="1.1.1 (c3084ef, 2021-09-22)"
   sodipodi:docname="AK-102_loot.svg"
   xmlns:inkscape="http://www.inkscape.org/namespaces/inkscape"
   xmlns:sodipodi="http://sodipodi.sourceforge.net/DTD/sodipodi-0.dtd"
   xmlns="http://www.w3.org/2000/svg"
   xmlns:svg="http://www.w3.org/2000/svg">
  <sodipodi:namedview
     id="namedview7"
     pagecolor="#ffffff"
     bordercolor="#666666"
     borderopacity="1.0"
     inkscape:pageshadow="2"
     inkscape:pageopacity="0.0"
     inkscape:pagecheckerboard="0"
     inkscape:document-units="mm"
     showgrid="false"
     units="px"
     inkscape:zoom="0.57046838"
     inkscape:cx="675.7605"
     inkscape:cy="301.50663"
     inkscape:window-width="1312"
     inkscape:window-height="732"
     inkscape:window-x="0"
     inkscape:window-y="25"
     inkscape:window-maximized="0"
     inkscape:current-layer="layer1" />
  <defs
     id="defs2" />
  <g
     inkscape:label="Layer 1"
     inkscape:groupmode="layer"
     id="layer1">
    <path
       style="fill:#373737;stroke:#000000;stroke-width:3;stroke-linecap:butt;stroke-linejoin:round;stroke-opacity:1;stroke-miterlimit:4;stroke-dasharray:none;fill-opacity:1"
       d="m 106.2199,75.229835 -0.26677,3.779277 v 0.311235 l 0.26677,0.666932 0.62247,1.067089 0.44463,0.889243 0.31123,0.933704 -0.0445,0.844778 -0.44462,1.600636 -6.66931,21.075021 -0.22232,0.93371 v 1.11155 l 0.0889,1.37832 0.26677,1.02263 0.57801,0.75586 8.31441,2.84557 0.80031,0.13339 3.42358,-0.17785 0.7114,-0.17785 0.57801,-0.48908 0.40015,-0.7114 0.17785,-0.62247 0.13339,-0.62247 0.0445,-0.62246 -0.17785,-0.44463 -0.35569,-0.66693 -0.26678,-0.578 -0.13339,-0.31124 -0.0889,-0.57801 0.13339,-0.66693 6.53592,-20.230241 0.31124,-0.84478 0.3557,-0.578006 0.71139,-0.755856 0.80032,-0.311235 1.2894,-0.08892 0.88924,-1.244938 0.0889,-9.82612 z"
       id="path869" />
    <path
       style="fill:#212121;fill-opacity:1;stroke:#212121;stroke-width:3.11135;stroke-linecap:butt;stroke-linejoin:round;stroke-miterlimit:4;stroke-dasharray:none;stroke-opacity:1"
       d="m 111.61329,85.603203 5.85373,-0.467973 -6.2653,20.8895 -5.625,-1.33736 z"
       id="path1330" />
    <path
       style="fill:none;stroke:#000000;stroke-width:3;stroke-linecap:butt;stroke-linejoin:miter;stroke-opacity:1;stroke-miterlimit:4;stroke-dasharray:none"
       d="m 125.73875,83.855482 0.91633,2.24151 0.53366,0.622605 0.71155,0.622601 0.71154,0.444717 0.88943,0.177885 2.0457,0.08894 9.78374,-0.889431 1.39277,-0.311647 1.09212,-0.402363 0.74725,-0.344882 0.45984,-0.517321 0.45984,-0.804725 v -0.402362"
       id="path4776" />
    <path
       style="fill:#575757;stroke:#000000;stroke-width:3;stroke-linecap:butt;stroke-linejoin:round;stroke-opacity:1;stroke-miterlimit:4;stroke-dasharray:none;fill-opacity:1"
       d="m 145.02268,85.588096 6.60063,-1.824374 -0.15264,-10.661062 -6.8572,0.306125 z"
       id="path4879" />
    <path
       style="fill:none;stroke:#000000;stroke-width:2;stroke-linecap:round;stroke-linejoin:miter;stroke-opacity:1;stroke-miterlimit:4;stroke-dasharray:none"
       d="m 148.82973,89.046292 1.09002,-4.276233"
       id="path5189" />
    <path
       style="fill:#494949;fill-opacity:1;stroke:#000000;stroke-width:3;stroke-linecap:butt;stroke-linejoin:round;stroke-miterlimit:4;stroke-dasharray:none;stroke-opacity:1"
       d="m 153.88364,72.861363 22.67589,-0.888054 1.09696,12.062048 1.49112,8.307675 1.91716,9.266258 2.4497,9.69229 3.83431,11.0769 2.34319,4.79289 1.59763,1.91716 -4.89939,3.30177 -18.3195,7.98815 -0.21302,-2.34319 -4.04733,-13.20708 -2.76922,-9.37276 -1.81065,-6.60354 -2.02367,-7.77513 -2.23668,-14.05915 z"
       id="path5380"
       sodipodi:nodetypes="cccccccccccccccccc" />
    <path
       style="fill:none;stroke:#000000;stroke-width:3;stroke-linecap:butt;stroke-linejoin:round;stroke-opacity:1;stroke-miterlimit:4;stroke-dasharray:none"
       d="M 171.13087,72.460817 C 173.934,111.56443 186.39021,132.3903 186.39021,132.3903"
       id="path5580" />
    <path
       style="fill:#000000;stroke:#000000;stroke-width:0;stroke-linecap:butt;stroke-linejoin:miter;stroke-opacity:1;stroke-miterlimit:4;stroke-dasharray:none;fill-opacity:0.30000001"
       d="m 191.2896,129.08853 -4.89939,3.30177 -8.33238,-18.99034 -4.97368,-23.674728 -1.95328,-17.264417 5.42866,-0.487508 2.89093,22.924555 4.06401,16.403718 z"
       id="path5826" />
    <path
       style="fill:none;stroke:#000000;stroke-width:3;stroke-linecap:round;stroke-linejoin:miter;stroke-miterlimit:4;stroke-dasharray:none;stroke-opacity:0.4"
       d="m 164.60914,73.802233 c 2.49178,28.467387 12.06833,50.362217 12.06833,50.362217"
       id="path6166"
       sodipodi:nodetypes="cc" />
    <path
       style="fill:none;stroke:#000000;stroke-width:3;stroke-linecap:round;stroke-linejoin:miter;stroke-miterlimit:4;stroke-dasharray:none;stroke-opacity:0.4"
       d="m 158.53655,74.740556 c 1.1588,23.124571 11.4556,51.795184 11.4556,51.795184"
       id="path6166-5"
       sodipodi:nodetypes="cc" />
    <path
       style="fill:#000000;fill-opacity:0.1;stroke:#000000;stroke-width:2.9;stroke-linecap:butt;stroke-linejoin:round;stroke-miterlimit:4;stroke-dasharray:none;stroke-opacity:1"
       d="m 168.07071,140.37845 -0.21302,-2.34319 -0.99937,-3.98161 16.69235,-7.07641 2.83954,5.41306 z"
       id="path6509"
       sodipodi:nodetypes="cccccc" />
    <path
       style="fill:#505050;stroke:#000000;stroke-width:3;stroke-linecap:butt;stroke-linejoin:round;stroke-opacity:1;stroke-miterlimit:4;stroke-dasharray:none;fill-opacity:1"
       d="m 176.55953,71.973307 17.09908,-0.833409 V 58.624546 l -94.194495,1.536972 0.439137,14.711029 6.316648,0.357286 19.60775,-1.20047 18.78582,-0.620578 z"
       id="path7238" />
    <path
       style="fill:#000000;stroke:#000000;stroke-width:1;stroke-linecap:butt;stroke-linejoin:round;stroke-opacity:1;stroke-miterlimit:4;stroke-dasharray:none;fill-opacity:1"
       d="m 128.25923,75.105344 1.01917,0.548785 0.33117,0.378439 0.20633,0.550214 0.13755,2.372794 0.24072,1.341144 0.5846,1.066038 1.1692,1.409922 1.06604,0.79093 1.1692,0.61899 0.51583,0.137554 h 0.44705 l 0.34388,-0.137554 0.10316,-0.275106 -0.10316,-0.378272 -0.41266,-0.240718 -1.1692,-0.481436 -0.68777,-0.515826 -0.82532,-1.134814 -0.44705,-1.341144 -0.0344,-1.65064 0.13756,-1.272368 0.34388,-0.962872 1.61625,-1.341143 -6.39623,-0.584603 z"
       id="path7686" />
    <path
       style="fill:none;stroke:#000000;stroke-width:3.5;stroke-linecap:round;stroke-linejoin:miter;stroke-opacity:0.40000001;stroke-miterlimit:4;stroke-dasharray:none"
       d="m 160.3846,68.212625 6.43684,-0.268203"
       id="path8067" />
    <path
       style="fill:none;stroke:#000000;stroke-width:3.5;stroke-linecap:round;stroke-linejoin:miter;stroke-miterlimit:4;stroke-dasharray:none;stroke-opacity:0.4"
       d="m 147.78029,68.774667 6.43554,-0.297895"
       id="path8067-1" />
    <path
       style="fill:none;stroke:#000000;stroke-width:3.5;stroke-linecap:round;stroke-linejoin:miter;stroke-miterlimit:4;stroke-dasharray:none;stroke-opacity:0.40000001"
       d="m 172.48425,67.677987 v 0"
       id="path8289"
       sodipodi:nodetypes="cc" />
    <path
       style="fill:#373737;stroke:#000000;stroke-width:3;stroke-linecap:butt;stroke-linejoin:round;stroke-opacity:1;stroke-miterlimit:4;stroke-dasharray:none;fill-opacity:1"
       d="m 99.464113,60.161518 -7.048474,0.208781 -1.00044,0.09379 -1.031703,0.187584 -3.313956,1.031703 -3.501541,0.781593 -3.376485,0.468958 -3.501538,0.437692 -2.469838,-0.03126 -2.438572,-0.31264 -2.094672,-0.531481 -1.625714,-0.687803 -0.312637,-0.125056 -49.70936,-0.03126 0.187582,18.633194 -0.09379,2.25099 -0.531484,6.815497 -0.312637,3.626594 -0.218846,4.376925 6.252749,0.03126 0.625275,-0.09379 3.907969,-1.34434 5.783794,-2.188461 5.408628,-1.782035 7.096871,-2.563627 6.784232,-2.250991 6.846763,-2.188461 6.471594,-1.90709 3.00132,-0.656537 5.877586,-1.094232 8.284893,-1.65698 7.096871,-1.406866 15.711347,-3.02333 -6.316649,-0.357288 z"
       id="path8711" />
    <path
       style="fill:#000000;fill-opacity:0.30000001;stroke:#000000;stroke-width:0;stroke-linecap:butt;stroke-linejoin:miter;stroke-miterlimit:4;stroke-dasharray:none;stroke-opacity:1"
       d="m 18.039183,61.652117 49.70936,0.03126 4.033023,1.34434 4.90841,0.3439 14.725221,-2.90753 8.048916,-0.30257 0.312578,4.632077 -7.915475,0.226316 -1.065901,0.0969 -4.941901,1.453501 -2.810102,0.387599 -6.589199,0.581401 h -2.228702 l -4.71201,-0.662478 -3.055812,-0.91264 -48.046586,0.07663 z"
       id="path9354"
       sodipodi:nodetypes="ccccccccccccccccc" />
    <path
       style="fill:none;stroke:#000000;stroke-width:4;stroke-linecap:round;stroke-linejoin:miter;stroke-miterlimit:4;stroke-dasharray:none;stroke-opacity:0.3"
       d="m 31.689673,80.150274 32.24666,-7.250088"
       id="path11066" />
    <path
       style="fill:#000000;stroke:#000000;stroke-width:0;stroke-linecap:butt;stroke-linejoin:miter;stroke-opacity:1;stroke-miterlimit:4;stroke-dasharray:none;fill-opacity:0.30000001"
       d="m 17.607441,92.683615 h 5.869148 l 18.096538,-6.358242 9.659635,-3.056848 11.86057,-3.668217 36.926718,-7.947803 -0.1168,3.220045 -1.961857,2.28228 -31.693511,5.912953 -36.535325,12.061309 -6.3898,2.257486 -6.252749,-0.03126 z"
       id="path11334" />
    <path
       style="fill:#3e3e3e;stroke:#000000;stroke-width:3;stroke-linecap:butt;stroke-linejoin:round;stroke-opacity:1;stroke-miterlimit:4;stroke-dasharray:none;fill-opacity:1"
       d="m 99.464113,60.161518 9.415027,-10.225328 1.14009,-0.912077 1.36812,-0.570047 74.33424,-0.228018 1.71014,10.374871 z"
       id="path11586" />
    <path
       style="fill:#353535;fill-opacity:1;stroke:#000000;stroke-width:3;stroke-linecap:butt;stroke-linejoin:round;stroke-miterlimit:4;stroke-dasharray:none;stroke-opacity:1"
       d="m 122.04036,66.409351 27.71488,-6.028752 0.40187,-0.27351 0.34326,-0.446238 0.0343,-0.308933 -0.50229,-2.00938 -0.30894,-0.411912 -0.48056,-0.137305 -0.58354,-0.03433 -19.01001,3.39959 h -0.89248 l -7.20846,0.03433 -0.85815,0.137303 -0.9268,0.480565 -0.51489,0.549217 -0.41191,0.858149 -0.13731,0.68652 -0.0343,0.68652 0.17163,0.686519 0.48056,0.995456 0.44624,0.549216 0.58354,0.446236 0.68652,0.274608 0.54922,0.06865 z"
       id="path12761"
       sodipodi:nodetypes="ccccccccccccccccccccccccc" />
    <path
       style="fill:#676767;fill-opacity:1;stroke:#000000;stroke-width:3;stroke-linecap:butt;stroke-linejoin:miter;stroke-miterlimit:4;stroke-dasharray:none;stroke-opacity:1"
       d="m 154.58216,59.095303 2.82195,-6.770031 28.81576,-0.409813 1.21186,6.68546 z"
       id="path14080"
       sodipodi:nodetypes="ccccc" />
    <path
       style="fill:#000000;stroke:#000000;stroke-width:0;stroke-linecap:butt;stroke-linejoin:miter;stroke-opacity:1;stroke-miterlimit:4;stroke-dasharray:none;fill-opacity:0.2"
       d="m 156.37107,54.083849 -51.59914,0.414118 6.61542,-6.043901 74.33424,-0.228018 0.49828,3.689411 -28.81576,0.409813 z"
       id="path16108" />
    <path
       style="fill:#000000;fill-opacity:0.2;stroke:#000000;stroke-width:0;stroke-linecap:butt;stroke-linejoin:miter;stroke-miterlimit:4;stroke-dasharray:none;stroke-opacity:1"
       d="m 156.50316,52.39313 -50.22543,0.229196 5.10962,-4.16826 74.33424,-0.228018 0.49828,3.689411 -28.81576,0.409813 z"
       id="path16108-3"
       sodipodi:nodetypes="ccccccc" />
    <rect
       style="fill:#000000;fill-opacity:0.30000001;fill-rule:evenodd;stroke:#000000;stroke-width:0;stroke-linecap:round;stroke-linejoin:miter;stroke-miterlimit:4;stroke-dasharray:none;stroke-opacity:1;paint-order:markers fill stroke"
       id="rect16519"
       width="6.755785"
       height="15.06832"
       x="99.464111"
       y="60.161514" />
    <rect
       style="fill:#000000;fill-opacity:0.3;fill-rule:evenodd;stroke:#000000;stroke-width:0;stroke-linecap:round;stroke-linejoin:miter;stroke-miterlimit:4;stroke-dasharray:none;stroke-opacity:1;paint-order:markers fill stroke"
       id="rect16519-9"
       width="6.755785"
       height="13.124169"
       x="187.43173"
       y="58.600918" />
    <path
       style="fill:#373737;stroke:#000000;stroke-width:3;stroke-linecap:butt;stroke-linejoin:round;stroke-opacity:1;stroke-miterlimit:4;stroke-dasharray:none;fill-opacity:1"
       d="m 193.65861,71.139898 1.62972,2.113897 0.71656,0.551193 0.71655,0.330719 0.93703,0.05512 1.10239,-0.05512 0.93703,-0.220478 1.37799,-0.661434 2.53549,-1.267749 2.20478,-0.716552 1.98431,-0.330719 40.75177,-1.902645 1.55138,-3.435183 -0.44325,-9.751494 -55.18458,0.443251 -0.81717,2.331842 z"
       id="path17173" />
    <path
       style="fill:#000000;stroke:#000000;stroke-width:0;stroke-linecap:butt;stroke-linejoin:miter;stroke-opacity:1;stroke-miterlimit:4;stroke-dasharray:none;fill-opacity:0.1"
       d="m 218.55982,69.689177 c -6.6446,-8.859464 0.63282,-8.701259 0.63282,-8.701259 l 30.61261,-0.553715 0.29836,5.166744 -1.55138,3.435183 z"
       id="path17959" />
    <path
       style="fill:#000000;fill-opacity:0.2;stroke:#000000;stroke-width:0;stroke-linecap:butt;stroke-linejoin:miter;stroke-miterlimit:4;stroke-dasharray:none;stroke-opacity:1"
       d="M 216.75725,69.798849 C 209.7133,59.451538 217.4281,59.636312 217.4281,59.636312 l 32.45246,-0.646705 0.31629,6.03444 -1.64462,4.012083 z"
       id="path17959-6" />
    <path
       style="fill:#000000;stroke:#000000;stroke-width:0;stroke-linecap:butt;stroke-linejoin:miter;stroke-opacity:1;stroke-miterlimit:4;stroke-dasharray:none;fill-opacity:0.30000001"
       d="m 197.65847,74.190827 0.16895,-17.716873 -3.35164,-0.18125 -0.81717,2.331842 v 12.515352 z"
       id="path18278" />
    <path
       sodipodi:type="spiral"
       style="fill:none;fill-rule:evenodd;stroke:#000000;stroke-width:3.77952761;stroke-miterlimit:4;stroke-dasharray:none;stroke-opacity:0"
       id="path18642"
       sodipodi:cx="847.5816"
       sodipodi:cy="239.27303"
       sodipodi:expansion="1"
       sodipodi:revolution="3"
       sodipodi:radius="36.40942"
       sodipodi:argument="-18.247269"
       sodipodi:t0="0"
       d="m 847.5816,239.27303 c 1.5043,1.0342 -0.65192,2.538 -1.71891,2.50024 -2.89149,-0.10233 -3.99674,-3.57703 -3.28157,-5.93807 1.27927,-4.22336 6.37111,-5.63331 10.15723,-4.0629 5.55629,2.30464 7.30946,9.19987 4.84422,14.37639 -3.28578,6.89948 -12.04052,9.00195 -18.59554,5.62554 -8.24883,-4.24887 -10.70279,-14.88673 -6.40687,-22.8147 5.20294,-9.60183 17.73605,-12.40843 27.03385,-7.18819 10.95713,6.15187 14.1171,20.58732 7.96952,31.25301 -7.09762,12.31396 -23.43988,15.82777 -35.47216,8.75084 -13.67185,-8.04125 -17.53986,-26.29334 -9.53217,-39.69132 8.98341,-15.0305 29.14747,-19.25296 43.91047,-10.31349 16.38973,9.9245 20.96684,32.00211 11.09482,48.12963"
       transform="scale(0.26458333)" />
    <path
       style="fill:#252525;stroke:#000000;stroke-width:3;stroke-linecap:butt;stroke-linejoin:round;stroke-opacity:1;stroke-miterlimit:4;stroke-dasharray:none;fill-opacity:1"
       d="m 185.72159,48.226048 10.65122,-1.588746 2.48071,-3.175307 2.18302,0.09923 0.49614,-0.694597 1.3892,-0.09923 1.28996,1.389194 3.57222,-0.595368 0.6946,0.09923 0.6946,0.595371 0.19845,0.992282 0.0992,10.815887 -14.99516,0.228713 -0.28827,2.308212 -6.75578,3e-6 z"
       id="path18798" />
    <path
       style="fill:#000000;stroke:#000000;stroke-width:0;stroke-linecap:butt;stroke-linejoin:miter;stroke-opacity:1;stroke-miterlimit:4;stroke-dasharray:none;fill-opacity:0.30000001"
       d="m 186.21987,51.915459 11.4429,-1.705938 0.6946,-0.297686 2.18303,-2.480706 h 1.58765 l 0.39691,-0.396915 0.79383,0.694597 0.79382,0.297686 4.86219,-0.694598 0.19846,-3.076075 -4.96142,-0.09923 -1.28996,-1.389194 -4.06836,0.694597 -2.48071,3.175307 -10.65122,1.588746 z"
       id="path19328" />
    <path
       style="fill:#272727;fill-opacity:1;stroke:#000000;stroke-width:3;stroke-linecap:butt;stroke-linejoin:round;stroke-miterlimit:4;stroke-dasharray:none;stroke-opacity:1"
       d="m 18.039183,61.652117 -4.875937,0.848927 v 16.575939 l -0.193762,5.011489 -0.875053,11.464449 4.975577,1.802396 1.023583,-14.000014 0.06239,-2.246101 z"
       id="path19715"
       sodipodi:nodetypes="ccccccccc" />
    <path
       style="fill:#373737;fill-opacity:1;stroke:#000000;stroke-width:3;stroke-linecap:butt;stroke-linejoin:round;stroke-miterlimit:4;stroke-dasharray:none;stroke-opacity:1"
       d="m 249.66036,55.849453 3.5792,-0.18502 -0.0917,-5.682539 -0.0611,-0.794334 -0.39717,-1.802524 -0.33606,-0.611027 -0.42772,-0.427717 -0.45827,-0.122206 -2.78017,0.0611 v 0 0 l -34.40073,-0.519372 v 0 0 0 l -5.04097,0.09165 0.2252,10.206521 z"
       id="path20470"
       sodipodi:nodetypes="cccccccccccccccccc" />
    <path
       style="fill:#000000;stroke:#000000;stroke-width:0;stroke-linecap:butt;stroke-linejoin:miter;stroke-opacity:1;stroke-miterlimit:4;stroke-dasharray:none;fill-opacity:0.30000001"
       d="m 249.66036,55.849453 -0.68544,-6.129943 -39.15293,-0.377378 -0.57632,-3.484668 42.68014,0.488828 1.31375,9.318141 z"
       id="path20742" />
    <rect
       style="fill:#373737;fill-opacity:1;fill-rule:evenodd;stroke:#000000;stroke-width:3;stroke-linecap:round;stroke-linejoin:round;stroke-miterlimit:4;stroke-dasharray:none;stroke-opacity:1;paint-order:markers fill stroke"
       id="rect22053"
       width="28.125999"
       height="5.416224"
       x="253.42664"
       y="48.621136" />
    <path
       style="fill:#4e4e4e;stroke:#000000;stroke-width:3;stroke-linecap:butt;stroke-linejoin:round;stroke-opacity:1;stroke-miterlimit:4;stroke-dasharray:none;fill-opacity:1"
       d="m 281.55265,48.621134 1.99887,-7.178987 h 3.76063 l 0.37608,23.767182 -11.73319,-0.225636 V 54.077864 l 5.59761,-0.0405 z"
       id="path22190" />
    <path
       style="fill:#4e4e4e;stroke:#000000;stroke-width:3;stroke-linecap:butt;stroke-linejoin:round;stroke-opacity:1;stroke-miterlimit:4;stroke-dasharray:none;fill-opacity:1"
       d="m 249.34543,68.057511 5.77706,-0.111813 0.96906,-3.279881 0.17095,-10.488888 -2.83587,-0.139567 -0.18707,1.627071 -3.5792,0.18502 0.53649,9.174594 -0.0932,0.5769 z"
       id="path22324" />
    <rect
       style="fill:#4e4e4e;fill-opacity:1;fill-rule:evenodd;stroke:#000000;stroke-width:3;stroke-linecap:round;stroke-linejoin:round;stroke-miterlimit:4;stroke-dasharray:none;stroke-opacity:1;paint-order:markers fill stroke"
       id="rect22589"
       width="19.531042"
       height="4.2426987"
       x="256.3175"
       y="58.885731" />
    <path
       style="fill:#373737;stroke:#000000;stroke-width:3;stroke-linecap:butt;stroke-linejoin:round;stroke-miterlimit:4;stroke-dasharray:none;stroke-opacity:1;fill-opacity:1"
       d="m 287.83192,56.296676 h 16.33818 l 0.93361,0.186721 0.65352,0.933609 0.65352,1.587138 0.0934,2.987551 -0.74689,1.86722 -0.65352,0.746887 -0.84024,0.466805 -16.57523,0.136722 z"
       id="path22806"
       sodipodi:nodetypes="ccccccccccc" />
    <path
       style="fill:#606060;stroke:#000000;stroke-width:3;stroke-linecap:butt;stroke-linejoin:round;stroke-opacity:1;stroke-miterlimit:4;stroke-dasharray:none;fill-opacity:1"
       d="m 305.75726,63.858914 7.93565,2.427386 1.12035,-1.587135 0.65352,-1.400416 0.18119,-1.444905 0.0502,-1.757926 -0.12554,-1.130094 -0.50229,-1.180322 -1.00451,-1.004528 -7.65509,2.22317 0.0934,2.98755 z"
       id="path23067" />
    <rect
       style="fill:#000000;fill-opacity:0.30000001;fill-rule:evenodd;stroke:#000000;stroke-width:0;stroke-linecap:round;stroke-linejoin:round;stroke-miterlimit:4;stroke-dasharray:none;stroke-opacity:1;paint-order:markers fill stroke"
       id="rect23322"
       width="11.965552"
       height="5.4009933"
       x="275.95505"
       y="59.582699" />
    <rect
       style="fill:#000000;fill-opacity:0.3;fill-rule:evenodd;stroke:#000000;stroke-width:0;stroke-linecap:round;stroke-linejoin:round;stroke-miterlimit:4;stroke-dasharray:none;stroke-opacity:1;paint-order:markers fill stroke"
       id="rect23390"
       width="17.281836"
       height="2.68489"
       x="288.4754"
       y="61.174023" />
    <path
       style="fill:none;stroke:#000000;stroke-width:3;stroke-linecap:round;stroke-linejoin:miter;stroke-miterlimit:4;stroke-dasharray:none;stroke-opacity:1"
       d="M 286.84368,67 H 255.90496"
       id="path23635"
       sodipodi:nodetypes="cc" />
    <path
       style="fill:#000000;fill-opacity:0.3;stroke:#000000;stroke-width:0;stroke-linecap:butt;stroke-linejoin:miter;stroke-miterlimit:4;stroke-dasharray:none;stroke-opacity:1"
       d="m 306.83108,63.642624 0.64134,-1.906055 9.02168,0.803956 -1.60407,3.082047 z"
       id="path24041" />
  </g>
</svg>
