<?xml version="1.0" encoding="UTF-8" standalone="no"?>
<!-- Created with Inkscape (http://www.inkscape.org/) -->

<svg
   width="80mm"
   height="330mm"
   viewBox="0 0 80 330"
   version="1.1"
   id="svg5"
   inkscape:version="1.1.1 (c3084ef, 2021-09-22)"
   sodipodi:docname="556mm_full.svg"
   xmlns:inkscape="http://www.inkscape.org/namespaces/inkscape"
   xmlns:sodipodi="http://sodipodi.sourceforge.net/DTD/sodipodi-0.dtd"
   xmlns="http://www.w3.org/2000/svg"
   xmlns:svg="http://www.w3.org/2000/svg">
  <sodipodi:namedview
     id="namedview7"
     pagecolor="#ffffff"
     bordercolor="#666666"
     borderopacity="1.0"
     inkscape:pageshadow="2"
     inkscape:pageopacity="0.0"
     inkscape:pagecheckerboard="0"
     inkscape:document-units="mm"
     showgrid="false"
     height="310mm"
     inkscape:zoom="0.29934254"
     inkscape:cx="-247.20843"
     inkscape:cy="633.05402"
     inkscape:window-width="1312"
     inkscape:window-height="731"
     inkscape:window-x="0"
     inkscape:window-y="25"
     inkscape:window-maximized="0"
     inkscape:current-layer="layer1" />
  <defs
     id="defs2" />
  <g
     inkscape:label="Layer 1"
     inkscape:groupmode="layer"
     id="layer1">
    <path
       style="fill:#585858;fill-opacity:1;stroke:#000000;stroke-width:9.50928;stroke-linecap:butt;stroke-linejoin:round;stroke-miterlimit:4;stroke-dasharray:none;stroke-opacity:1"
       d="m 21.816178,90.865827 34.239036,-0.100384 1.921002,-1.907348 0.225995,-1.606182 0.112997,-4.015457 -0.338992,-5.922801 -0.565006,-6.023189 -1.242999,-8.532848 -2.373001,-11.94599 -1.808006,-7.62937 -2.373001,-8.131303 -2.373001,-7.528985 -2.712003,-7.830144 -2.260004,-5.420868 v 0 L 39.018736,7.3346908 v 0 L 37.372415,7.3069078 H 36.35541 l -1.016994,0.5019318 -1.366811,2.0985148 -3.970738,10.2586206 -3.955003,16.162221 -2.486004,13.652559 -2.147001,15.459514 -1.743685,17.796187 -0.225999,6.22396 0.225999,0.602322 z"
       id="path869"
       sodipodi:nodetypes="ccccccccccccccccccccccccccccc" />
    <path
       style="fill:none;stroke:#000000;stroke-width:7.60743;stroke-linecap:round;stroke-linejoin:miter;stroke-miterlimit:4;stroke-dasharray:none;stroke-opacity:0.3"
       d="m 27.207626,86.694241 0.860972,-11.9319 1.377554,-12.543794 2.410726,-15.603253 5.510206,-25.852452 2.755114,-10.708115"
       id="path1848" />
    <path
       style="fill:none;stroke:#ffffff;stroke-width:9.50928;stroke-linecap:round;stroke-linejoin:miter;stroke-miterlimit:4;stroke-dasharray:none;stroke-opacity:0.2"
       d="m 41.479011,49.485226 2.263657,30.974325"
       id="path1986"
       inkscape:transform-center-x="5.870785"
       inkscape:transform-center-y="0.65193212" />
    <path
       style="fill:#185716;fill-opacity:1;stroke:#000000;stroke-width:9.50928;stroke-linecap:butt;stroke-linejoin:round;stroke-miterlimit:4;stroke-dasharray:none;stroke-opacity:1"
       d="m 21.816178,90.865827 -2.482482,3.769145 0.09772,26.219048 -6.059062,13.19635 -0.488634,137.08569 5.570427,5.72999 v 4.08045 H 12.88372 l 0.09772,3.55953 2.736352,3.29909 50.817937,-0.34727 1.954538,-2.77819 -0.09776,-3.81997 -6.840879,-0.0869 v -3.90683 l 5.472695,-5.81092 -1.852064,-136.64907 -6.259257,-13.81248 0.09776,-26.56633 -2.955562,-3.261803 z"
       id="path2266"
       sodipodi:nodetypes="ccccccccccccccccccccc" />
    <path
       style="fill:none;stroke:#000000;stroke-width:9.50928;stroke-linecap:butt;stroke-linejoin:miter;stroke-miterlimit:4;stroke-dasharray:none;stroke-opacity:1"
       d="m 12.88372,271.13606 54.140604,-0.081"
       id="path3164" />
    <path
       style="fill:none;stroke:#000000;stroke-width:9.50928;stroke-linecap:butt;stroke-linejoin:miter;stroke-miterlimit:4;stroke-dasharray:none;stroke-opacity:1"
       d="m 19.431417,120.85402 39.481586,-0.26048"
       id="path3232" />
    <path
       style="fill:none;stroke:#000000;stroke-width:9.50928;stroke-linecap:butt;stroke-linejoin:miter;stroke-miterlimit:4;stroke-dasharray:none;stroke-opacity:1"
       d="m 13.372355,134.05037 51.799905,0.35565"
       id="path3321" />
    <path
       style="fill:#000000;fill-opacity:0.3;stroke:#000000;stroke-width:0;stroke-linecap:butt;stroke-linejoin:miter;stroke-miterlimit:4;stroke-dasharray:none;stroke-opacity:1"
       d="m 15.717796,287.80512 19.18592,0.12289 -0.59711,-17.24 -5.075476,-1.06093 1.49279,-134.47208 5.971144,-15.38339 V 89.800511 l -17.02589,0.262226 -0.237757,30.791283 -6.059062,13.19635 -0.488635,137.08569 5.570428,9.81044 z"
       id="path3549" />
    <path
       style="fill:none;stroke:#ffffff;stroke-width:9.51546;stroke-linecap:round;stroke-linejoin:miter;stroke-miterlimit:4;stroke-dasharray:none;stroke-opacity:0.2"
       d="m 50.624125,150.06301 0.06578,107.15746"
       id="path3796" />
  </g>
</svg>
