<?xml version="1.0" encoding="UTF-8" standalone="no"?>
<!-- Created with Inkscape (http://www.inkscape.org/) -->

<svg
   width="80mm"
   height="330mm"
   viewBox="0 0 80 330"
   version="1.1"
   id="svg5"
   inkscape:version="1.1.1 (c3084ef, 2021-09-22)"
   sodipodi:docname="9mm_full.svg"
   xmlns:inkscape="http://www.inkscape.org/namespaces/inkscape"
   xmlns:sodipodi="http://sodipodi.sourceforge.net/DTD/sodipodi-0.dtd"
   xmlns="http://www.w3.org/2000/svg"
   xmlns:svg="http://www.w3.org/2000/svg">
  <sodipodi:namedview
     id="namedview7"
     pagecolor="#ffffff"
     bordercolor="#666666"
     borderopacity="1.0"
     inkscape:pageshadow="2"
     inkscape:pageopacity="0.0"
     inkscape:pagecheckerboard="0"
     inkscape:document-units="mm"
     showgrid="false"
     height="310mm"
     inkscape:zoom="0.29934254"
     inkscape:cx="101.88996"
     inkscape:cy="445.97737"
     inkscape:window-width="1312"
     inkscape:window-height="731"
     inkscape:window-x="0"
     inkscape:window-y="25"
     inkscape:window-maximized="0"
     inkscape:current-layer="layer1" />
  <defs
     id="defs2" />
  <g
     inkscape:label="Layer 1"
     inkscape:groupmode="layer"
     id="layer1">
    <path
       style="fill:#585858;fill-opacity:1;stroke:#000000;stroke-width:14.3394;stroke-linecap:butt;stroke-linejoin:round;stroke-miterlimit:4;stroke-dasharray:none;stroke-opacity:1"
       d="m 12.049963,149.94013 56.542485,-0.13822 3.17235,-2.62628 0.373209,-2.21159 0.186604,-5.52899 -0.559813,-8.15526 -0.933053,-8.29348 -2.052694,-11.74909 -3.918783,-16.44875 -2.985749,-10.505079 -3.918784,-11.1962 -3.918783,-10.366854 -4.478613,-10.781529 -3.73218,-7.464133 v 0 L 40.458338,34.92395 v 0 L 37.739596,34.8857 h -1.679485 l -1.679469,0.691122 -2.257158,2.889499 -6.557293,14.12536 -6.531308,22.254181 -4.105397,18.798562 -3.545566,21.286616 -2.8795284,24.50401 -0.3732156,8.56993 0.3732156,0.82935 z"
       id="path869"
       sodipodi:nodetypes="ccccccccccccccccccccccccccccc" />
    <path
       style="fill:none;stroke:#000000;stroke-width:11.4715;stroke-linecap:round;stroke-linejoin:miter;stroke-miterlimit:4;stroke-dasharray:none;stroke-opacity:0.3"
       d="m 20.953422,144.19616 1.421813,-16.42934 2.274898,-17.27186 3.981083,-21.484533 9.099577,-35.596909 4.549806,-14.744279"
       id="path1848" />
    <path
       style="fill:none;stroke:#ffffff;stroke-width:14.3394;stroke-linecap:round;stroke-linejoin:miter;stroke-miterlimit:4;stroke-dasharray:none;stroke-opacity:0.2"
       d="m 44.521246,92.962112 3.738213,42.649348"
       id="path1986"
       inkscape:transform-center-x="9.6950381"
       inkscape:transform-center-y="0.89766189" />
  </g>
</svg>
