<?xml version="1.0" encoding="UTF-8" standalone="no"?>
<!-- Created with Inkscape (http://www.inkscape.org/) -->

<svg
   width="1250"
   height="600"
   viewBox="0 0 330.72916 158.75"
   version="1.1"
   id="svg5"
   inkscape:version="1.1.1 (c3084ef, 2021-09-22)"
   sodipodi:docname="AUG_loot.svg"
   xmlns:inkscape="http://www.inkscape.org/namespaces/inkscape"
   xmlns:sodipodi="http://sodipodi.sourceforge.net/DTD/sodipodi-0.dtd"
   xmlns="http://www.w3.org/2000/svg"
   xmlns:svg="http://www.w3.org/2000/svg">
  <sodipodi:namedview
     id="namedview7"
     pagecolor="#ffffff"
     bordercolor="#666666"
     borderopacity="1.0"
     inkscape:pageshadow="2"
     inkscape:pageopacity="0.0"
     inkscape:pagecheckerboard="0"
     inkscape:document-units="mm"
     showgrid="false"
     units="px"
     inkscape:zoom="0.73979063"
     inkscape:cx="523.12098"
     inkscape:cy="402.81667"
     inkscape:window-width="1312"
     inkscape:window-height="726"
     inkscape:window-x="0"
     inkscape:window-y="25"
     inkscape:window-maximized="0"
     inkscape:current-layer="layer1" />
  <defs
     id="defs2" />
  <g
     inkscape:label="Layer 1"
     inkscape:groupmode="layer"
     id="layer1">
    <path
       style="fill:#5f6c40;stroke:#000000;stroke-width:0;stroke-linecap:butt;stroke-linejoin:round;stroke-opacity:1;stroke-miterlimit:4;stroke-dasharray:none;fill-opacity:1"
       d="m 39.763824,113.53305 20.137464,-0.0341 0.647398,-0.10222 0.749617,-0.27259 2.044415,-1.46516 0.170367,-0.44296 v -0.91998 l -0.204443,-0.74962 -0.272587,-0.81776 -0.545177,-0.68148 -0.647398,-0.98813 -0.340736,-0.61332 -0.204441,-0.74962 0.03407,-1.0222 0.170368,-0.54518 0.374809,-0.34074 11.550933,-8.825044 0.30666,-0.204441 3.475503,-1.635533 0.340736,-0.30666 0.442955,-0.817766 0.238516,-0.340736 0.272587,-0.170368 10.460577,-3.850309 0.374809,-0.06815 0.306663,0.06815 0.647398,0.340736 0.613323,0.477028 0.306662,0.374811 0.10222,0.238514 v 0.204441 l 0.102221,0.170368 0.204441,0.06815 28.315116,-4.497708 0.51111,-0.204441 1.87404,-1.124426 0.37481,-0.340735 0.40888,-0.545177 0.34074,-0.57925 0.23851,-0.511103 0.10222,-0.749618 0.1363,-0.306662 0.37481,-0.340736 2.41922,-1.022207 2.86217,-0.919986 2.93033,-0.919985 3.23699,-0.715544 3.27106,-0.545177 3.44142,-0.511104 3.03255,-0.20444 2.58959,0.102221 2.45329,0.511104 1.66961,0.88591 0.68147,0.851839 0.5111,0.715544 0.5111,1.022207 0.20445,1.226648 -0.10223,1.601457 -0.5111,1.36294 -0.91999,1.090354 -1.77182,2.078487 -1.0222,1.328867 -1.26073,1.703678 -1.09035,1.908117 -2.06307,4.413086 -0.71538,2.296753 -0.97894,4.179336 -0.22591,1.99553 -0.33887,3.2757 -0.0753,3.31335 0.0377,0.82834 0.18826,0.71538 0.45182,0.71538 0.56477,0.37652 0.67773,0.26356 0.79069,0.15061 23.68291,-0.48948 0.86599,-0.11295 2.14614,-0.45182 2.14615,-0.82834 1.76963,-1.01659 1.58137,-1.0919 21.95093,-25.452536 1.80728,-2.070843 2.14615,-2.146147 2.78622,-2.485009 2.59797,-1.957887 4.48055,-1.957888 -21.72502,0.112953 2.37206,0.67773 0.37651,0.188259 0.52712,0.451821 0.56478,0.790684 0.37652,0.715383 0.33886,0.941292 0.30121,1.129551 0.15061,0.941293 -0.0376,0.753033 -0.22591,0.903639 -0.56478,1.054248 -20.106,23.419344 -0.64007,0.52712 -0.90364,0.52713 -1.12955,0.71538 -1.12955,0.52712 -1.20486,0.41417 -1.0919,0.30122 -1.20485,0.2259 -3.99108,0.11296 -1.01659,-0.15061 -1.28016,-0.37651 -1.12955,-0.64008 -0.97895,-1.05425 -0.33886,-1.01659 -0.0376,-1.16721 0.26356,-1.0919 0.56477,-1.28015 8.35868,-16.039616 0.48947,-0.527124 0.67773,-0.527124 0.64008,-0.188259 2.44736,-0.0753 0.67773,-0.112956 0.45182,-0.338865 0.33886,-0.602427 0.0753,-0.71538 -0.33887,-0.564777 -0.30121,-1.694326 -0.0753,-1.543719 0.33886,-1.656673 0.64008,-1.204854 1.01659,-1.468416 0.86599,-0.640078 0.82834,-0.301215 35.6938,-0.414168 1.84493,-0.527124 1.99554,-0.527124 7.22912,-0.301212 0.64008,-4.48055 -48.45772,0.338866 -0.64008,-0.03765 -0.64007,-0.188259 -1.0166,-0.564775 -0.79068,-0.865989 -1.24251,-1.995537 -0.26356,-0.978946 -0.0753,-11.446113 -0.0753,-0.564774 -0.33887,-0.602427 -0.71538,-0.564774 -0.64008,-0.0753 -0.60242,0.0753 -0.9413,0.263562 -0.45181,0.338865 -0.52713,0.451818 -0.33886,0.301215 -0.67773,0.338865 -0.67773,0.188259 -132.420981,0.90364 -2.108493,0.188259 -0.903642,0.263562 -1.393111,0.67773 -2.560315,1.807281 -1.280157,1.393111 -0.677731,2.221449 -0.150606,0.790687 v 1.129551 z"
       id="path869" />
    <path
       style="fill:none;stroke:#000000;stroke-width:3;stroke-linecap:butt;stroke-linejoin:miter;stroke-opacity:1;stroke-miterlimit:4;stroke-dasharray:none"
       d="m 164.76387,109.75464 3.99108,-0.11296 1.20485,-0.2259 2.29676,-0.71539 1.12955,-0.52712 2.03319,-1.24251 0.64007,-0.52712 20.106,-23.419346 0.56478,-1.054248 0.26351,-1.65667 -0.15061,-0.941295 -0.30121,-1.129551 -0.33886,-0.94129 -0.37652,-0.715383 -0.56478,-0.790686 -0.52712,-0.451821 -0.37651,-0.188259 -2.37206,-0.67773 -14.04399,0.33887 -0.82834,0.301215 -0.86599,0.640077 -1.01659,1.468417 -0.64008,1.204854 -0.33886,1.656673 0.0753,1.543719 0.30121,1.694326 0.33887,0.564776 -0.0753,0.715381 -0.33886,0.602427 -0.45182,0.338865 -0.67773,0.112956 -2.44736,0.0753 -0.64008,0.188259 -0.67773,0.527124 -0.48947,0.527124 -8.92345,17.319766 -0.26356,1.0919 0.0376,1.16721 0.33886,1.01659 0.97895,1.05425 1.12955,0.64008 1.28016,0.37651 z"
       id="path3631" />
    <path
       style="fill:none;stroke:#000000;stroke-width:3;stroke-linecap:butt;stroke-linejoin:round;stroke-opacity:1;stroke-miterlimit:4;stroke-dasharray:none"
       d="m 225.34547,68.526053 -0.64008,4.48055 -7.22912,0.301212 -3.84047,1.054248 -4.40534,1.920235 -2.59797,1.957887 -4.93237,4.631156 -23.75821,27.523379 -1.58137,1.0919 -1.76963,1.01659 -2.14615,0.82834 -3.01213,0.56477 -23.68291,0.48948 -0.79069,-0.15061 -0.67773,-0.26356 -0.56477,-0.37652 -0.45182,-0.71538 -0.18826,-0.71538 0.0376,-4.14169 0.56478,-5.27123 0.97894,-4.179336 0.71538,-2.296755 2.06307,-4.413086 1.09035,-1.908117 4.97474,-6.201386 0.5111,-1.362938 0.10223,-1.601459 -0.20445,-1.226648 -0.5111,-1.022207 -1.19257,-1.567381 -1.66961,-0.88591 -2.45329,-0.511106 -2.58959,-0.102219 -3.03255,0.204438 -6.73719,1.055635 -3.21228,0.716192 -5.7925,1.839971 -2.41922,1.022207 -0.37481,0.340736 -0.1363,0.30666 -0.10222,0.74962 -0.23851,0.511101 -0.34074,0.579252 -0.40888,0.545177 -0.37481,0.340733 -1.87404,1.124426 -0.51111,0.204441 -28.315118,4.49771 -0.204441,-0.06815 -0.102219,-0.170368 v -0.204441 l -0.102222,-0.238514 -0.919985,-0.851839 -0.647396,-0.340736 -0.306665,-0.06815 -0.374809,0.06815 -10.460577,3.850309 -0.272587,0.170368 -0.238514,0.340736 -0.442955,0.817766 -0.340738,0.30666 -3.475501,1.635533 -0.30666,0.20444 -11.550933,8.825045 -0.374811,0.34074 -0.170368,0.54518 -0.03407,1.0222 0.204441,0.74962 0.340736,0.61332 0.647398,0.98813 0.545177,0.68148 0.47703,1.56738 v 0.91998 l -0.170367,0.44296 -2.044415,1.46516 -0.749617,0.27259 -0.647398,0.10222 -20.137464,0.0341 -15.02652,-51.219521 v -1.129551 l 0.828337,-3.012136 3.84047,-3.200392 1.393114,-0.67773 0.903642,-0.263562 2.108491,-0.188259 132.420984,-0.903639 0.67773,-0.188259 0.67773,-0.338865 0.86599,-0.753034 0.45181,-0.338865 0.9413,-0.263562 0.60242,-0.0753 0.64008,0.0753 0.71538,0.564774 0.33887,0.602428 0.0753,0.564774 0.0753,11.446113 0.26356,0.978945 1.24251,1.995538 0.79068,0.865989 1.0166,0.564774 0.64007,0.188259 z"
       id="path3635" />
    <path
       style="fill:#4a4a4a;stroke:#000000;stroke-width:3;stroke-linecap:butt;stroke-linejoin:round;stroke-opacity:1;stroke-miterlimit:4;stroke-dasharray:none;fill-opacity:1"
       d="m 39.763824,113.53305 -7.358367,-0.11394 -14.189966,-50.721592 6.521813,-0.38399 z"
       id="path4995" />
    <path
       style="fill:#000000;stroke:#000000;stroke-width:0;stroke-linecap:butt;stroke-linejoin:miter;stroke-opacity:1;stroke-miterlimit:4;stroke-dasharray:none;fill-opacity:0.25"
       d="m 39.763824,113.53305 20.137461,-0.0341 3.6118,-2.28293 -1.022207,-3.16884 -1.158507,-3.37327 12.402772,-9.915406 4.259194,-2.759959 11.653152,-4.361413 1.976263,1.874049 30.700268,-5.826577 1.97627,-3.373279 14.47012,-4.657339 11.7665,0.432221 3.57773,4.702146 -5.58807,9.165783 -4.84774,12.797294 -0.41412,10.1283 2.48501,1.50607 2.5827,-0.95513 -0.1229,-4.85429 0.24579,-3.56391 1.35183,-5.100079 2.82655,-5.653101 2.82655,-4.608504 3.87114,-4.854292 0.55302,-1.720509 0.0615,-3.809698 -2.08919,-5.345866 -2.7651,-1.966294 -3.87115,-1.228936 -5.03863,-0.553019 -7.4965,0.307231 -3.44102,0.553022 -15.42313,4.792845 -1.47472,1.351827 -0.98315,1.966296 -0.7988,0.98315 -21.567808,4.055483 -1.904849,-1.966296 -0.614468,-0.368679 h -1.290381 l -1.966296,0.491572 -12.289345,4.239826 -1.290384,0.73736 -1.781955,1.720509 -3.441015,1.536168 -11.244754,9.278458 -2.396422,2.027746 -0.921702,2.21208 0.122894,1.53617 0.983149,2.15063 0.430125,0.98315 -18.679805,0.49157 z"
       id="path5176" />
    <path
       style="fill:#000000;fill-opacity:0.25;stroke:#000000;stroke-width:0;stroke-linecap:butt;stroke-linejoin:miter;stroke-miterlimit:4;stroke-dasharray:none;stroke-opacity:1"
       d="m 82.351739,53.492672 -0.549777,3.992385 -1.498525,11.484557 0.106402,0.940974 0.952963,0.75368 38.298958,-0.0899 0.71923,-0.269711 0.62932,-0.269711 0.53942,-0.629327 0.35962,-0.809133 1.16874,-14.8341 z"
       id="path5934"
       sodipodi:nodetypes="cccccccccccc" />
    <path
       style="fill:#997b2b;stroke:#000000;stroke-width:3;stroke-linecap:butt;stroke-linejoin:round;stroke-opacity:1;stroke-miterlimit:4;stroke-dasharray:none;fill-opacity:1"
       d="m 93.321525,89.907863 0.620665,4.211661 1.329999,5.807657 1.285664,5.896329 2.881661,8.91098 3.280666,9.75332 1.41866,4.34466 0.48767,0.532 0.48766,0.266 h 0.48767 l 25.13696,-7.22632 0.62067,-0.35467 0.35466,-0.532 0.266,-0.665 v -0.57633 l -1.01966,-3.23633 -0.266,-0.35466 -0.44334,-0.133 h -0.57633 l -1.197,0.26599 -4.03432,-11.88131 -2.30533,-8.68932 -1.77333,-7.891322 -0.42595,-3.342727 -26.706012,4.18506 z"
       id="path6246" />
    <path
       style="fill:#000000;stroke:#000000;stroke-width:0;stroke-linecap:butt;stroke-linejoin:miter;stroke-opacity:1;stroke-miterlimit:4;stroke-dasharray:none;fill-opacity:0.40000001"
       d="m 128.4778,116.81815 -25.48124,7.52361 1.62995,5.02271 26.73296,-7.31499 -0.399,-5.00966 z"
       id="path6446" />
    <path
       style="fill:#727962;stroke:#000000;stroke-width:3;stroke-linecap:butt;stroke-linejoin:round;stroke-opacity:1;stroke-miterlimit:4;stroke-dasharray:none;fill-opacity:1"
       d="m 90.90821,88.454896 -7.898746,7.78796 -4.504026,-4.755415 10.460577,-3.850309 z"
       id="path6863" />
    <path
       style="fill:none;stroke:#000000;stroke-width:3;stroke-linecap:butt;stroke-linejoin:miter;stroke-opacity:1;stroke-miterlimit:4;stroke-dasharray:none"
       d="m 128.4778,116.81815 -25.48124,7.52361"
       id="path7113" />
    <path
       style="fill:none;stroke:#000000;stroke-width:3;stroke-linecap:round;stroke-linejoin:miter;stroke-miterlimit:4;stroke-dasharray:none;stroke-opacity:0.4"
       d="m 100.26669,89.024224 0.70526,5.877174 0.94035,5.171912 2.35086,7.99296 2.93859,8.81576"
       id="path8149" />
    <path
       style="fill:none;stroke:#000000;stroke-width:3;stroke-linecap:round;stroke-linejoin:miter;stroke-miterlimit:4;stroke-dasharray:none;stroke-opacity:0.4"
       d="m 113.60537,87.070856 0.8228,4.34911 0.94036,5.17191 2.35086,7.992954 2.93859,8.81576"
       id="path8149-0"
       sodipodi:nodetypes="ccccc" />
    <path
       style="fill:none;stroke:#000000;stroke-width:3;stroke-linecap:round;stroke-linejoin:miter;stroke-miterlimit:4;stroke-dasharray:none;stroke-opacity:0.4"
       d="m 107.11615,88.157605 0.8228,6.935065 1.41052,6.46489 3.05613,10.22628"
       id="path8522" />
    <path
       style="fill:#989898;stroke:#000000;stroke-width:3;stroke-linecap:butt;stroke-linejoin:round;stroke-opacity:1;stroke-miterlimit:4;stroke-dasharray:none;fill-opacity:1"
       d="m 174.96752,83.850286 5.93888,-0.06525 0.5196,-0.216498 0.60619,-0.3897 0.0866,-0.303098 -0.2165,-0.692796 -0.51959,-1.255694 -0.2598,-1.169093 v -0.909294 l 0.2598,-1.385593 0.77939,-2.684585 -4.22009,-0.0024 -1.69433,0.94129 -1.65667,2.673273 -0.33886,1.656673 0.0753,1.543719 0.30121,1.694326 z"
       id="path8736" />
    <path
       style="fill:#383600;fill-opacity:1;stroke:#000000;stroke-width:3.19036;stroke-linecap:butt;stroke-linejoin:round;stroke-miterlimit:4;stroke-dasharray:none;stroke-opacity:1"
       d="m 88.92992,64.648301 1.019554,-6.02852 0.906273,-0.861218 22.883363,-0.09569 0.90628,0.956908 -0.90628,6.219904 -0.67969,1.052598 L 89.49634,65.7009 Z"
       id="path9228" />
    <path
       style="fill:#373737;stroke:#000000;stroke-width:3;stroke-linecap:butt;stroke-linejoin:round;stroke-opacity:1;stroke-miterlimit:4;stroke-dasharray:none;fill-opacity:1"
       d="m 224.70539,73.006603 8.59166,-0.0779 0.374,-4.787114 0.14959,-2.24396 v -2.543157 l -0.52359,-4.113927 -0.1496,-1.047181 -1.27157,0.0748 -8.15306,-3.141544 -51.46148,0.523592 0.0329,8.583552 0.26356,0.978945 1.24251,1.995538 1.80728,1.430763 0.64007,0.188259 0.64008,0.03765 48.45772,-0.338865 z"
       id="path9904" />
    <rect
       style="fill:#2d2d2d;fill-opacity:0.4;fill-rule:evenodd;stroke:#000000;stroke-width:4;stroke-linecap:round;stroke-linejoin:round;stroke-miterlimit:4;stroke-dasharray:none;stroke-opacity:1;paint-order:stroke fill markers"
       id="rect10628"
       width="10.16761"
       height="1.3909603"
       x="191.73271"
       y="59.407131" />
    <rect
       style="fill:#2d2d2d;fill-opacity:0.4;fill-rule:evenodd;stroke:#000000;stroke-width:4;stroke-linecap:round;stroke-linejoin:round;stroke-miterlimit:4;stroke-dasharray:none;stroke-opacity:1;paint-order:stroke fill markers"
       id="rect10628-7"
       width="10.16761"
       height="1.3909603"
       x="206.90846"
       y="59.388332" />
    <path
       style="fill:#777777;stroke:#000000;stroke-width:3;stroke-linecap:butt;stroke-linejoin:round;stroke-opacity:1;stroke-miterlimit:4;stroke-dasharray:none;fill-opacity:1"
       d="m 233.14745,58.193362 5.6818,0.0254 -0.0945,-1.701196 -0.47255,-0.567066 -2.45729,-1.606687 -1.60668,-0.661578 -6.52126,-2.268262 -4.15848,-1.89022 -5.19811,-3.213373 -4.72554,-3.780438 -3.87495,-3.780441 -0.28354,-0.756086 -8.97854,0.189021 19.18573,13.704091 0.18902,0.472556 0.0945,0.94511 -0.18902,1.701197 3.98479,0.121229 8.15306,3.141544 z"
       id="path10937" />
    <path
       style="fill:#000000;fill-opacity:0.4;stroke:#000000;stroke-width:0;stroke-linecap:butt;stroke-linejoin:miter;stroke-miterlimit:4;stroke-dasharray:none;stroke-opacity:1"
       d="m 224.70539,73.006603 8.59166,-0.0779 0.50281,-8.697549 -61.50561,0.0026 3.95341,4.593506 49.0978,-0.301215 z"
       id="path11895"
       sodipodi:nodetypes="ccccccc" />
    <path
       style="fill:#2f2f2f;stroke:#000000;stroke-width:3;stroke-linecap:butt;stroke-linejoin:round;stroke-opacity:1;stroke-miterlimit:4;stroke-dasharray:none;fill-opacity:1"
       d="m 238.73475,56.517566 18.23539,-0.03255 0.14671,6.822218 3.22772,0.07335 -0.0734,4.768218 h -26.40858 l -0.042,-2.251178 -0.0208,-1.666473 -0.65241,-6.037792 5.6818,0.0254 z"
       id="path12163" />
    <rect
       style="fill:#000000;fill-opacity:0.4;fill-rule:evenodd;stroke:#000000;stroke-width:0;stroke-linecap:round;stroke-linejoin:round;stroke-miterlimit:4;stroke-dasharray:none;stroke-opacity:1;paint-order:stroke fill markers"
       id="rect12418"
       width="23.759613"
       height="3.6911254"
       x="233.79979"
       y="60.540028" />
    <path
       style="fill:#7e7e7e;stroke:#000000;stroke-width:3;stroke-linecap:butt;stroke-linejoin:miter;stroke-opacity:1;stroke-miterlimit:4;stroke-dasharray:none;fill-opacity:1"
       d="m 233.29705,72.928701 7.27556,0.17544 h 0.47509 l 0.4157,-0.118771 0.4157,-0.237543 0.29693,-0.296931 0.35632,-0.356315 0.17815,-0.59386 0.23755,-3.206842 -9.08546,-0.145077 z"
       id="path12644" />
    <path
       style="fill:#777777;stroke:#000000;stroke-width:3;stroke-linecap:butt;stroke-linejoin:round;stroke-opacity:1;stroke-miterlimit:4;stroke-dasharray:none;fill-opacity:1"
       d="m 171.0894,51.055674 -1.02582,-2.900058 -0.95636,-1.350158 -1.6877,-1.912723 -2.64406,-1.800209 -2.81283,-1.575184 -4.61303,-2.531547 16.20189,-0.281283 -0.90011,0.618823 -0.22502,0.393795 -0.0563,0.450054 0.16877,0.843849 0.39379,0.675079 1.35016,2.194004 1.06887,1.518928 0.84385,1.46267 1.01262,1.631439 0.78759,1.912723 0.7876,1.856467 0.95636,3.262882 -7.47837,0.124986 -0.0424,-2.862561 -0.0753,-0.564774 -0.33887,-0.602428 z"
       id="path13633" />
    <path
       style="fill:#313131;stroke:#000000;stroke-width:3;stroke-linecap:butt;stroke-linejoin:round;stroke-opacity:1;stroke-miterlimit:4;stroke-dasharray:none;fill-opacity:1"
       d="M 188.56109,54.800145 V 52.10063 l -0.0675,-0.742365 -0.47241,-1.01232 -0.40493,-0.337439 -0.87734,-0.337439 h -1.41725 l -2.49705,0.337439 -4.58917,0.877343 0.54786,1.376494 0.95636,3.262882 8.82142,-0.0502 z"
       id="path13941" />
    <path
       style="fill:#000000;fill-opacity:0.3;stroke:#000000;stroke-width:0;stroke-linecap:butt;stroke-linejoin:miter;stroke-miterlimit:4;stroke-dasharray:none;stroke-opacity:1"
       d="m 25.545293,62.985115 3.352821,-2.794019 2.195298,-1.796153 1.277263,-0.638632 1.875983,-0.159658 47.555304,-0.111596 0.549777,-3.992385 -50.648875,0.537485 -3.483298,1.610685 -2.873845,3.352819 z"
       id="path14994"
       sodipodi:nodetypes="ccccccccccc" />
    <path
       style="fill:#333333;stroke:#000000;stroke-width:3;stroke-linecap:butt;stroke-linejoin:round;stroke-opacity:1;stroke-miterlimit:4;stroke-dasharray:none;fill-opacity:1"
       d="m 209.43635,37.993415 0.0148,-9.167045 -0.36799,-0.613328 -1.34932,-1.103987 -0.49066,-0.184 -1.90131,-0.122666 -0.30667,0.06133 -0.30666,0.245333 -0.12267,0.367995 -0.36799,1.16532 -45.26354,0.490662 -6.50126,-0.858657 -26.80239,0.06133 V 27.72238 l -0.184,-0.306663 -2.08531,-0.06133 -0.368,3.127968 -0.0613,6.133272 0.49066,3.127967 29.13303,-0.306665 4.75384,-0.451131 16.20189,-0.281283 26.90632,-0.522076 z"
       id="path15444" />
    <path
       style="fill:#000000;stroke:#000000;stroke-width:0;stroke-linecap:butt;stroke-linejoin:miter;stroke-opacity:1;stroke-miterlimit:4;stroke-dasharray:none;fill-opacity:0.30000001"
       d="m 161.71927,38.942906 0.14161,-9.912738 35.26104,-0.424834 v 9.912742 z"
       id="path15776" />
    <path
       style="fill:#5f6c40;stroke:#000000;stroke-width:3;stroke-linecap:butt;stroke-linejoin:round;stroke-opacity:1;stroke-miterlimit:4;stroke-dasharray:none;fill-opacity:1"
       d="m 233.29705,72.928701 -1.76802,2.140662 -0.26066,0.521314 -0.0652,0.390985 0.13033,0.651645 1.10779,3.127891 0.39099,2.150425 0.39099,3.58404 -0.13033,3.909862 -0.58648,3.975026 -0.65165,4.30085 -0.52131,6.777099 -0.0652,4.88732 0.26066,0.97747 0.97747,1.10779 1.62911,0.65165 2.47624,0.39098 3.38855,0.26066 2.60658,0.0652 1.8246,-0.26066 1.23812,-0.39099 0.78197,-0.39098 0.45615,-0.52132 0.13033,-1.04263 -0.39098,-0.97746 -0.52132,-1.1078 -0.52131,-1.36845 -0.13033,-1.43362 -0.0652,-2.08526 0.13033,-6.646764 0.26066,-3.714369 -0.0652,-2.932398 -0.32583,-3.779533 -0.32582,-4.366014 -0.19549,-2.99756 0.0652,-1.694275 0.26066,-1.042628 0.19549,-1.629111 -0.13033,-0.586478 -0.52131,-0.390988 -2.8783,-0.692425 -0.8314,0.356314 z"
       id="path16103" />
    <path
       style="fill:#000000;stroke:#000000;stroke-width:0;stroke-linecap:butt;stroke-linejoin:miter;stroke-opacity:1;stroke-miterlimit:4;stroke-dasharray:none;fill-opacity:0.30000001"
       d="m 241.0476,73.10417 -0.46364,3.338058 0.10721,1.07212 0.8577,13.079878 v 1.822607 l -0.53607,13.723147 0.32164,1.82261 0.21443,0.85769 -5.2534,-0.21442 -1.92982,-0.42885 -3.21636,-1.28654 0.37967,3.43282 7.44682,2.67827 7.47582,-1.24462 0.58648,-1.56395 -1.43361,-3.45371 -0.84717,-33.298999 z"
       id="path16780" />
    <path
       style="fill:#3a3a3a;stroke:#000000;stroke-width:3;stroke-linecap:butt;stroke-linejoin:round;stroke-opacity:1;stroke-miterlimit:4;stroke-dasharray:none;fill-opacity:1"
       d="m 256.97014,56.485014 8.47028,0.05721 v 6.930273 l -5.09585,-0.09191 -3.22772,-0.07335 z"
       id="path17027" />
    <path
       style="fill:#292929;stroke:#000000;stroke-width:3;stroke-linecap:butt;stroke-linejoin:round;stroke-opacity:1;stroke-miterlimit:4;stroke-dasharray:none;fill-opacity:1"
       d="m 265.44042,63.472496 26.22545,0.133096 v -6.842929 l -26.22545,-0.220441 z"
       id="path17326" />
    <path
       style="fill:#3e3e3e;stroke:#000000;stroke-width:3;stroke-linecap:butt;stroke-linejoin:round;stroke-opacity:1;stroke-miterlimit:4;stroke-dasharray:none;fill-opacity:1"
       d="m 291.66587,56.762663 3.81407,-1.009613 0.89744,-0.112178 12.11535,0.897432 1.00963,-1.233969 1.90703,0.224356 0.67308,1.570508 0.56089,2.131407 v 1.570508 l -0.33653,1.907046 -0.89744,2.243581 -1.90703,0.112181 -1.34618,-1.009613 -12.67624,1.009613 -3.81407,-1.45833 z"
       id="path17526" />
    <path
       style="fill:#000000;stroke:#000000;stroke-width:0;stroke-linecap:butt;stroke-linejoin:miter;stroke-opacity:1;stroke-miterlimit:4;stroke-dasharray:none;fill-opacity:0.30000001"
       d="m 308.15618,64.054309 0.33655,-7.516005 1.00963,-1.233969 1.90703,0.224356 v 9.42305 z"
       id="path17811" />
  </g>
</svg>
